0, 0, Header, 1, 3, 192
1, 0, Start_track
1, 0, Title_t, "Ampico player piano roll #57525 Prelude G minor c and p/b Rachmaninoff "
1, 0, Copyright_t, "Scanned by Terry Smythe, Winnipeg, Canada"
1, 0, Text_t, "Roll expression tracks converted to MIDI velocities\012"
1, 0, Time_signature, 4, 2, 24, 8
1, 0, Key_signature, 0, "major"
1, 0, Tempo, 352941
1, 0, Marker_t, "Standard MIDI:LPI 235:Tempo  95: 03-28-2003"
1, 0, End_track
2, 0, Start_track
2, 0, Title_t, ""
2, 1013, Note_on_c, 0, 31, 76
2, 1015, Note_on_c, 0, 43, 75
2, 1017, Note_on_c, 0, 55, 75
2, 1055, Note_on_c, 0, 31, 0
2, 1056, Note_on_c, 0, 43, 0
2, 1057, Note_on_c, 0, 55, 0
2, 1163, Control_c, 0, 67, 127
2, 1193, Control_c, 0, 67, 0
2, 1223, Control_c, 0, 67, 127
2, 1253, Control_c, 0, 67, 0
2, 1283, Control_c, 0, 67, 127
2, 1315, Control_c, 0, 67, 0
2, 1327, Note_on_c, 0, 50, 59
2, 1327, Note_on_c, 0, 55, 65
2, 1328, Note_on_c, 0, 58, 65
2, 1328, Note_on_c, 0, 62, 64
2, 1348, Note_on_c, 0, 50, 0
2, 1348, Control_c, 0, 67, 127
2, 1349, Note_on_c, 0, 55, 0
2, 1350, Note_on_c, 0, 58, 0
2, 1350, Note_on_c, 0, 62, 0
2, 1380, Control_c, 0, 67, 0
2, 1401, Note_on_c, 0, 50, 61
2, 1401, Note_on_c, 0, 55, 66
2, 1402, Note_on_c, 0, 58, 65
2, 1403, Note_on_c, 0, 62, 59
2, 1411, Control_c, 0, 67, 127
2, 1432, Note_on_c, 0, 55, 0
2, 1432, Note_on_c, 0, 50, 0
2, 1433, Note_on_c, 0, 58, 0
2, 1433, Note_on_c, 0, 62, 0
2, 1440, Control_c, 0, 67, 0
2, 1470, Control_c, 0, 67, 127
2, 1481, Note_on_c, 0, 50, 65
2, 1481, Note_on_c, 0, 55, 69
2, 1482, Note_on_c, 0, 58, 68
2, 1482, Note_on_c, 0, 62, 67
2, 1511, Control_c, 0, 67, 0
2, 1512, Note_on_c, 0, 62, 0
2, 1512, Note_on_c, 0, 50, 0
2, 1512, Note_on_c, 0, 55, 0
2, 1512, Note_on_c, 0, 58, 0
2, 1699, Note_on_c, 0, 34, 65
2, 1699, Note_on_c, 0, 46, 65
2, 1728, Note_on_c, 0, 34, 0
2, 1729, Note_on_c, 0, 46, 0
2, 1886, Note_on_c, 0, 38, 72
2, 1888, Note_on_c, 0, 50, 66
2, 1935, Note_on_c, 0, 38, 0
2, 1937, Note_on_c, 0, 50, 0
2, 1956, Control_c, 0, 67, 127
2, 2045, Control_c, 0, 67, 0
2, 2107, Note_on_c, 0, 50, 60
2, 2108, Note_on_c, 0, 55, 63
2, 2108, Note_on_c, 0, 62, 59
2, 2109, Note_on_c, 0, 58, 66
2, 2137, Note_on_c, 0, 55, 0
2, 2137, Note_on_c, 0, 50, 0
2, 2138, Note_on_c, 0, 58, 0
2, 2139, Note_on_c, 0, 62, 0
2, 2297, Note_on_c, 0, 34, 59
2, 2298, Note_on_c, 0, 46, 65
2, 2301, Note_on_c, 0, 58, 61
2, 2328, Note_on_c, 0, 46, 0
2, 2328, Note_on_c, 0, 34, 0
2, 2331, Note_on_c, 0, 58, 0
2, 2490, Note_on_c, 0, 50, 43
2, 2490, Note_on_c, 0, 55, 48
2, 2491, Note_on_c, 0, 58, 48
2, 2491, Note_on_c, 0, 62, 44
2, 2520, Note_on_c, 0, 58, 0
2, 2520, Note_on_c, 0, 50, 0
2, 2520, Note_on_c, 0, 55, 0
2, 2521, Note_on_c, 0, 62, 0
2, 2680, Note_on_c, 0, 43, 74
2, 2681, Note_on_c, 0, 55, 74
2, 2687, Note_on_c, 0, 31, 76
2, 2709, Note_on_c, 0, 43, 0
2, 2711, Note_on_c, 0, 55, 0
2, 2717, Note_on_c, 0, 31, 0
2, 2797, Control_c, 0, 67, 127
2, 2827, Control_c, 0, 67, 0
2, 2857, Control_c, 0, 67, 127
2, 2887, Control_c, 0, 67, 0
2, 2908, Note_on_c, 0, 50, 60
2, 2908, Note_on_c, 0, 55, 63
2, 2908, Note_on_c, 0, 58, 59
2, 2909, Note_on_c, 0, 62, 62
2, 2916, Control_c, 0, 67, 127
2, 2928, Note_on_c, 0, 55, 0
2, 2929, Note_on_c, 0, 50, 0
2, 2929, Note_on_c, 0, 58, 0
2, 2930, Note_on_c, 0, 62, 0
2, 2977, Note_on_c, 0, 50, 61
2, 2977, Note_on_c, 0, 55, 66
2, 2979, Note_on_c, 0, 58, 64
2, 2979, Note_on_c, 0, 62, 64
2, 2998, Control_c, 0, 67, 0
2, 3000, Note_on_c, 0, 58, 0
2, 3000, Note_on_c, 0, 50, 0
2, 3000, Note_on_c, 0, 55, 0
2, 3001, Note_on_c, 0, 62, 0
2, 3057, Note_on_c, 0, 50, 72
2, 3057, Note_on_c, 0, 55, 71
2, 3058, Note_on_c, 0, 58, 65
2, 3058, Note_on_c, 0, 62, 69
2, 3088, Note_on_c, 0, 58, 0
2, 3088, Note_on_c, 0, 55, 0
2, 3089, Note_on_c, 0, 62, 0
2, 3092, Note_on_c, 0, 50, 0
2, 3262, Note_on_c, 0, 33, 63
2, 3263, Note_on_c, 0, 45, 62
2, 3292, Note_on_c, 0, 33, 0
2, 3293, Note_on_c, 0, 45, 0
2, 3320, Note_on_c, 0, 34, 61
2, 3320, Note_on_c, 0, 46, 59
2, 3350, Note_on_c, 0, 46, 0
2, 3350, Note_on_c, 0, 34, 0
2, 3384, Note_on_c, 0, 38, 77
2, 3386, Note_on_c, 0, 50, 80
2, 3417, Note_on_c, 0, 38, 0
2, 3418, Note_on_c, 0, 50, 0
2, 3444, Control_c, 0, 67, 127
2, 3533, Control_c, 0, 67, 0
2, 3578, Note_on_c, 0, 50, 60
2, 3579, Note_on_c, 0, 55, 62
2, 3579, Note_on_c, 0, 58, 61
2, 3579, Note_on_c, 0, 62, 64
2, 3609, Note_on_c, 0, 55, 0
2, 3609, Note_on_c, 0, 50, 0
2, 3610, Note_on_c, 0, 58, 0
2, 3611, Note_on_c, 0, 62, 0
2, 3774, Note_on_c, 0, 34, 75
2, 3775, Note_on_c, 0, 46, 74
2, 3776, Note_on_c, 0, 58, 71
2, 3814, Note_on_c, 0, 46, 0
2, 3814, Note_on_c, 0, 34, 0
2, 3816, Note_on_c, 0, 58, 0
2, 3937, Note_on_c, 0, 50, 45
2, 3938, Note_on_c, 0, 55, 47
2, 3938, Note_on_c, 0, 58, 41
2, 3938, Note_on_c, 0, 62, 42
2, 3967, Note_on_c, 0, 55, 0
2, 3967, Note_on_c, 0, 50, 0
2, 3968, Note_on_c, 0, 58, 0
2, 3968, Note_on_c, 0, 62, 0
2, 4024, Control_c, 0, 64, 127
2, 4112, Note_on_c, 0, 31, 71
2, 4113, Note_on_c, 0, 43, 75
2, 4114, Note_on_c, 0, 55, 76
2, 4115, Control_c, 0, 64, 0
2, 4143, Note_on_c, 0, 31, 0
2, 4144, Note_on_c, 0, 55, 0
2, 4144, Note_on_c, 0, 43, 0
2, 4314, Control_c, 0, 64, 127
2, 4317, Note_on_c, 0, 50, 54
2, 4318, Note_on_c, 0, 55, 58
2, 4318, Note_on_c, 0, 58, 56
2, 4318, Note_on_c, 0, 62, 55
2, 4338, Note_on_c, 0, 55, 0
2, 4338, Note_on_c, 0, 50, 0
2, 4339, Note_on_c, 0, 58, 0
2, 4339, Note_on_c, 0, 62, 0
2, 4385, Control_c, 0, 64, 0
2, 4387, Note_on_c, 0, 50, 53
2, 4387, Note_on_c, 0, 55, 59
2, 4387, Note_on_c, 0, 62, 56
2, 4388, Note_on_c, 0, 58, 56
2, 4408, Note_on_c, 0, 58, 0
2, 4408, Note_on_c, 0, 50, 0
2, 4408, Note_on_c, 0, 55, 0
2, 4408, Note_on_c, 0, 62, 0
2, 4455, Note_on_c, 0, 50, 63
2, 4455, Note_on_c, 0, 55, 60
2, 4456, Note_on_c, 0, 58, 66
2, 4456, Note_on_c, 0, 62, 59
2, 4485, Note_on_c, 0, 58, 0
2, 4485, Note_on_c, 0, 50, 0
2, 4485, Note_on_c, 0, 55, 0
2, 4486, Note_on_c, 0, 62, 0
2, 4649, Note_on_c, 0, 50, 67
2, 4649, Note_on_c, 0, 62, 70
2, 4679, Note_on_c, 0, 50, 0
2, 4680, Note_on_c, 0, 62, 0
2, 4708, Note_on_c, 0, 53, 65
2, 4709, Note_on_c, 0, 65, 67
2, 4739, Note_on_c, 0, 53, 0
2, 4740, Note_on_c, 0, 65, 0
2, 4785, Note_on_c, 0, 43, 78
2, 4786, Note_on_c, 0, 55, 80
2, 4786, Note_on_c, 0, 67, 79
2, 4821, Control_c, 0, 64, 127
2, 4890, Note_on_c, 0, 67, 0
2, 4964, Note_on_c, 0, 50, 57
2, 4964, Note_on_c, 0, 58, 60
2, 4964, Note_on_c, 0, 62, 58
2, 4964, Note_on_c, 0, 67, 63
2, 4965, Note_on_c, 0, 70, 61
2, 4981, Control_c, 0, 64, 0
2, 4983, Note_on_c, 0, 62, 0
2, 4983, Note_on_c, 0, 58, 0
2, 4983, Note_on_c, 0, 50, 0
2, 4984, Note_on_c, 0, 67, 0
2, 4984, Note_on_c, 0, 70, 0
2, 5040, Note_on_c, 0, 50, 61
2, 5040, Note_on_c, 0, 58, 59
2, 5040, Note_on_c, 0, 62, 63
2, 5040, Note_on_c, 0, 67, 56
2, 5041, Note_on_c, 0, 70, 63
2, 5062, Note_on_c, 0, 67, 0
2, 5062, Note_on_c, 0, 58, 0
2, 5062, Note_on_c, 0, 50, 0
2, 5062, Note_on_c, 0, 62, 0
2, 5063, Note_on_c, 0, 70, 0
2, 5117, Note_on_c, 0, 50, 67
2, 5117, Note_on_c, 0, 58, 61
2, 5117, Note_on_c, 0, 67, 60
2, 5118, Note_on_c, 0, 62, 62
2, 5118, Note_on_c, 0, 70, 64
2, 5137, Note_on_c, 0, 43, 0
2, 5137, Note_on_c, 0, 55, 0
2, 5149, Note_on_c, 0, 50, 0
2, 5149, Note_on_c, 0, 67, 0
2, 5149, Note_on_c, 0, 58, 0
2, 5149, Note_on_c, 0, 70, 0
2, 5149, Note_on_c, 0, 62, 0
2, 5301, Note_on_c, 0, 46, 66
2, 5302, Note_on_c, 0, 58, 61
2, 5330, Note_on_c, 0, 46, 0
2, 5331, Note_on_c, 0, 58, 0
2, 5368, Note_on_c, 0, 50, 64
2, 5368, Note_on_c, 0, 62, 60
2, 5398, Note_on_c, 0, 62, 0
2, 5398, Note_on_c, 0, 50, 0
2, 5424, Note_on_c, 0, 41, 77
2, 5424, Note_on_c, 0, 53, 75
2, 5425, Note_on_c, 0, 65, 80
2, 5565, Control_c, 0, 64, 127
2, 5614, Note_on_c, 0, 50, 62
2, 5614, Note_on_c, 0, 58, 59
2, 5614, Note_on_c, 0, 62, 62
2, 5614, Note_on_c, 0, 70, 61
2, 5615, Note_on_c, 0, 74, 63
2, 5634, Note_on_c, 0, 62, 0
2, 5634, Note_on_c, 0, 58, 0
2, 5635, Note_on_c, 0, 50, 0
2, 5635, Note_on_c, 0, 70, 0
2, 5636, Note_on_c, 0, 74, 0
2, 5662, Control_c, 0, 64, 0
2, 5684, Note_on_c, 0, 50, 62
2, 5684, Note_on_c, 0, 58, 59
2, 5684, Note_on_c, 0, 62, 62
2, 5685, Note_on_c, 0, 70, 60
2, 5685, Note_on_c, 0, 74, 65
2, 5705, Note_on_c, 0, 62, 0
2, 5705, Note_on_c, 0, 50, 0
2, 5705, Note_on_c, 0, 58, 0
2, 5706, Note_on_c, 0, 74, 0
2, 5707, Note_on_c, 0, 70, 0
2, 5764, Note_on_c, 0, 50, 68
2, 5764, Note_on_c, 0, 62, 63
2, 5765, Note_on_c, 0, 58, 68
2, 5765, Note_on_c, 0, 70, 63
2, 5765, Note_on_c, 0, 74, 69
2, 5796, Note_on_c, 0, 58, 0
2, 5796, Note_on_c, 0, 50, 0
2, 5796, Note_on_c, 0, 53, 0
2, 5796, Note_on_c, 0, 41, 0
2, 5796, Note_on_c, 0, 65, 0
2, 5796, Note_on_c, 0, 62, 0
2, 5797, Note_on_c, 0, 74, 0
2, 5797, Note_on_c, 0, 70, 0
2, 5958, Note_on_c, 0, 46, 53
2, 5959, Note_on_c, 0, 58, 58
2, 5990, Note_on_c, 0, 58, 0
2, 5990, Note_on_c, 0, 46, 0
2, 6027, Note_on_c, 0, 50, 54
2, 6027, Note_on_c, 0, 62, 56
2, 6058, Note_on_c, 0, 62, 0
2, 6058, Note_on_c, 0, 50, 0
2, 6087, Note_on_c, 0, 39, 74
2, 6087, Note_on_c, 0, 51, 78
2, 6088, Note_on_c, 0, 63, 76
2, 6271, Note_on_c, 0, 67, 54
2, 6272, Note_on_c, 0, 55, 59
2, 6272, Note_on_c, 0, 57, 59
2, 6272, Note_on_c, 0, 60, 54
2, 6273, Note_on_c, 0, 72, 57
2, 6273, Note_on_c, 0, 79, 57
2, 6282, Control_c, 0, 64, 127
2, 6292, Note_on_c, 0, 60, 0
2, 6292, Note_on_c, 0, 67, 0
2, 6292, Note_on_c, 0, 57, 0
2, 6292, Note_on_c, 0, 55, 0
2, 6293, Note_on_c, 0, 72, 0
2, 6293, Note_on_c, 0, 79, 0
2, 6341, Control_c, 0, 64, 0
2, 6347, Note_on_c, 0, 60, 56
2, 6347, Note_on_c, 0, 67, 56
2, 6348, Note_on_c, 0, 55, 57
2, 6348, Note_on_c, 0, 57, 61
2, 6349, Note_on_c, 0, 72, 54
2, 6349, Note_on_c, 0, 79, 59
2, 6367, Note_on_c, 0, 60, 0
2, 6368, Note_on_c, 0, 67, 0
2, 6368, Note_on_c, 0, 57, 0
2, 6368, Note_on_c, 0, 55, 0
2, 6369, Note_on_c, 0, 72, 0
2, 6369, Note_on_c, 0, 79, 0
2, 6418, Note_on_c, 0, 60, 63
2, 6418, Note_on_c, 0, 67, 62
2, 6419, Note_on_c, 0, 55, 66
2, 6419, Note_on_c, 0, 57, 60
2, 6420, Note_on_c, 0, 72, 62
2, 6420, Note_on_c, 0, 79, 62
2, 6448, Note_on_c, 0, 60, 0
2, 6449, Note_on_c, 0, 67, 0
2, 6449, Note_on_c, 0, 51, 0
2, 6449, Note_on_c, 0, 55, 0
2, 6449, Note_on_c, 0, 39, 0
2, 6449, Note_on_c, 0, 57, 0
2, 6450, Note_on_c, 0, 79, 0
2, 6450, Note_on_c, 0, 72, 0
2, 6450, Note_on_c, 0, 63, 0
2, 6605, Note_on_c, 0, 43, 58
2, 6605, Note_on_c, 0, 55, 53
2, 6634, Note_on_c, 0, 55, 0
2, 6635, Note_on_c, 0, 43, 0
2, 6672, Note_on_c, 0, 45, 56
2, 6672, Note_on_c, 0, 57, 54
2, 6701, Note_on_c, 0, 57, 0
2, 6701, Note_on_c, 0, 45, 0
2, 6747, Note_on_c, 0, 38, 77
2, 6747, Note_on_c, 0, 62, 71
2, 6748, Note_on_c, 0, 50, 75
2, 6768, Control_c, 0, 64, 127
2, 6845, Note_on_c, 0, 62, 0
2, 6922, Note_on_c, 0, 62, 61
2, 6922, Note_on_c, 0, 66, 57
2, 6923, Note_on_c, 0, 54, 62
2, 6923, Note_on_c, 0, 57, 61
2, 6923, Note_on_c, 0, 74, 60
2, 6923, Note_on_c, 0, 78, 62
2, 6942, Note_on_c, 0, 57, 0
2, 6942, Note_on_c, 0, 62, 0
2, 6942, Note_on_c, 0, 54, 0
2, 6943, Note_on_c, 0, 66, 0
2, 6943, Note_on_c, 0, 74, 0
2, 6943, Control_c, 0, 64, 0
2, 6944, Note_on_c, 0, 78, 0
2, 6988, Note_on_c, 0, 57, 57
2, 6988, Note_on_c, 0, 62, 54
2, 6988, Note_on_c, 0, 66, 55
2, 6988, Note_on_c, 0, 74, 55
2, 6988, Note_on_c, 0, 78, 58
2, 6989, Note_on_c, 0, 54, 57
2, 7008, Note_on_c, 0, 54, 0
2, 7008, Note_on_c, 0, 66, 0
2, 7008, Note_on_c, 0, 62, 0
2, 7008, Note_on_c, 0, 57, 0
2, 7009, Note_on_c, 0, 74, 0
2, 7009, Note_on_c, 0, 78, 0
2, 7065, Note_on_c, 0, 62, 67
2, 7066, Note_on_c, 0, 54, 62
2, 7066, Note_on_c, 0, 57, 62
2, 7066, Note_on_c, 0, 66, 66
2, 7066, Note_on_c, 0, 74, 61
2, 7066, Note_on_c, 0, 78, 63
2, 7094, Note_on_c, 0, 54, 0
2, 7094, Note_on_c, 0, 38, 0
2, 7095, Note_on_c, 0, 50, 0
2, 7095, Note_on_c, 0, 62, 0
2, 7095, Note_on_c, 0, 57, 0
2, 7095, Note_on_c, 0, 66, 0
2, 7096, Note_on_c, 0, 78, 0
2, 7096, Note_on_c, 0, 74, 0
2, 7278, Note_on_c, 0, 30, 69
2, 7278, Note_on_c, 0, 42, 67
2, 7278, Note_on_c, 0, 54, 71
2, 7307, Note_on_c, 0, 42, 0
2, 7308, Note_on_c, 0, 54, 0
2, 7308, Note_on_c, 0, 30, 0
2, 7445, Control_c, 0, 64, 127
2, 7492, Note_on_c, 0, 46, 79
2, 7493, Note_on_c, 0, 34, 77
2, 7493, Note_on_c, 0, 58, 82
2, 7505, Control_c, 0, 64, 0
2, 7524, Note_on_c, 0, 46, 0
2, 7525, Note_on_c, 0, 58, 0
2, 7525, Note_on_c, 0, 34, 0
2, 7692, Note_on_c, 0, 62, 56
2, 7692, Note_on_c, 0, 64, 59
2, 7693, Note_on_c, 0, 50, 58
2, 7693, Note_on_c, 0, 52, 56
2, 7693, Note_on_c, 0, 55, 53
2, 7721, Note_on_c, 0, 55, 0
2, 7721, Note_on_c, 0, 62, 0
2, 7721, Note_on_c, 0, 64, 0
2, 7722, Note_on_c, 0, 50, 0
2, 7722, Note_on_c, 0, 52, 0
2, 7847, Control_c, 0, 64, 127
2, 7898, Note_on_c, 0, 31, 72
2, 7898, Note_on_c, 0, 43, 75
2, 7898, Note_on_c, 0, 55, 78
2, 7920, Control_c, 0, 64, 0
2, 7929, Note_on_c, 0, 55, 0
2, 7929, Note_on_c, 0, 43, 0
2, 7930, Note_on_c, 0, 31, 0
2, 8093, Note_on_c, 0, 64, 60
2, 8094, Note_on_c, 0, 50, 58
2, 8094, Note_on_c, 0, 55, 57
2, 8094, Note_on_c, 0, 58, 60
2, 8094, Note_on_c, 0, 62, 57
2, 8095, Note_on_c, 0, 52, 54
2, 8123, Note_on_c, 0, 62, 0
2, 8123, Note_on_c, 0, 64, 0
2, 8124, Note_on_c, 0, 58, 0
2, 8124, Note_on_c, 0, 50, 0
2, 8124, Note_on_c, 0, 52, 0
2, 8124, Note_on_c, 0, 55, 0
2, 8237, Control_c, 0, 64, 127
2, 8287, Note_on_c, 0, 38, 81
2, 8288, Note_on_c, 0, 26, 82
2, 8288, Note_on_c, 0, 50, 80
2, 8319, Control_c, 0, 64, 0
2, 8410, Control_c, 0, 64, 127
2, 8469, Note_on_c, 0, 45, 61
2, 8469, Note_on_c, 0, 54, 58
2, 8469, Note_on_c, 0, 57, 57
2, 8469, Note_on_c, 0, 62, 64
2, 8469, Note_on_c, 0, 66, 57
2, 8470, Note_on_c, 0, 74, 62
2, 8489, Note_on_c, 0, 62, 0
2, 8489, Note_on_c, 0, 54, 0
2, 8490, Note_on_c, 0, 74, 0
2, 8490, Note_on_c, 0, 57, 0
2, 8490, Note_on_c, 0, 66, 0
2, 8490, Note_on_c, 0, 45, 0
2, 8508, Control_c, 0, 64, 0
2, 8547, Note_on_c, 0, 45, 64
2, 8547, Note_on_c, 0, 54, 64
2, 8547, Note_on_c, 0, 57, 61
2, 8547, Note_on_c, 0, 62, 59
2, 8547, Note_on_c, 0, 66, 60
2, 8547, Note_on_c, 0, 74, 61
2, 8568, Note_on_c, 0, 66, 0
2, 8568, Note_on_c, 0, 62, 0
2, 8568, Note_on_c, 0, 45, 0
2, 8568, Note_on_c, 0, 54, 0
2, 8568, Note_on_c, 0, 57, 0
2, 8569, Note_on_c, 0, 74, 0
2, 8611, Note_on_c, 0, 38, 0
2, 8611, Note_on_c, 0, 50, 0
2, 8612, Note_on_c, 0, 26, 0
2, 8612, Note_on_c, 0, 57, 64
2, 8621, Note_on_c, 0, 66, 85
2, 8622, Note_on_c, 0, 45, 66
2, 8622, Note_on_c, 0, 54, 70
2, 8622, Note_on_c, 0, 62, 71
2, 8622, Note_on_c, 0, 74, 88
2, 8655, Note_on_c, 0, 62, 0
2, 8655, Note_on_c, 0, 54, 0
2, 8655, Note_on_c, 0, 45, 0
2, 8655, Note_on_c, 0, 57, 0
2, 8655, Note_on_c, 0, 66, 0
2, 8656, Note_on_c, 0, 74, 0
2, 8815, Note_on_c, 0, 30, 68
2, 8815, Note_on_c, 0, 42, 67
2, 8815, Note_on_c, 0, 54, 65
2, 8846, Note_on_c, 0, 54, 0
2, 8846, Note_on_c, 0, 42, 0
2, 8846, Note_on_c, 0, 30, 0
2, 8891, Control_c, 0, 64, 127
2, 8891, Note_on_c, 0, 33, 61
2, 8892, Note_on_c, 0, 45, 79
2, 8892, Note_on_c, 0, 57, 79
2, 8943, Note_on_c, 0, 57, 0
2, 8943, Note_on_c, 0, 45, 0
2, 8944, Note_on_c, 0, 33, 0
2, 8952, Control_c, 0, 64, 0
2, 8980, Note_on_c, 0, 46, 76
2, 8981, Note_on_c, 0, 34, 78
2, 8981, Note_on_c, 0, 58, 76
2, 9012, Note_on_c, 0, 46, 0
2, 9013, Note_on_c, 0, 58, 0
2, 9013, Note_on_c, 0, 34, 0
2, 9175, Note_on_c, 0, 62, 57
2, 9184, Note_on_c, 0, 64, 55
2, 9185, Note_on_c, 0, 55, 57
2, 9186, Note_on_c, 0, 50, 56
2, 9186, Note_on_c, 0, 52, 57
2, 9205, Note_on_c, 0, 62, 0
2, 9215, Note_on_c, 0, 64, 0
2, 9215, Note_on_c, 0, 55, 0
2, 9216, Note_on_c, 0, 50, 0
2, 9216, Note_on_c, 0, 52, 0
2, 9303, Control_c, 0, 64, 127
2, 9365, Note_on_c, 0, 31, 66
2, 9365, Note_on_c, 0, 43, 65
2, 9365, Note_on_c, 0, 55, 62
2, 9377, Control_c, 0, 64, 0
2, 9397, Note_on_c, 0, 55, 0
2, 9397, Note_on_c, 0, 43, 0
2, 9398, Note_on_c, 0, 31, 0
2, 9544, Note_on_c, 0, 62, 54
2, 9544, Note_on_c, 0, 64, 58
2, 9545, Note_on_c, 0, 50, 53
2, 9545, Note_on_c, 0, 52, 55
2, 9545, Note_on_c, 0, 55, 58
2, 9545, Note_on_c, 0, 58, 53
2, 9574, Note_on_c, 0, 58, 0
2, 9574, Note_on_c, 0, 64, 0
2, 9574, Note_on_c, 0, 50, 0
2, 9574, Note_on_c, 0, 62, 0
2, 9574, Note_on_c, 0, 55, 0
2, 9574, Note_on_c, 0, 52, 0
2, 9648, Control_c, 0, 64, 127
2, 9718, Note_on_c, 0, 38, 71
2, 9720, Note_on_c, 0, 26, 67
2, 9720, Note_on_c, 0, 50, 68
2, 9769, Control_c, 0, 64, 0
2, 9902, Note_on_c, 0, 45, 58
2, 9902, Note_on_c, 0, 66, 61
2, 9903, Note_on_c, 0, 54, 58
2, 9903, Note_on_c, 0, 57, 60
2, 9903, Note_on_c, 0, 62, 60
2, 9903, Note_on_c, 0, 74, 58
2, 9923, Note_on_c, 0, 62, 0
2, 9923, Note_on_c, 0, 57, 0
2, 9923, Note_on_c, 0, 45, 0
2, 9923, Note_on_c, 0, 66, 0
2, 9923, Note_on_c, 0, 54, 0
2, 9924, Note_on_c, 0, 74, 0
2, 9971, Note_on_c, 0, 45, 59
2, 9971, Note_on_c, 0, 54, 63
2, 9971, Note_on_c, 0, 57, 58
2, 9971, Note_on_c, 0, 62, 61
2, 9971, Note_on_c, 0, 66, 63
2, 9971, Note_on_c, 0, 74, 58
2, 9992, Note_on_c, 0, 57, 0
2, 9992, Note_on_c, 0, 45, 0
2, 9992, Note_on_c, 0, 54, 0
2, 9993, Note_on_c, 0, 66, 0
2, 9993, Note_on_c, 0, 74, 0
2, 9993, Note_on_c, 0, 62, 0
2, 10041, Note_on_c, 0, 38, 0
2, 10041, Note_on_c, 0, 50, 0
2, 10042, Note_on_c, 0, 26, 0
2, 10051, Note_on_c, 0, 45, 67
2, 10051, Note_on_c, 0, 54, 67
2, 10051, Note_on_c, 0, 57, 61
2, 10051, Note_on_c, 0, 62, 65
2, 10051, Note_on_c, 0, 66, 64
2, 10051, Note_on_c, 0, 74, 61
2, 10081, Note_on_c, 0, 66, 0
2, 10081, Note_on_c, 0, 62, 0
2, 10081, Note_on_c, 0, 57, 0
2, 10081, Note_on_c, 0, 45, 0
2, 10081, Note_on_c, 0, 54, 0
2, 10082, Note_on_c, 0, 74, 0
2, 10238, Note_on_c, 0, 57, 57
2, 10248, Note_on_c, 0, 50, 57
2, 10248, Note_on_c, 0, 54, 57
2, 10255, Note_on_c, 0, 38, 53
2, 10275, Note_on_c, 0, 54, 0
2, 10275, Note_on_c, 0, 50, 0
2, 10284, Note_on_c, 0, 38, 0
2, 10294, Note_on_c, 0, 57, 0
2, 10309, Note_on_c, 0, 58, 56
2, 10364, Note_on_c, 0, 60, 57
2, 10367, Note_on_c, 0, 58, 0
2, 10372, Note_on_c, 0, 36, 59
2, 10373, Note_on_c, 0, 48, 53
2, 10373, Note_on_c, 0, 51, 56
2, 10373, Note_on_c, 0, 55, 53
2, 10403, Note_on_c, 0, 55, 0
2, 10403, Note_on_c, 0, 36, 0
2, 10403, Note_on_c, 0, 51, 0
2, 10404, Note_on_c, 0, 48, 0
2, 10477, Note_on_c, 0, 60, 0
2, 10540, Note_on_c, 0, 63, 60
2, 10547, Note_on_c, 0, 34, 59
2, 10547, Note_on_c, 0, 46, 57
2, 10547, Note_on_c, 0, 60, 56
2, 10548, Note_on_c, 0, 55, 58
2, 10577, Note_on_c, 0, 55, 0
2, 10577, Note_on_c, 0, 46, 0
2, 10577, Note_on_c, 0, 60, 0
2, 10577, Note_on_c, 0, 34, 0
2, 10586, Note_on_c, 0, 63, 0
2, 10601, Note_on_c, 0, 33, 55
2, 10601, Note_on_c, 0, 45, 58
2, 10631, Note_on_c, 0, 45, 0
2, 10631, Note_on_c, 0, 33, 0
2, 10667, Note_on_c, 0, 60, 59
2, 10668, Note_on_c, 0, 57, 56
2, 10668, Note_on_c, 0, 63, 54
2, 10668, Note_on_c, 0, 69, 63
2, 10677, Note_on_c, 0, 42, 60
2, 10678, Note_on_c, 0, 30, 60
2, 10698, Note_on_c, 0, 57, 0
2, 10698, Note_on_c, 0, 60, 0
2, 10699, Note_on_c, 0, 63, 0
2, 10707, Note_on_c, 0, 42, 0
2, 10708, Note_on_c, 0, 30, 0
2, 10718, Note_on_c, 0, 69, 0
2, 10849, Note_on_c, 0, 36, 56
2, 10849, Note_on_c, 0, 57, 58
2, 10849, Note_on_c, 0, 62, 60
2, 10849, Note_on_c, 0, 66, 62
2, 10850, Note_on_c, 0, 48, 56
2, 10880, Note_on_c, 0, 62, 0
2, 10881, Note_on_c, 0, 36, 0
2, 10881, Note_on_c, 0, 48, 0
2, 10881, Note_on_c, 0, 57, 0
2, 10921, Note_on_c, 0, 66, 0
2, 10997, Note_on_c, 0, 67, 60
2, 11007, Note_on_c, 0, 62, 58
2, 11008, Note_on_c, 0, 55, 57
2, 11016, Note_on_c, 0, 46, 55
2, 11017, Note_on_c, 0, 34, 58
2, 11038, Note_on_c, 0, 55, 0
2, 11038, Note_on_c, 0, 62, 0
2, 11048, Note_on_c, 0, 46, 0
2, 11049, Note_on_c, 0, 34, 0
2, 11078, Note_on_c, 0, 67, 0
2, 11176, Note_on_c, 0, 62, 56
2, 11177, Note_on_c, 0, 58, 59
2, 11177, Note_on_c, 0, 70, 58
2, 11187, Note_on_c, 0, 28, 58
2, 11187, Note_on_c, 0, 40, 58
2, 11208, Note_on_c, 0, 58, 0
2, 11208, Note_on_c, 0, 62, 0
2, 11219, Note_on_c, 0, 40, 0
2, 11220, Note_on_c, 0, 28, 0
2, 11229, Note_on_c, 0, 70, 0
2, 11328, Note_on_c, 0, 60, 59
2, 11329, Note_on_c, 0, 62, 54
2, 11329, Note_on_c, 0, 69, 54
2, 11349, Note_on_c, 0, 42, 54
2, 11351, Note_on_c, 0, 60, 0
2, 11352, Note_on_c, 0, 62, 0
2, 11352, Note_on_c, 0, 69, 0
2, 11359, Note_on_c, 0, 30, 58
2, 11380, Note_on_c, 0, 42, 0
2, 11392, Note_on_c, 0, 30, 0
2, 11412, Note_on_c, 0, 60, 59
2, 11412, Note_on_c, 0, 62, 55
2, 11412, Note_on_c, 0, 69, 59
2, 11434, Note_on_c, 0, 62, 0
2, 11444, Note_on_c, 0, 60, 0
2, 11455, Note_on_c, 0, 69, 0
2, 11497, Note_on_c, 0, 62, 55
2, 11498, Note_on_c, 0, 58, 57
2, 11498, Note_on_c, 0, 70, 61
2, 11520, Note_on_c, 0, 31, 54
2, 11521, Note_on_c, 0, 43, 57
2, 11531, Note_on_c, 0, 58, 0
2, 11531, Note_on_c, 0, 62, 0
2, 11553, Note_on_c, 0, 31, 0
2, 11553, Note_on_c, 0, 43, 0
2, 11554, Note_on_c, 0, 70, 0
2, 11677, Note_on_c, 0, 36, 58
2, 11677, Note_on_c, 0, 57, 56
2, 11677, Note_on_c, 0, 62, 54
2, 11677, Note_on_c, 0, 66, 56
2, 11678, Note_on_c, 0, 48, 60
2, 11708, Note_on_c, 0, 48, 0
2, 11708, Note_on_c, 0, 36, 0
2, 11708, Note_on_c, 0, 62, 0
2, 11708, Note_on_c, 0, 57, 0
2, 11728, Note_on_c, 0, 66, 0
2, 11852, Note_on_c, 0, 55, 53
2, 11852, Note_on_c, 0, 62, 58
2, 11852, Note_on_c, 0, 67, 60
2, 11860, Note_on_c, 0, 46, 55
2, 11861, Note_on_c, 0, 34, 53
2, 11881, Note_on_c, 0, 55, 0
2, 11882, Note_on_c, 0, 62, 0
2, 11891, Note_on_c, 0, 46, 0
2, 11892, Note_on_c, 0, 34, 0
2, 11902, Note_on_c, 0, 67, 0
2, 12004, Note_on_c, 0, 46, 80
2, 12005, Note_on_c, 0, 39, 82
2, 12005, Note_on_c, 0, 55, 81
2, 12005, Note_on_c, 0, 61, 78
2, 12006, Note_on_c, 0, 63, 79
2, 12024, Note_on_c, 0, 55, 0
2, 12024, Note_on_c, 0, 46, 0
2, 12025, Note_on_c, 0, 39, 0
2, 12025, Note_on_c, 0, 61, 0
2, 12025, Note_on_c, 0, 63, 0
2, 12071, Note_on_c, 0, 46, 65
2, 12072, Note_on_c, 0, 39, 61
2, 12072, Note_on_c, 0, 61, 65
2, 12072, Note_on_c, 0, 55, 60
2, 12072, Note_on_c, 0, 63, 61
2, 12092, Note_on_c, 0, 55, 0
2, 12092, Note_on_c, 0, 46, 0
2, 12093, Note_on_c, 0, 39, 0
2, 12093, Note_on_c, 0, 61, 0
2, 12093, Note_on_c, 0, 63, 0
2, 12150, Note_on_c, 0, 55, 79
2, 12151, Note_on_c, 0, 39, 78
2, 12151, Note_on_c, 0, 46, 79
2, 12151, Note_on_c, 0, 61, 83
2, 12152, Note_on_c, 0, 63, 82
2, 12182, Note_on_c, 0, 55, 0
2, 12183, Note_on_c, 0, 61, 0
2, 12183, Note_on_c, 0, 39, 0
2, 12183, Note_on_c, 0, 46, 0
2, 12204, Note_on_c, 0, 63, 0
2, 12338, Note_on_c, 0, 64, 60
2, 12348, Note_on_c, 0, 46, 43
2, 12348, Note_on_c, 0, 61, 45
2, 12349, Note_on_c, 0, 55, 45
2, 12359, Note_on_c, 0, 34, 47
2, 12379, Note_on_c, 0, 55, 0
2, 12379, Note_on_c, 0, 61, 0
2, 12379, Note_on_c, 0, 46, 0
2, 12388, Note_on_c, 0, 64, 0
2, 12389, Note_on_c, 0, 34, 0
2, 12510, Note_on_c, 0, 62, 45
2, 12510, Note_on_c, 0, 66, 45
2, 12511, Note_on_c, 0, 45, 43
2, 12511, Note_on_c, 0, 54, 44
2, 12512, Note_on_c, 0, 33, 43
2, 12543, Note_on_c, 0, 62, 0
2, 12544, Note_on_c, 0, 54, 0
2, 12544, Note_on_c, 0, 45, 0
2, 12545, Note_on_c, 0, 33, 0
2, 12564, Note_on_c, 0, 66, 0
2, 12691, Note_on_c, 0, 38, 56
2, 12692, Note_on_c, 0, 50, 54
2, 12722, Note_on_c, 0, 38, 0
2, 12743, Note_on_c, 0, 50, 0
2, 12849, Note_on_c, 0, 38, 48
2, 12860, Note_on_c, 0, 26, 50
2, 12921, Note_on_c, 0, 38, 0
2, 12923, Note_on_c, 0, 26, 0
2, 13011, Control_c, 0, 64, 127
2, 13072, Note_on_c, 0, 31, 70
2, 13072, Note_on_c, 0, 43, 68
2, 13072, Note_on_c, 0, 55, 68
2, 13102, Control_c, 0, 64, 0
2, 13119, Note_on_c, 0, 55, 0
2, 13120, Note_on_c, 0, 43, 0
2, 13121, Note_on_c, 0, 31, 0
2, 13242, Control_c, 0, 64, 127
2, 13242, Note_on_c, 0, 62, 53
2, 13243, Note_on_c, 0, 50, 60
2, 13243, Note_on_c, 0, 55, 53
2, 13243, Note_on_c, 0, 58, 56
2, 13262, Note_on_c, 0, 58, 0
2, 13262, Note_on_c, 0, 55, 0
2, 13262, Note_on_c, 0, 62, 0
2, 13263, Note_on_c, 0, 50, 0
2, 13309, Control_c, 0, 64, 0
2, 13315, Note_on_c, 0, 55, 56
2, 13315, Note_on_c, 0, 62, 59
2, 13316, Note_on_c, 0, 50, 59
2, 13316, Note_on_c, 0, 58, 56
2, 13335, Note_on_c, 0, 55, 0
2, 13336, Note_on_c, 0, 62, 0
2, 13336, Note_on_c, 0, 50, 0
2, 13336, Note_on_c, 0, 58, 0
2, 13381, Note_on_c, 0, 62, 63
2, 13382, Note_on_c, 0, 50, 63
2, 13382, Note_on_c, 0, 55, 64
2, 13382, Note_on_c, 0, 58, 59
2, 13411, Note_on_c, 0, 58, 0
2, 13411, Note_on_c, 0, 55, 0
2, 13411, Note_on_c, 0, 62, 0
2, 13412, Note_on_c, 0, 50, 0
2, 13574, Note_on_c, 0, 46, 66
2, 13575, Note_on_c, 0, 34, 61
2, 13606, Note_on_c, 0, 46, 0
2, 13607, Note_on_c, 0, 34, 0
2, 13773, Note_on_c, 0, 38, 67
2, 13773, Note_on_c, 0, 50, 67
2, 13803, Note_on_c, 0, 50, 0
2, 13803, Note_on_c, 0, 38, 0
2, 13986, Note_on_c, 0, 55, 56
2, 13986, Note_on_c, 0, 62, 57
2, 13987, Note_on_c, 0, 50, 54
2, 13987, Note_on_c, 0, 58, 58
2, 14017, Note_on_c, 0, 62, 0
2, 14017, Note_on_c, 0, 55, 0
2, 14018, Note_on_c, 0, 50, 0
2, 14018, Note_on_c, 0, 58, 0
2, 14169, Note_on_c, 0, 46, 66
2, 14169, Note_on_c, 0, 58, 66
2, 14170, Note_on_c, 0, 34, 68
2, 14202, Note_on_c, 0, 58, 0
2, 14202, Note_on_c, 0, 46, 0
2, 14203, Note_on_c, 0, 34, 0
2, 14351, Note_on_c, 0, 55, 60
2, 14351, Note_on_c, 0, 58, 57
2, 14351, Note_on_c, 0, 62, 56
2, 14352, Note_on_c, 0, 50, 53
2, 14381, Note_on_c, 0, 62, 0
2, 14381, Note_on_c, 0, 55, 0
2, 14381, Note_on_c, 0, 58, 0
2, 14387, Note_on_c, 0, 50, 0
2, 14539, Note_on_c, 0, 31, 73
2, 14539, Note_on_c, 0, 43, 72
2, 14539, Note_on_c, 0, 55, 78
2, 14589, Control_c, 0, 64, 127
2, 14649, Note_on_c, 0, 55, 0
2, 14727, Note_on_c, 0, 50, 57
2, 14727, Note_on_c, 0, 55, 57
2, 14727, Note_on_c, 0, 58, 57
2, 14727, Note_on_c, 0, 62, 58
2, 14748, Note_on_c, 0, 62, 0
2, 14748, Note_on_c, 0, 55, 0
2, 14748, Note_on_c, 0, 58, 0
2, 14749, Note_on_c, 0, 50, 0
2, 14792, Note_on_c, 0, 55, 61
2, 14792, Note_on_c, 0, 62, 64
2, 14793, Note_on_c, 0, 50, 62
2, 14793, Note_on_c, 0, 58, 65
2, 14804, Control_c, 0, 64, 0
2, 14813, Note_on_c, 0, 62, 0
2, 14813, Note_on_c, 0, 55, 0
2, 14814, Note_on_c, 0, 50, 0
2, 14814, Note_on_c, 0, 58, 0
2, 14861, Note_on_c, 0, 31, 0
2, 14861, Note_on_c, 0, 43, 0
2, 14870, Note_on_c, 0, 50, 66
2, 14870, Note_on_c, 0, 55, 66
2, 14870, Note_on_c, 0, 58, 65
2, 14870, Note_on_c, 0, 62, 63
2, 14900, Note_on_c, 0, 55, 0
2, 14901, Note_on_c, 0, 50, 0
2, 14901, Note_on_c, 0, 58, 0
2, 14901, Note_on_c, 0, 62, 0
2, 15064, Note_on_c, 0, 33, 63
2, 15065, Note_on_c, 0, 45, 65
2, 15117, Note_on_c, 0, 45, 0
2, 15117, Note_on_c, 0, 33, 0
2, 15125, Note_on_c, 0, 46, 63
2, 15126, Note_on_c, 0, 34, 59
2, 15168, Note_on_c, 0, 46, 0
2, 15179, Note_on_c, 0, 34, 0
2, 15188, Note_on_c, 0, 38, 61
2, 15189, Note_on_c, 0, 50, 66
2, 15219, Note_on_c, 0, 38, 0
2, 15220, Note_on_c, 0, 50, 0
2, 15389, Note_on_c, 0, 55, 57
2, 15389, Note_on_c, 0, 62, 57
2, 15390, Note_on_c, 0, 50, 53
2, 15390, Note_on_c, 0, 58, 58
2, 15422, Note_on_c, 0, 58, 0
2, 15422, Note_on_c, 0, 55, 0
2, 15422, Note_on_c, 0, 62, 0
2, 15423, Note_on_c, 0, 50, 0
2, 15563, Note_on_c, 0, 46, 67
2, 15564, Note_on_c, 0, 34, 67
2, 15564, Note_on_c, 0, 58, 66
2, 15595, Note_on_c, 0, 46, 0
2, 15596, Note_on_c, 0, 58, 0
2, 15596, Note_on_c, 0, 34, 0
2, 15747, Note_on_c, 0, 55, 57
2, 15747, Note_on_c, 0, 58, 57
2, 15747, Note_on_c, 0, 62, 60
2, 15758, Note_on_c, 0, 50, 60
2, 15779, Note_on_c, 0, 62, 0
2, 15779, Note_on_c, 0, 55, 0
2, 15779, Note_on_c, 0, 58, 0
2, 15790, Note_on_c, 0, 50, 0
2, 15935, Note_on_c, 0, 31, 76
2, 15935, Note_on_c, 0, 43, 74
2, 15935, Note_on_c, 0, 55, 74
2, 15973, Control_c, 0, 64, 127
2, 16044, Note_on_c, 0, 55, 0
2, 16115, Control_c, 0, 64, 0
2, 16124, Note_on_c, 0, 50, 60
2, 16124, Note_on_c, 0, 55, 54
2, 16124, Note_on_c, 0, 58, 57
2, 16124, Note_on_c, 0, 62, 58
2, 16144, Note_on_c, 0, 62, 0
2, 16144, Note_on_c, 0, 50, 0
2, 16144, Note_on_c, 0, 55, 0
2, 16145, Note_on_c, 0, 58, 0
2, 16191, Note_on_c, 0, 50, 56
2, 16191, Note_on_c, 0, 55, 53
2, 16191, Note_on_c, 0, 58, 56
2, 16191, Note_on_c, 0, 62, 57
2, 16211, Note_on_c, 0, 55, 0
2, 16212, Note_on_c, 0, 58, 0
2, 16212, Note_on_c, 0, 50, 0
2, 16212, Note_on_c, 0, 62, 0
2, 16258, Note_on_c, 0, 43, 0
2, 16259, Note_on_c, 0, 31, 0
2, 16266, Note_on_c, 0, 55, 63
2, 16266, Note_on_c, 0, 62, 61
2, 16267, Note_on_c, 0, 50, 62
2, 16267, Note_on_c, 0, 58, 62
2, 16295, Note_on_c, 0, 58, 0
2, 16295, Note_on_c, 0, 55, 0
2, 16295, Note_on_c, 0, 62, 0
2, 16295, Note_on_c, 0, 50, 0
2, 16448, Note_on_c, 0, 50, 68
2, 16448, Note_on_c, 0, 62, 67
2, 16480, Note_on_c, 0, 62, 0
2, 16480, Note_on_c, 0, 50, 0
2, 16510, Note_on_c, 0, 53, 68
2, 16510, Note_on_c, 0, 65, 67
2, 16542, Note_on_c, 0, 65, 0
2, 16542, Note_on_c, 0, 53, 0
2, 16582, Note_on_c, 0, 43, 76
2, 16583, Note_on_c, 0, 55, 73
2, 16583, Note_on_c, 0, 67, 75
2, 16642, Control_c, 0, 64, 127
2, 16676, Note_on_c, 0, 67, 0
2, 16771, Note_on_c, 0, 58, 60
2, 16771, Note_on_c, 0, 62, 61
2, 16771, Note_on_c, 0, 67, 60
2, 16772, Note_on_c, 0, 70, 57
2, 16773, Note_on_c, 0, 50, 57
2, 16788, Control_c, 0, 64, 0
2, 16793, Note_on_c, 0, 50, 0
2, 16793, Note_on_c, 0, 62, 0
2, 16793, Note_on_c, 0, 58, 0
2, 16793, Note_on_c, 0, 67, 0
2, 16794, Note_on_c, 0, 70, 0
2, 16848, Note_on_c, 0, 50, 62
2, 16848, Note_on_c, 0, 58, 67
2, 16848, Note_on_c, 0, 62, 68
2, 16848, Note_on_c, 0, 67, 60
2, 16848, Note_on_c, 0, 70, 62
2, 16870, Note_on_c, 0, 67, 0
2, 16870, Note_on_c, 0, 58, 0
2, 16870, Note_on_c, 0, 50, 0
2, 16870, Note_on_c, 0, 62, 0
2, 16871, Note_on_c, 0, 70, 0
2, 16923, Note_on_c, 0, 43, 0
2, 16924, Note_on_c, 0, 55, 0
2, 16933, Note_on_c, 0, 50, 64
2, 16933, Note_on_c, 0, 58, 64
2, 16933, Note_on_c, 0, 62, 62
2, 16933, Note_on_c, 0, 67, 68
2, 16934, Note_on_c, 0, 70, 62
2, 16967, Note_on_c, 0, 67, 0
2, 16967, Note_on_c, 0, 62, 0
2, 16967, Note_on_c, 0, 50, 0
2, 16967, Note_on_c, 0, 58, 0
2, 16968, Note_on_c, 0, 70, 0
2, 17142, Note_on_c, 0, 46, 55
2, 17143, Note_on_c, 0, 58, 53
2, 17176, Note_on_c, 0, 46, 0
2, 17177, Note_on_c, 0, 58, 0
2, 17216, Note_on_c, 0, 62, 55
2, 17217, Note_on_c, 0, 50, 54
2, 17259, Note_on_c, 0, 50, 0
2, 17259, Note_on_c, 0, 62, 0
2, 17290, Note_on_c, 0, 41, 62
2, 17290, Note_on_c, 0, 53, 61
2, 17290, Note_on_c, 0, 65, 73
2, 17341, Control_c, 0, 64, 127
2, 17461, Note_on_c, 0, 50, 61
2, 17461, Note_on_c, 0, 58, 58
2, 17461, Note_on_c, 0, 62, 58
2, 17462, Note_on_c, 0, 70, 55
2, 17462, Note_on_c, 0, 74, 61
2, 17482, Control_c, 0, 64, 0
2, 17483, Note_on_c, 0, 74, 0
2, 17483, Note_on_c, 0, 62, 0
2, 17483, Note_on_c, 0, 50, 0
2, 17483, Note_on_c, 0, 58, 0
2, 17484, Note_on_c, 0, 70, 0
2, 17542, Note_on_c, 0, 50, 63
2, 17542, Note_on_c, 0, 58, 65
2, 17542, Note_on_c, 0, 62, 63
2, 17543, Note_on_c, 0, 70, 55
2, 17543, Note_on_c, 0, 74, 58
2, 17563, Note_on_c, 0, 70, 0
2, 17563, Note_on_c, 0, 50, 0
2, 17563, Note_on_c, 0, 58, 0
2, 17563, Note_on_c, 0, 62, 0
2, 17564, Note_on_c, 0, 74, 0
2, 17604, Note_on_c, 0, 41, 0
2, 17605, Note_on_c, 0, 65, 0
2, 17605, Note_on_c, 0, 53, 0
2, 17615, Note_on_c, 0, 50, 64
2, 17615, Note_on_c, 0, 58, 67
2, 17615, Note_on_c, 0, 62, 61
2, 17616, Note_on_c, 0, 70, 62
2, 17616, Note_on_c, 0, 74, 67
2, 17646, Note_on_c, 0, 62, 0
2, 17646, Note_on_c, 0, 50, 0
2, 17646, Note_on_c, 0, 58, 0
2, 17647, Note_on_c, 0, 70, 0
2, 17647, Note_on_c, 0, 74, 0
2, 17815, Note_on_c, 0, 53, 66
2, 17815, Note_on_c, 0, 65, 65
2, 17847, Note_on_c, 0, 65, 0
2, 17847, Note_on_c, 0, 53, 0
2, 17864, Note_on_c, 0, 57, 60
2, 17865, Note_on_c, 0, 69, 64
2, 17896, Note_on_c, 0, 57, 0
2, 17897, Note_on_c, 0, 69, 0
2, 17933, Control_c, 0, 64, 127
2, 17953, Note_on_c, 0, 46, 69
2, 17955, Note_on_c, 0, 58, 66
2, 17956, Note_on_c, 0, 70, 79
2, 18029, Note_on_c, 0, 58, 0
2, 18030, Note_on_c, 0, 70, 0
2, 18122, Control_c, 0, 64, 0
2, 18122, Note_on_c, 0, 54, 57
2, 18122, Note_on_c, 0, 58, 55
2, 18122, Note_on_c, 0, 66, 45
2, 18124, Note_on_c, 0, 63, 60
2, 18124, Note_on_c, 0, 70, 45
2, 18124, Note_on_c, 0, 75, 48
2, 18145, Note_on_c, 0, 58, 0
2, 18145, Note_on_c, 0, 54, 0
2, 18146, Note_on_c, 0, 63, 0
2, 18146, Note_on_c, 0, 66, 0
2, 18146, Note_on_c, 0, 70, 0
2, 18147, Note_on_c, 0, 75, 0
2, 18206, Note_on_c, 0, 58, 59
2, 18206, Note_on_c, 0, 66, 43
2, 18207, Note_on_c, 0, 54, 62
2, 18207, Note_on_c, 0, 63, 61
2, 18208, Note_on_c, 0, 70, 46
2, 18208, Note_on_c, 0, 75, 42
2, 18227, Note_on_c, 0, 54, 0
2, 18228, Note_on_c, 0, 58, 0
2, 18229, Note_on_c, 0, 63, 0
2, 18229, Note_on_c, 0, 66, 0
2, 18230, Note_on_c, 0, 70, 0
2, 18230, Note_on_c, 0, 75, 0
2, 18277, Note_on_c, 0, 54, 64
2, 18277, Note_on_c, 0, 66, 49
2, 18278, Note_on_c, 0, 58, 65
2, 18278, Note_on_c, 0, 63, 65
2, 18278, Note_on_c, 0, 70, 54
2, 18278, Note_on_c, 0, 75, 49
2, 18339, Note_on_c, 0, 46, 0
2, 18340, Note_on_c, 0, 54, 0
2, 18341, Note_on_c, 0, 58, 0
2, 18341, Note_on_c, 0, 66, 0
2, 18342, Note_on_c, 0, 70, 0
2, 18342, Note_on_c, 0, 63, 0
2, 18343, Note_on_c, 0, 75, 0
2, 18482, Note_on_c, 0, 50, 59
2, 18482, Note_on_c, 0, 62, 58
2, 18517, Note_on_c, 0, 62, 0
2, 18517, Note_on_c, 0, 50, 0
2, 18567, Note_on_c, 0, 54, 59
2, 18567, Note_on_c, 0, 66, 76
2, 18599, Note_on_c, 0, 66, 0
2, 18599, Note_on_c, 0, 54, 0
2, 18625, Note_on_c, 0, 45, 65
2, 18626, Note_on_c, 0, 57, 65
2, 18627, Note_on_c, 0, 69, 80
2, 18645, Control_c, 0, 64, 127
2, 18706, Note_on_c, 0, 57, 0
2, 18795, Note_on_c, 0, 54, 59
2, 18795, Note_on_c, 0, 57, 56
2, 18795, Note_on_c, 0, 62, 57
2, 18795, Note_on_c, 0, 66, 58
2, 18795, Note_on_c, 0, 74, 62
2, 18796, Note_on_c, 0, 78, 61
2, 18816, Note_on_c, 0, 66, 0
2, 18816, Note_on_c, 0, 57, 0
2, 18816, Note_on_c, 0, 54, 0
2, 18816, Note_on_c, 0, 62, 0
2, 18817, Note_on_c, 0, 78, 0
2, 18818, Note_on_c, 0, 74, 0
2, 18825, Control_c, 0, 64, 0
2, 18866, Note_on_c, 0, 54, 58
2, 18866, Note_on_c, 0, 62, 56
2, 18866, Note_on_c, 0, 66, 63
2, 18867, Note_on_c, 0, 57, 60
2, 18867, Note_on_c, 0, 74, 62
2, 18867, Note_on_c, 0, 78, 62
2, 18888, Note_on_c, 0, 57, 0
2, 18888, Note_on_c, 0, 62, 0
2, 18888, Note_on_c, 0, 54, 0
2, 18888, Note_on_c, 0, 66, 0
2, 18889, Note_on_c, 0, 74, 0
2, 18889, Note_on_c, 0, 78, 0
2, 18941, Note_on_c, 0, 54, 63
2, 18941, Note_on_c, 0, 66, 70
2, 18942, Note_on_c, 0, 57, 70
2, 18942, Note_on_c, 0, 62, 65
2, 18943, Note_on_c, 0, 74, 67
2, 18943, Note_on_c, 0, 78, 65
2, 18971, Note_on_c, 0, 62, 0
2, 18971, Note_on_c, 0, 66, 0
2, 18971, Note_on_c, 0, 45, 0
2, 18971, Note_on_c, 0, 69, 0
2, 18971, Note_on_c, 0, 54, 0
2, 18971, Note_on_c, 0, 57, 0
2, 18972, Note_on_c, 0, 78, 0
2, 18972, Note_on_c, 0, 74, 0
2, 19113, Note_on_c, 0, 45, 83
2, 19114, Note_on_c, 0, 57, 81
2, 19115, Note_on_c, 0, 69, 80
2, 19144, Note_on_c, 0, 45, 0
2, 19145, Note_on_c, 0, 57, 0
2, 19146, Note_on_c, 0, 69, 0
2, 19184, Note_on_c, 0, 48, 81
2, 19184, Note_on_c, 0, 60, 84
2, 19185, Note_on_c, 0, 72, 84
2, 19215, Note_on_c, 0, 60, 0
2, 19216, Note_on_c, 0, 48, 0
2, 19217, Note_on_c, 0, 72, 0
2, 19254, Note_on_c, 0, 50, 90
2, 19254, Note_on_c, 0, 62, 89
2, 19255, Note_on_c, 0, 74, 85
2, 19281, Control_c, 0, 64, 127
2, 19331, Note_on_c, 0, 62, 0
2, 19404, Note_on_c, 0, 55, 68
2, 19404, Note_on_c, 0, 58, 69
2, 19405, Note_on_c, 0, 62, 70
2, 19405, Note_on_c, 0, 67, 65
2, 19406, Note_on_c, 0, 70, 65
2, 19406, Note_on_c, 0, 79, 68
2, 19406, Note_on_c, 0, 82, 62
2, 19414, Control_c, 0, 64, 0
2, 19425, Note_on_c, 0, 62, 0
2, 19425, Note_on_c, 0, 58, 0
2, 19425, Note_on_c, 0, 55, 0
2, 19426, Note_on_c, 0, 67, 0
2, 19427, Note_on_c, 0, 82, 0
2, 19427, Note_on_c, 0, 79, 0
2, 19427, Note_on_c, 0, 70, 0
2, 19485, Note_on_c, 0, 55, 71
2, 19485, Note_on_c, 0, 58, 75
2, 19485, Note_on_c, 0, 62, 70
2, 19485, Note_on_c, 0, 67, 64
2, 19486, Note_on_c, 0, 70, 67
2, 19486, Note_on_c, 0, 82, 67
2, 19487, Note_on_c, 0, 79, 67
2, 19506, Note_on_c, 0, 62, 0
2, 19506, Note_on_c, 0, 58, 0
2, 19506, Note_on_c, 0, 55, 0
2, 19507, Note_on_c, 0, 67, 0
2, 19507, Note_on_c, 0, 82, 0
2, 19507, Note_on_c, 0, 70, 0
2, 19508, Note_on_c, 0, 79, 0
2, 19566, Note_on_c, 0, 55, 78
2, 19566, Note_on_c, 0, 58, 82
2, 19566, Note_on_c, 0, 62, 77
2, 19566, Note_on_c, 0, 67, 73
2, 19567, Note_on_c, 0, 82, 69
2, 19568, Note_on_c, 0, 70, 75
2, 19568, Note_on_c, 0, 79, 72
2, 19597, Note_on_c, 0, 55, 0
2, 19597, Note_on_c, 0, 50, 0
2, 19598, Note_on_c, 0, 62, 0
2, 19598, Note_on_c, 0, 58, 0
2, 19598, Note_on_c, 0, 67, 0
2, 19599, Note_on_c, 0, 74, 0
2, 19599, Note_on_c, 0, 79, 0
2, 19599, Note_on_c, 0, 70, 0
2, 19599, Note_on_c, 0, 82, 0
2, 19714, Note_on_c, 0, 38, 71
2, 19715, Note_on_c, 0, 50, 74
2, 19726, Note_on_c, 0, 62, 77
2, 19755, Note_on_c, 0, 38, 0
2, 19756, Note_on_c, 0, 50, 0
2, 19757, Note_on_c, 0, 62, 0
2, 19917, Note_on_c, 0, 37, 71
2, 19918, Note_on_c, 0, 61, 75
2, 19919, Note_on_c, 0, 49, 75
2, 19952, Note_on_c, 0, 37, 0
2, 19953, Note_on_c, 0, 49, 0
2, 19953, Note_on_c, 0, 61, 0
2, 20088, Note_on_c, 0, 36, 66
2, 20088, Note_on_c, 0, 48, 72
2, 20088, Note_on_c, 0, 60, 67
2, 20120, Note_on_c, 0, 60, 0
2, 20120, Note_on_c, 0, 36, 0
2, 20121, Note_on_c, 0, 48, 0
2, 20267, Note_on_c, 0, 81, 65
2, 20275, Note_on_c, 0, 57, 64
2, 20275, Note_on_c, 0, 66, 71
2, 20276, Note_on_c, 0, 69, 67
2, 20276, Note_on_c, 0, 75, 68
2, 20277, Note_on_c, 0, 63, 63
2, 20300, Note_on_c, 0, 81, 0
2, 20308, Note_on_c, 0, 57, 0
2, 20309, Note_on_c, 0, 66, 0
2, 20309, Note_on_c, 0, 69, 0
2, 20309, Note_on_c, 0, 63, 0
2, 20310, Note_on_c, 0, 75, 0
2, 20449, Note_on_c, 0, 54, 66
2, 20449, Note_on_c, 0, 57, 66
2, 20449, Note_on_c, 0, 62, 64
2, 20450, Note_on_c, 0, 78, 64
2, 20459, Note_on_c, 0, 66, 60
2, 20461, Note_on_c, 0, 74, 60
2, 20480, Note_on_c, 0, 62, 0
2, 20480, Note_on_c, 0, 54, 0
2, 20481, Note_on_c, 0, 57, 0
2, 20482, Note_on_c, 0, 78, 0
2, 20492, Note_on_c, 0, 66, 0
2, 20493, Note_on_c, 0, 74, 0
2, 20540, Control_c, 0, 64, 127
2, 20603, Control_c, 0, 64, 0
2, 20624, Note_on_c, 0, 55, 59
2, 20624, Note_on_c, 0, 62, 61
2, 20624, Note_on_c, 0, 67, 66
2, 20625, Note_on_c, 0, 74, 60
2, 20625, Note_on_c, 0, 79, 64
2, 20657, Note_on_c, 0, 55, 0
2, 20658, Note_on_c, 0, 62, 0
2, 20658, Note_on_c, 0, 67, 0
2, 20659, Note_on_c, 0, 74, 0
2, 20659, Note_on_c, 0, 79, 0
2, 20807, Note_on_c, 0, 34, 59
2, 20815, Note_on_c, 0, 46, 63
2, 20816, Note_on_c, 0, 58, 59
2, 20839, Note_on_c, 0, 34, 0
2, 20848, Note_on_c, 0, 46, 0
2, 20849, Note_on_c, 0, 58, 0
2, 20978, Note_on_c, 0, 35, 66
2, 20978, Note_on_c, 0, 47, 67
2, 20978, Note_on_c, 0, 59, 69
2, 21011, Note_on_c, 0, 59, 0
2, 21011, Note_on_c, 0, 47, 0
2, 21011, Note_on_c, 0, 35, 0
2, 21155, Note_on_c, 0, 51, 59
2, 21155, Note_on_c, 0, 55, 66
2, 21155, Note_on_c, 0, 67, 64
2, 21156, Note_on_c, 0, 63, 62
2, 21156, Note_on_c, 0, 75, 62
2, 21188, Note_on_c, 0, 67, 0
2, 21188, Note_on_c, 0, 51, 0
2, 21188, Note_on_c, 0, 55, 0
2, 21189, Note_on_c, 0, 63, 0
2, 21189, Note_on_c, 0, 75, 0
2, 21338, Note_on_c, 0, 60, 62
2, 21349, Note_on_c, 0, 36, 60
2, 21350, Note_on_c, 0, 48, 60
2, 21382, Note_on_c, 0, 48, 0
2, 21382, Note_on_c, 0, 36, 0
2, 21391, Note_on_c, 0, 60, 0
2, 21513, Note_on_c, 0, 66, 68
2, 21524, Note_on_c, 0, 38, 63
2, 21524, Note_on_c, 0, 60, 67
2, 21525, Note_on_c, 0, 50, 65
2, 21525, Note_on_c, 0, 57, 63
2, 21555, Note_on_c, 0, 60, 0
2, 21555, Note_on_c, 0, 38, 0
2, 21556, Note_on_c, 0, 57, 0
2, 21556, Note_on_c, 0, 50, 0
2, 21567, Note_on_c, 0, 66, 0
2, 21624, Control_c, 0, 64, 127
2, 21705, Note_on_c, 0, 67, 78
2, 21715, Note_on_c, 0, 31, 70
2, 21715, Note_on_c, 0, 43, 68
2, 21715, Note_on_c, 0, 55, 73
2, 21715, Note_on_c, 0, 58, 68
2, 21727, Control_c, 0, 64, 0
2, 21746, Note_on_c, 0, 58, 0
2, 21746, Note_on_c, 0, 55, 0
2, 21747, Note_on_c, 0, 43, 0
2, 21747, Note_on_c, 0, 31, 0
2, 21756, Note_on_c, 0, 67, 0
2, 21986, Control_c, 0, 64, 127
2, 22064, Note_on_c, 0, 58, 78
2, 22064, Note_on_c, 0, 67, 81
2, 22064, Note_on_c, 0, 75, 84
2, 22064, Note_on_c, 0, 82, 83
2, 22065, Note_on_c, 0, 55, 61
2, 22065, Note_on_c, 0, 63, 63
2, 22065, Note_on_c, 0, 70, 83
2, 22065, Note_on_c, 0, 79, 78
2, 22155, Note_on_c, 0, 55, 0
2, 22156, Note_on_c, 0, 75, 0
2, 22156, Note_on_c, 0, 58, 0
2, 22156, Note_on_c, 0, 67, 0
2, 22157, Note_on_c, 0, 70, 0
2, 22157, Note_on_c, 0, 79, 0
2, 22157, Note_on_c, 0, 63, 0
2, 22251, Note_on_c, 0, 67, 59
2, 22252, Note_on_c, 0, 55, 70
2, 22252, Note_on_c, 0, 58, 72
2, 22252, Note_on_c, 0, 63, 65
2, 22252, Note_on_c, 0, 70, 62
2, 22252, Note_on_c, 0, 75, 62
2, 22253, Note_on_c, 0, 79, 66
2, 22272, Note_on_c, 0, 55, 0
2, 22273, Note_on_c, 0, 79, 0
2, 22273, Note_on_c, 0, 67, 0
2, 22273, Note_on_c, 0, 63, 0
2, 22273, Note_on_c, 0, 58, 0
2, 22273, Note_on_c, 0, 75, 0
2, 22274, Note_on_c, 0, 70, 0
2, 22322, Note_on_c, 0, 55, 82
2, 22322, Note_on_c, 0, 58, 77
2, 22322, Note_on_c, 0, 67, 65
2, 22323, Note_on_c, 0, 63, 84
2, 22323, Note_on_c, 0, 70, 66
2, 22323, Note_on_c, 0, 75, 72
2, 22323, Note_on_c, 0, 79, 68
2, 22343, Note_on_c, 0, 55, 0
2, 22344, Note_on_c, 0, 79, 0
2, 22344, Note_on_c, 0, 70, 0
2, 22344, Note_on_c, 0, 58, 0
2, 22344, Note_on_c, 0, 67, 0
2, 22344, Note_on_c, 0, 63, 0
2, 22344, Note_on_c, 0, 75, 0
2, 22391, Note_on_c, 0, 55, 83
2, 22391, Note_on_c, 0, 58, 80
2, 22391, Note_on_c, 0, 67, 81
2, 22391, Note_on_c, 0, 70, 78
2, 22391, Note_on_c, 0, 75, 84
2, 22392, Note_on_c, 0, 63, 79
2, 22392, Note_on_c, 0, 79, 77
2, 22466, Note_on_c, 0, 67, 0
2, 22466, Note_on_c, 0, 58, 0
2, 22466, Note_on_c, 0, 55, 0
2, 22467, Note_on_c, 0, 63, 0
2, 22553, Note_on_c, 0, 46, 70
2, 22554, Note_on_c, 0, 39, 70
2, 22554, Note_on_c, 0, 55, 66
2, 22554, Note_on_c, 0, 58, 65
2, 22554, Note_on_c, 0, 67, 60
2, 22556, Note_on_c, 0, 63, 66
2, 22576, Note_on_c, 0, 67, 0
2, 22576, Note_on_c, 0, 58, 0
2, 22576, Note_on_c, 0, 55, 0
2, 22576, Note_on_c, 0, 39, 0
2, 22576, Note_on_c, 0, 46, 0
2, 22578, Note_on_c, 0, 63, 0
2, 22637, Note_on_c, 0, 46, 71
2, 22638, Note_on_c, 0, 39, 71
2, 22638, Note_on_c, 0, 55, 68
2, 22638, Note_on_c, 0, 67, 66
2, 22639, Note_on_c, 0, 58, 69
2, 22639, Note_on_c, 0, 63, 65
2, 22649, Control_c, 0, 64, 0
2, 22660, Note_on_c, 0, 58, 0
2, 22660, Note_on_c, 0, 55, 0
2, 22660, Note_on_c, 0, 39, 0
2, 22660, Note_on_c, 0, 46, 0
2, 22661, Note_on_c, 0, 67, 0
2, 22662, Note_on_c, 0, 63, 0
2, 22703, Note_on_c, 0, 70, 0
2, 22703, Note_on_c, 0, 82, 0
2, 22703, Note_on_c, 0, 79, 0
2, 22709, Note_on_c, 0, 39, 77
2, 22709, Note_on_c, 0, 46, 83
2, 22710, Note_on_c, 0, 55, 77
2, 22710, Note_on_c, 0, 67, 70
2, 22711, Note_on_c, 0, 58, 79
2, 22711, Note_on_c, 0, 63, 84
2, 22713, Note_on_c, 0, 75, 0
2, 22732, Note_on_c, 0, 39, 0
2, 22741, Note_on_c, 0, 55, 0
2, 22741, Note_on_c, 0, 46, 0
2, 22742, Note_on_c, 0, 58, 0
2, 22742, Note_on_c, 0, 67, 0
2, 22743, Note_on_c, 0, 63, 0
2, 22890, Note_on_c, 0, 55, 65
2, 22891, Note_on_c, 0, 58, 69
2, 22891, Note_on_c, 0, 67, 69
2, 22892, Note_on_c, 0, 63, 71
2, 22892, Note_on_c, 0, 70, 68
2, 22892, Note_on_c, 0, 75, 72
2, 22893, Note_on_c, 0, 79, 66
2, 22923, Note_on_c, 0, 67, 0
2, 22923, Note_on_c, 0, 55, 0
2, 22923, Note_on_c, 0, 58, 0
2, 22924, Note_on_c, 0, 63, 0
2, 22925, Note_on_c, 0, 79, 0
2, 22925, Note_on_c, 0, 75, 0
2, 22925, Note_on_c, 0, 70, 0
2, 23017, Control_c, 0, 64, 127
2, 23042, Note_on_c, 0, 79, 67
2, 23042, Note_on_c, 0, 82, 64
2, 23052, Note_on_c, 0, 70, 67
2, 23062, Note_on_c, 0, 55, 66
2, 23062, Note_on_c, 0, 58, 64
2, 23074, Note_on_c, 0, 82, 0
2, 23075, Note_on_c, 0, 79, 0
2, 23085, Note_on_c, 0, 70, 0
2, 23091, Control_c, 0, 64, 0
2, 23093, Note_on_c, 0, 55, 0
2, 23115, Note_on_c, 0, 58, 0
2, 23122, Note_on_c, 0, 60, 61
2, 23124, Note_on_c, 0, 72, 66
2, 23124, Note_on_c, 0, 84, 65
2, 23157, Note_on_c, 0, 84, 0
2, 23157, Note_on_c, 0, 72, 0
2, 23193, Note_on_c, 0, 74, 72
2, 23194, Note_on_c, 0, 60, 0
2, 23195, Note_on_c, 0, 86, 66
2, 23202, Note_on_c, 0, 62, 82
2, 23225, Note_on_c, 0, 74, 0
2, 23227, Note_on_c, 0, 86, 0
2, 23256, Note_on_c, 0, 62, 0
2, 23264, Note_on_c, 0, 63, 83
2, 23264, Note_on_c, 0, 75, 80
2, 23266, Note_on_c, 0, 87, 81
2, 23298, Note_on_c, 0, 75, 0
2, 23299, Note_on_c, 0, 87, 0
2, 23337, Note_on_c, 0, 74, 80
2, 23337, Note_on_c, 0, 82, 81
2, 23339, Note_on_c, 0, 86, 83
2, 23350, Note_on_c, 0, 63, 0
2, 23356, Note_on_c, 0, 53, 79
2, 23356, Note_on_c, 0, 62, 83
2, 23357, Note_on_c, 0, 58, 79
2, 23399, Note_on_c, 0, 58, 0
2, 23399, Note_on_c, 0, 53, 0
2, 23399, Note_on_c, 0, 62, 0
2, 23404, Control_c, 0, 64, 127
2, 23420, Note_on_c, 0, 74, 0
2, 23505, Note_on_c, 0, 53, 63
2, 23505, Note_on_c, 0, 62, 66
2, 23506, Note_on_c, 0, 58, 62
2, 23506, Note_on_c, 0, 65, 61
2, 23506, Note_on_c, 0, 70, 64
2, 23506, Note_on_c, 0, 74, 60
2, 23506, Note_on_c, 0, 77, 64
2, 23527, Note_on_c, 0, 65, 0
2, 23527, Note_on_c, 0, 62, 0
2, 23527, Note_on_c, 0, 53, 0
2, 23527, Note_on_c, 0, 58, 0
2, 23528, Note_on_c, 0, 74, 0
2, 23528, Note_on_c, 0, 70, 0
2, 23529, Note_on_c, 0, 77, 0
2, 23587, Note_on_c, 0, 53, 67
2, 23587, Note_on_c, 0, 62, 68
2, 23587, Note_on_c, 0, 65, 70
2, 23588, Note_on_c, 0, 58, 67
2, 23588, Note_on_c, 0, 70, 71
2, 23588, Note_on_c, 0, 74, 71
2, 23589, Note_on_c, 0, 77, 68
2, 23608, Note_on_c, 0, 53, 0
2, 23609, Note_on_c, 0, 65, 0
2, 23609, Note_on_c, 0, 62, 0
2, 23609, Note_on_c, 0, 58, 0
2, 23610, Note_on_c, 0, 77, 0
2, 23610, Note_on_c, 0, 74, 0
2, 23610, Note_on_c, 0, 70, 0
2, 23673, Note_on_c, 0, 53, 79
2, 23673, Note_on_c, 0, 58, 79
2, 23673, Note_on_c, 0, 62, 78
2, 23673, Note_on_c, 0, 65, 79
2, 23673, Note_on_c, 0, 70, 80
2, 23674, Note_on_c, 0, 74, 84
2, 23674, Note_on_c, 0, 77, 77
2, 23748, Note_on_c, 0, 62, 0
2, 23748, Note_on_c, 0, 53, 0
2, 23749, Note_on_c, 0, 58, 0
2, 23749, Note_on_c, 0, 65, 0
2, 23841, Note_on_c, 0, 46, 65
2, 23842, Note_on_c, 0, 34, 62
2, 23843, Note_on_c, 0, 53, 65
2, 23843, Note_on_c, 0, 58, 60
2, 23843, Note_on_c, 0, 62, 66
2, 23843, Note_on_c, 0, 65, 61
2, 23862, Note_on_c, 0, 34, 0
2, 23863, Note_on_c, 0, 46, 0
2, 23864, Note_on_c, 0, 65, 0
2, 23864, Note_on_c, 0, 53, 0
2, 23864, Note_on_c, 0, 62, 0
2, 23864, Note_on_c, 0, 58, 0
2, 23881, Control_c, 0, 64, 0
2, 23909, Note_on_c, 0, 46, 68
2, 23910, Note_on_c, 0, 34, 72
2, 23910, Note_on_c, 0, 53, 68
2, 23910, Note_on_c, 0, 58, 72
2, 23911, Note_on_c, 0, 62, 68
2, 23911, Note_on_c, 0, 65, 65
2, 23930, Note_on_c, 0, 34, 0
2, 23930, Note_on_c, 0, 46, 0
2, 23931, Note_on_c, 0, 58, 0
2, 23931, Note_on_c, 0, 53, 0
2, 23932, Note_on_c, 0, 65, 0
2, 23932, Note_on_c, 0, 62, 0
2, 23978, Note_on_c, 0, 34, 81
2, 23978, Note_on_c, 0, 46, 80
2, 23979, Note_on_c, 0, 53, 79
2, 23980, Note_on_c, 0, 58, 83
2, 23980, Note_on_c, 0, 62, 78
2, 23980, Note_on_c, 0, 65, 64
2, 24002, Note_on_c, 0, 74, 0
2, 24003, Note_on_c, 0, 82, 0
2, 24003, Note_on_c, 0, 77, 0
2, 24003, Note_on_c, 0, 70, 0
2, 24005, Note_on_c, 0, 86, 0
2, 24011, Note_on_c, 0, 46, 0
2, 24011, Note_on_c, 0, 34, 0
2, 24012, Note_on_c, 0, 53, 0
2, 24013, Note_on_c, 0, 62, 0
2, 24013, Note_on_c, 0, 58, 0
2, 24013, Note_on_c, 0, 65, 0
2, 24142, Note_on_c, 0, 77, 59
2, 24149, Note_on_c, 0, 53, 69
2, 24149, Note_on_c, 0, 65, 63
2, 24150, Note_on_c, 0, 58, 71
2, 24150, Note_on_c, 0, 62, 67
2, 24151, Note_on_c, 0, 70, 61
2, 24151, Note_on_c, 0, 74, 63
2, 24173, Note_on_c, 0, 74, 0
2, 24173, Note_on_c, 0, 77, 0
2, 24182, Note_on_c, 0, 62, 0
2, 24182, Note_on_c, 0, 58, 0
2, 24182, Note_on_c, 0, 53, 0
2, 24182, Note_on_c, 0, 65, 0
2, 24183, Note_on_c, 0, 70, 0
2, 24250, Control_c, 0, 64, 127
2, 24314, Note_on_c, 0, 53, 71
2, 24314, Note_on_c, 0, 58, 72
2, 24314, Note_on_c, 0, 62, 66
2, 24315, Note_on_c, 0, 74, 67
2, 24315, Note_on_c, 0, 82, 70
2, 24317, Note_on_c, 0, 86, 67
2, 24346, Note_on_c, 0, 58, 0
2, 24346, Note_on_c, 0, 53, 0
2, 24347, Note_on_c, 0, 62, 0
2, 24349, Note_on_c, 0, 74, 0
2, 24349, Note_on_c, 0, 82, 0
2, 24350, Note_on_c, 0, 86, 0
2, 24365, Control_c, 0, 64, 0
2, 24388, Note_on_c, 0, 64, 65
2, 24390, Note_on_c, 0, 76, 71
2, 24392, Note_on_c, 0, 88, 70
2, 24421, Note_on_c, 0, 64, 0
2, 24424, Note_on_c, 0, 76, 0
2, 24425, Note_on_c, 0, 88, 0
2, 24476, Note_on_c, 0, 65, 72
2, 24478, Note_on_c, 0, 77, 74
2, 24479, Note_on_c, 0, 89, 74
2, 24508, Note_on_c, 0, 65, 0
2, 24510, Note_on_c, 0, 77, 0
2, 24511, Note_on_c, 0, 89, 0
2, 24552, Note_on_c, 0, 67, 76
2, 24553, Note_on_c, 0, 79, 71
2, 24554, Note_on_c, 0, 91, 72
2, 24583, Note_on_c, 0, 67, 0
2, 24586, Note_on_c, 0, 79, 0
2, 24587, Note_on_c, 0, 91, 0
2, 24623, Note_on_c, 0, 57, 83
2, 24624, Note_on_c, 0, 62, 84
2, 24624, Note_on_c, 0, 65, 83
2, 24624, Note_on_c, 0, 77, 80
2, 24625, Note_on_c, 0, 89, 82
2, 24626, Note_on_c, 0, 86, 79
2, 24672, Note_on_c, 0, 57, 0
2, 24673, Note_on_c, 0, 62, 0
2, 24673, Note_on_c, 0, 65, 0
2, 24714, Note_on_c, 0, 77, 0
2, 24726, Control_c, 0, 64, 127
2, 24796, Note_on_c, 0, 53, 67
2, 24796, Note_on_c, 0, 57, 70
2, 24797, Note_on_c, 0, 62, 68
2, 24797, Note_on_c, 0, 65, 65
2, 24797, Note_on_c, 0, 69, 62
2, 24798, Note_on_c, 0, 74, 62
2, 24799, Note_on_c, 0, 77, 63
2, 24799, Note_on_c, 0, 81, 64
2, 24817, Note_on_c, 0, 57, 0
2, 24817, Note_on_c, 0, 53, 0
2, 24818, Note_on_c, 0, 62, 0
2, 24818, Note_on_c, 0, 69, 0
2, 24818, Note_on_c, 0, 65, 0
2, 24819, Note_on_c, 0, 74, 0
2, 24819, Note_on_c, 0, 77, 0
2, 24820, Note_on_c, 0, 81, 0
2, 24865, Note_on_c, 0, 53, 72
2, 24866, Note_on_c, 0, 57, 69
2, 24866, Note_on_c, 0, 62, 71
2, 24866, Note_on_c, 0, 65, 67
2, 24867, Note_on_c, 0, 69, 72
2, 24867, Note_on_c, 0, 77, 71
2, 24868, Note_on_c, 0, 74, 67
2, 24868, Note_on_c, 0, 81, 71
2, 24887, Note_on_c, 0, 62, 0
2, 24887, Note_on_c, 0, 57, 0
2, 24887, Note_on_c, 0, 53, 0
2, 24888, Note_on_c, 0, 77, 0
2, 24888, Note_on_c, 0, 65, 0
2, 24888, Note_on_c, 0, 74, 0
2, 24888, Note_on_c, 0, 69, 0
2, 24889, Note_on_c, 0, 81, 0
2, 24936, Note_on_c, 0, 53, 79
2, 24936, Note_on_c, 0, 57, 78
2, 24936, Note_on_c, 0, 62, 80
2, 24937, Note_on_c, 0, 65, 82
2, 24937, Note_on_c, 0, 69, 79
2, 24937, Note_on_c, 0, 74, 84
2, 24938, Note_on_c, 0, 77, 78
2, 24938, Note_on_c, 0, 81, 82
2, 25005, Note_on_c, 0, 62, 0
2, 25005, Note_on_c, 0, 57, 0
2, 25006, Note_on_c, 0, 65, 0
2, 25014, Note_on_c, 0, 69, 0
2, 25076, Note_on_c, 0, 38, 68
2, 25077, Note_on_c, 0, 45, 65
2, 25078, Note_on_c, 0, 57, 65
2, 25078, Note_on_c, 0, 62, 67
2, 25079, Note_on_c, 0, 65, 59
2, 25079, Note_on_c, 0, 69, 66
2, 25097, Note_on_c, 0, 38, 0
2, 25098, Note_on_c, 0, 62, 0
2, 25098, Note_on_c, 0, 45, 0
2, 25098, Note_on_c, 0, 57, 0
2, 25099, Note_on_c, 0, 65, 0
2, 25099, Note_on_c, 0, 69, 0
2, 25144, Note_on_c, 0, 38, 81
2, 25145, Note_on_c, 0, 45, 78
2, 25146, Note_on_c, 0, 57, 82
2, 25146, Note_on_c, 0, 62, 78
2, 25147, Note_on_c, 0, 65, 63
2, 25148, Note_on_c, 0, 69, 65
2, 25165, Note_on_c, 0, 38, 0
2, 25165, Control_c, 0, 64, 0
2, 25166, Note_on_c, 0, 45, 0
2, 25167, Note_on_c, 0, 57, 0
2, 25167, Note_on_c, 0, 62, 0
2, 25168, Note_on_c, 0, 65, 0
2, 25168, Note_on_c, 0, 69, 0
2, 25208, Note_on_c, 0, 53, 0
2, 25210, Note_on_c, 0, 74, 0
2, 25211, Note_on_c, 0, 81, 0
2, 25211, Note_on_c, 0, 77, 0
2, 25211, Note_on_c, 0, 86, 0
2, 25212, Note_on_c, 0, 89, 0
2, 25217, Note_on_c, 0, 38, 81
2, 25218, Note_on_c, 0, 45, 77
2, 25218, Note_on_c, 0, 57, 77
2, 25219, Note_on_c, 0, 62, 84
2, 25219, Note_on_c, 0, 65, 67
2, 25219, Note_on_c, 0, 69, 72
2, 25248, Note_on_c, 0, 38, 0
2, 25249, Note_on_c, 0, 45, 0
2, 25250, Note_on_c, 0, 62, 0
2, 25250, Note_on_c, 0, 57, 0
2, 25251, Note_on_c, 0, 69, 0
2, 25251, Note_on_c, 0, 65, 0
2, 25392, Note_on_c, 0, 53, 75
2, 25392, Note_on_c, 0, 57, 74
2, 25392, Note_on_c, 0, 62, 76
2, 25392, Note_on_c, 0, 65, 74
2, 25392, Note_on_c, 0, 69, 79
2, 25393, Note_on_c, 0, 74, 77
2, 25393, Note_on_c, 0, 77, 72
2, 25422, Note_on_c, 0, 62, 0
2, 25422, Note_on_c, 0, 53, 0
2, 25422, Note_on_c, 0, 57, 0
2, 25423, Note_on_c, 0, 69, 0
2, 25423, Note_on_c, 0, 65, 0
2, 25424, Note_on_c, 0, 74, 0
2, 25424, Note_on_c, 0, 77, 0
2, 25465, Control_c, 0, 64, 127
2, 25529, Note_on_c, 0, 53, 81
2, 25530, Note_on_c, 0, 57, 79
2, 25530, Note_on_c, 0, 69, 81
2, 25532, Note_on_c, 0, 77, 77
2, 25532, Note_on_c, 0, 81, 76
2, 25564, Note_on_c, 0, 77, 0
2, 25573, Note_on_c, 0, 57, 0
2, 25573, Note_on_c, 0, 53, 0
2, 25584, Note_on_c, 0, 69, 0
2, 25585, Note_on_c, 0, 81, 0
2, 25602, Control_c, 0, 64, 0
2, 25614, Note_on_c, 0, 59, 75
2, 25615, Note_on_c, 0, 71, 79
2, 25616, Note_on_c, 0, 83, 74
2, 25647, Note_on_c, 0, 59, 0
2, 25648, Note_on_c, 0, 71, 0
2, 25650, Note_on_c, 0, 83, 0
2, 25698, Note_on_c, 0, 60, 83
2, 25700, Note_on_c, 0, 72, 81
2, 25700, Note_on_c, 0, 84, 82
2, 25730, Note_on_c, 0, 60, 0
2, 25732, Note_on_c, 0, 84, 0
2, 25732, Note_on_c, 0, 72, 0
2, 25773, Note_on_c, 0, 62, 78
2, 25774, Note_on_c, 0, 74, 76
2, 25775, Note_on_c, 0, 86, 78
2, 25804, Note_on_c, 0, 62, 0
2, 25805, Note_on_c, 0, 74, 0
2, 25806, Note_on_c, 0, 86, 0
2, 25845, Note_on_c, 0, 53, 76
2, 25845, Note_on_c, 0, 57, 73
2, 25845, Note_on_c, 0, 60, 73
2, 25847, Note_on_c, 0, 72, 76
2, 25847, Note_on_c, 0, 81, 72
2, 25847, Note_on_c, 0, 84, 79
2, 25888, Note_on_c, 0, 60, 0
2, 25888, Note_on_c, 0, 53, 0
2, 25888, Note_on_c, 0, 57, 0
2, 25900, Note_on_c, 0, 72, 0
2, 25901, Note_on_c, 0, 81, 0
2, 25964, Control_c, 0, 64, 127
2, 26033, Note_on_c, 0, 53, 65
2, 26033, Note_on_c, 0, 57, 62
2, 26033, Note_on_c, 0, 60, 62
2, 26034, Note_on_c, 0, 65, 65
2, 26034, Note_on_c, 0, 69, 65
2, 26034, Note_on_c, 0, 72, 64
2, 26035, Note_on_c, 0, 77, 62
2, 26035, Note_on_c, 0, 81, 60
2, 26054, Note_on_c, 0, 60, 0
2, 26055, Note_on_c, 0, 65, 0
2, 26055, Note_on_c, 0, 57, 0
2, 26055, Note_on_c, 0, 53, 0
2, 26056, Note_on_c, 0, 69, 0
2, 26056, Note_on_c, 0, 77, 0
2, 26056, Note_on_c, 0, 72, 0
2, 26057, Note_on_c, 0, 81, 0
2, 26115, Note_on_c, 0, 53, 67
2, 26115, Note_on_c, 0, 57, 66
2, 26115, Note_on_c, 0, 60, 68
2, 26115, Note_on_c, 0, 65, 68
2, 26116, Note_on_c, 0, 69, 67
2, 26116, Note_on_c, 0, 77, 72
2, 26117, Note_on_c, 0, 72, 67
2, 26117, Note_on_c, 0, 81, 67
2, 26136, Note_on_c, 0, 60, 0
2, 26136, Note_on_c, 0, 57, 0
2, 26136, Note_on_c, 0, 53, 0
2, 26137, Note_on_c, 0, 65, 0
2, 26137, Note_on_c, 0, 69, 0
2, 26138, Note_on_c, 0, 72, 0
2, 26138, Note_on_c, 0, 81, 0
2, 26138, Note_on_c, 0, 77, 0
2, 26193, Note_on_c, 0, 60, 81
2, 26194, Note_on_c, 0, 53, 79
2, 26194, Note_on_c, 0, 57, 78
2, 26194, Note_on_c, 0, 65, 77
2, 26194, Note_on_c, 0, 69, 83
2, 26194, Note_on_c, 0, 81, 80
2, 26195, Note_on_c, 0, 72, 80
2, 26195, Note_on_c, 0, 77, 79
2, 26232, Note_on_c, 0, 60, 0
2, 26233, Note_on_c, 0, 72, 0
2, 26233, Note_on_c, 0, 69, 0
2, 26317, Note_on_c, 0, 41, 61
2, 26317, Note_on_c, 0, 60, 62
2, 26318, Note_on_c, 0, 48, 61
2, 26319, Note_on_c, 0, 69, 65
2, 26319, Note_on_c, 0, 72, 64
2, 26339, Note_on_c, 0, 60, 0
2, 26340, Note_on_c, 0, 69, 0
2, 26340, Note_on_c, 0, 41, 0
2, 26340, Note_on_c, 0, 48, 0
2, 26341, Note_on_c, 0, 72, 0
2, 26398, Note_on_c, 0, 60, 60
2, 26399, Note_on_c, 0, 41, 62
2, 26399, Note_on_c, 0, 48, 65
2, 26399, Note_on_c, 0, 69, 64
2, 26400, Note_on_c, 0, 72, 65
2, 26420, Note_on_c, 0, 60, 0
2, 26421, Note_on_c, 0, 69, 0
2, 26421, Note_on_c, 0, 41, 0
2, 26422, Note_on_c, 0, 48, 0
2, 26423, Note_on_c, 0, 72, 0
2, 26430, Control_c, 0, 64, 0
2, 26472, Note_on_c, 0, 81, 0
2, 26472, Note_on_c, 0, 53, 0
2, 26472, Note_on_c, 0, 77, 0
2, 26472, Note_on_c, 0, 57, 0
2, 26472, Note_on_c, 0, 84, 0
2, 26472, Note_on_c, 0, 65, 0
2, 26491, Note_on_c, 0, 60, 68
2, 26492, Note_on_c, 0, 41, 68
2, 26493, Note_on_c, 0, 48, 71
2, 26493, Note_on_c, 0, 69, 72
2, 26493, Note_on_c, 0, 72, 69
2, 26522, Note_on_c, 0, 60, 0
2, 26524, Note_on_c, 0, 69, 0
2, 26524, Note_on_c, 0, 41, 0
2, 26524, Note_on_c, 0, 48, 0
2, 26524, Note_on_c, 0, 72, 0
2, 26636, Note_on_c, 0, 69, 80
2, 26636, Note_on_c, 0, 72, 76
2, 26636, Note_on_c, 0, 77, 78
2, 26636, Note_on_c, 0, 81, 77
2, 26645, Note_on_c, 0, 57, 70
2, 26645, Note_on_c, 0, 60, 70
2, 26646, Note_on_c, 0, 53, 72
2, 26668, Note_on_c, 0, 69, 0
2, 26669, Note_on_c, 0, 81, 0
2, 26669, Note_on_c, 0, 72, 0
2, 26669, Note_on_c, 0, 77, 0
2, 26678, Note_on_c, 0, 60, 0
2, 26679, Note_on_c, 0, 57, 0
2, 26679, Note_on_c, 0, 53, 0
2, 26747, Control_c, 0, 64, 127
2, 26781, Control_c, 0, 64, 0
2, 26803, Note_on_c, 0, 56, 71
2, 26804, Note_on_c, 0, 53, 68
2, 26804, Note_on_c, 0, 60, 67
2, 26804, Note_on_c, 0, 84, 71
2, 26805, Note_on_c, 0, 72, 74
2, 26805, Note_on_c, 0, 80, 71
2, 26837, Note_on_c, 0, 80, 0
2, 26837, Note_on_c, 0, 84, 0
2, 26837, Note_on_c, 0, 72, 0
2, 26856, Note_on_c, 0, 56, 0
2, 26856, Note_on_c, 0, 60, 0
2, 26857, Note_on_c, 0, 53, 0
2, 26867, Note_on_c, 0, 62, 66
2, 26868, Note_on_c, 0, 74, 75
2, 26870, Note_on_c, 0, 86, 72
2, 26900, Note_on_c, 0, 74, 0
2, 26902, Note_on_c, 0, 86, 0
2, 26952, Note_on_c, 0, 62, 0
2, 26959, Note_on_c, 0, 63, 68
2, 26959, Note_on_c, 0, 75, 66
2, 26959, Note_on_c, 0, 87, 72
2, 26992, Note_on_c, 0, 87, 0
2, 26992, Note_on_c, 0, 75, 0
2, 27010, Note_on_c, 0, 63, 0
2, 27028, Note_on_c, 0, 65, 80
2, 27028, Note_on_c, 0, 77, 84
2, 27029, Note_on_c, 0, 89, 79
2, 27049, Control_c, 0, 64, 127
2, 27061, Note_on_c, 0, 65, 0
2, 27062, Note_on_c, 0, 89, 0
2, 27062, Note_on_c, 0, 77, 0
2, 27100, Note_on_c, 0, 55, 84
2, 27100, Note_on_c, 0, 60, 77
2, 27100, Note_on_c, 0, 75, 84
2, 27100, Note_on_c, 0, 84, 78
2, 27101, Note_on_c, 0, 63, 78
2, 27101, Note_on_c, 0, 87, 81
2, 27204, Note_on_c, 0, 60, 0
2, 27296, Note_on_c, 0, 60, 64
2, 27296, Note_on_c, 0, 67, 63
2, 27297, Note_on_c, 0, 43, 60
2, 27297, Note_on_c, 0, 51, 59
2, 27309, Control_c, 0, 64, 0
2, 27316, Note_on_c, 0, 60, 0
2, 27318, Note_on_c, 0, 67, 0
2, 27349, Note_on_c, 0, 51, 0
2, 27349, Note_on_c, 0, 43, 0
2, 27367, Note_on_c, 0, 60, 66
2, 27367, Note_on_c, 0, 67, 66
2, 27379, Note_on_c, 0, 36, 68
2, 27389, Note_on_c, 0, 67, 0
2, 27389, Note_on_c, 0, 60, 0
2, 27440, Note_on_c, 0, 67, 80
2, 27441, Note_on_c, 0, 43, 79
2, 27441, Note_on_c, 0, 51, 82
2, 27441, Note_on_c, 0, 60, 84
2, 27517, Note_on_c, 0, 60, 0
2, 27518, Note_on_c, 0, 51, 0
2, 27518, Note_on_c, 0, 36, 0
2, 27518, Note_on_c, 0, 67, 0
2, 27518, Note_on_c, 0, 55, 0
2, 27518, Note_on_c, 0, 63, 0
2, 27518, Note_on_c, 0, 43, 0
2, 27518, Note_on_c, 0, 75, 0
2, 27519, Note_on_c, 0, 87, 0
2, 27519, Note_on_c, 0, 84, 0
2, 27616, Note_on_c, 0, 63, 76
2, 27616, Note_on_c, 0, 75, 77
2, 27616, Note_on_c, 0, 87, 73
2, 27648, Note_on_c, 0, 87, 0
2, 27648, Note_on_c, 0, 75, 0
2, 27648, Note_on_c, 0, 63, 0
2, 27688, Note_on_c, 0, 65, 80
2, 27688, Note_on_c, 0, 77, 79
2, 27688, Note_on_c, 0, 89, 74
2, 27719, Note_on_c, 0, 65, 0
2, 27720, Note_on_c, 0, 89, 0
2, 27720, Note_on_c, 0, 77, 0
2, 27745, Note_on_c, 0, 62, 81
2, 27745, Note_on_c, 0, 67, 81
2, 27745, Note_on_c, 0, 82, 82
2, 27746, Note_on_c, 0, 58, 82
2, 27746, Note_on_c, 0, 79, 81
2, 27746, Note_on_c, 0, 86, 85
2, 27746, Note_on_c, 0, 91, 84
2, 27756, Control_c, 0, 64, 127
2, 27775, Note_on_c, 0, 58, 0
2, 27775, Note_on_c, 0, 67, 0
2, 27775, Note_on_c, 0, 62, 0
2, 27834, Control_c, 0, 64, 0
2, 27852, Note_on_c, 0, 82, 0
2, 27853, Note_on_c, 0, 86, 0
2, 27882, Note_on_c, 0, 79, 0
2, 27883, Note_on_c, 0, 91, 0
2, 27911, Note_on_c, 0, 62, 79
2, 27911, Note_on_c, 0, 67, 69
2, 27920, Note_on_c, 0, 46, 73
2, 27920, Note_on_c, 0, 55, 79
2, 27932, Note_on_c, 0, 67, 0
2, 27932, Note_on_c, 0, 62, 0
2, 27951, Note_on_c, 0, 55, 0
2, 27952, Note_on_c, 0, 46, 0
2, 27960, Control_c, 0, 64, 127
2, 28001, Note_on_c, 0, 62, 77
2, 28001, Note_on_c, 0, 67, 71
2, 28002, Note_on_c, 0, 39, 72
2, 28022, Note_on_c, 0, 67, 0
2, 28022, Note_on_c, 0, 62, 0
2, 28032, Note_on_c, 0, 39, 0
2, 28073, Control_c, 0, 64, 0
2, 28090, Note_on_c, 0, 46, 83
2, 28090, Note_on_c, 0, 55, 84
2, 28090, Note_on_c, 0, 62, 86
2, 28090, Note_on_c, 0, 67, 88
2, 28121, Note_on_c, 0, 67, 0
2, 28121, Note_on_c, 0, 46, 0
2, 28121, Note_on_c, 0, 55, 0
2, 28121, Note_on_c, 0, 62, 0
2, 28229, Note_on_c, 0, 86, 92
2, 28240, Note_on_c, 0, 62, 100
2, 28263, Note_on_c, 0, 86, 0
2, 28272, Note_on_c, 0, 62, 0
2, 28293, Note_on_c, 0, 91, 91
2, 28294, Note_on_c, 0, 67, 94
2, 28316, Note_on_c, 0, 67, 0
2, 28327, Note_on_c, 0, 91, 0
2, 28368, Note_on_c, 0, 64, 93
2, 28368, Note_on_c, 0, 67, 91
2, 28368, Note_on_c, 0, 81, 95
2, 28368, Note_on_c, 0, 86, 91
2, 28368, Note_on_c, 0, 93, 93
2, 28369, Note_on_c, 0, 57, 93
2, 28369, Note_on_c, 0, 69, 98
2, 28390, Control_c, 0, 64, 127
2, 28409, Note_on_c, 0, 67, 0
2, 28409, Note_on_c, 0, 64, 0
2, 28410, Note_on_c, 0, 57, 0
2, 28410, Note_on_c, 0, 69, 0
2, 28480, Control_c, 0, 64, 0
2, 28498, Note_on_c, 0, 81, 0
2, 28498, Note_on_c, 0, 93, 0
2, 28499, Note_on_c, 0, 86, 0
2, 28525, Note_on_c, 0, 57, 69
2, 28534, Note_on_c, 0, 67, 74
2, 28535, Note_on_c, 0, 64, 73
2, 28535, Note_on_c, 0, 69, 77
2, 28535, Note_on_c, 0, 74, 77
2, 28535, Note_on_c, 0, 76, 73
2, 28535, Note_on_c, 0, 81, 77
2, 28557, Note_on_c, 0, 74, 0
2, 28557, Note_on_c, 0, 69, 0
2, 28557, Note_on_c, 0, 57, 0
2, 28557, Note_on_c, 0, 64, 0
2, 28557, Note_on_c, 0, 67, 0
2, 28558, Note_on_c, 0, 81, 0
2, 28558, Note_on_c, 0, 76, 0
2, 28606, Note_on_c, 0, 57, 75
2, 28614, Note_on_c, 0, 64, 83
2, 28614, Note_on_c, 0, 67, 71
2, 28615, Note_on_c, 0, 69, 75
2, 28615, Note_on_c, 0, 74, 75
2, 28615, Note_on_c, 0, 76, 75
2, 28615, Note_on_c, 0, 81, 75
2, 28637, Note_on_c, 0, 81, 0
2, 28637, Note_on_c, 0, 64, 0
2, 28637, Note_on_c, 0, 69, 0
2, 28637, Note_on_c, 0, 67, 0
2, 28637, Note_on_c, 0, 74, 0
2, 28638, Note_on_c, 0, 57, 0
2, 28638, Note_on_c, 0, 76, 0
2, 28700, Note_on_c, 0, 64, 41
2, 28700, Note_on_c, 0, 67, 80
2, 28701, Note_on_c, 0, 57, 41
2, 28701, Note_on_c, 0, 69, 82
2, 28701, Note_on_c, 0, 74, 80
2, 28701, Note_on_c, 0, 76, 82
2, 28701, Note_on_c, 0, 81, 80
2, 28731, Control_c, 0, 64, 127
2, 28762, Note_on_c, 0, 64, 0
2, 28763, Note_on_c, 0, 69, 0
2, 28836, Control_c, 0, 64, 0
2, 28851, Note_on_c, 0, 55, 65
2, 28851, Note_on_c, 0, 64, 63
2, 28852, Note_on_c, 0, 45, 61
2, 28852, Note_on_c, 0, 62, 59
2, 28852, Note_on_c, 0, 69, 63
2, 28853, Note_on_c, 0, 52, 62
2, 28872, Note_on_c, 0, 64, 0
2, 28873, Note_on_c, 0, 62, 0
2, 28873, Note_on_c, 0, 52, 0
2, 28873, Note_on_c, 0, 45, 0
2, 28873, Note_on_c, 0, 69, 0
2, 28873, Note_on_c, 0, 55, 0
2, 28923, Note_on_c, 0, 55, 67
2, 28923, Note_on_c, 0, 64, 70
2, 28923, Note_on_c, 0, 69, 70
2, 28924, Note_on_c, 0, 45, 71
2, 28924, Note_on_c, 0, 52, 70
2, 28924, Note_on_c, 0, 62, 65
2, 28945, Note_on_c, 0, 64, 0
2, 28946, Note_on_c, 0, 45, 0
2, 28946, Note_on_c, 0, 62, 0
2, 28946, Note_on_c, 0, 69, 0
2, 28946, Note_on_c, 0, 52, 0
2, 28946, Note_on_c, 0, 55, 0
2, 29007, Note_on_c, 0, 62, 78
2, 29007, Note_on_c, 0, 64, 81
2, 29007, Note_on_c, 0, 69, 80
2, 29008, Note_on_c, 0, 45, 81
2, 29008, Note_on_c, 0, 52, 79
2, 29008, Note_on_c, 0, 55, 79
2, 29018, Note_on_c, 0, 57, 0
2, 29018, Note_on_c, 0, 67, 0
2, 29018, Note_on_c, 0, 74, 0
2, 29018, Note_on_c, 0, 81, 0
2, 29019, Note_on_c, 0, 76, 0
2, 29040, Note_on_c, 0, 64, 0
2, 29040, Note_on_c, 0, 62, 0
2, 29040, Note_on_c, 0, 55, 0
2, 29040, Note_on_c, 0, 52, 0
2, 29040, Note_on_c, 0, 45, 0
2, 29040, Note_on_c, 0, 69, 0
2, 29183, Note_on_c, 0, 40, 65
2, 29183, Note_on_c, 0, 55, 63
2, 29184, Note_on_c, 0, 33, 63
2, 29184, Note_on_c, 0, 49, 65
2, 29184, Note_on_c, 0, 57, 63
2, 29204, Note_on_c, 0, 55, 0
2, 29205, Note_on_c, 0, 40, 0
2, 29205, Note_on_c, 0, 57, 0
2, 29206, Note_on_c, 0, 33, 0
2, 29206, Note_on_c, 0, 49, 0
2, 29264, Note_on_c, 0, 33, 66
2, 29264, Note_on_c, 0, 55, 66
2, 29264, Note_on_c, 0, 57, 65
2, 29265, Note_on_c, 0, 40, 68
2, 29265, Note_on_c, 0, 49, 67
2, 29285, Note_on_c, 0, 55, 0
2, 29286, Note_on_c, 0, 40, 0
2, 29286, Note_on_c, 0, 49, 0
2, 29286, Note_on_c, 0, 57, 0
2, 29287, Note_on_c, 0, 33, 0
2, 29345, Note_on_c, 0, 40, 81
2, 29345, Note_on_c, 0, 55, 80
2, 29345, Note_on_c, 0, 57, 81
2, 29346, Note_on_c, 0, 33, 81
2, 29346, Note_on_c, 0, 49, 78
2, 29377, Note_on_c, 0, 55, 0
2, 29378, Note_on_c, 0, 57, 0
2, 29379, Note_on_c, 0, 40, 0
2, 29379, Note_on_c, 0, 33, 0
2, 29379, Note_on_c, 0, 49, 0
2, 29526, Note_on_c, 0, 55, 83
2, 29527, Note_on_c, 0, 31, 80
2, 29559, Note_on_c, 0, 55, 0
2, 29561, Note_on_c, 0, 31, 0
2, 29610, Note_on_c, 0, 33, 77
2, 29610, Note_on_c, 0, 57, 78
2, 29642, Note_on_c, 0, 57, 0
2, 29643, Note_on_c, 0, 33, 0
2, 29682, Note_on_c, 0, 38, 79
2, 29682, Note_on_c, 0, 62, 81
2, 29683, Note_on_c, 0, 50, 83
2, 29694, Note_on_c, 0, 26, 77
2, 30078, Control_c, 0, 64, 127
2, 30201, Note_on_c, 0, 62, 0
2, 30271, Note_on_c, 0, 66, 54
2, 30271, Note_on_c, 0, 69, 50
2, 30272, Note_on_c, 0, 57, 52
2, 30272, Note_on_c, 0, 62, 55
2, 30272, Note_on_c, 0, 81, 55
2, 30272, Note_on_c, 0, 86, 56
2, 30272, Note_on_c, 0, 90, 52
2, 30272, Note_on_c, 0, 93, 51
2, 30294, Note_on_c, 0, 93, 0
2, 30294, Note_on_c, 0, 81, 0
2, 30294, Note_on_c, 0, 90, 0
2, 30294, Note_on_c, 0, 62, 0
2, 30294, Note_on_c, 0, 66, 0
2, 30294, Note_on_c, 0, 69, 0
2, 30294, Note_on_c, 0, 86, 0
2, 30294, Note_on_c, 0, 57, 0
2, 30364, Note_on_c, 0, 66, 49
2, 30365, Note_on_c, 0, 57, 55
2, 30365, Note_on_c, 0, 62, 53
2, 30365, Note_on_c, 0, 69, 55
2, 30365, Note_on_c, 0, 81, 56
2, 30365, Note_on_c, 0, 86, 54
2, 30365, Note_on_c, 0, 90, 56
2, 30365, Note_on_c, 0, 93, 50
2, 30385, Note_on_c, 0, 62, 0
2, 30386, Note_on_c, 0, 86, 0
2, 30386, Note_on_c, 0, 93, 0
2, 30386, Note_on_c, 0, 81, 0
2, 30386, Note_on_c, 0, 66, 0
2, 30386, Note_on_c, 0, 57, 0
2, 30386, Note_on_c, 0, 90, 0
2, 30386, Note_on_c, 0, 69, 0
2, 30454, Note_on_c, 0, 62, 50
2, 30454, Note_on_c, 0, 66, 56
2, 30454, Note_on_c, 0, 69, 55
2, 30454, Note_on_c, 0, 90, 57
2, 30455, Note_on_c, 0, 57, 51
2, 30455, Note_on_c, 0, 81, 57
2, 30455, Note_on_c, 0, 86, 55
2, 30455, Note_on_c, 0, 93, 56
2, 30476, Note_on_c, 0, 66, 0
2, 30476, Note_on_c, 0, 62, 0
2, 30477, Note_on_c, 0, 86, 0
2, 30477, Note_on_c, 0, 90, 0
2, 30528, Note_on_c, 0, 81, 0
2, 30528, Note_on_c, 0, 57, 0
2, 30528, Note_on_c, 0, 93, 0
2, 30528, Note_on_c, 0, 69, 0
2, 30535, Note_on_c, 0, 58, 68
2, 30535, Note_on_c, 0, 66, 67
2, 30535, Note_on_c, 0, 70, 66
2, 30535, Note_on_c, 0, 82, 62
2, 30536, Note_on_c, 0, 62, 62
2, 30536, Note_on_c, 0, 86, 66
2, 30536, Note_on_c, 0, 90, 66
2, 30536, Note_on_c, 0, 94, 63
2, 30568, Note_on_c, 0, 94, 0
2, 30568, Note_on_c, 0, 62, 0
2, 30568, Note_on_c, 0, 58, 0
2, 30568, Note_on_c, 0, 82, 0
2, 30568, Note_on_c, 0, 70, 0
2, 30568, Note_on_c, 0, 66, 0
2, 30569, Note_on_c, 0, 86, 0
2, 30569, Note_on_c, 0, 90, 0
2, 30618, Note_on_c, 0, 82, 65
2, 30619, Note_on_c, 0, 58, 47
2, 30619, Note_on_c, 0, 62, 45
2, 30619, Note_on_c, 0, 66, 68
2, 30619, Note_on_c, 0, 70, 69
2, 30619, Note_on_c, 0, 94, 63
2, 30620, Note_on_c, 0, 86, 69
2, 30620, Note_on_c, 0, 90, 70
2, 30639, Note_on_c, 0, 62, 0
2, 30640, Note_on_c, 0, 66, 0
2, 30641, Note_on_c, 0, 90, 0
2, 30641, Note_on_c, 0, 86, 0
2, 30691, Note_on_c, 0, 82, 0
2, 30691, Note_on_c, 0, 58, 0
2, 30692, Note_on_c, 0, 70, 0
2, 30693, Note_on_c, 0, 94, 0
2, 30700, Note_on_c, 0, 57, 70
2, 30700, Note_on_c, 0, 62, 67
2, 30700, Note_on_c, 0, 66, 72
2, 30700, Note_on_c, 0, 69, 72
2, 30700, Note_on_c, 0, 81, 72
2, 30700, Note_on_c, 0, 93, 76
2, 30701, Note_on_c, 0, 86, 76
2, 30701, Note_on_c, 0, 90, 74
2, 30720, Note_on_c, 0, 66, 0
2, 30720, Note_on_c, 0, 57, 0
2, 30720, Note_on_c, 0, 62, 0
2, 30721, Note_on_c, 0, 81, 0
2, 30721, Note_on_c, 0, 86, 0
2, 30721, Note_on_c, 0, 69, 0
2, 30722, Note_on_c, 0, 90, 0
2, 30722, Note_on_c, 0, 93, 0
2, 30782, Note_on_c, 0, 57, 73
2, 30782, Note_on_c, 0, 62, 69
2, 30782, Note_on_c, 0, 66, 78
2, 30782, Note_on_c, 0, 69, 79
2, 30783, Note_on_c, 0, 81, 73
2, 30783, Note_on_c, 0, 86, 75
2, 30783, Note_on_c, 0, 90, 73
2, 30783, Note_on_c, 0, 93, 73
2, 30802, Note_on_c, 0, 62, 0
2, 30803, Note_on_c, 0, 66, 0
2, 30804, Note_on_c, 0, 90, 0
2, 30804, Note_on_c, 0, 86, 0
2, 30841, Note_on_c, 0, 57, 0
2, 30842, Note_on_c, 0, 81, 0
2, 30842, Note_on_c, 0, 69, 0
2, 30843, Note_on_c, 0, 93, 0
2, 30850, Note_on_c, 0, 58, 79
2, 30850, Note_on_c, 0, 62, 79
2, 30850, Note_on_c, 0, 66, 87
2, 30850, Note_on_c, 0, 70, 84
2, 30850, Note_on_c, 0, 82, 86
2, 30850, Note_on_c, 0, 86, 82
2, 30850, Note_on_c, 0, 90, 81
2, 30850, Note_on_c, 0, 94, 86
2, 30869, Note_on_c, 0, 66, 0
2, 30869, Note_on_c, 0, 58, 0
2, 30869, Note_on_c, 0, 62, 0
2, 30870, Note_on_c, 0, 82, 0
2, 30870, Note_on_c, 0, 90, 0
2, 30870, Note_on_c, 0, 70, 0
2, 30871, Note_on_c, 0, 94, 0
2, 30871, Note_on_c, 0, 86, 0
2, 30929, Note_on_c, 0, 58, 83
2, 30929, Note_on_c, 0, 62, 83
2, 30929, Note_on_c, 0, 66, 87
2, 30929, Note_on_c, 0, 70, 87
2, 30929, Note_on_c, 0, 82, 85
2, 30930, Note_on_c, 0, 86, 84
2, 30930, Note_on_c, 0, 90, 87
2, 30930, Note_on_c, 0, 94, 88
2, 30950, Note_on_c, 0, 66, 0
2, 30950, Note_on_c, 0, 62, 0
2, 30951, Note_on_c, 0, 90, 0
2, 30951, Note_on_c, 0, 86, 0
2, 30989, Note_on_c, 0, 58, 0
2, 30989, Note_on_c, 0, 82, 0
2, 30990, Note_on_c, 0, 70, 0
2, 30990, Note_on_c, 0, 94, 0
2, 30997, Note_on_c, 0, 57, 78
2, 30997, Note_on_c, 0, 62, 78
2, 30997, Note_on_c, 0, 66, 84
2, 30997, Note_on_c, 0, 69, 89
2, 30998, Note_on_c, 0, 81, 90
2, 30998, Note_on_c, 0, 86, 85
2, 30998, Note_on_c, 0, 90, 84
2, 30998, Note_on_c, 0, 93, 83
2, 31017, Note_on_c, 0, 66, 0
2, 31017, Note_on_c, 0, 57, 0
2, 31017, Note_on_c, 0, 62, 0
2, 31018, Note_on_c, 0, 81, 0
2, 31018, Note_on_c, 0, 93, 0
2, 31018, Note_on_c, 0, 69, 0
2, 31019, Note_on_c, 0, 90, 0
2, 31019, Note_on_c, 0, 86, 0
2, 31064, Note_on_c, 0, 57, 79
2, 31074, Note_on_c, 0, 62, 82
2, 31074, Note_on_c, 0, 66, 92
2, 31075, Note_on_c, 0, 69, 91
2, 31075, Note_on_c, 0, 81, 91
2, 31075, Note_on_c, 0, 86, 91
2, 31075, Note_on_c, 0, 90, 89
2, 31075, Note_on_c, 0, 93, 88
2, 31094, Note_on_c, 0, 66, 0
2, 31094, Note_on_c, 0, 62, 0
2, 31095, Note_on_c, 0, 90, 0
2, 31096, Note_on_c, 0, 86, 0
2, 31139, Note_on_c, 0, 58, 95
2, 31150, Note_on_c, 0, 62, 98
2, 31150, Note_on_c, 0, 82, 99
2, 31151, Note_on_c, 0, 66, 98
2, 31151, Note_on_c, 0, 70, 94
2, 31151, Note_on_c, 0, 86, 96
2, 31151, Note_on_c, 0, 90, 96
2, 31151, Note_on_c, 0, 94, 98
2, 31152, Note_on_c, 0, 57, 0
2, 31152, Note_on_c, 0, 81, 0
2, 31152, Note_on_c, 0, 69, 0
2, 31153, Note_on_c, 0, 93, 0
2, 31170, Note_on_c, 0, 62, 0
2, 31171, Note_on_c, 0, 82, 0
2, 31171, Note_on_c, 0, 58, 0
2, 31171, Note_on_c, 0, 66, 0
2, 31172, Note_on_c, 0, 94, 0
2, 31172, Note_on_c, 0, 70, 0
2, 31173, Note_on_c, 0, 86, 0
2, 31173, Note_on_c, 0, 90, 0
2, 31226, Note_on_c, 0, 66, 102
2, 31227, Note_on_c, 0, 58, 100
2, 31227, Note_on_c, 0, 62, 98
2, 31227, Note_on_c, 0, 82, 95
2, 31228, Note_on_c, 0, 70, 101
2, 31228, Note_on_c, 0, 86, 95
2, 31228, Note_on_c, 0, 90, 98
2, 31228, Note_on_c, 0, 94, 96
2, 31248, Note_on_c, 0, 62, 0
2, 31248, Note_on_c, 0, 66, 0
2, 31249, Note_on_c, 0, 90, 0
2, 31249, Note_on_c, 0, 86, 0
2, 31296, Note_on_c, 0, 62, 97
2, 31296, Note_on_c, 0, 66, 100
2, 31296, Note_on_c, 0, 69, 102
2, 31297, Note_on_c, 0, 57, 103
2, 31297, Note_on_c, 0, 81, 101
2, 31297, Note_on_c, 0, 86, 98
2, 31297, Note_on_c, 0, 90, 99
2, 31297, Note_on_c, 0, 93, 100
2, 31299, Note_on_c, 0, 58, 0
2, 31299, Note_on_c, 0, 70, 0
2, 31299, Note_on_c, 0, 82, 0
2, 31300, Note_on_c, 0, 94, 0
2, 31308, Control_c, 0, 64, 0
2, 31318, Note_on_c, 0, 66, 0
2, 31318, Note_on_c, 0, 62, 0
2, 31318, Note_on_c, 0, 57, 0
2, 31319, Note_on_c, 0, 69, 0
2, 31319, Note_on_c, 0, 81, 0
2, 31319, Note_on_c, 0, 90, 0
2, 31320, Note_on_c, 0, 93, 0
2, 31320, Note_on_c, 0, 86, 0
2, 31391, Note_on_c, 0, 66, 101
2, 31392, Note_on_c, 0, 57, 97
2, 31392, Note_on_c, 0, 62, 100
2, 31392, Note_on_c, 0, 69, 101
2, 31392, Note_on_c, 0, 81, 101
2, 31392, Note_on_c, 0, 86, 98
2, 31392, Note_on_c, 0, 90, 103
2, 31392, Note_on_c, 0, 93, 102
2, 31451, Note_on_c, 0, 66, 0
2, 31453, Note_on_c, 0, 90, 0
2, 31472, Note_on_c, 0, 86, 0
2, 31500, Note_on_c, 0, 62, 0
2, 31501, Note_on_c, 0, 57, 0
2, 31532, Note_on_c, 0, 81, 0
2, 31532, Note_on_c, 0, 93, 0
2, 31532, Note_on_c, 0, 69, 0
2, 31538, Note_on_c, 0, 66, 92
2, 31538, Note_on_c, 0, 78, 92
2, 31538, Note_on_c, 0, 90, 86
2, 31541, Note_on_c, 0, 50, 0
2, 31568, Control_c, 0, 64, 127
2, 31601, Note_on_c, 0, 90, 0
2, 31608, Note_on_c, 0, 75, 83
2, 31608, Note_on_c, 0, 87, 90
2, 31608, Note_on_c, 0, 63, 83
2, 31680, Note_on_c, 0, 87, 0
2, 31687, Note_on_c, 0, 62, 84
2, 31687, Note_on_c, 0, 74, 84
2, 31688, Note_on_c, 0, 86, 84
2, 31689, Note_on_c, 0, 66, 0
2, 31709, Note_on_c, 0, 78, 0
2, 31710, Note_on_c, 0, 75, 0
2, 31769, Note_on_c, 0, 60, 82
2, 31770, Note_on_c, 0, 72, 80
2, 31770, Note_on_c, 0, 84, 79
2, 31772, Note_on_c, 0, 63, 0
2, 31773, Note_on_c, 0, 86, 0
2, 31832, Note_on_c, 0, 62, 0
2, 31842, Note_on_c, 0, 84, 0
2, 31848, Note_on_c, 0, 58, 74
2, 31848, Note_on_c, 0, 82, 75
2, 31849, Note_on_c, 0, 70, 74
2, 31861, Note_on_c, 0, 74, 0
2, 31899, Control_c, 0, 64, 0
2, 31909, Note_on_c, 0, 82, 0
2, 31916, Note_on_c, 0, 57, 75
2, 31916, Note_on_c, 0, 69, 78
2, 31917, Note_on_c, 0, 81, 72
2, 31920, Note_on_c, 0, 72, 0
2, 31957, Note_on_c, 0, 60, 0
2, 31994, Note_on_c, 0, 54, 71
2, 31994, Note_on_c, 0, 66, 75
2, 31995, Note_on_c, 0, 78, 71
2, 31997, Note_on_c, 0, 81, 0
2, 31997, Note_on_c, 0, 58, 0
2, 32029, Note_on_c, 0, 70, 0
2, 32059, Note_on_c, 0, 57, 0
2, 32060, Note_on_c, 0, 69, 0
2, 32069, Note_on_c, 0, 78, 0
2, 32076, Note_on_c, 0, 75, 70
2, 32077, Note_on_c, 0, 51, 71
2, 32077, Note_on_c, 0, 63, 70
2, 32088, Control_c, 0, 64, 127
2, 32142, Note_on_c, 0, 54, 0
2, 32153, Note_on_c, 0, 66, 0
2, 32153, Control_c, 0, 64, 0
2, 32154, Note_on_c, 0, 75, 0
2, 32163, Note_on_c, 0, 50, 72
2, 32163, Note_on_c, 0, 62, 71
2, 32163, Note_on_c, 0, 74, 68
2, 32184, Control_c, 0, 64, 127
2, 32206, Control_c, 0, 64, 0
2, 32236, Control_c, 0, 64, 127
2, 32238, Note_on_c, 0, 74, 0
2, 32246, Note_on_c, 0, 60, 69
2, 32247, Note_on_c, 0, 48, 69
2, 32247, Note_on_c, 0, 72, 71
2, 32258, Note_on_c, 0, 51, 0
2, 32269, Note_on_c, 0, 63, 0
2, 32309, Note_on_c, 0, 62, 0
2, 32328, Note_on_c, 0, 46, 69
2, 32328, Note_on_c, 0, 58, 67
2, 32330, Note_on_c, 0, 50, 0
2, 32331, Note_on_c, 0, 72, 0
2, 32338, Note_on_c, 0, 70, 66
2, 32390, Note_on_c, 0, 60, 0
2, 32401, Note_on_c, 0, 70, 0
2, 32408, Note_on_c, 0, 45, 72
2, 32408, Note_on_c, 0, 57, 70
2, 32408, Note_on_c, 0, 69, 72
2, 32410, Note_on_c, 0, 58, 0
2, 32411, Note_on_c, 0, 48, 0
2, 32420, Note_on_c, 0, 46, 0
2, 32421, Control_c, 0, 64, 0
2, 32463, Note_on_c, 0, 38, 0
2, 32483, Note_on_c, 0, 42, 68
2, 32485, Note_on_c, 0, 69, 0
2, 32493, Note_on_c, 0, 66, 73
2, 32494, Note_on_c, 0, 54, 70
2, 32496, Note_on_c, 0, 45, 0
2, 32496, Note_on_c, 0, 57, 0
2, 32527, Note_on_c, 0, 66, 0
2, 32527, Note_on_c, 0, 54, 0
2, 32557, Note_on_c, 0, 38, 68
2, 32568, Note_on_c, 0, 50, 66
2, 32568, Note_on_c, 0, 62, 71
2, 32581, Note_on_c, 0, 26, 0
2, 32590, Note_on_c, 0, 42, 0
2, 32590, Note_on_c, 0, 38, 0
2, 32599, Note_on_c, 0, 62, 0
2, 32600, Note_on_c, 0, 50, 0
2, 32705, Note_on_c, 0, 31, 79
2, 32705, Note_on_c, 0, 43, 79
2, 32706, Note_on_c, 0, 55, 82
2, 32792, Control_c, 0, 64, 127
2, 32805, Note_on_c, 0, 55, 0
2, 32905, Note_on_c, 0, 67, 59
2, 32906, Control_c, 0, 64, 0
2, 32906, Note_on_c, 0, 50, 63
2, 32906, Note_on_c, 0, 55, 60
2, 32906, Note_on_c, 0, 62, 60
2, 32906, Note_on_c, 0, 70, 63
2, 32906, Note_on_c, 0, 74, 59
2, 32907, Note_on_c, 0, 58, 65
2, 32928, Note_on_c, 0, 58, 0
2, 32928, Note_on_c, 0, 50, 0
2, 32928, Note_on_c, 0, 74, 0
2, 32928, Note_on_c, 0, 62, 0
2, 32928, Note_on_c, 0, 67, 0
2, 32928, Note_on_c, 0, 55, 0
2, 32929, Note_on_c, 0, 70, 0
2, 32996, Note_on_c, 0, 55, 59
2, 32996, Note_on_c, 0, 58, 66
2, 32996, Note_on_c, 0, 62, 59
2, 32996, Note_on_c, 0, 67, 61
2, 32996, Note_on_c, 0, 74, 60
2, 32997, Note_on_c, 0, 50, 62
2, 32997, Note_on_c, 0, 70, 64
2, 33017, Note_on_c, 0, 58, 0
2, 33018, Note_on_c, 0, 62, 0
2, 33018, Note_on_c, 0, 70, 0
2, 33018, Note_on_c, 0, 67, 0
2, 33018, Note_on_c, 0, 50, 0
2, 33018, Note_on_c, 0, 55, 0
2, 33018, Note_on_c, 0, 74, 0
2, 33078, Note_on_c, 0, 62, 69
2, 33078, Note_on_c, 0, 67, 69
2, 33078, Note_on_c, 0, 74, 66
2, 33079, Note_on_c, 0, 50, 71
2, 33079, Note_on_c, 0, 55, 72
2, 33079, Note_on_c, 0, 58, 65
2, 33079, Note_on_c, 0, 70, 65
2, 33101, Note_on_c, 0, 31, 0
2, 33101, Note_on_c, 0, 43, 0
2, 33110, Note_on_c, 0, 67, 0
2, 33110, Note_on_c, 0, 62, 0
2, 33110, Note_on_c, 0, 55, 0
2, 33111, Note_on_c, 0, 74, 0
2, 33111, Note_on_c, 0, 70, 0
2, 33111, Note_on_c, 0, 50, 0
2, 33111, Note_on_c, 0, 58, 0
2, 33255, Note_on_c, 0, 46, 77
2, 33256, Note_on_c, 0, 34, 75
2, 33256, Note_on_c, 0, 58, 76
2, 33288, Note_on_c, 0, 46, 0
2, 33289, Note_on_c, 0, 58, 0
2, 33289, Note_on_c, 0, 34, 0
2, 33383, Control_c, 0, 64, 127
2, 33466, Note_on_c, 0, 38, 84
2, 33467, Note_on_c, 0, 62, 83
2, 33468, Note_on_c, 0, 50, 78
2, 33530, Control_c, 0, 64, 0
2, 33540, Note_on_c, 0, 50, 0
2, 33540, Note_on_c, 0, 62, 0
2, 33540, Note_on_c, 0, 38, 0
2, 33636, Note_on_c, 0, 55, 41
2, 33636, Note_on_c, 0, 58, 48
2, 33636, Note_on_c, 0, 62, 48
2, 33636, Note_on_c, 0, 67, 54
2, 33637, Note_on_c, 0, 50, 44
2, 33637, Note_on_c, 0, 70, 59
2, 33637, Note_on_c, 0, 74, 56
2, 33669, Note_on_c, 0, 67, 0
2, 33669, Note_on_c, 0, 62, 0
2, 33669, Note_on_c, 0, 55, 0
2, 33670, Note_on_c, 0, 50, 0
2, 33670, Note_on_c, 0, 58, 0
2, 33670, Note_on_c, 0, 70, 0
2, 33670, Note_on_c, 0, 74, 0
2, 33777, Control_c, 0, 64, 127
2, 33839, Note_on_c, 0, 46, 78
2, 33840, Note_on_c, 0, 34, 78
2, 33840, Note_on_c, 0, 58, 78
2, 33914, Control_c, 0, 64, 0
2, 33935, Note_on_c, 0, 58, 0
2, 33935, Note_on_c, 0, 34, 0
2, 33935, Note_on_c, 0, 46, 0
2, 34013, Note_on_c, 0, 55, 41
2, 34013, Note_on_c, 0, 62, 43
2, 34013, Note_on_c, 0, 67, 63
2, 34014, Note_on_c, 0, 50, 46
2, 34014, Note_on_c, 0, 58, 46
2, 34014, Note_on_c, 0, 70, 61
2, 34015, Note_on_c, 0, 74, 61
2, 34046, Note_on_c, 0, 67, 0
2, 34046, Note_on_c, 0, 55, 0
2, 34046, Note_on_c, 0, 62, 0
2, 34047, Note_on_c, 0, 58, 0
2, 34047, Note_on_c, 0, 50, 0
2, 34047, Note_on_c, 0, 70, 0
2, 34047, Note_on_c, 0, 74, 0
2, 34148, Control_c, 0, 64, 127
2, 34220, Note_on_c, 0, 43, 83
2, 34220, Note_on_c, 0, 55, 84
2, 34221, Note_on_c, 0, 31, 81
2, 34301, Note_on_c, 0, 55, 0
2, 34391, Note_on_c, 0, 55, 61
2, 34391, Note_on_c, 0, 62, 66
2, 34391, Note_on_c, 0, 67, 58
2, 34391, Note_on_c, 0, 70, 55
2, 34391, Note_on_c, 0, 74, 56
2, 34392, Note_on_c, 0, 50, 61
2, 34392, Note_on_c, 0, 58, 66
2, 34413, Note_on_c, 0, 58, 0
2, 34413, Note_on_c, 0, 74, 0
2, 34413, Note_on_c, 0, 62, 0
2, 34413, Note_on_c, 0, 67, 0
2, 34413, Note_on_c, 0, 55, 0
2, 34413, Note_on_c, 0, 70, 0
2, 34414, Note_on_c, 0, 50, 0
2, 34424, Control_c, 0, 64, 0
2, 34474, Note_on_c, 0, 50, 59
2, 34474, Note_on_c, 0, 62, 65
2, 34474, Note_on_c, 0, 67, 54
2, 34474, Note_on_c, 0, 74, 60
2, 34475, Note_on_c, 0, 55, 61
2, 34475, Note_on_c, 0, 58, 61
2, 34475, Note_on_c, 0, 70, 57
2, 34495, Note_on_c, 0, 50, 0
2, 34496, Note_on_c, 0, 55, 0
2, 34496, Note_on_c, 0, 74, 0
2, 34497, Note_on_c, 0, 70, 0
2, 34497, Note_on_c, 0, 58, 0
2, 34497, Note_on_c, 0, 62, 0
2, 34497, Note_on_c, 0, 67, 0
2, 34560, Note_on_c, 0, 62, 69
2, 34560, Note_on_c, 0, 67, 66
2, 34560, Note_on_c, 0, 74, 60
2, 34560, Note_on_c, 0, 50, 65
2, 34560, Note_on_c, 0, 55, 66
2, 34560, Note_on_c, 0, 58, 68
2, 34560, Note_on_c, 0, 70, 60
2, 34591, Note_on_c, 0, 58, 0
2, 34591, Note_on_c, 0, 55, 0
2, 34591, Note_on_c, 0, 67, 0
2, 34591, Note_on_c, 0, 62, 0
2, 34591, Note_on_c, 0, 74, 0
2, 34592, Note_on_c, 0, 43, 0
2, 34592, Note_on_c, 0, 70, 0
2, 34592, Note_on_c, 0, 31, 0
2, 34592, Note_on_c, 0, 50, 0
2, 34735, Note_on_c, 0, 46, 74
2, 34736, Note_on_c, 0, 34, 72
2, 34736, Note_on_c, 0, 58, 74
2, 34768, Note_on_c, 0, 58, 0
2, 34768, Note_on_c, 0, 46, 0
2, 34769, Note_on_c, 0, 34, 0
2, 34872, Control_c, 0, 64, 127
2, 34922, Note_on_c, 0, 38, 84
2, 34922, Note_on_c, 0, 62, 80
2, 34923, Note_on_c, 0, 50, 82
2, 34967, Control_c, 0, 64, 0
2, 35007, Note_on_c, 0, 62, 0
2, 35008, Note_on_c, 0, 50, 0
2, 35008, Note_on_c, 0, 38, 0
2, 35097, Note_on_c, 0, 50, 48
2, 35097, Note_on_c, 0, 55, 46
2, 35097, Note_on_c, 0, 62, 47
2, 35097, Note_on_c, 0, 67, 57
2, 35097, Note_on_c, 0, 70, 58
2, 35097, Note_on_c, 0, 74, 57
2, 35098, Note_on_c, 0, 58, 46
2, 35130, Note_on_c, 0, 67, 0
2, 35131, Note_on_c, 0, 74, 0
2, 35131, Note_on_c, 0, 55, 0
2, 35131, Note_on_c, 0, 62, 0
2, 35131, Note_on_c, 0, 50, 0
2, 35131, Note_on_c, 0, 58, 0
2, 35131, Note_on_c, 0, 70, 0
2, 35217, Control_c, 0, 64, 127
2, 35284, Note_on_c, 0, 34, 71
2, 35284, Note_on_c, 0, 46, 78
2, 35285, Note_on_c, 0, 58, 77
2, 35307, Control_c, 0, 64, 0
2, 35352, Note_on_c, 0, 58, 0
2, 35352, Note_on_c, 0, 46, 0
2, 35353, Note_on_c, 0, 34, 0
2, 35470, Note_on_c, 0, 62, 44
2, 35470, Note_on_c, 0, 67, 59
2, 35471, Note_on_c, 0, 50, 43
2, 35471, Note_on_c, 0, 55, 43
2, 35471, Note_on_c, 0, 58, 47
2, 35471, Note_on_c, 0, 70, 66
2, 35471, Note_on_c, 0, 74, 63
2, 35502, Note_on_c, 0, 67, 0
2, 35503, Note_on_c, 0, 50, 0
2, 35503, Note_on_c, 0, 58, 0
2, 35503, Note_on_c, 0, 55, 0
2, 35503, Note_on_c, 0, 62, 0
2, 35503, Note_on_c, 0, 74, 0
2, 35504, Note_on_c, 0, 70, 0
2, 35574, Control_c, 0, 64, 127
2, 35671, Note_on_c, 0, 31, 80
2, 35671, Note_on_c, 0, 43, 84
2, 35671, Note_on_c, 0, 55, 84
2, 35768, Note_on_c, 0, 55, 0
2, 35859, Note_on_c, 0, 67, 57
2, 35860, Note_on_c, 0, 55, 60
2, 35860, Note_on_c, 0, 62, 61
2, 35860, Note_on_c, 0, 70, 60
2, 35860, Note_on_c, 0, 74, 54
2, 35861, Note_on_c, 0, 50, 63
2, 35861, Note_on_c, 0, 58, 61
2, 35882, Note_on_c, 0, 58, 0
2, 35882, Note_on_c, 0, 74, 0
2, 35882, Note_on_c, 0, 55, 0
2, 35882, Note_on_c, 0, 62, 0
2, 35882, Note_on_c, 0, 67, 0
2, 35882, Note_on_c, 0, 70, 0
2, 35883, Note_on_c, 0, 50, 0
2, 35885, Control_c, 0, 64, 0
2, 35933, Note_on_c, 0, 67, 59
2, 35934, Note_on_c, 0, 74, 66
2, 35935, Note_on_c, 0, 55, 60
2, 35935, Note_on_c, 0, 58, 66
2, 35935, Note_on_c, 0, 62, 66
2, 35935, Note_on_c, 0, 70, 63
2, 35936, Note_on_c, 0, 50, 59
2, 35957, Note_on_c, 0, 67, 0
2, 35958, Note_on_c, 0, 70, 0
2, 35958, Note_on_c, 0, 55, 0
2, 35958, Note_on_c, 0, 58, 0
2, 35958, Note_on_c, 0, 74, 0
2, 35958, Note_on_c, 0, 62, 0
2, 35959, Note_on_c, 0, 50, 0
2, 36020, Note_on_c, 0, 67, 73
2, 36020, Note_on_c, 0, 74, 71
2, 36021, Note_on_c, 0, 55, 71
2, 36021, Note_on_c, 0, 58, 68
2, 36021, Note_on_c, 0, 62, 66
2, 36021, Note_on_c, 0, 70, 77
2, 36022, Note_on_c, 0, 50, 71
2, 36043, Note_on_c, 0, 50, 0
2, 36051, Note_on_c, 0, 67, 0
2, 36052, Note_on_c, 0, 55, 0
2, 36052, Note_on_c, 0, 58, 0
2, 36052, Note_on_c, 0, 74, 0
2, 36052, Note_on_c, 0, 62, 0
2, 36053, Note_on_c, 0, 70, 0
2, 36053, Note_on_c, 0, 43, 0
2, 36054, Note_on_c, 0, 31, 0
2, 36221, Note_on_c, 0, 62, 73
2, 36223, Note_on_c, 0, 50, 75
2, 36254, Note_on_c, 0, 62, 0
2, 36255, Note_on_c, 0, 50, 0
2, 36292, Note_on_c, 0, 65, 81
2, 36293, Note_on_c, 0, 53, 74
2, 36325, Note_on_c, 0, 53, 0
2, 36325, Note_on_c, 0, 65, 0
2, 36351, Note_on_c, 0, 67, 80
2, 36362, Note_on_c, 0, 43, 78
2, 36362, Note_on_c, 0, 55, 84
2, 36435, Control_c, 0, 64, 127
2, 36467, Note_on_c, 0, 67, 0
2, 36548, Note_on_c, 0, 67, 60
2, 36549, Note_on_c, 0, 58, 58
2, 36549, Note_on_c, 0, 62, 53
2, 36550, Note_on_c, 0, 50, 58
2, 36550, Note_on_c, 0, 70, 55
2, 36571, Note_on_c, 0, 62, 0
2, 36571, Note_on_c, 0, 58, 0
2, 36571, Note_on_c, 0, 67, 0
2, 36572, Note_on_c, 0, 50, 0
2, 36572, Note_on_c, 0, 70, 0
2, 36581, Control_c, 0, 64, 0
2, 36622, Note_on_c, 0, 50, 53
2, 36628, Note_on_c, 0, 67, 58
2, 36629, Note_on_c, 0, 62, 56
2, 36629, Note_on_c, 0, 70, 57
2, 36630, Note_on_c, 0, 58, 54
2, 36643, Note_on_c, 0, 50, 0
2, 36651, Note_on_c, 0, 70, 0
2, 36651, Note_on_c, 0, 62, 0
2, 36651, Note_on_c, 0, 67, 0
2, 36651, Note_on_c, 0, 58, 0
2, 36713, Note_on_c, 0, 67, 71
2, 36714, Note_on_c, 0, 58, 61
2, 36714, Note_on_c, 0, 62, 62
2, 36715, Note_on_c, 0, 50, 66
2, 36715, Note_on_c, 0, 70, 77
2, 36736, Note_on_c, 0, 55, 0
2, 36736, Note_on_c, 0, 43, 0
2, 36746, Note_on_c, 0, 67, 0
2, 36746, Note_on_c, 0, 62, 0
2, 36746, Note_on_c, 0, 58, 0
2, 36746, Note_on_c, 0, 70, 0
2, 36746, Note_on_c, 0, 50, 0
2, 36909, Note_on_c, 0, 46, 63
2, 36910, Note_on_c, 0, 58, 60
2, 36941, Note_on_c, 0, 58, 0
2, 36941, Note_on_c, 0, 46, 0
2, 36982, Note_on_c, 0, 50, 62
2, 36982, Note_on_c, 0, 62, 66
2, 37014, Note_on_c, 0, 62, 0
2, 37024, Note_on_c, 0, 50, 0
2, 37046, Note_on_c, 0, 65, 72
2, 37055, Note_on_c, 0, 41, 74
2, 37055, Note_on_c, 0, 53, 77
2, 37163, Control_c, 0, 64, 127
2, 37225, Note_on_c, 0, 50, 55
2, 37225, Note_on_c, 0, 58, 53
2, 37226, Note_on_c, 0, 62, 60
2, 37226, Note_on_c, 0, 70, 61
2, 37226, Note_on_c, 0, 74, 66
2, 37248, Note_on_c, 0, 74, 0
2, 37248, Note_on_c, 0, 70, 0
2, 37248, Note_on_c, 0, 58, 0
2, 37248, Note_on_c, 0, 50, 0
2, 37248, Note_on_c, 0, 62, 0
2, 37270, Control_c, 0, 64, 0
2, 37306, Note_on_c, 0, 58, 59
2, 37306, Note_on_c, 0, 62, 53
2, 37307, Note_on_c, 0, 50, 54
2, 37307, Note_on_c, 0, 70, 60
2, 37307, Note_on_c, 0, 74, 61
2, 37329, Note_on_c, 0, 74, 0
2, 37329, Note_on_c, 0, 70, 0
2, 37329, Note_on_c, 0, 62, 0
2, 37329, Note_on_c, 0, 58, 0
2, 37329, Note_on_c, 0, 50, 0
2, 37388, Note_on_c, 0, 50, 46
2, 37388, Note_on_c, 0, 58, 44
2, 37388, Note_on_c, 0, 62, 42
2, 37388, Note_on_c, 0, 70, 72
2, 37388, Note_on_c, 0, 74, 78
2, 37409, Note_on_c, 0, 41, 0
2, 37409, Note_on_c, 0, 53, 0
2, 37409, Note_on_c, 0, 65, 0
2, 37418, Note_on_c, 0, 50, 0
2, 37418, Note_on_c, 0, 58, 0
2, 37418, Note_on_c, 0, 74, 0
2, 37418, Note_on_c, 0, 62, 0
2, 37419, Note_on_c, 0, 70, 0
2, 37575, Note_on_c, 0, 46, 66
2, 37586, Note_on_c, 0, 58, 72
2, 37608, Note_on_c, 0, 58, 0
2, 37608, Note_on_c, 0, 46, 0
2, 37642, Note_on_c, 0, 50, 66
2, 37642, Note_on_c, 0, 62, 70
2, 37674, Note_on_c, 0, 62, 0
2, 37674, Note_on_c, 0, 50, 0
2, 37713, Note_on_c, 0, 39, 77
2, 37713, Note_on_c, 0, 51, 79
2, 37714, Note_on_c, 0, 63, 81
2, 37822, Control_c, 0, 64, 127
2, 37878, Note_on_c, 0, 55, 60
2, 37878, Note_on_c, 0, 60, 57
2, 37878, Note_on_c, 0, 67, 63
2, 37879, Note_on_c, 0, 57, 62
2, 37879, Note_on_c, 0, 72, 67
2, 37879, Note_on_c, 0, 79, 68
2, 37900, Note_on_c, 0, 57, 0
2, 37900, Note_on_c, 0, 55, 0
2, 37900, Note_on_c, 0, 67, 0
2, 37900, Note_on_c, 0, 60, 0
2, 37901, Note_on_c, 0, 79, 0
2, 37902, Note_on_c, 0, 72, 0
2, 37959, Note_on_c, 0, 55, 56
2, 37959, Note_on_c, 0, 57, 56
2, 37959, Note_on_c, 0, 60, 60
2, 37959, Note_on_c, 0, 67, 73
2, 37960, Note_on_c, 0, 72, 74
2, 37960, Note_on_c, 0, 79, 67
2, 37961, Control_c, 0, 64, 0
2, 37980, Note_on_c, 0, 60, 0
2, 37980, Note_on_c, 0, 55, 0
2, 37981, Note_on_c, 0, 57, 0
2, 37981, Note_on_c, 0, 67, 0
2, 37982, Note_on_c, 0, 79, 0
2, 37982, Note_on_c, 0, 72, 0
2, 38018, Note_on_c, 0, 57, 67
2, 38028, Note_on_c, 0, 55, 60
2, 38028, Note_on_c, 0, 60, 65
2, 38028, Note_on_c, 0, 67, 66
2, 38029, Note_on_c, 0, 79, 69
2, 38030, Note_on_c, 0, 72, 73
2, 38059, Note_on_c, 0, 60, 0
2, 38059, Note_on_c, 0, 55, 0
2, 38060, Note_on_c, 0, 57, 0
2, 38060, Note_on_c, 0, 67, 0
2, 38060, Note_on_c, 0, 39, 0
2, 38060, Note_on_c, 0, 51, 0
2, 38061, Note_on_c, 0, 72, 0
2, 38061, Note_on_c, 0, 63, 0
2, 38061, Note_on_c, 0, 79, 0
2, 38203, Note_on_c, 0, 43, 65
2, 38203, Note_on_c, 0, 55, 66
2, 38278, Note_on_c, 0, 55, 0
2, 38279, Note_on_c, 0, 43, 0
2, 38286, Note_on_c, 0, 45, 67
2, 38286, Note_on_c, 0, 57, 67
2, 38321, Note_on_c, 0, 57, 0
2, 38321, Note_on_c, 0, 45, 0
2, 38366, Note_on_c, 0, 50, 73
2, 38366, Note_on_c, 0, 62, 78
2, 38376, Note_on_c, 0, 38, 74
2, 38453, Control_c, 0, 64, 127
2, 38466, Note_on_c, 0, 62, 0
2, 38564, Control_c, 0, 64, 0
2, 38564, Note_on_c, 0, 54, 59
2, 38564, Note_on_c, 0, 57, 63
2, 38564, Note_on_c, 0, 62, 63
2, 38564, Note_on_c, 0, 66, 70
2, 38565, Note_on_c, 0, 74, 66
2, 38565, Note_on_c, 0, 78, 63
2, 38586, Note_on_c, 0, 54, 0
2, 38587, Note_on_c, 0, 57, 0
2, 38588, Note_on_c, 0, 66, 0
2, 38588, Note_on_c, 0, 62, 0
2, 38588, Note_on_c, 0, 74, 0
2, 38589, Note_on_c, 0, 78, 0
2, 38637, Note_on_c, 0, 54, 60
2, 38637, Note_on_c, 0, 62, 60
2, 38637, Note_on_c, 0, 66, 64
2, 38638, Note_on_c, 0, 57, 58
2, 38638, Note_on_c, 0, 74, 70
2, 38639, Note_on_c, 0, 78, 70
2, 38660, Note_on_c, 0, 57, 0
2, 38660, Note_on_c, 0, 54, 0
2, 38661, Note_on_c, 0, 66, 0
2, 38661, Note_on_c, 0, 62, 0
2, 38661, Note_on_c, 0, 74, 0
2, 38662, Note_on_c, 0, 78, 0
2, 38711, Note_on_c, 0, 54, 68
2, 38712, Note_on_c, 0, 57, 64
2, 38712, Note_on_c, 0, 62, 62
2, 38712, Note_on_c, 0, 66, 71
2, 38712, Note_on_c, 0, 74, 69
2, 38712, Note_on_c, 0, 78, 75
2, 38743, Note_on_c, 0, 38, 0
2, 38744, Note_on_c, 0, 57, 0
2, 38744, Note_on_c, 0, 50, 0
2, 38744, Note_on_c, 0, 54, 0
2, 38745, Note_on_c, 0, 62, 0
2, 38745, Note_on_c, 0, 66, 0
2, 38746, Note_on_c, 0, 78, 0
2, 38746, Note_on_c, 0, 74, 0
2, 38935, Note_on_c, 0, 48, 82
2, 38935, Note_on_c, 0, 60, 82
2, 39020, Note_on_c, 0, 60, 0
2, 39021, Note_on_c, 0, 48, 0
2, 39172, Control_c, 0, 64, 127
2, 39227, Note_on_c, 0, 38, 80
2, 39229, Note_on_c, 0, 50, 79
2, 39239, Note_on_c, 0, 26, 84
2, 39506, Note_on_c, 0, 60, 82
2, 39506, Note_on_c, 0, 63, 83
2, 39507, Note_on_c, 0, 48, 82
2, 39507, Note_on_c, 0, 75, 78
2, 39516, Note_on_c, 0, 54, 77
2, 39516, Note_on_c, 0, 57, 77
2, 39516, Note_on_c, 0, 66, 83
2, 39517, Note_on_c, 0, 69, 78
2, 39567, Control_c, 0, 64, 0
2, 39936, Note_on_c, 0, 60, 0
2, 39946, Note_on_c, 0, 59, 80
2, 39947, Note_on_c, 0, 48, 0
2, 39957, Note_on_c, 0, 47, 81
2, 40032, Note_on_c, 0, 47, 0
2, 40032, Note_on_c, 0, 69, 0
2, 40032, Note_on_c, 0, 66, 0
2, 40032, Note_on_c, 0, 26, 0
2, 40032, Note_on_c, 0, 54, 0
2, 40032, Note_on_c, 0, 38, 0
2, 40032, Note_on_c, 0, 50, 0
2, 40032, Note_on_c, 0, 59, 0
2, 40032, Note_on_c, 0, 57, 0
2, 40033, Note_on_c, 0, 63, 0
2, 40033, Note_on_c, 0, 75, 0
2, 40160, Control_c, 0, 64, 127
2, 40244, Note_on_c, 0, 26, 79
2, 40244, Note_on_c, 0, 38, 78
2, 40255, Note_on_c, 0, 50, 78
2, 40552, Note_on_c, 0, 50, 0
2, 40558, Note_on_c, 0, 47, 83
2, 40559, Note_on_c, 0, 59, 77
2, 40560, Note_on_c, 0, 63, 82
2, 40560, Note_on_c, 0, 75, 77
2, 40568, Note_on_c, 0, 51, 78
2, 40569, Note_on_c, 0, 55, 78
2, 40569, Note_on_c, 0, 67, 81
2, 40569, Note_on_c, 0, 71, 81
2, 40608, Control_c, 0, 64, 0
2, 41036, Note_on_c, 0, 47, 0
2, 41037, Note_on_c, 0, 59, 0
2, 41043, Note_on_c, 0, 46, 77
2, 41045, Note_on_c, 0, 58, 79
2, 41135, Note_on_c, 0, 38, 0
2, 41136, Note_on_c, 0, 26, 0
2, 41145, Note_on_c, 0, 55, 0
2, 41145, Note_on_c, 0, 51, 0
2, 41146, Note_on_c, 0, 71, 0
2, 41146, Note_on_c, 0, 67, 0
2, 41147, Note_on_c, 0, 63, 0
2, 41155, Note_on_c, 0, 46, 0
2, 41156, Note_on_c, 0, 58, 0
2, 41209, Note_on_c, 0, 75, 0
2, 41309, Control_c, 0, 64, 127
2, 41365, Note_on_c, 0, 26, 78
2, 41375, Note_on_c, 0, 38, 80
2, 41376, Note_on_c, 0, 50, 81
2, 41605, Note_on_c, 0, 50, 0
2, 41697, Note_on_c, 0, 46, 84
2, 41699, Note_on_c, 0, 50, 78
2, 41699, Note_on_c, 0, 55, 84
2, 41699, Note_on_c, 0, 58, 79
2, 41699, Note_on_c, 0, 62, 80
2, 41699, Note_on_c, 0, 67, 77
2, 41701, Note_on_c, 0, 74, 78
2, 41740, Control_c, 0, 64, 0
2, 42206, Note_on_c, 0, 58, 0
2, 42215, Note_on_c, 0, 57, 84
2, 42216, Note_on_c, 0, 46, 0
2, 42224, Note_on_c, 0, 45, 77
2, 42288, Note_on_c, 0, 45, 0
2, 42288, Note_on_c, 0, 74, 0
2, 42288, Note_on_c, 0, 26, 0
2, 42288, Note_on_c, 0, 62, 0
2, 42288, Note_on_c, 0, 38, 0
2, 42288, Note_on_c, 0, 50, 0
2, 42288, Note_on_c, 0, 57, 0
2, 42288, Note_on_c, 0, 55, 0
2, 42288, Note_on_c, 0, 67, 0
2, 42423, Control_c, 0, 64, 127
2, 42557, Note_on_c, 0, 50, 79
2, 42565, Note_on_c, 0, 38, 84
2, 42566, Note_on_c, 0, 26, 79
2, 42608, Control_c, 0, 64, 0
2, 42789, Control_c, 0, 64, 127
2, 42895, Note_on_c, 0, 50, 0
2, 42987, Note_on_c, 0, 45, 66
2, 42988, Note_on_c, 0, 50, 64
2, 42988, Note_on_c, 0, 55, 68
2, 42988, Note_on_c, 0, 57, 65
2, 42988, Note_on_c, 0, 62, 66
2, 42988, Note_on_c, 0, 67, 66
2, 42989, Note_on_c, 0, 74, 67
2, 42990, Control_c, 0, 64, 0
2, 43009, Note_on_c, 0, 62, 0
2, 43009, Note_on_c, 0, 55, 0
2, 43010, Note_on_c, 0, 74, 0
2, 43010, Note_on_c, 0, 57, 0
2, 43010, Note_on_c, 0, 67, 0
2, 43010, Note_on_c, 0, 45, 0
2, 43010, Note_on_c, 0, 50, 0
2, 43064, Note_on_c, 0, 45, 68
2, 43065, Note_on_c, 0, 50, 73
2, 43065, Note_on_c, 0, 55, 75
2, 43065, Note_on_c, 0, 57, 69
2, 43065, Note_on_c, 0, 62, 68
2, 43065, Note_on_c, 0, 67, 65
2, 43065, Note_on_c, 0, 74, 67
2, 43086, Note_on_c, 0, 62, 0
2, 43086, Note_on_c, 0, 50, 0
2, 43086, Note_on_c, 0, 45, 0
2, 43086, Note_on_c, 0, 55, 0
2, 43086, Note_on_c, 0, 57, 0
2, 43087, Note_on_c, 0, 67, 0
2, 43087, Note_on_c, 0, 74, 0
2, 43150, Note_on_c, 0, 45, 67
2, 43150, Note_on_c, 0, 50, 72
2, 43150, Note_on_c, 0, 55, 70
2, 43150, Note_on_c, 0, 57, 72
2, 43150, Note_on_c, 0, 67, 78
2, 43151, Note_on_c, 0, 62, 73
2, 43151, Note_on_c, 0, 74, 73
2, 43222, Note_on_c, 0, 62, 0
2, 43222, Note_on_c, 0, 67, 0
2, 43222, Note_on_c, 0, 50, 0
2, 43222, Note_on_c, 0, 55, 0
2, 43222, Note_on_c, 0, 45, 0
2, 43222, Note_on_c, 0, 57, 0
2, 43223, Note_on_c, 0, 74, 0
2, 43342, Note_on_c, 0, 45, 66
2, 43343, Note_on_c, 0, 57, 65
2, 43404, Note_on_c, 0, 38, 0
2, 43405, Note_on_c, 0, 26, 0
2, 43405, Note_on_c, 0, 45, 0
2, 43405, Note_on_c, 0, 57, 0
2, 43536, Note_on_c, 0, 38, 83
2, 43536, Note_on_c, 0, 26, 78
2, 43536, Note_on_c, 0, 50, 78
2, 43567, Note_on_c, 0, 38, 0
2, 43568, Note_on_c, 0, 50, 0
2, 43568, Note_on_c, 0, 26, 0
2, 43718, Note_on_c, 0, 44, 75
2, 43718, Note_on_c, 0, 56, 72
2, 43749, Note_on_c, 0, 56, 0
2, 43750, Note_on_c, 0, 44, 0
2, 43905, Note_on_c, 0, 38, 71
2, 43906, Note_on_c, 0, 26, 76
2, 43906, Note_on_c, 0, 50, 75
2, 43936, Note_on_c, 0, 50, 0
2, 43936, Note_on_c, 0, 38, 0
2, 43937, Note_on_c, 0, 26, 0
2, 44073, Note_on_c, 0, 43, 70
2, 44074, Note_on_c, 0, 55, 72
2, 44104, Note_on_c, 0, 43, 0
2, 44105, Note_on_c, 0, 55, 0
2, 44258, Note_on_c, 0, 50, 63
2, 44267, Note_on_c, 0, 26, 61
2, 44267, Note_on_c, 0, 38, 60
2, 44308, Control_c, 0, 64, 127
2, 44364, Note_on_c, 0, 50, 0
2, 44457, Control_c, 0, 64, 0
2, 44457, Note_on_c, 0, 45, 59
2, 44458, Note_on_c, 0, 50, 56
2, 44458, Note_on_c, 0, 55, 53
2, 44458, Note_on_c, 0, 62, 59
2, 44458, Note_on_c, 0, 67, 64
2, 44459, Note_on_c, 0, 74, 63
2, 44480, Note_on_c, 0, 62, 0
2, 44480, Note_on_c, 0, 50, 0
2, 44480, Note_on_c, 0, 45, 0
2, 44480, Note_on_c, 0, 55, 0
2, 44481, Note_on_c, 0, 67, 0
2, 44482, Note_on_c, 0, 74, 0
2, 44534, Note_on_c, 0, 45, 60
2, 44534, Note_on_c, 0, 50, 57
2, 44534, Note_on_c, 0, 55, 59
2, 44534, Note_on_c, 0, 62, 59
2, 44534, Note_on_c, 0, 67, 64
2, 44536, Note_on_c, 0, 74, 64
2, 44556, Note_on_c, 0, 45, 0
2, 44557, Note_on_c, 0, 55, 0
2, 44557, Note_on_c, 0, 50, 0
2, 44557, Note_on_c, 0, 62, 0
2, 44558, Note_on_c, 0, 67, 0
2, 44558, Note_on_c, 0, 74, 0
2, 44623, Note_on_c, 0, 45, 66
2, 44624, Note_on_c, 0, 50, 59
2, 44624, Note_on_c, 0, 55, 59
2, 44624, Note_on_c, 0, 62, 62
2, 44624, Note_on_c, 0, 67, 70
2, 44626, Note_on_c, 0, 74, 67
2, 44634, Note_on_c, 0, 38, 0
2, 44634, Note_on_c, 0, 26, 0
2, 44657, Note_on_c, 0, 45, 0
2, 44658, Note_on_c, 0, 50, 0
2, 44658, Note_on_c, 0, 55, 0
2, 44658, Note_on_c, 0, 62, 0
2, 44659, Note_on_c, 0, 67, 0
2, 44660, Note_on_c, 0, 74, 0
2, 44811, Note_on_c, 0, 43, 64
2, 44812, Note_on_c, 0, 55, 62
2, 44844, Note_on_c, 0, 43, 0
2, 44845, Note_on_c, 0, 55, 0
2, 44935, Control_c, 0, 64, 127
2, 45011, Control_c, 0, 64, 0
2, 45030, Note_on_c, 0, 38, 60
2, 45033, Note_on_c, 0, 50, 62
2, 45042, Note_on_c, 0, 26, 60
2, 45065, Note_on_c, 0, 38, 0
2, 45066, Note_on_c, 0, 50, 0
2, 45074, Note_on_c, 0, 26, 0
2, 45239, Note_on_c, 0, 45, 59
2, 45239, Note_on_c, 0, 50, 59
2, 45240, Note_on_c, 0, 55, 57
2, 45240, Note_on_c, 0, 62, 53
2, 45261, Note_on_c, 0, 55, 0
2, 45261, Note_on_c, 0, 45, 0
2, 45261, Note_on_c, 0, 50, 0
2, 45262, Note_on_c, 0, 62, 0
2, 45312, Note_on_c, 0, 45, 54
2, 45312, Note_on_c, 0, 50, 56
2, 45312, Note_on_c, 0, 55, 54
2, 45313, Note_on_c, 0, 62, 57
2, 45343, Note_on_c, 0, 55, 0
2, 45343, Note_on_c, 0, 45, 0
2, 45343, Note_on_c, 0, 50, 0
2, 45344, Note_on_c, 0, 62, 0
2, 45396, Note_on_c, 0, 45, 66
2, 45398, Note_on_c, 0, 50, 63
2, 45398, Note_on_c, 0, 55, 61
2, 45398, Note_on_c, 0, 62, 66
2, 45429, Note_on_c, 0, 55, 0
2, 45429, Note_on_c, 0, 45, 0
2, 45429, Note_on_c, 0, 50, 0
2, 45430, Note_on_c, 0, 62, 0
2, 45605, Note_on_c, 0, 54, 63
2, 45614, Note_on_c, 0, 42, 60
2, 45638, Note_on_c, 0, 54, 0
2, 45647, Note_on_c, 0, 42, 0
2, 45768, Control_c, 0, 64, 127
2, 45842, Control_c, 0, 64, 0
2, 45846, Note_on_c, 0, 50, 61
2, 45855, Note_on_c, 0, 26, 64
2, 45855, Note_on_c, 0, 38, 65
2, 45880, Note_on_c, 0, 50, 0
2, 45888, Note_on_c, 0, 38, 0
2, 45888, Note_on_c, 0, 26, 0
2, 46081, Note_on_c, 0, 45, 60
2, 46081, Note_on_c, 0, 50, 54
2, 46081, Note_on_c, 0, 54, 55
2, 46082, Note_on_c, 0, 62, 59
2, 46104, Note_on_c, 0, 54, 0
2, 46104, Note_on_c, 0, 45, 0
2, 46104, Note_on_c, 0, 50, 0
2, 46105, Note_on_c, 0, 62, 0
2, 46170, Note_on_c, 0, 45, 60
2, 46170, Note_on_c, 0, 50, 60
2, 46171, Note_on_c, 0, 54, 56
2, 46171, Note_on_c, 0, 62, 59
2, 46202, Note_on_c, 0, 50, 0
2, 46202, Note_on_c, 0, 45, 0
2, 46203, Note_on_c, 0, 54, 0
2, 46203, Note_on_c, 0, 62, 0
2, 46255, Note_on_c, 0, 45, 59
2, 46256, Note_on_c, 0, 50, 60
2, 46256, Note_on_c, 0, 54, 66
2, 46257, Note_on_c, 0, 62, 60
2, 46287, Note_on_c, 0, 45, 0
2, 46288, Note_on_c, 0, 50, 0
2, 46288, Note_on_c, 0, 54, 0
2, 46289, Note_on_c, 0, 62, 0
2, 46479, Note_on_c, 0, 45, 57
2, 46512, Note_on_c, 0, 45, 0
2, 46621, Control_c, 0, 64, 127
2, 46735, Control_c, 0, 64, 0
2, 46742, Note_on_c, 0, 38, 63
2, 46772, Note_on_c, 0, 38, 0
2, 46895, Control_c, 0, 67, 127
2, 46962, Note_on_c, 0, 54, 53
2, 46962, Note_on_c, 0, 62, 60
2, 46987, Control_c, 0, 67, 0
2, 46994, Note_on_c, 0, 62, 0
2, 46994, Note_on_c, 0, 54, 0
2, 47019, Control_c, 0, 67, 127
2, 47066, Note_on_c, 0, 54, 60
2, 47066, Note_on_c, 0, 62, 57
2, 47097, Note_on_c, 0, 62, 0
2, 47097, Note_on_c, 0, 54, 0
2, 47165, Note_on_c, 0, 54, 62
2, 47166, Note_on_c, 0, 62, 63
2, 47208, Note_on_c, 0, 62, 0
2, 47208, Note_on_c, 0, 54, 0
2, 47294, Control_c, 0, 67, 0
2, 47325, Control_c, 0, 67, 127
2, 47356, Control_c, 0, 67, 0
2, 47388, Control_c, 0, 67, 127
2, 47421, Control_c, 0, 67, 0
2, 47439, Note_on_c, 0, 45, 57
2, 47452, Control_c, 0, 67, 127
2, 47472, Note_on_c, 0, 45, 0
2, 47546, Control_c, 0, 67, 0
2, 47579, Control_c, 0, 67, 127
2, 47612, Control_c, 0, 67, 0
2, 47642, Control_c, 0, 67, 127
2, 47671, Control_c, 0, 64, 127
2, 47676, Control_c, 0, 67, 0
2, 47709, Control_c, 0, 67, 127
2, 47743, Control_c, 0, 67, 0
2, 47751, Control_c, 0, 64, 0
2, 47751, Note_on_c, 0, 38, 66
2, 47778, Control_c, 0, 67, 127
2, 47787, Note_on_c, 0, 38, 0
2, 47812, Control_c, 0, 67, 0
2, 47844, Control_c, 0, 67, 127
2, 47876, Control_c, 0, 67, 0
2, 47918, Control_c, 0, 67, 127
2, 47977, Control_c, 0, 64, 127
2, 48073, Note_on_c, 0, 50, 45
2, 48085, Control_c, 0, 64, 0
2, 48107, Note_on_c, 0, 50, 0
2, 48230, Note_on_c, 0, 50, 42
2, 48262, Note_on_c, 0, 50, 0
2, 48401, Note_on_c, 0, 50, 54
2, 48433, Control_c, 0, 67, 0
2, 48443, Note_on_c, 0, 50, 0
2, 48464, Control_c, 0, 67, 127
2, 48497, Control_c, 0, 67, 0
2, 48531, Control_c, 0, 67, 127
2, 48564, Control_c, 0, 67, 0
2, 48597, Control_c, 0, 67, 127
2, 48629, Control_c, 0, 67, 0
2, 48661, Control_c, 0, 67, 127
2, 48734, Note_on_c, 0, 45, 45
2, 48789, Note_on_c, 0, 45, 0
2, 48950, Control_c, 0, 67, 0
2, 48981, Control_c, 0, 67, 127
2, 49000, Control_c, 0, 64, 127
2, 49012, Control_c, 0, 67, 0
2, 49043, Control_c, 0, 67, 127
2, 49118, Control_c, 0, 64, 0
2, 49126, Note_on_c, 0, 38, 43
2, 49192, Note_on_c, 0, 38, 0
2, 49202, Control_c, 0, 67, 0
2, 49233, Control_c, 0, 67, 127
2, 49268, Control_c, 0, 67, 0
2, 49302, Control_c, 0, 67, 127
2, 49337, Control_c, 0, 67, 0
2, 49371, Control_c, 0, 67, 127
2, 49406, Control_c, 0, 67, 0
2, 49437, Control_c, 0, 67, 127
2, 49523, Note_on_c, 0, 50, 44
2, 49566, Note_on_c, 0, 50, 0
2, 49750, Note_on_c, 0, 50, 45
2, 49791, Note_on_c, 0, 50, 0
2, 50015, Note_on_c, 0, 50, 43
2, 50079, Control_c, 0, 67, 0
2, 50103, Note_on_c, 0, 50, 0
2, 50112, Control_c, 0, 67, 127
2, 50146, Control_c, 0, 67, 0
2, 50178, Control_c, 0, 67, 127
2, 50588, Control_c, 0, 67, 0
2, 50598, Note_on_c, 0, 38, 45
2, 50599, Note_on_c, 0, 26, 45
2, 50618, Control_c, 0, 67, 127
2, 50632, Note_on_c, 0, 38, 0
2, 50633, Note_on_c, 0, 26, 0
2, 50715, Control_c, 0, 67, 0
2, 50746, Control_c, 0, 67, 127
2, 50780, Control_c, 0, 67, 0
2, 50811, Control_c, 0, 67, 127
2, 50845, Control_c, 0, 67, 0
2, 50880, Control_c, 0, 67, 127
2, 50915, Control_c, 0, 67, 0
2, 50941, Note_on_c, 0, 38, 47
2, 50942, Note_on_c, 0, 26, 47
2, 50951, Control_c, 0, 67, 127
2, 50984, Control_c, 0, 67, 0
2, 51009, Note_on_c, 0, 38, 0
2, 51010, Note_on_c, 0, 26, 0
2, 51017, Control_c, 0, 67, 127
2, 51050, Control_c, 0, 67, 0
2, 51081, Control_c, 0, 67, 127
2, 51210, Control_c, 0, 64, 127
2, 51353, Note_on_c, 0, 38, 54
2, 51355, Note_on_c, 0, 26, 54
2, 51515, Control_c, 0, 64, 0
2, 51532, Control_c, 0, 67, 0
2, 51563, Control_c, 0, 67, 127
2, 51596, Control_c, 0, 67, 0
2, 51627, Control_c, 0, 67, 127
2, 51628, Note_on_c, 0, 45, 47
2, 51660, Control_c, 0, 67, 0
2, 51696, Control_c, 0, 67, 127
2, 51729, Control_c, 0, 67, 0
2, 51762, Control_c, 0, 67, 127
2, 51816, Note_on_c, 0, 50, 46
2, 51942, Control_c, 0, 64, 127
2, 51960, Note_on_c, 0, 81, 61
2, 51961, Note_on_c, 0, 54, 46
2, 51972, Note_on_c, 0, 69, 46
2, 51982, Note_on_c, 0, 78, 44
2, 51983, Note_on_c, 0, 74, 46
2, 52105, Note_on_c, 0, 60, 47
2, 52167, Control_c, 0, 67, 0
2, 52198, Control_c, 0, 67, 127
2, 52218, Note_on_c, 0, 62, 51
2, 52229, Note_on_c, 0, 74, 0
2, 52229, Note_on_c, 0, 78, 0
2, 52229, Note_on_c, 0, 69, 0
2, 52229, Note_on_c, 0, 81, 0
2, 52299, Note_on_c, 0, 66, 64
2, 52302, Note_on_c, 0, 62, 0
2, 52321, Note_on_c, 0, 81, 65
2, 52322, Note_on_c, 0, 69, 49
2, 52343, Note_on_c, 0, 78, 51
2, 52344, Note_on_c, 0, 74, 49
2, 52395, Note_on_c, 0, 62, 48
2, 52416, Note_on_c, 0, 60, 0
2, 52479, Control_c, 0, 67, 0
2, 52504, Note_on_c, 0, 54, 0
2, 52512, Control_c, 0, 67, 127
2, 52513, Note_on_c, 0, 60, 46
2, 52524, Note_on_c, 0, 74, 0
2, 52524, Note_on_c, 0, 78, 0
2, 52544, Control_c, 0, 67, 0
2, 52576, Control_c, 0, 67, 127
2, 52599, Note_on_c, 0, 54, 46
2, 52608, Note_on_c, 0, 82, 68
2, 52619, Note_on_c, 0, 70, 48
2, 52629, Note_on_c, 0, 74, 49
2, 52629, Note_on_c, 0, 78, 53
2, 52632, Note_on_c, 0, 50, 0
2, 52660, Note_on_c, 0, 81, 0
2, 52660, Note_on_c, 0, 69, 0
2, 52700, Note_on_c, 0, 45, 0
2, 52716, Note_on_c, 0, 50, 54
2, 52776, Control_c, 0, 64, 0
2, 52783, Note_on_c, 0, 45, 55
2, 52804, Note_on_c, 0, 38, 0
2, 52806, Note_on_c, 0, 26, 0
2, 52851, Note_on_c, 0, 74, 0
2, 52851, Note_on_c, 0, 78, 0
2, 52889, Note_on_c, 0, 38, 67
2, 52928, Note_on_c, 0, 66, 0
2, 52928, Note_on_c, 0, 60, 0
2, 52928, Note_on_c, 0, 62, 0
2, 52929, Note_on_c, 0, 54, 0
2, 52936, Note_on_c, 0, 84, 73
2, 52937, Note_on_c, 0, 72, 55
2, 52956, Note_on_c, 0, 78, 53
2, 52957, Note_on_c, 0, 74, 55
2, 52988, Note_on_c, 0, 82, 0
2, 52990, Note_on_c, 0, 45, 0
2, 53008, Note_on_c, 0, 70, 0
2, 53073, Note_on_c, 0, 45, 53
2, 53094, Note_on_c, 0, 50, 0
2, 53184, Note_on_c, 0, 50, 43
2, 53256, Control_c, 0, 67, 0
2, 53288, Control_c, 0, 67, 127
2, 53289, Note_on_c, 0, 54, 47
2, 53321, Control_c, 0, 64, 127
2, 53378, Note_on_c, 0, 60, 45
2, 53420, Note_on_c, 0, 78, 0
2, 53420, Note_on_c, 0, 74, 0
2, 53447, Note_on_c, 0, 62, 47
2, 53504, Note_on_c, 0, 82, 62
2, 53507, Note_on_c, 0, 62, 0
2, 53515, Note_on_c, 0, 66, 45
2, 53515, Note_on_c, 0, 70, 43
2, 53525, Note_on_c, 0, 74, 48
2, 53525, Note_on_c, 0, 78, 46
2, 53567, Note_on_c, 0, 60, 0
2, 53568, Note_on_c, 0, 72, 0
2, 53568, Note_on_c, 0, 84, 0
2, 53597, Note_on_c, 0, 62, 41
2, 53640, Note_on_c, 0, 54, 0
2, 53657, Note_on_c, 0, 60, 47
2, 53711, Note_on_c, 0, 50, 0
2, 53729, Note_on_c, 0, 54, 48
2, 53749, Note_on_c, 0, 69, 46
2, 53749, Note_on_c, 0, 81, 43
2, 53771, Note_on_c, 0, 62, 0
2, 53782, Note_on_c, 0, 45, 0
2, 53791, Note_on_c, 0, 70, 0
2, 53793, Control_c, 0, 64, 0
2, 53799, Note_on_c, 0, 50, 48
2, 53800, Note_on_c, 0, 78, 0
2, 53800, Note_on_c, 0, 74, 0
2, 53809, Note_on_c, 0, 82, 0
2, 53831, Note_on_c, 0, 60, 0
2, 53860, Control_c, 0, 67, 0
2, 53874, Note_on_c, 0, 38, 0
2, 53874, Note_on_c, 0, 54, 0
2, 53874, Note_on_c, 0, 45, 44
2, 53917, Note_on_c, 0, 50, 0
2, 53960, Note_on_c, 0, 66, 0
2, 53962, Note_on_c, 0, 45, 0
2, 53963, Note_on_c, 0, 38, 52
2, 54030, Note_on_c, 0, 67, 52
2, 54031, Note_on_c, 0, 79, 43
2, 54054, Note_on_c, 0, 72, 43
2, 54054, Note_on_c, 0, 75, 41
2, 54066, Note_on_c, 0, 69, 0
2, 54066, Note_on_c, 0, 81, 0
2, 54119, Note_on_c, 0, 45, 45
2, 54216, Note_on_c, 0, 50, 45
2, 54246, Control_c, 0, 64, 127
2, 54301, Note_on_c, 0, 81, 51
2, 54302, Note_on_c, 0, 69, 48
2, 54322, Note_on_c, 0, 55, 48
2, 54323, Note_on_c, 0, 72, 0
2, 54323, Note_on_c, 0, 75, 0
2, 54353, Note_on_c, 0, 67, 0
2, 54353, Note_on_c, 0, 79, 0
2, 54393, Note_on_c, 0, 60, 42
2, 54456, Note_on_c, 0, 63, 46
2, 54478, Note_on_c, 0, 63, 0
2, 54495, Note_on_c, 0, 82, 53
2, 54505, Note_on_c, 0, 67, 45
2, 54516, Note_on_c, 0, 70, 48
2, 54516, Note_on_c, 0, 72, 43
2, 54516, Note_on_c, 0, 75, 45
2, 54536, Note_on_c, 0, 60, 0
2, 54548, Note_on_c, 0, 81, 0
2, 54548, Note_on_c, 0, 69, 0
2, 54566, Note_on_c, 0, 63, 48
2, 54598, Note_on_c, 0, 55, 0
2, 54627, Note_on_c, 0, 60, 45
2, 54671, Note_on_c, 0, 50, 0
2, 54692, Note_on_c, 0, 55, 41
2, 54713, Note_on_c, 0, 67, 0
2, 54725, Note_on_c, 0, 45, 0
2, 54748, Note_on_c, 0, 63, 0
2, 54769, Note_on_c, 0, 50, 46
2, 54813, Note_on_c, 0, 60, 0
2, 54813, Control_c, 0, 67, 127
2, 54815, Note_on_c, 0, 38, 0
2, 54826, Control_c, 0, 64, 0
2, 54835, Note_on_c, 0, 45, 46
2, 54846, Note_on_c, 0, 55, 0
2, 54889, Note_on_c, 0, 50, 0
2, 54929, Note_on_c, 0, 38, 51
2, 54961, Note_on_c, 0, 75, 0
2, 54961, Note_on_c, 0, 45, 0
2, 54971, Note_on_c, 0, 72, 0
2, 55058, Note_on_c, 0, 78, 59
2, 55069, Note_on_c, 0, 66, 47
2, 55080, Note_on_c, 0, 72, 41
2, 55080, Note_on_c, 0, 74, 44
2, 55102, Note_on_c, 0, 82, 0
2, 55103, Note_on_c, 0, 70, 0
2, 55154, Control_c, 0, 67, 0
2, 55186, Control_c, 0, 67, 127
2, 55251, Note_on_c, 0, 45, 48
2, 55376, Note_on_c, 0, 50, 42
2, 55410, Control_c, 0, 64, 127
2, 55472, Control_c, 0, 67, 0
2, 55483, Note_on_c, 0, 54, 46
2, 55505, Control_c, 0, 67, 127
2, 55538, Control_c, 0, 67, 0
2, 55572, Control_c, 0, 67, 127
2, 55582, Note_on_c, 0, 60, 43
2, 55661, Note_on_c, 0, 62, 44
2, 55673, Note_on_c, 0, 72, 0
2, 55673, Note_on_c, 0, 66, 0
2, 55673, Note_on_c, 0, 74, 0
2, 55755, Note_on_c, 0, 66, 47
2, 55755, Note_on_c, 0, 69, 54
2, 55756, Note_on_c, 0, 81, 47
2, 55775, Note_on_c, 0, 72, 48
2, 55775, Note_on_c, 0, 74, 47
2, 55785, Note_on_c, 0, 62, 0
2, 55823, Note_on_c, 0, 78, 0
2, 55870, Note_on_c, 0, 62, 47
2, 55881, Note_on_c, 0, 60, 0
2, 55968, Note_on_c, 0, 60, 45
2, 56038, Note_on_c, 0, 54, 0
2, 56068, Control_c, 0, 67, 0
2, 56084, Note_on_c, 0, 54, 45
2, 56123, Note_on_c, 0, 50, 0
2, 56188, Note_on_c, 0, 57, 66
2, 56208, Note_on_c, 0, 50, 47
2, 56279, Note_on_c, 0, 45, 0
2, 56280, Note_on_c, 0, 54, 0
2, 56290, Note_on_c, 0, 60, 0
2, 56290, Control_c, 0, 64, 0
2, 56384, Note_on_c, 0, 60, 48
2, 56396, Note_on_c, 0, 38, 0
2, 56405, Note_on_c, 0, 45, 45
2, 56426, Note_on_c, 0, 57, 0
2, 56438, Note_on_c, 0, 62, 0
2, 56477, Note_on_c, 0, 69, 0
2, 56477, Note_on_c, 0, 45, 0
2, 56477, Note_on_c, 0, 66, 0
2, 56477, Note_on_c, 0, 74, 0
2, 56478, Note_on_c, 0, 72, 0
2, 56478, Note_on_c, 0, 81, 0
2, 56483, Note_on_c, 0, 38, 47
2, 56552, Note_on_c, 0, 62, 62
2, 56554, Note_on_c, 0, 60, 0
2, 56565, Note_on_c, 0, 50, 0
2, 56584, Note_on_c, 0, 54, 42
2, 56690, Control_c, 0, 64, 127
2, 56691, Note_on_c, 0, 54, 0
2, 56736, Note_on_c, 0, 45, 47
2, 56905, Note_on_c, 0, 50, 43
2, 57055, Control_c, 0, 64, 0
2, 57075, Note_on_c, 0, 81, 57
2, 57086, Note_on_c, 0, 54, 43
2, 57087, Note_on_c, 0, 69, 42
2, 57088, Control_c, 0, 64, 127
2, 57097, Note_on_c, 0, 78, 49
2, 57098, Note_on_c, 0, 74, 49
2, 57173, Note_on_c, 0, 62, 0
2, 57181, Note_on_c, 0, 60, 47
2, 57231, Control_c, 0, 64, 0
2, 57255, Note_on_c, 0, 81, 0
2, 57255, Note_on_c, 0, 74, 0
2, 57255, Note_on_c, 0, 78, 0
2, 57255, Note_on_c, 0, 69, 0
2, 57262, Note_on_c, 0, 62, 45
2, 57264, Control_c, 0, 64, 127
2, 57312, Note_on_c, 0, 62, 0
2, 57338, Note_on_c, 0, 66, 60
2, 57339, Note_on_c, 0, 69, 58
2, 57340, Note_on_c, 0, 81, 56
2, 57359, Note_on_c, 0, 74, 50
2, 57359, Note_on_c, 0, 78, 47
2, 57389, Note_on_c, 0, 60, 0
2, 57398, Note_on_c, 0, 62, 46
2, 57472, Note_on_c, 0, 62, 0
2, 57482, Note_on_c, 0, 60, 52
2, 57484, Note_on_c, 0, 78, 0
2, 57484, Note_on_c, 0, 74, 0
2, 57484, Note_on_c, 0, 54, 0
2, 57559, Note_on_c, 0, 50, 0
2, 57577, Note_on_c, 0, 54, 50
2, 57577, Note_on_c, 0, 82, 71
2, 57578, Note_on_c, 0, 70, 66
2, 57597, Note_on_c, 0, 74, 51
2, 57597, Note_on_c, 0, 78, 48
2, 57626, Note_on_c, 0, 45, 0
2, 57627, Note_on_c, 0, 81, 0
2, 57627, Note_on_c, 0, 69, 0
2, 57649, Note_on_c, 0, 50, 46
2, 57707, Note_on_c, 0, 45, 49
2, 57710, Note_on_c, 0, 38, 0
2, 57721, Control_c, 0, 64, 0
2, 57801, Note_on_c, 0, 38, 53
2, 57813, Note_on_c, 0, 72, 63
2, 57825, Note_on_c, 0, 78, 0
2, 57834, Note_on_c, 0, 84, 64
2, 57846, Note_on_c, 0, 45, 0
2, 57846, Note_on_c, 0, 74, 0
2, 57855, Note_on_c, 0, 60, 0
2, 57855, Note_on_c, 0, 75, 48
2, 57856, Note_on_c, 0, 66, 0
2, 57856, Note_on_c, 0, 54, 0
2, 57856, Note_on_c, 0, 79, 52
2, 57857, Note_on_c, 0, 50, 0
2, 57878, Note_on_c, 0, 82, 0
2, 57901, Note_on_c, 0, 70, 0
2, 57941, Note_on_c, 0, 45, 48
2, 58035, Note_on_c, 0, 50, 48
2, 58147, Note_on_c, 0, 55, 43
2, 58169, Control_c, 0, 64, 127
2, 58209, Note_on_c, 0, 60, 41
2, 58222, Note_on_c, 0, 72, 0
2, 58222, Note_on_c, 0, 75, 0
2, 58264, Note_on_c, 0, 63, 45
2, 58296, Note_on_c, 0, 70, 60
2, 58297, Note_on_c, 0, 63, 0
2, 58308, Note_on_c, 0, 82, 59
2, 58319, Note_on_c, 0, 67, 47
2, 58330, Note_on_c, 0, 75, 45
2, 58331, Note_on_c, 0, 72, 41
2, 58332, Note_on_c, 0, 79, 0
2, 58364, Note_on_c, 0, 60, 0
2, 58364, Note_on_c, 0, 84, 0
2, 58393, Note_on_c, 0, 63, 48
2, 58424, Note_on_c, 0, 55, 0
2, 58451, Note_on_c, 0, 60, 41
2, 58483, Note_on_c, 0, 50, 0
2, 58511, Note_on_c, 0, 55, 41
2, 58549, Note_on_c, 0, 69, 58
2, 58549, Note_on_c, 0, 81, 57
2, 58551, Note_on_c, 0, 45, 0
2, 58569, Note_on_c, 0, 50, 43
2, 58581, Note_on_c, 0, 75, 0
2, 58612, Note_on_c, 0, 72, 0
2, 58612, Note_on_c, 0, 70, 0
2, 58623, Note_on_c, 0, 82, 0
2, 58623, Note_on_c, 0, 38, 0
2, 58643, Note_on_c, 0, 45, 47
2, 58646, Control_c, 0, 64, 0
2, 58676, Note_on_c, 0, 67, 0
2, 58714, Note_on_c, 0, 38, 54
2, 58736, Note_on_c, 0, 60, 0
2, 58737, Note_on_c, 0, 55, 0
2, 58738, Note_on_c, 0, 45, 0
2, 58738, Note_on_c, 0, 50, 0
2, 58738, Note_on_c, 0, 63, 0
2, 58767, Note_on_c, 0, 67, 66
2, 58767, Note_on_c, 0, 79, 59
2, 58787, Note_on_c, 0, 73, 45
2, 58787, Note_on_c, 0, 76, 48
2, 58827, Note_on_c, 0, 81, 0
2, 58846, Note_on_c, 0, 45, 43
2, 58857, Note_on_c, 0, 69, 0
2, 58923, Note_on_c, 0, 55, 44
2, 58984, Note_on_c, 0, 69, 59
2, 58984, Note_on_c, 0, 81, 56
2, 58996, Note_on_c, 0, 76, 0
2, 59004, Note_on_c, 0, 57, 45
2, 59007, Note_on_c, 0, 73, 0
2, 59036, Note_on_c, 0, 79, 0
2, 59036, Note_on_c, 0, 67, 0
2, 59055, Note_on_c, 0, 57, 0
2, 59064, Note_on_c, 0, 58, 50
2, 59075, Control_c, 0, 64, 127
2, 59115, Note_on_c, 0, 61, 44
2, 59146, Note_on_c, 0, 58, 0
2, 59157, Note_on_c, 0, 61, 0
2, 59163, Note_on_c, 0, 67, 62
2, 59164, Note_on_c, 0, 70, 60
2, 59164, Note_on_c, 0, 82, 55
2, 59182, Note_on_c, 0, 73, 43
2, 59184, Note_on_c, 0, 76, 47
2, 59232, Note_on_c, 0, 69, 0
2, 59232, Note_on_c, 0, 81, 0
2, 59239, Note_on_c, 0, 61, 50
2, 59270, Note_on_c, 0, 55, 0
2, 59288, Note_on_c, 0, 58, 50
2, 59310, Control_c, 0, 67, 127
2, 59328, Note_on_c, 0, 45, 0
2, 59341, Control_c, 0, 67, 0
2, 59359, Note_on_c, 0, 55, 49
2, 59360, Note_on_c, 0, 67, 0
2, 59370, Control_c, 0, 64, 0
2, 59374, Control_c, 0, 67, 127
2, 59405, Control_c, 0, 67, 0
2, 59414, Note_on_c, 0, 61, 0
2, 59423, Note_on_c, 0, 38, 0
2, 59423, Note_on_c, 0, 45, 54
2, 59435, Note_on_c, 0, 58, 0
2, 59437, Control_c, 0, 67, 127
2, 59475, Note_on_c, 0, 55, 0
2, 59516, Note_on_c, 0, 38, 50
2, 59558, Note_on_c, 0, 45, 0
2, 59559, Note_on_c, 0, 76, 0
2, 59559, Note_on_c, 0, 73, 0
2, 59626, Note_on_c, 0, 66, 66
2, 59638, Note_on_c, 0, 78, 63
2, 59657, Note_on_c, 0, 72, 43
2, 59658, Note_on_c, 0, 74, 42
2, 59670, Note_on_c, 0, 82, 0
2, 59680, Note_on_c, 0, 70, 0
2, 59782, Note_on_c, 0, 45, 41
2, 59904, Note_on_c, 0, 50, 45
2, 59994, Note_on_c, 0, 54, 45
2, 60003, Control_c, 0, 64, 127
2, 60076, Note_on_c, 0, 60, 41
2, 60079, Control_c, 0, 67, 0
2, 60113, Control_c, 0, 67, 127
2, 60144, Control_c, 0, 67, 0
2, 60153, Note_on_c, 0, 74, 0
2, 60162, Note_on_c, 0, 62, 44
2, 60163, Note_on_c, 0, 66, 0
2, 60164, Note_on_c, 0, 72, 0
2, 60173, Note_on_c, 0, 54, 0
2, 60176, Control_c, 0, 67, 127
2, 60226, Note_on_c, 0, 60, 0
2, 60258, Note_on_c, 0, 66, 54
2, 60258, Note_on_c, 0, 69, 54
2, 60259, Note_on_c, 0, 62, 0
2, 60259, Note_on_c, 0, 81, 57
2, 60279, Note_on_c, 0, 72, 47
2, 60279, Note_on_c, 0, 74, 46
2, 60312, Note_on_c, 0, 78, 0
2, 60347, Note_on_c, 0, 62, 48
2, 60444, Note_on_c, 0, 60, 47
2, 60566, Note_on_c, 0, 54, 41
2, 60628, Note_on_c, 0, 57, 69
2, 60640, Note_on_c, 0, 50, 0
2, 60672, Note_on_c, 0, 62, 0
2, 60696, Control_c, 0, 67, 0
2, 60715, Control_c, 0, 64, 0
2, 60718, Note_on_c, 0, 50, 47
2, 60740, Note_on_c, 0, 54, 0
2, 60760, Note_on_c, 0, 60, 0
2, 60760, Note_on_c, 0, 45, 0
2, 60831, Note_on_c, 0, 50, 0
2, 60832, Note_on_c, 0, 66, 0
2, 60832, Note_on_c, 0, 57, 0
2, 60833, Note_on_c, 0, 69, 0
2, 60834, Note_on_c, 0, 74, 0
2, 60834, Note_on_c, 0, 72, 0
2, 60835, Note_on_c, 0, 81, 0
2, 60841, Note_on_c, 0, 38, 0
2, 60854, Note_on_c, 0, 60, 45
2, 60864, Note_on_c, 0, 45, 44
2, 60990, Note_on_c, 0, 45, 0
2, 61000, Note_on_c, 0, 43, 46
2, 61090, Note_on_c, 0, 62, 45
2, 61103, Note_on_c, 0, 60, 0
2, 61110, Note_on_c, 0, 58, 48
2, 61337, Note_on_c, 0, 50, 46
2, 61376, Control_c, 0, 64, 127
2, 61462, Note_on_c, 0, 55, 52
2, 61485, Note_on_c, 0, 58, 0
2, 61555, Note_on_c, 0, 62, 0
2, 61555, Note_on_c, 0, 82, 73
2, 61565, Note_on_c, 0, 70, 73
2, 61573, Note_on_c, 0, 58, 47
2, 61644, Note_on_c, 0, 62, 51
2, 61699, Note_on_c, 0, 82, 0
2, 61709, Note_on_c, 0, 70, 0
2, 61728, Note_on_c, 0, 67, 65
2, 61794, Note_on_c, 0, 82, 75
2, 61803, Note_on_c, 0, 70, 54
2, 61804, Note_on_c, 0, 67, 0
2, 61814, Note_on_c, 0, 74, 50
2, 61815, Note_on_c, 0, 79, 54
2, 61865, Note_on_c, 0, 62, 0
2, 61892, Note_on_c, 0, 67, 49
2, 61947, Note_on_c, 0, 62, 53
2, 61950, Note_on_c, 0, 58, 0
2, 61969, Note_on_c, 0, 70, 0
2, 62025, Note_on_c, 0, 55, 0
2, 62028, Note_on_c, 0, 74, 0
2, 62035, Note_on_c, 0, 58, 57
2, 62036, Note_on_c, 0, 72, 71
2, 62037, Note_on_c, 0, 84, 72
2, 62056, Note_on_c, 0, 67, 0
2, 62068, Note_on_c, 0, 79, 0
2, 62078, Note_on_c, 0, 82, 0
2, 62085, Note_on_c, 0, 50, 0
2, 62086, Note_on_c, 0, 62, 0
2, 62114, Note_on_c, 0, 55, 56
2, 62132, Control_c, 0, 64, 0
2, 62175, Note_on_c, 0, 50, 58
2, 62177, Note_on_c, 0, 58, 0
2, 62226, Note_on_c, 0, 55, 0
2, 62226, Note_on_c, 0, 43, 0
2, 62232, Note_on_c, 0, 41, 74
2, 62268, Note_on_c, 0, 86, 73
2, 62275, Note_on_c, 0, 50, 0
2, 62286, Note_on_c, 0, 74, 55
2, 62287, Note_on_c, 0, 79, 53
2, 62287, Note_on_c, 0, 82, 52
2, 62329, Note_on_c, 0, 84, 0
2, 62338, Note_on_c, 0, 72, 0
2, 62385, Note_on_c, 0, 50, 54
2, 62438, Note_on_c, 0, 55, 52
2, 62476, Control_c, 0, 64, 127
2, 62522, Note_on_c, 0, 57, 58
2, 62577, Note_on_c, 0, 74, 0
2, 62578, Note_on_c, 0, 79, 0
2, 62584, Note_on_c, 0, 58, 53
2, 62634, Note_on_c, 0, 62, 54
2, 62656, Note_on_c, 0, 62, 0
2, 62667, Note_on_c, 0, 82, 0
2, 62673, Note_on_c, 0, 67, 68
2, 62674, Note_on_c, 0, 72, 70
2, 62675, Note_on_c, 0, 84, 71
2, 62685, Note_on_c, 0, 58, 0
2, 62694, Note_on_c, 0, 74, 59
2, 62694, Note_on_c, 0, 79, 60
2, 62722, Note_on_c, 0, 57, 0
2, 62726, Note_on_c, 0, 86, 0
2, 62730, Note_on_c, 0, 62, 55
2, 62759, Note_on_c, 0, 58, 60
2, 62778, Note_on_c, 0, 55, 0
2, 62798, Note_on_c, 0, 58, 0
2, 62800, Note_on_c, 0, 79, 0
2, 62806, Note_on_c, 0, 57, 62
2, 62815, Control_c, 0, 64, 0
2, 62847, Note_on_c, 0, 50, 0
2, 62865, Note_on_c, 0, 55, 61
2, 62878, Note_on_c, 0, 70, 68
2, 62878, Note_on_c, 0, 82, 70
2, 62889, Note_on_c, 0, 79, 57
2, 62900, Note_on_c, 0, 74, 0
2, 62917, Note_on_c, 0, 41, 0
2, 62936, Note_on_c, 0, 50, 59
2, 62941, Note_on_c, 0, 84, 0
2, 63000, Note_on_c, 0, 72, 0
2, 63003, Note_on_c, 0, 41, 67
2, 63028, Note_on_c, 0, 79, 0
2, 63047, Note_on_c, 0, 82, 0
2, 63084, Note_on_c, 0, 57, 0
2, 63084, Note_on_c, 0, 55, 0
2, 63085, Note_on_c, 0, 67, 0
2, 63085, Note_on_c, 0, 62, 0
2, 63093, Note_on_c, 0, 41, 0
2, 63094, Note_on_c, 0, 50, 0
2, 63101, Note_on_c, 0, 39, 73
2, 63115, Note_on_c, 0, 72, 77
2, 63116, Note_on_c, 0, 84, 82
2, 63117, Note_on_c, 0, 70, 0
2, 63135, Note_on_c, 0, 79, 61
2, 63135, Note_on_c, 0, 82, 58
2, 63193, Note_on_c, 0, 46, 60
2, 63278, Note_on_c, 0, 55, 60
2, 63351, Note_on_c, 0, 58, 65
2, 63352, Note_on_c, 0, 74, 77
2, 63355, Note_on_c, 0, 82, 0
2, 63355, Note_on_c, 0, 79, 0
2, 63355, Note_on_c, 0, 86, 76
2, 63403, Note_on_c, 0, 72, 0
2, 63404, Note_on_c, 0, 84, 0
2, 63404, Control_c, 0, 64, 127
2, 63409, Note_on_c, 0, 63, 61
2, 63467, Note_on_c, 0, 65, 66
2, 63500, Note_on_c, 0, 63, 0
2, 63518, Note_on_c, 0, 75, 85
2, 63519, Note_on_c, 0, 87, 85
2, 63527, Note_on_c, 0, 67, 61
2, 63538, Note_on_c, 0, 79, 62
2, 63538, Note_on_c, 0, 82, 61
2, 63557, Note_on_c, 0, 58, 0
2, 63570, Note_on_c, 0, 74, 0
2, 63578, Note_on_c, 0, 65, 0
2, 63588, Note_on_c, 0, 63, 66
2, 63592, Note_on_c, 0, 86, 0
2, 63607, Note_on_c, 0, 55, 0
2, 63648, Note_on_c, 0, 58, 68
2, 63672, Note_on_c, 0, 67, 0
2, 63679, Note_on_c, 0, 46, 0
2, 63699, Note_on_c, 0, 55, 68
2, 63734, Note_on_c, 0, 63, 0
2, 63750, Note_on_c, 0, 39, 0
2, 63769, Note_on_c, 0, 46, 70
2, 63792, Note_on_c, 0, 58, 0
2, 63813, Note_on_c, 0, 55, 0
2, 63831, Control_c, 0, 64, 0
2, 63841, Note_on_c, 0, 39, 70
2, 63886, Note_on_c, 0, 46, 0
2, 63929, Note_on_c, 0, 39, 0
2, 63937, Note_on_c, 0, 38, 78
2, 64088, Note_on_c, 0, 46, 66
2, 64106, Control_c, 0, 64, 127
2, 64144, Note_on_c, 0, 79, 0
2, 64154, Note_on_c, 0, 82, 0
2, 64159, Note_on_c, 0, 55, 64
2, 64241, Note_on_c, 0, 76, 75
2, 64242, Note_on_c, 0, 88, 76
2, 64259, Note_on_c, 0, 57, 63
2, 64261, Note_on_c, 0, 79, 61
2, 64261, Note_on_c, 0, 82, 63
2, 64293, Note_on_c, 0, 75, 0
2, 64308, Control_c, 0, 64, 0
2, 64313, Note_on_c, 0, 87, 0
2, 64350, Note_on_c, 0, 57, 0
2, 64358, Note_on_c, 0, 58, 62
2, 64382, Control_c, 0, 67, 127
2, 64464, Note_on_c, 0, 67, 79
2, 64526, Note_on_c, 0, 88, 0
2, 64602, Note_on_c, 0, 37, 78
2, 64622, Note_on_c, 0, 38, 0
2, 64623, Note_on_c, 0, 46, 0
2, 64623, Note_on_c, 0, 55, 0
2, 64624, Note_on_c, 0, 67, 0
2, 64624, Note_on_c, 0, 58, 0
2, 64625, Note_on_c, 0, 82, 0
2, 64625, Note_on_c, 0, 79, 0
2, 64646, Control_c, 0, 67, 0
2, 64654, Note_on_c, 0, 78, 79
2, 64656, Note_on_c, 0, 88, 83
2, 64656, Note_on_c, 0, 90, 86
2, 64677, Note_on_c, 0, 81, 64
2, 64679, Control_c, 0, 67, 127
2, 64697, Note_on_c, 0, 76, 0
2, 64825, Note_on_c, 0, 45, 60
2, 64994, Note_on_c, 0, 55, 63
2, 65034, Control_c, 0, 64, 127
2, 65175, Note_on_c, 0, 91, 67
2, 65184, Note_on_c, 0, 57, 63
2, 65185, Note_on_c, 0, 79, 66
2, 65208, Note_on_c, 0, 81, 0
2, 65247, Control_c, 0, 64, 0
2, 65250, Note_on_c, 0, 90, 0
2, 65250, Note_on_c, 0, 88, 0
2, 65259, Note_on_c, 0, 78, 0
2, 65373, Control_c, 0, 67, 0
2, 65404, Note_on_c, 0, 67, 58
2, 65407, Control_c, 0, 67, 127
2, 65439, Control_c, 0, 67, 0
2, 65471, Control_c, 0, 67, 127
2, 65599, Note_on_c, 0, 69, 53
2, 65809, Note_on_c, 0, 55, 0
2, 65809, Note_on_c, 0, 37, 0
2, 65809, Note_on_c, 0, 57, 0
2, 65809, Note_on_c, 0, 45, 0
2, 65810, Note_on_c, 0, 67, 0
2, 65810, Note_on_c, 0, 69, 0
2, 65812, Note_on_c, 0, 91, 0
2, 65812, Note_on_c, 0, 79, 0
2, 65868, Note_on_c, 0, 78, 54
2, 65875, Note_on_c, 0, 38, 54
2, 65877, Note_on_c, 0, 66, 43
2, 65884, Control_c, 0, 64, 127
2, 65887, Note_on_c, 0, 69, 46
2, 65888, Note_on_c, 0, 74, 48
2, 66055, Note_on_c, 0, 45, 45
2, 66096, Control_c, 0, 64, 0
2, 66152, Control_c, 0, 67, 0
2, 66184, Control_c, 0, 67, 127
2, 66190, Note_on_c, 0, 50, 42
2, 66286, Note_on_c, 0, 79, 57
2, 66294, Note_on_c, 0, 55, 48
2, 66294, Note_on_c, 0, 67, 58
2, 66326, Note_on_c, 0, 69, 0
2, 66327, Note_on_c, 0, 74, 0
2, 66348, Note_on_c, 0, 78, 0
2, 66353, Control_c, 0, 64, 127
2, 66357, Note_on_c, 0, 66, 0
2, 66395, Note_on_c, 0, 57, 45
2, 66477, Note_on_c, 0, 62, 45
2, 66538, Note_on_c, 0, 38, 0
2, 66539, Note_on_c, 0, 55, 0
2, 66539, Note_on_c, 0, 45, 0
2, 66539, Note_on_c, 0, 62, 0
2, 66539, Note_on_c, 0, 50, 0
2, 66539, Note_on_c, 0, 57, 0
2, 66556, Note_on_c, 0, 54, 52
2, 66558, Note_on_c, 0, 69, 49
2, 66558, Note_on_c, 0, 81, 48
2, 66569, Note_on_c, 0, 74, 45
2, 66579, Control_c, 0, 64, 0
2, 66610, Note_on_c, 0, 67, 0
2, 66612, Note_on_c, 0, 79, 0
2, 66648, Note_on_c, 0, 57, 53
2, 66708, Note_on_c, 0, 62, 50
2, 66820, Note_on_c, 0, 66, 59
2, 66900, Control_c, 0, 67, 0
2, 66904, Note_on_c, 0, 64, 41
2, 66907, Note_on_c, 0, 66, 0
2, 66932, Control_c, 0, 67, 127
2, 66965, Control_c, 0, 67, 0
2, 66983, Note_on_c, 0, 64, 0
2, 66983, Note_on_c, 0, 57, 0
2, 66983, Note_on_c, 0, 54, 0
2, 66983, Note_on_c, 0, 62, 0
2, 66993, Note_on_c, 0, 66, 60
2, 66998, Control_c, 0, 67, 127
2, 67032, Control_c, 0, 67, 0
2, 67063, Control_c, 0, 67, 127
2, 67080, Note_on_c, 0, 66, 0
2, 67090, Note_on_c, 0, 64, 48
2, 67102, Note_on_c, 0, 67, 61
2, 67176, Note_on_c, 0, 64, 0
2, 67184, Note_on_c, 0, 62, 43
2, 67297, Note_on_c, 0, 64, 46
2, 67300, Note_on_c, 0, 62, 0
2, 67381, Note_on_c, 0, 64, 0
2, 67390, Note_on_c, 0, 62, 45
2, 67500, Note_on_c, 0, 57, 41
2, 67528, Control_c, 0, 67, 0
2, 67540, Note_on_c, 0, 62, 0
2, 67609, Note_on_c, 0, 62, 44
2, 67641, Note_on_c, 0, 57, 0
2, 67730, Control_c, 0, 64, 127
2, 67775, Note_on_c, 0, 57, 44
2, 67796, Note_on_c, 0, 62, 0
2, 67800, Control_c, 0, 67, 127
2, 67818, Note_on_c, 0, 74, 0
2, 67827, Note_on_c, 0, 73, 49
2, 67870, Note_on_c, 0, 67, 0
2, 67908, Control_c, 0, 64, 0
2, 67948, Note_on_c, 0, 55, 43
2, 68121, Note_on_c, 0, 52, 44
2, 68136, Control_c, 0, 67, 0
2, 68302, Note_on_c, 0, 55, 0
2, 68303, Note_on_c, 0, 57, 0
2, 68307, Note_on_c, 0, 58, 69
2, 68337, Control_c, 0, 67, 127
2, 68512, Control_c, 0, 64, 127
2, 68533, Note_on_c, 0, 55, 44
2, 68669, Note_on_c, 0, 52, 0
2, 68734, Control_c, 0, 64, 0
2, 68752, Note_on_c, 0, 52, 48
2, 68887, Note_on_c, 0, 52, 0
2, 68887, Note_on_c, 0, 55, 0
2, 68896, Note_on_c, 0, 54, 44
2, 68987, Note_on_c, 0, 81, 0
2, 68987, Note_on_c, 0, 69, 0
2, 68987, Note_on_c, 0, 73, 0
2, 68994, Note_on_c, 0, 38, 52
2, 69009, Control_c, 0, 67, 0
2, 69093, Note_on_c, 0, 58, 0
2, 69112, Note_on_c, 0, 60, 70
2, 69302, Note_on_c, 0, 45, 44
2, 69384, Control_c, 0, 64, 127
2, 69479, Note_on_c, 0, 50, 43
2, 69537, Note_on_c, 0, 54, 0
2, 69618, Note_on_c, 0, 81, 63
2, 69619, Note_on_c, 0, 69, 64
2, 69628, Note_on_c, 0, 54, 48
2, 69638, Note_on_c, 0, 78, 47
2, 69659, Note_on_c, 0, 60, 0
2, 69748, Note_on_c, 0, 60, 44
2, 69768, Note_on_c, 0, 72, 42
2, 69838, Note_on_c, 0, 60, 0
2, 69846, Note_on_c, 0, 62, 48
2, 69848, Note_on_c, 0, 78, 0
2, 69848, Note_on_c, 0, 81, 0
2, 69848, Note_on_c, 0, 69, 0
2, 69910, Note_on_c, 0, 72, 0
2, 69919, Note_on_c, 0, 69, 65
2, 69919, Note_on_c, 0, 81, 66
2, 69930, Note_on_c, 0, 66, 49
2, 69931, Note_on_c, 0, 62, 0
2, 69940, Note_on_c, 0, 78, 45
2, 69941, Note_on_c, 0, 74, 47
2, 70017, Note_on_c, 0, 62, 46
2, 70128, Note_on_c, 0, 62, 0
2, 70137, Note_on_c, 0, 60, 49
2, 70139, Note_on_c, 0, 54, 0
2, 70214, Note_on_c, 0, 78, 0
2, 70214, Note_on_c, 0, 74, 0
2, 70221, Note_on_c, 0, 54, 54
2, 70233, Note_on_c, 0, 50, 0
2, 70292, Note_on_c, 0, 81, 0
2, 70298, Note_on_c, 0, 82, 64
2, 70299, Note_on_c, 0, 70, 54
2, 70302, Note_on_c, 0, 69, 0
2, 70320, Note_on_c, 0, 74, 53
2, 70320, Note_on_c, 0, 78, 55
2, 70320, Note_on_c, 0, 50, 50
2, 70332, Note_on_c, 0, 66, 0
2, 70343, Note_on_c, 0, 45, 0
2, 70434, Note_on_c, 0, 45, 47
2, 70466, Control_c, 0, 64, 0
2, 70495, Note_on_c, 0, 38, 0
2, 70574, Note_on_c, 0, 78, 0
2, 70575, Note_on_c, 0, 74, 0
2, 70584, Note_on_c, 0, 38, 55
2, 70656, Note_on_c, 0, 82, 0
2, 70666, Note_on_c, 0, 84, 47
2, 70678, Note_on_c, 0, 72, 47
2, 70679, Note_on_c, 0, 70, 0
2, 70688, Note_on_c, 0, 78, 46
2, 70689, Note_on_c, 0, 74, 45
2, 70690, Note_on_c, 0, 45, 0
2, 70711, Note_on_c, 0, 60, 0
2, 70712, Note_on_c, 0, 54, 0
2, 70713, Note_on_c, 0, 50, 0
2, 70777, Note_on_c, 0, 38, 0
2, 70788, Note_on_c, 0, 45, 47
2, 70898, Note_on_c, 0, 54, 53
2, 71005, Note_on_c, 0, 62, 67
2, 71036, Control_c, 0, 64, 127
2, 71124, Note_on_c, 0, 60, 41
2, 71158, Note_on_c, 0, 54, 0
2, 71246, Note_on_c, 0, 54, 45
2, 71299, Control_c, 0, 64, 0
2, 71324, Note_on_c, 0, 78, 0
2, 71325, Note_on_c, 0, 74, 0
2, 71344, Note_on_c, 0, 62, 0
2, 71353, Note_on_c, 0, 64, 72
2, 71393, Note_on_c, 0, 84, 0
2, 71394, Note_on_c, 0, 60, 0
2, 71400, Note_on_c, 0, 82, 45
2, 71401, Note_on_c, 0, 70, 41
2, 71404, Note_on_c, 0, 72, 0
2, 71421, Note_on_c, 0, 78, 47
2, 71422, Note_on_c, 0, 74, 47
2, 71434, Note_on_c, 0, 45, 0
2, 71474, Note_on_c, 0, 54, 0
2, 71484, Note_on_c, 0, 60, 47
2, 71568, Note_on_c, 0, 54, 47
2, 71666, Note_on_c, 0, 60, 0
2, 71666, Note_on_c, 0, 64, 0
2, 71675, Note_on_c, 0, 66, 54
2, 71678, Note_on_c, 0, 70, 0
2, 71693, Note_on_c, 0, 69, 51
2, 71724, Note_on_c, 0, 54, 0
2, 71733, Note_on_c, 0, 74, 0
2, 71740, Note_on_c, 0, 82, 0
2, 71749, Note_on_c, 0, 81, 60
2, 71750, Note_on_c, 0, 60, 44
2, 71760, Note_on_c, 0, 78, 0
2, 71808, Note_on_c, 0, 54, 47
2, 71927, Note_on_c, 0, 66, 0
2, 71935, Note_on_c, 0, 67, 70
2, 71987, Note_on_c, 0, 38, 48
2, 71997, Note_on_c, 0, 69, 0
2, 72006, Note_on_c, 0, 60, 0
2, 72007, Note_on_c, 0, 54, 0
2, 72052, Note_on_c, 0, 81, 0
2, 72060, Note_on_c, 0, 79, 45
2, 72078, Note_on_c, 0, 75, 47
2, 72079, Note_on_c, 0, 72, 46
2, 72146, Note_on_c, 0, 45, 43
2, 72249, Note_on_c, 0, 50, 46
2, 72328, Note_on_c, 0, 81, 57
2, 72338, Note_on_c, 0, 69, 58
2, 72359, Note_on_c, 0, 55, 45
2, 72370, Note_on_c, 0, 72, 0
2, 72370, Note_on_c, 0, 75, 0
2, 72388, Note_on_c, 0, 79, 0
2, 72388, Note_on_c, 0, 67, 0
2, 72445, Note_on_c, 0, 60, 44
2, 72524, Note_on_c, 0, 63, 48
2, 72633, Note_on_c, 0, 82, 49
2, 72634, Note_on_c, 0, 66, 53
2, 72635, Note_on_c, 0, 70, 49
2, 72644, Note_on_c, 0, 72, 47
2, 72644, Note_on_c, 0, 75, 53
2, 72646, Note_on_c, 0, 60, 0
2, 72647, Note_on_c, 0, 63, 0
2, 72648, Note_on_c, 0, 38, 0
2, 72648, Note_on_c, 0, 50, 0
2, 72648, Note_on_c, 0, 45, 0
2, 72667, Note_on_c, 0, 81, 0
2, 72677, Note_on_c, 0, 69, 0
2, 72689, Control_c, 0, 64, 127
2, 72777, Note_on_c, 0, 63, 49
2, 72887, Note_on_c, 0, 60, 47
2, 72899, Note_on_c, 0, 55, 0
2, 73007, Note_on_c, 0, 55, 42
2, 73031, Control_c, 0, 64, 0
2, 73048, Note_on_c, 0, 67, 61
2, 73050, Note_on_c, 0, 66, 0
2, 73132, Note_on_c, 0, 50, 48
2, 73231, Note_on_c, 0, 45, 42
2, 73280, Note_on_c, 0, 70, 0
2, 73288, Note_on_c, 0, 69, 60
2, 73290, Note_on_c, 0, 72, 0
2, 73310, Note_on_c, 0, 67, 0
2, 73338, Note_on_c, 0, 55, 0
2, 73338, Note_on_c, 0, 60, 0
2, 73339, Note_on_c, 0, 50, 0
2, 73339, Note_on_c, 0, 63, 0
2, 73340, Note_on_c, 0, 45, 0
2, 73346, Note_on_c, 0, 66, 48
2, 73347, Note_on_c, 0, 82, 0
2, 73348, Note_on_c, 0, 75, 0
2, 73357, Note_on_c, 0, 72, 46
2, 73368, Note_on_c, 0, 38, 49
2, 73397, Note_on_c, 0, 74, 47
2, 73420, Control_c, 0, 64, 127
2, 73437, Note_on_c, 0, 78, 59
2, 73488, Note_on_c, 0, 45, 41
2, 73567, Note_on_c, 0, 50, 46
2, 73598, Note_on_c, 0, 50, 0
2, 73663, Note_on_c, 0, 50, 45
2, 73693, Note_on_c, 0, 78, 0
2, 73693, Note_on_c, 0, 66, 0
2, 73702, Note_on_c, 0, 67, 53
2, 73702, Note_on_c, 0, 79, 54
2, 73766, Note_on_c, 0, 57, 62
2, 73788, Note_on_c, 0, 69, 0
2, 73800, Control_c, 0, 64, 0
2, 73872, Note_on_c, 0, 72, 0
2, 73872, Note_on_c, 0, 62, 42
2, 73882, Note_on_c, 0, 69, 48
2, 73895, Note_on_c, 0, 57, 0
2, 73925, Note_on_c, 0, 74, 0
2, 73963, Note_on_c, 0, 72, 48
2, 73992, Note_on_c, 0, 57, 72
2, 74012, Note_on_c, 0, 74, 42
2, 74033, Note_on_c, 0, 62, 0
2, 74033, Note_on_c, 0, 67, 0
2, 74035, Note_on_c, 0, 45, 0
2, 74035, Note_on_c, 0, 38, 0
2, 74131, Note_on_c, 0, 81, 59
2, 74153, Note_on_c, 0, 79, 0
2, 74182, Note_on_c, 0, 54, 47
2, 74297, Note_on_c, 0, 50, 0
2, 74387, Note_on_c, 0, 50, 46
2, 74668, Note_on_c, 0, 57, 0
2, 74677, Note_on_c, 0, 58, 71
2, 74716, Note_on_c, 0, 54, 0
2, 74799, Note_on_c, 0, 54, 48
2, 74828, Note_on_c, 0, 50, 0
2, 74856, Control_c, 0, 64, 127
2, 74911, Note_on_c, 0, 50, 47
2, 74940, Note_on_c, 0, 54, 0
2, 74997, Control_c, 0, 64, 0
2, 75022, Note_on_c, 0, 54, 44
2, 75071, Note_on_c, 0, 72, 0
2, 75071, Note_on_c, 0, 81, 0
2, 75071, Note_on_c, 0, 69, 0
2, 75071, Note_on_c, 0, 74, 0
2, 75071, Note_on_c, 0, 50, 0
2, 75078, Note_on_c, 0, 38, 42
2, 75164, Note_on_c, 0, 60, 66
2, 75186, Note_on_c, 0, 58, 0
2, 75275, Note_on_c, 0, 45, 48
2, 75357, Control_c, 0, 64, 127
2, 75426, Note_on_c, 0, 50, 45
2, 75456, Note_on_c, 0, 54, 0
2, 75563, Note_on_c, 0, 54, 48
2, 75574, Note_on_c, 0, 69, 65
2, 75574, Note_on_c, 0, 81, 65
2, 75583, Note_on_c, 0, 78, 43
2, 75594, Note_on_c, 0, 60, 0
2, 75672, Note_on_c, 0, 60, 50
2, 75695, Note_on_c, 0, 72, 56
2, 75706, Note_on_c, 0, 81, 0
2, 75717, Note_on_c, 0, 78, 0
2, 75739, Note_on_c, 0, 69, 0
2, 75768, Note_on_c, 0, 62, 45
2, 75792, Note_on_c, 0, 72, 0
2, 75799, Note_on_c, 0, 81, 67
2, 75810, Note_on_c, 0, 69, 46
2, 75811, Note_on_c, 0, 74, 50
2, 75821, Note_on_c, 0, 78, 45
2, 75833, Note_on_c, 0, 62, 0
2, 75854, Note_on_c, 0, 66, 46
2, 75907, Note_on_c, 0, 60, 0
2, 75929, Note_on_c, 0, 62, 45
2, 75982, Note_on_c, 0, 74, 0
2, 75982, Note_on_c, 0, 54, 0
2, 75993, Note_on_c, 0, 78, 0
2, 76015, Note_on_c, 0, 60, 51
2, 76026, Note_on_c, 0, 62, 0
2, 76068, Note_on_c, 0, 69, 0
2, 76079, Note_on_c, 0, 81, 0
2, 76079, Control_c, 0, 64, 0
2, 76086, Note_on_c, 0, 82, 59
2, 76087, Note_on_c, 0, 54, 51
2, 76087, Note_on_c, 0, 70, 64
2, 76088, Note_on_c, 0, 50, 0
2, 76106, Note_on_c, 0, 78, 49
2, 76107, Note_on_c, 0, 74, 48
2, 76149, Note_on_c, 0, 45, 0
2, 76168, Note_on_c, 0, 50, 52
2, 76200, Note_on_c, 0, 38, 0
2, 76239, Note_on_c, 0, 45, 47
2, 76271, Note_on_c, 0, 70, 0
2, 76278, Note_on_c, 0, 72, 54
2, 76291, Note_on_c, 0, 74, 0
2, 76296, Note_on_c, 0, 38, 53
2, 76296, Note_on_c, 0, 75, 49
2, 76308, Note_on_c, 0, 45, 0
2, 76320, Note_on_c, 0, 78, 0
2, 76327, Note_on_c, 0, 79, 50
2, 76347, Note_on_c, 0, 50, 0
2, 76347, Note_on_c, 0, 66, 0
2, 76347, Note_on_c, 0, 60, 0
2, 76347, Note_on_c, 0, 54, 0
2, 76358, Note_on_c, 0, 82, 0
2, 76366, Note_on_c, 0, 84, 53
2, 76394, Note_on_c, 0, 45, 50
2, 76515, Note_on_c, 0, 55, 53
2, 76574, Control_c, 0, 64, 127
2, 76605, Note_on_c, 0, 62, 76
2, 76685, Note_on_c, 0, 55, 0
2, 76693, Note_on_c, 0, 60, 43
2, 76706, Note_on_c, 0, 75, 0
2, 76767, Note_on_c, 0, 72, 0
2, 76776, Note_on_c, 0, 55, 50
2, 76797, Note_on_c, 0, 75, 48
2, 76837, Note_on_c, 0, 84, 0
2, 76846, Note_on_c, 0, 82, 62
2, 76856, Note_on_c, 0, 63, 65
2, 76856, Note_on_c, 0, 70, 47
2, 76857, Note_on_c, 0, 62, 0
2, 76858, Note_on_c, 0, 79, 0
2, 76867, Note_on_c, 0, 60, 0
2, 76867, Note_on_c, 0, 72, 46
2, 76877, Control_c, 0, 64, 0
2, 76918, Note_on_c, 0, 55, 0
2, 76956, Note_on_c, 0, 60, 48
2, 77007, Note_on_c, 0, 55, 46
2, 77048, Note_on_c, 0, 60, 0
2, 77059, Note_on_c, 0, 38, 0
2, 77059, Note_on_c, 0, 45, 0
2, 77060, Note_on_c, 0, 63, 0
2, 77066, Note_on_c, 0, 65, 71
2, 77119, Note_on_c, 0, 72, 0
2, 77119, Note_on_c, 0, 70, 0
2, 77120, Note_on_c, 0, 75, 0
2, 77127, Note_on_c, 0, 69, 63
2, 77128, Note_on_c, 0, 81, 64
2, 77136, Note_on_c, 0, 60, 45
2, 77139, Note_on_c, 0, 55, 0
2, 77169, Note_on_c, 0, 82, 0
2, 77228, Note_on_c, 0, 55, 46
2, 77258, Note_on_c, 0, 67, 72
2, 77280, Note_on_c, 0, 55, 0
2, 77280, Note_on_c, 0, 65, 0
2, 77280, Note_on_c, 0, 60, 0
2, 77317, Note_on_c, 0, 38, 53
2, 77317, Note_on_c, 0, 73, 43
2, 77337, Note_on_c, 0, 76, 54
2, 77357, Note_on_c, 0, 79, 59
2, 77359, Note_on_c, 0, 69, 0
2, 77390, Note_on_c, 0, 81, 0
2, 77409, Note_on_c, 0, 45, 45
2, 77484, Note_on_c, 0, 55, 42
2, 77558, Note_on_c, 0, 57, 42
2, 77579, Note_on_c, 0, 69, 59
2, 77579, Note_on_c, 0, 81, 60
2, 77610, Control_c, 0, 64, 127
2, 77620, Note_on_c, 0, 57, 0
2, 77620, Note_on_c, 0, 79, 0
2, 77630, Note_on_c, 0, 67, 0
2, 77630, Note_on_c, 0, 58, 42
2, 77670, Note_on_c, 0, 73, 0
2, 77670, Note_on_c, 0, 76, 0
2, 77688, Note_on_c, 0, 61, 42
2, 77748, Note_on_c, 0, 69, 0
2, 77749, Note_on_c, 0, 81, 0
2, 77756, Note_on_c, 0, 66, 62
2, 77765, Note_on_c, 0, 82, 59
2, 77766, Note_on_c, 0, 70, 63
2, 77768, Note_on_c, 0, 61, 0
2, 77784, Note_on_c, 0, 73, 42
2, 77784, Note_on_c, 0, 76, 42
2, 77825, Note_on_c, 0, 58, 0
2, 77832, Note_on_c, 0, 61, 42
2, 77881, Note_on_c, 0, 55, 0
2, 77889, Note_on_c, 0, 58, 43
2, 77938, Control_c, 0, 64, 0
2, 77947, Note_on_c, 0, 66, 0
2, 77955, Note_on_c, 0, 67, 66
2, 77965, Note_on_c, 0, 55, 46
2, 77967, Note_on_c, 0, 45, 0
2, 78012, Note_on_c, 0, 38, 0
2, 78047, Note_on_c, 0, 45, 47
2, 78116, Note_on_c, 0, 38, 59
2, 78146, Note_on_c, 0, 45, 0
2, 78156, Note_on_c, 0, 67, 0
2, 78156, Note_on_c, 0, 58, 0
2, 78156, Note_on_c, 0, 55, 0
2, 78156, Note_on_c, 0, 82, 0
2, 78156, Note_on_c, 0, 61, 0
2, 78157, Note_on_c, 0, 73, 0
2, 78157, Note_on_c, 0, 70, 0
2, 78157, Note_on_c, 0, 76, 0
2, 78165, Note_on_c, 0, 69, 66
2, 78185, Note_on_c, 0, 66, 55
2, 78185, Note_on_c, 0, 78, 56
2, 78196, Note_on_c, 0, 72, 56
2, 78196, Note_on_c, 0, 74, 53
2, 78239, Note_on_c, 0, 45, 43
2, 78312, Note_on_c, 0, 50, 42
2, 78333, Note_on_c, 0, 50, 0
2, 78401, Note_on_c, 0, 50, 54
2, 78423, Note_on_c, 0, 69, 0
2, 78430, Note_on_c, 0, 67, 60
2, 78430, Note_on_c, 0, 79, 56
2, 78452, Note_on_c, 0, 78, 0
2, 78461, Note_on_c, 0, 72, 0
2, 78461, Note_on_c, 0, 74, 0
2, 78461, Note_on_c, 0, 66, 0
2, 78468, Note_on_c, 0, 57, 53
2, 78479, Control_c, 0, 64, 127
2, 78515, Note_on_c, 0, 62, 53
2, 78527, Note_on_c, 0, 57, 0
2, 78572, Note_on_c, 0, 60, 54
2, 78602, Note_on_c, 0, 69, 62
2, 78602, Note_on_c, 0, 81, 62
2, 78603, Note_on_c, 0, 50, 0
2, 78603, Note_on_c, 0, 62, 0
2, 78622, Note_on_c, 0, 72, 45
2, 78623, Note_on_c, 0, 74, 42
2, 78630, Note_on_c, 0, 57, 54
2, 78632, Note_on_c, 0, 67, 0
2, 78633, Note_on_c, 0, 79, 0
2, 78690, Note_on_c, 0, 50, 62
2, 78711, Note_on_c, 0, 50, 0
2, 78711, Note_on_c, 0, 69, 0
2, 78731, Control_c, 0, 64, 0
2, 78760, Note_on_c, 0, 38, 0
2, 78765, Note_on_c, 0, 50, 59
2, 78781, Note_on_c, 0, 69, 66
2, 78811, Note_on_c, 0, 50, 0
2, 78812, Note_on_c, 0, 72, 0
2, 78834, Note_on_c, 0, 38, 54
2, 78848, Note_on_c, 0, 74, 0
2, 78849, Note_on_c, 0, 81, 0
2, 78858, Note_on_c, 0, 60, 0
2, 78858, Note_on_c, 0, 57, 0
2, 78866, Note_on_c, 0, 45, 0
2, 78897, Note_on_c, 0, 72, 69
2, 78906, Note_on_c, 0, 50, 55
2, 78917, Note_on_c, 0, 38, 0
2, 78918, Note_on_c, 0, 69, 0
2, 78938, Note_on_c, 0, 50, 0
2, 78991, Note_on_c, 0, 43, 44
2, 79015, Note_on_c, 0, 72, 0
2, 79024, Note_on_c, 0, 62, 48
2, 79025, Note_on_c, 0, 74, 67
2, 79046, Note_on_c, 0, 70, 49
2, 79135, Note_on_c, 0, 50, 49
2, 79180, Control_c, 0, 64, 127
2, 79215, Note_on_c, 0, 70, 0
2, 79220, Note_on_c, 0, 55, 48
2, 79291, Note_on_c, 0, 82, 63
2, 79300, Note_on_c, 0, 70, 62
2, 79309, Note_on_c, 0, 58, 47
2, 79311, Note_on_c, 0, 62, 0
2, 79312, Note_on_c, 0, 74, 0
2, 79391, Note_on_c, 0, 62, 49
2, 79444, Note_on_c, 0, 82, 0
2, 79455, Note_on_c, 0, 70, 0
2, 79463, Note_on_c, 0, 67, 58
2, 79534, Note_on_c, 0, 82, 70
2, 79535, Note_on_c, 0, 67, 0
2, 79542, Note_on_c, 0, 70, 47
2, 79553, Note_on_c, 0, 74, 52
2, 79554, Note_on_c, 0, 79, 47
2, 79604, Note_on_c, 0, 62, 0
2, 79613, Note_on_c, 0, 67, 51
2, 79634, Control_c, 0, 64, 0
2, 79700, Note_on_c, 0, 62, 49
2, 79701, Note_on_c, 0, 58, 0
2, 79797, Note_on_c, 0, 55, 0
2, 79797, Note_on_c, 0, 58, 50
2, 79798, Note_on_c, 0, 84, 61
2, 79817, Note_on_c, 0, 72, 62
2, 79839, Note_on_c, 0, 79, 0
2, 79848, Note_on_c, 0, 74, 0
2, 79848, Note_on_c, 0, 82, 0
2, 79884, Note_on_c, 0, 55, 48
2, 79886, Note_on_c, 0, 50, 0
2, 79942, Note_on_c, 0, 74, 62
2, 79959, Note_on_c, 0, 50, 49
2, 79992, Note_on_c, 0, 72, 0
2, 80009, Note_on_c, 0, 67, 0
2, 80009, Note_on_c, 0, 50, 0
2, 80009, Note_on_c, 0, 62, 0
2, 80009, Note_on_c, 0, 58, 0
2, 80009, Note_on_c, 0, 43, 0
2, 80011, Note_on_c, 0, 70, 0
2, 80049, Note_on_c, 0, 41, 58
2, 80051, Note_on_c, 0, 80, 72
2, 80052, Note_on_c, 0, 86, 68
2, 80060, Note_on_c, 0, 82, 72
2, 80073, Note_on_c, 0, 84, 0
2, 80161, Note_on_c, 0, 55, 0
2, 80180, Note_on_c, 0, 50, 51
2, 80250, Note_on_c, 0, 55, 46
2, 80254, Note_on_c, 0, 74, 0
2, 80341, Note_on_c, 0, 74, 66
2, 80361, Note_on_c, 0, 55, 0
2, 80371, Note_on_c, 0, 56, 51
2, 80471, Note_on_c, 0, 58, 49
2, 80534, Note_on_c, 0, 62, 51
2, 80606, Note_on_c, 0, 74, 0
2, 80616, Note_on_c, 0, 75, 73
2, 80635, Note_on_c, 0, 72, 50
2, 80647, Note_on_c, 0, 82, 0
2, 80648, Note_on_c, 0, 86, 0
2, 80655, Note_on_c, 0, 84, 53
2, 80687, Note_on_c, 0, 80, 0
2, 80691, Note_on_c, 0, 68, 53
2, 80808, Note_on_c, 0, 62, 0
2, 80817, Note_on_c, 0, 63, 47
2, 80838, Note_on_c, 0, 58, 0
2, 80928, Note_on_c, 0, 58, 52
2, 80951, Note_on_c, 0, 75, 0
2, 80958, Note_on_c, 0, 77, 65
2, 80979, Note_on_c, 0, 68, 0
2, 80979, Note_on_c, 0, 72, 0
2, 80988, Note_on_c, 0, 70, 54
2, 81072, Note_on_c, 0, 63, 0
2, 81080, Note_on_c, 0, 41, 0
2, 81081, Note_on_c, 0, 56, 0
2, 81081, Note_on_c, 0, 58, 0
2, 81081, Note_on_c, 0, 50, 0
2, 81092, Note_on_c, 0, 62, 59
2, 81092, Note_on_c, 0, 82, 48
2, 81149, Note_on_c, 0, 84, 0
2, 81211, Note_on_c, 0, 62, 0
2, 81222, Note_on_c, 0, 56, 43
2, 81324, Note_on_c, 0, 46, 52
2, 81407, Note_on_c, 0, 77, 0
2, 81413, Note_on_c, 0, 79, 59
2, 81441, Note_on_c, 0, 72, 44
2, 81441, Note_on_c, 0, 75, 45
2, 81471, Note_on_c, 0, 82, 0
2, 81489, Note_on_c, 0, 70, 0
2, 81523, Note_on_c, 0, 39, 56
2, 81544, Note_on_c, 0, 46, 0
2, 81544, Note_on_c, 0, 56, 0
2, 81597, Control_c, 0, 64, 127
2, 81633, Note_on_c, 0, 84, 54
2, 81770, Note_on_c, 0, 46, 54
2, 81811, Control_c, 0, 64, 0
2, 81893, Note_on_c, 0, 55, 53
2, 82049, Note_on_c, 0, 75, 0
2, 82058, Note_on_c, 0, 74, 64
2, 82060, Note_on_c, 0, 86, 57
2, 82078, Note_on_c, 0, 58, 51
2, 82111, Note_on_c, 0, 72, 0
2, 82112, Note_on_c, 0, 84, 0
2, 82198, Note_on_c, 0, 63, 56
2, 82213, Control_c, 0, 64, 127
2, 82317, Note_on_c, 0, 79, 0
2, 82323, Note_on_c, 0, 65, 56
2, 82352, Note_on_c, 0, 75, 59
2, 82359, Control_c, 0, 64, 0
2, 82392, Note_on_c, 0, 74, 0
2, 82413, Note_on_c, 0, 79, 49
2, 82441, Note_on_c, 0, 82, 51
2, 82473, Note_on_c, 0, 65, 0
2, 82481, Note_on_c, 0, 67, 59
2, 82540, Note_on_c, 0, 39, 0
2, 82540, Note_on_c, 0, 46, 0
2, 82541, Note_on_c, 0, 58, 0
2, 82541, Note_on_c, 0, 55, 0
2, 82543, Note_on_c, 0, 63, 0
2, 82554, Note_on_c, 0, 87, 62
2, 82597, Note_on_c, 0, 86, 0
2, 82728, Note_on_c, 0, 63, 55
2, 82862, Note_on_c, 0, 58, 52
2, 82995, Note_on_c, 0, 89, 56
2, 83020, Note_on_c, 0, 55, 48
2, 83023, Note_on_c, 0, 77, 55
2, 83044, Note_on_c, 0, 79, 0
2, 83046, Note_on_c, 0, 87, 0
2, 83064, Note_on_c, 0, 75, 0
2, 83075, Note_on_c, 0, 82, 0
2, 83146, Note_on_c, 0, 46, 43
2, 83249, Control_c, 0, 64, 127
2, 83354, Note_on_c, 0, 39, 53
2, 83375, Control_c, 0, 64, 0
2, 83507, Note_on_c, 0, 89, 0
2, 83513, Note_on_c, 0, 46, 0
2, 83514, Note_on_c, 0, 55, 0
2, 83514, Note_on_c, 0, 58, 0
2, 83515, Note_on_c, 0, 67, 0
2, 83516, Note_on_c, 0, 63, 0
2, 83516, Note_on_c, 0, 79, 62
2, 83517, Note_on_c, 0, 91, 66
2, 83528, Note_on_c, 0, 77, 0
2, 83539, Note_on_c, 0, 82, 45
2, 83557, Note_on_c, 0, 40, 54
2, 83579, Note_on_c, 0, 39, 0
2, 83745, Note_on_c, 0, 55, 42
2, 83890, Note_on_c, 0, 58, 41
2, 83909, Note_on_c, 0, 62, 46
2, 83955, Control_c, 0, 64, 127
2, 84048, Note_on_c, 0, 82, 0
2, 84058, Note_on_c, 0, 91, 0
2, 84072, Control_c, 0, 64, 0
2, 84075, Note_on_c, 0, 69, 65
2, 84077, Note_on_c, 0, 79, 0
2, 84088, Note_on_c, 0, 93, 44
2, 84096, Note_on_c, 0, 81, 47
2, 84096, Note_on_c, 0, 86, 41
2, 84147, Control_c, 0, 67, 127
2, 84257, Note_on_c, 0, 67, 45
2, 84327, Note_on_c, 0, 62, 0
2, 84411, Note_on_c, 0, 62, 47
2, 84419, Control_c, 0, 67, 0
2, 84605, Note_on_c, 0, 70, 63
2, 84677, Note_on_c, 0, 69, 0
2, 84718, Note_on_c, 0, 67, 0
2, 84738, Control_c, 0, 67, 127
2, 84793, Note_on_c, 0, 67, 48
2, 84887, Note_on_c, 0, 62, 0
2, 84956, Note_on_c, 0, 62, 50
2, 85032, Control_c, 0, 67, 0
2, 85206, Note_on_c, 0, 40, 0
2, 85206, Note_on_c, 0, 55, 0
2, 85207, Note_on_c, 0, 58, 0
2, 85216, Note_on_c, 0, 72, 69
2, 85220, Note_on_c, 0, 93, 0
2, 85226, Note_on_c, 0, 94, 45
2, 85227, Note_on_c, 0, 81, 0
2, 85235, Note_on_c, 0, 82, 45
2, 85268, Note_on_c, 0, 70, 0
2, 85287, Control_c, 0, 67, 127
2, 85289, Note_on_c, 0, 86, 0
2, 85296, Note_on_c, 0, 67, 0
2, 85412, Note_on_c, 0, 67, 54
2, 85459, Control_c, 0, 64, 127
2, 85595, Note_on_c, 0, 62, 0
2, 85676, Control_c, 0, 64, 0
2, 85676, Note_on_c, 0, 62, 44
2, 85700, Control_c, 0, 67, 0
2, 85732, Control_c, 0, 67, 127
2, 85764, Control_c, 0, 67, 0
2, 85865, Note_on_c, 0, 67, 0
2, 85873, Note_on_c, 0, 66, 51
2, 85916, Note_on_c, 0, 62, 0
2, 85935, Note_on_c, 0, 45, 43
2, 85979, Note_on_c, 0, 82, 0
2, 85980, Note_on_c, 0, 94, 0
2, 85987, Note_on_c, 0, 74, 67
2, 86040, Note_on_c, 0, 72, 0
2, 86050, Note_on_c, 0, 45, 0
2, 86060, Note_on_c, 0, 33, 52
2, 86199, Note_on_c, 0, 78, 67
2, 86342, Note_on_c, 0, 45, 53
2, 86515, Note_on_c, 0, 54, 56
2, 86634, Note_on_c, 0, 57, 55
2, 86664, Note_on_c, 0, 69, 53
2, 86674, Note_on_c, 0, 81, 59
2, 86694, Note_on_c, 0, 66, 0
2, 86710, Control_c, 0, 64, 127
2, 86714, Note_on_c, 0, 78, 0
2, 86721, Note_on_c, 0, 62, 56
2, 86801, Note_on_c, 0, 62, 0
2, 86808, Note_on_c, 0, 64, 60
2, 86809, Note_on_c, 0, 72, 49
2, 86887, Note_on_c, 0, 64, 0
2, 86897, Note_on_c, 0, 66, 59
2, 86918, Note_on_c, 0, 84, 58
2, 86949, Note_on_c, 0, 69, 0
2, 86959, Note_on_c, 0, 81, 0
2, 86985, Note_on_c, 0, 62, 59
2, 86996, Note_on_c, 0, 57, 0
2, 87008, Control_c, 0, 67, 127
2, 87081, Note_on_c, 0, 57, 55
2, 87082, Note_on_c, 0, 54, 0
2, 87122, Note_on_c, 0, 66, 0
2, 87162, Note_on_c, 0, 45, 0
2, 87171, Note_on_c, 0, 54, 53
2, 87192, Note_on_c, 0, 33, 0
2, 87202, Control_c, 0, 64, 0
2, 87214, Note_on_c, 0, 62, 0
2, 87255, Note_on_c, 0, 45, 52
2, 87269, Control_c, 0, 67, 0
2, 87286, Note_on_c, 0, 57, 0
2, 87342, Note_on_c, 0, 54, 0
2, 87351, Note_on_c, 0, 33, 50
2, 87351, Note_on_c, 0, 66, 52
2, 87419, Note_on_c, 0, 72, 0
2, 87427, Note_on_c, 0, 45, 0
2, 87429, Note_on_c, 0, 84, 0
2, 87454, Note_on_c, 0, 75, 69
2, 87504, Note_on_c, 0, 74, 0
2, 87593, Note_on_c, 0, 78, 67
2, 87600, Control_c, 0, 64, 127
2, 87611, Note_on_c, 0, 45, 49
2, 87722, Control_c, 0, 67, 127
2, 87739, Note_on_c, 0, 54, 52
2, 87805, Note_on_c, 0, 57, 55
2, 87835, Note_on_c, 0, 69, 66
2, 87836, Note_on_c, 0, 81, 62
2, 87876, Note_on_c, 0, 78, 0
2, 87883, Note_on_c, 0, 59, 55
2, 87966, Note_on_c, 0, 63, 55
2, 87987, Note_on_c, 0, 66, 0
2, 88020, Note_on_c, 0, 69, 0
2, 88021, Note_on_c, 0, 81, 0
2, 88030, Note_on_c, 0, 71, 56
2, 88030, Note_on_c, 0, 83, 60
2, 88049, Note_on_c, 0, 66, 44
2, 88051, Note_on_c, 0, 63, 0
2, 88128, Note_on_c, 0, 63, 51
2, 88129, Note_on_c, 0, 59, 0
2, 88196, Note_on_c, 0, 57, 0
2, 88203, Note_on_c, 0, 59, 54
2, 88263, Note_on_c, 0, 54, 0
2, 88272, Note_on_c, 0, 57, 52
2, 88344, Note_on_c, 0, 45, 0
2, 88344, Note_on_c, 0, 54, 47
2, 88399, Control_c, 0, 67, 0
2, 88418, Note_on_c, 0, 63, 0
2, 88438, Note_on_c, 0, 45, 47
2, 88449, Note_on_c, 0, 59, 0
2, 88449, Note_on_c, 0, 57, 0
2, 88470, Note_on_c, 0, 33, 0
2, 88490, Note_on_c, 0, 54, 0
2, 88490, Note_on_c, 0, 66, 0
2, 88536, Note_on_c, 0, 45, 0
2, 88536, Control_c, 0, 64, 0
2, 88546, Note_on_c, 0, 71, 0
2, 88546, Note_on_c, 0, 83, 0
2, 88565, Note_on_c, 0, 33, 48
2, 88566, Note_on_c, 0, 78, 56
2, 88576, Note_on_c, 0, 66, 55
2, 88677, Note_on_c, 0, 45, 49
2, 88765, Control_c, 0, 67, 127
2, 88806, Note_on_c, 0, 54, 52
2, 88868, Note_on_c, 0, 79, 61
2, 88887, Note_on_c, 0, 67, 63
2, 88897, Control_c, 0, 64, 127
2, 88909, Note_on_c, 0, 54, 0
2, 88916, Note_on_c, 0, 55, 51
2, 88919, Note_on_c, 0, 78, 0
2, 88937, Note_on_c, 0, 66, 0
2, 89012, Note_on_c, 0, 58, 54
2, 89082, Note_on_c, 0, 55, 0
2, 89093, Control_c, 0, 64, 0
2, 89122, Note_on_c, 0, 63, 55
2, 89225, Note_on_c, 0, 76, 78
2, 89246, Note_on_c, 0, 75, 0
2, 89246, Note_on_c, 0, 58, 0
2, 89247, Note_on_c, 0, 45, 0
2, 89247, Note_on_c, 0, 63, 0
2, 89248, Note_on_c, 0, 33, 0
2, 89250, Note_on_c, 0, 64, 54
2, 89251, Note_on_c, 0, 62, 54
2, 89251, Note_on_c, 0, 70, 41
2, 89275, Note_on_c, 0, 74, 53
2, 89304, Note_on_c, 0, 67, 0
2, 89313, Note_on_c, 0, 79, 0
2, 89370, Note_on_c, 0, 82, 51
2, 89401, Note_on_c, 0, 58, 45
2, 89539, Note_on_c, 0, 55, 48
2, 89541, Control_c, 0, 64, 127
2, 89654, Note_on_c, 0, 45, 52
2, 89712, Note_on_c, 0, 55, 0
2, 89786, Note_on_c, 0, 55, 44
2, 89826, Note_on_c, 0, 55, 0
2, 89922, Note_on_c, 0, 55, 49
2, 89954, Control_c, 0, 64, 0
2, 89963, Note_on_c, 0, 45, 0
2, 90012, Note_on_c, 0, 70, 0
2, 90068, Note_on_c, 0, 77, 47
2, 90088, Note_on_c, 0, 74, 0
2, 90088, Note_on_c, 0, 64, 0
2, 90088, Note_on_c, 0, 76, 0
2, 90088, Note_on_c, 0, 62, 0
2, 90088, Note_on_c, 0, 58, 0
2, 90096, Note_on_c, 0, 70, 44
2, 90116, Note_on_c, 0, 73, 47
2, 90117, Note_on_c, 0, 65, 41
2, 90301, Note_on_c, 0, 58, 45
2, 90363, Control_c, 0, 64, 127
2, 90372, Note_on_c, 0, 55, 0
2, 90454, Note_on_c, 0, 55, 45
2, 90568, Note_on_c, 0, 45, 53
2, 90674, Note_on_c, 0, 55, 0
2, 90761, Note_on_c, 0, 55, 44
2, 90850, Control_c, 0, 67, 0
2, 90852, Note_on_c, 0, 55, 0
2, 90892, Control_c, 0, 67, 127
2, 90947, Note_on_c, 0, 55, 54
2, 90985, Control_c, 0, 67, 0
2, 91001, Control_c, 0, 64, 0
2, 91008, Note_on_c, 0, 45, 0
2, 91024, Control_c, 0, 67, 127
2, 91124, Note_on_c, 0, 73, 0
2, 91182, Note_on_c, 0, 77, 0
2, 91189, Note_on_c, 0, 78, 58
2, 91200, Note_on_c, 0, 82, 0
2, 91201, Note_on_c, 0, 70, 0
2, 91201, Note_on_c, 0, 58, 0
2, 91201, Note_on_c, 0, 65, 0
2, 91208, Note_on_c, 0, 69, 60
2, 91208, Note_on_c, 0, 73, 62
2, 91217, Note_on_c, 0, 66, 62
2, 91217, Note_on_c, 0, 67, 61
2, 91247, Note_on_c, 0, 61, 47
2, 91256, Note_on_c, 0, 81, 57
2, 91373, Control_c, 0, 64, 127
2, 91500, Note_on_c, 0, 55, 0
2, 91510, Note_on_c, 0, 57, 49
2, 91645, Note_on_c, 0, 57, 0
2, 91728, Note_on_c, 0, 57, 44
2, 91780, Control_c, 0, 64, 0
2, 91937, Note_on_c, 0, 55, 46
2, 91999, Note_on_c, 0, 57, 0
2, 92062, Control_c, 0, 64, 127
2, 92269, Note_on_c, 0, 45, 44
2, 92682, Note_on_c, 0, 33, 44
2, 92952, Control_c, 0, 64, 0
2, 92993, Control_c, 0, 67, 0
2, 93117, Note_on_c, 0, 81, 0
2, 93117, Note_on_c, 0, 78, 0
2, 93117, Note_on_c, 0, 67, 0
2, 93118, Note_on_c, 0, 55, 0
2, 93118, Note_on_c, 0, 61, 0
2, 93118, Note_on_c, 0, 73, 0
2, 93118, Note_on_c, 0, 66, 0
2, 93118, Note_on_c, 0, 69, 0
2, 93119, Note_on_c, 0, 45, 0
2, 93120, Note_on_c, 0, 33, 0
2, 93254, Control_c, 0, 64, 127
2, 93345, Note_on_c, 0, 50, 64
2, 93346, Note_on_c, 0, 38, 63
2, 93348, Note_on_c, 0, 26, 62
2, 93385, Note_on_c, 0, 38, 0
2, 93385, Note_on_c, 0, 50, 0
2, 93387, Note_on_c, 0, 26, 0
2, 93398, Control_c, 0, 67, 127
2, 93435, Control_c, 0, 64, 0
2, 93726, Control_c, 0, 64, 127
2, 93732, Note_on_c, 0, 66, 63
2, 93732, Note_on_c, 0, 74, 63
2, 93733, Note_on_c, 0, 54, 58
2, 93733, Note_on_c, 0, 57, 64
2, 93733, Note_on_c, 0, 62, 63
2, 93734, Note_on_c, 0, 45, 62
2, 93734, Note_on_c, 0, 50, 62
2, 93753, Note_on_c, 0, 74, 0
2, 93753, Note_on_c, 0, 66, 0
2, 93754, Note_on_c, 0, 45, 0
2, 93754, Note_on_c, 0, 62, 0
2, 93754, Note_on_c, 0, 57, 0
2, 93754, Note_on_c, 0, 50, 0
2, 93755, Note_on_c, 0, 54, 0
2, 93801, Note_on_c, 0, 62, 65
2, 93801, Note_on_c, 0, 66, 65
2, 93801, Note_on_c, 0, 74, 60
2, 93802, Note_on_c, 0, 45, 59
2, 93802, Note_on_c, 0, 50, 58
2, 93802, Note_on_c, 0, 54, 62
2, 93802, Note_on_c, 0, 57, 63
2, 93825, Control_c, 0, 64, 0
2, 93832, Note_on_c, 0, 74, 0
2, 93832, Note_on_c, 0, 66, 0
2, 93833, Note_on_c, 0, 54, 0
2, 93833, Note_on_c, 0, 62, 0
2, 93833, Note_on_c, 0, 50, 0
2, 93833, Note_on_c, 0, 57, 0
2, 93834, Note_on_c, 0, 45, 0
2, 93895, Note_on_c, 0, 66, 68
2, 93896, Note_on_c, 0, 45, 69
2, 93896, Note_on_c, 0, 54, 64
2, 93896, Note_on_c, 0, 57, 65
2, 93896, Note_on_c, 0, 62, 68
2, 93896, Note_on_c, 0, 74, 66
2, 93897, Note_on_c, 0, 50, 69
2, 93906, Control_c, 0, 67, 0
2, 93928, Note_on_c, 0, 74, 0
2, 93928, Note_on_c, 0, 57, 0
2, 93928, Note_on_c, 0, 66, 0
2, 93928, Note_on_c, 0, 54, 0
2, 93928, Note_on_c, 0, 62, 0
2, 93929, Note_on_c, 0, 45, 0
2, 93929, Note_on_c, 0, 50, 0
2, 93938, Control_c, 0, 67, 127
2, 94167, Note_on_c, 0, 42, 62
2, 94167, Note_on_c, 0, 54, 67
2, 94168, Note_on_c, 0, 30, 62
2, 94198, Note_on_c, 0, 54, 0
2, 94199, Note_on_c, 0, 42, 0
2, 94200, Note_on_c, 0, 30, 0
2, 94440, Note_on_c, 0, 46, 72
2, 94440, Note_on_c, 0, 58, 66
2, 94440, Note_on_c, 0, 34, 71
2, 94471, Note_on_c, 0, 58, 0
2, 94471, Note_on_c, 0, 46, 0
2, 94472, Note_on_c, 0, 34, 0
2, 94701, Note_on_c, 0, 64, 59
2, 94702, Note_on_c, 0, 55, 55
2, 94702, Note_on_c, 0, 62, 53
2, 94703, Note_on_c, 0, 50, 53
2, 94703, Note_on_c, 0, 52, 56
2, 94732, Note_on_c, 0, 64, 0
2, 94733, Note_on_c, 0, 55, 0
2, 94733, Note_on_c, 0, 62, 0
2, 94734, Note_on_c, 0, 50, 0
2, 94734, Note_on_c, 0, 52, 0
2, 94939, Note_on_c, 0, 31, 72
2, 94939, Note_on_c, 0, 43, 72
2, 94939, Note_on_c, 0, 55, 71
2, 94970, Note_on_c, 0, 55, 0
2, 94971, Note_on_c, 0, 43, 0
2, 94972, Note_on_c, 0, 31, 0
2, 95001, Control_c, 0, 67, 0
2, 95040, Control_c, 0, 67, 127
2, 95136, Control_c, 0, 67, 0
2, 95178, Note_on_c, 0, 62, 59
2, 95178, Note_on_c, 0, 64, 60
2, 95179, Note_on_c, 0, 50, 60
2, 95179, Note_on_c, 0, 52, 53
2, 95179, Note_on_c, 0, 55, 58
2, 95179, Note_on_c, 0, 58, 54
2, 95210, Note_on_c, 0, 58, 0
2, 95210, Note_on_c, 0, 64, 0
2, 95210, Note_on_c, 0, 50, 0
2, 95210, Note_on_c, 0, 62, 0
2, 95210, Note_on_c, 0, 55, 0
2, 95210, Note_on_c, 0, 52, 0
2, 95324, Control_c, 0, 64, 127
2, 95407, Note_on_c, 0, 38, 70
2, 95407, Note_on_c, 0, 50, 71
2, 95408, Note_on_c, 0, 26, 67
2, 95440, Note_on_c, 0, 50, 0
2, 95440, Note_on_c, 0, 38, 0
2, 95442, Note_on_c, 0, 26, 0
2, 95452, Control_c, 0, 64, 0
2, 95483, Control_c, 0, 67, 127
2, 95712, Note_on_c, 0, 62, 57
2, 95712, Note_on_c, 0, 66, 57
2, 95712, Note_on_c, 0, 74, 57
2, 95712, Note_on_c, 0, 54, 56
2, 95712, Note_on_c, 0, 57, 58
2, 95713, Note_on_c, 0, 45, 55
2, 95721, Control_c, 0, 64, 127
2, 95733, Note_on_c, 0, 74, 0
2, 95733, Note_on_c, 0, 62, 0
2, 95733, Note_on_c, 0, 66, 0
2, 95734, Note_on_c, 0, 54, 0
2, 95734, Note_on_c, 0, 57, 0
2, 95735, Note_on_c, 0, 45, 0
2, 95779, Note_on_c, 0, 66, 62
2, 95780, Note_on_c, 0, 54, 55
2, 95780, Note_on_c, 0, 57, 61
2, 95780, Note_on_c, 0, 62, 60
2, 95780, Note_on_c, 0, 74, 61
2, 95781, Note_on_c, 0, 45, 60
2, 95784, Control_c, 0, 64, 0
2, 95800, Note_on_c, 0, 66, 0
2, 95801, Note_on_c, 0, 74, 0
2, 95801, Note_on_c, 0, 62, 0
2, 95801, Note_on_c, 0, 54, 0
2, 95801, Note_on_c, 0, 57, 0
2, 95802, Note_on_c, 0, 45, 0
2, 95856, Note_on_c, 0, 66, 66
2, 95856, Note_on_c, 0, 74, 64
2, 95857, Note_on_c, 0, 54, 68
2, 95857, Note_on_c, 0, 57, 67
2, 95857, Note_on_c, 0, 62, 66
2, 95858, Note_on_c, 0, 45, 65
2, 95887, Note_on_c, 0, 62, 0
2, 95887, Note_on_c, 0, 74, 0
2, 95887, Note_on_c, 0, 66, 0
2, 95888, Note_on_c, 0, 57, 0
2, 95888, Note_on_c, 0, 45, 0
2, 95888, Note_on_c, 0, 54, 0
2, 95927, Control_c, 0, 67, 0
2, 96066, Note_on_c, 0, 42, 63
2, 96066, Note_on_c, 0, 54, 67
2, 96067, Note_on_c, 0, 30, 64
2, 96096, Note_on_c, 0, 54, 0
2, 96097, Note_on_c, 0, 30, 0
2, 96097, Note_on_c, 0, 42, 0
2, 96222, Control_c, 0, 64, 127
2, 96305, Note_on_c, 0, 34, 65
2, 96305, Note_on_c, 0, 46, 71
2, 96305, Note_on_c, 0, 58, 71
2, 96327, Control_c, 0, 64, 0
2, 96366, Note_on_c, 0, 58, 0
2, 96366, Note_on_c, 0, 46, 0
2, 96367, Note_on_c, 0, 34, 0
2, 96504, Note_on_c, 0, 62, 53
2, 96504, Note_on_c, 0, 64, 53
2, 96504, Note_on_c, 0, 50, 53
2, 96504, Note_on_c, 0, 52, 55
2, 96504, Note_on_c, 0, 55, 56
2, 96533, Note_on_c, 0, 55, 0
2, 96533, Note_on_c, 0, 64, 0
2, 96533, Note_on_c, 0, 62, 0
2, 96533, Note_on_c, 0, 52, 0
2, 96534, Note_on_c, 0, 50, 0
2, 96720, Note_on_c, 0, 31, 71
2, 96720, Note_on_c, 0, 43, 70
2, 96720, Note_on_c, 0, 55, 69
2, 96751, Note_on_c, 0, 55, 0
2, 96752, Note_on_c, 0, 43, 0
2, 96753, Note_on_c, 0, 31, 0
2, 96934, Note_on_c, 0, 50, 57
2, 96943, Note_on_c, 0, 55, 59
2, 96943, Note_on_c, 0, 58, 53
2, 96943, Note_on_c, 0, 62, 56
2, 96943, Note_on_c, 0, 64, 57
2, 96944, Note_on_c, 0, 52, 55
2, 96965, Note_on_c, 0, 50, 0
2, 96976, Note_on_c, 0, 58, 0
2, 96976, Note_on_c, 0, 62, 0
2, 96976, Note_on_c, 0, 55, 0
2, 96976, Note_on_c, 0, 52, 0
2, 96976, Note_on_c, 0, 64, 0
2, 97072, Control_c, 0, 64, 127
2, 97171, Note_on_c, 0, 38, 71
2, 97172, Note_on_c, 0, 26, 65
2, 97172, Note_on_c, 0, 50, 68
2, 97184, Control_c, 0, 64, 0
2, 97201, Note_on_c, 0, 50, 0
2, 97202, Note_on_c, 0, 38, 0
2, 97203, Note_on_c, 0, 26, 0
2, 97416, Note_on_c, 0, 45, 62
2, 97424, Note_on_c, 0, 66, 62
2, 97425, Note_on_c, 0, 54, 64
2, 97425, Note_on_c, 0, 57, 60
2, 97425, Note_on_c, 0, 62, 59
2, 97425, Note_on_c, 0, 74, 61
2, 97444, Note_on_c, 0, 54, 0
2, 97445, Note_on_c, 0, 66, 0
2, 97445, Note_on_c, 0, 57, 0
2, 97445, Note_on_c, 0, 45, 0
2, 97445, Note_on_c, 0, 74, 0
2, 97445, Note_on_c, 0, 62, 0
2, 97506, Note_on_c, 0, 54, 64
2, 97506, Note_on_c, 0, 57, 59
2, 97506, Note_on_c, 0, 62, 64
2, 97506, Note_on_c, 0, 66, 60
2, 97507, Note_on_c, 0, 45, 62
2, 97507, Note_on_c, 0, 74, 59
2, 97526, Note_on_c, 0, 66, 0
2, 97526, Note_on_c, 0, 62, 0
2, 97527, Note_on_c, 0, 45, 0
2, 97527, Note_on_c, 0, 54, 0
2, 97527, Note_on_c, 0, 57, 0
2, 97528, Note_on_c, 0, 74, 0
2, 97577, Note_on_c, 0, 45, 64
2, 97577, Note_on_c, 0, 54, 65
2, 97577, Note_on_c, 0, 57, 64
2, 97577, Note_on_c, 0, 62, 70
2, 97577, Note_on_c, 0, 66, 63
2, 97577, Note_on_c, 0, 74, 66
2, 97608, Note_on_c, 0, 74, 0
2, 97608, Note_on_c, 0, 54, 0
2, 97608, Note_on_c, 0, 57, 0
2, 97608, Note_on_c, 0, 62, 0
2, 97608, Note_on_c, 0, 66, 0
2, 97609, Note_on_c, 0, 45, 0
2, 97840, Note_on_c, 0, 50, 72
2, 97840, Note_on_c, 0, 62, 74
2, 97882, Note_on_c, 0, 62, 0
2, 97883, Note_on_c, 0, 50, 0
2, 97977, Control_c, 0, 64, 127
2, 98172, Note_on_c, 0, 27, 81
2, 98181, Note_on_c, 0, 39, 83
2, 98181, Note_on_c, 0, 51, 82
2, 98296, Control_c, 0, 64, 0
2, 98386, Note_on_c, 0, 51, 0
2, 98388, Note_on_c, 0, 39, 0
2, 98388, Note_on_c, 0, 27, 0
2, 98472, Note_on_c, 0, 62, 59
2, 98472, Note_on_c, 0, 67, 53
2, 98472, Note_on_c, 0, 50, 65
2, 98472, Note_on_c, 0, 55, 62
2, 98505, Note_on_c, 0, 55, 0
2, 98505, Note_on_c, 0, 62, 0
2, 98505, Note_on_c, 0, 67, 0
2, 98506, Note_on_c, 0, 50, 0
2, 98615, Note_on_c, 0, 67, 60
2, 98616, Note_on_c, 0, 50, 57
2, 98616, Note_on_c, 0, 55, 53
2, 98616, Note_on_c, 0, 62, 59
2, 98646, Note_on_c, 0, 62, 0
2, 98646, Note_on_c, 0, 55, 0
2, 98646, Note_on_c, 0, 67, 0
2, 98647, Note_on_c, 0, 50, 0
2, 98759, Note_on_c, 0, 62, 71
2, 98760, Note_on_c, 0, 50, 72
2, 98760, Note_on_c, 0, 55, 70
2, 98760, Note_on_c, 0, 67, 63
2, 98790, Note_on_c, 0, 67, 0
2, 98790, Note_on_c, 0, 55, 0
2, 98791, Note_on_c, 0, 50, 0
2, 98791, Note_on_c, 0, 62, 0
2, 99039, Note_on_c, 0, 50, 78
2, 99039, Note_on_c, 0, 62, 77
2, 99071, Note_on_c, 0, 62, 0
2, 99071, Note_on_c, 0, 50, 0
2, 99139, Control_c, 0, 64, 127
2, 99391, Note_on_c, 0, 28, 66
2, 99391, Note_on_c, 0, 40, 67
2, 99391, Note_on_c, 0, 52, 66
2, 99421, Note_on_c, 0, 40, 0
2, 99422, Note_on_c, 0, 52, 0
2, 99422, Note_on_c, 0, 28, 0
2, 99431, Control_c, 0, 64, 0
2, 99644, Note_on_c, 0, 62, 59
2, 99645, Note_on_c, 0, 50, 55
2, 99645, Note_on_c, 0, 56, 54
2, 99646, Note_on_c, 0, 68, 61
2, 99665, Note_on_c, 0, 56, 0
2, 99666, Note_on_c, 0, 62, 0
2, 99666, Note_on_c, 0, 50, 0
2, 99667, Note_on_c, 0, 68, 0
2, 99738, Note_on_c, 0, 50, 58
2, 99738, Note_on_c, 0, 56, 59
2, 99738, Note_on_c, 0, 62, 57
2, 99739, Note_on_c, 0, 68, 59
2, 99758, Note_on_c, 0, 56, 0
2, 99759, Note_on_c, 0, 50, 0
2, 99759, Note_on_c, 0, 62, 0
2, 99760, Note_on_c, 0, 68, 0
2, 99819, Note_on_c, 0, 50, 67
2, 99828, Note_on_c, 0, 56, 66
2, 99829, Note_on_c, 0, 62, 68
2, 99829, Note_on_c, 0, 68, 64
2, 99858, Note_on_c, 0, 62, 0
2, 99858, Note_on_c, 0, 50, 0
2, 99858, Note_on_c, 0, 56, 0
2, 99860, Note_on_c, 0, 68, 0
2, 100023, Note_on_c, 0, 50, 72
2, 100023, Note_on_c, 0, 62, 71
2, 100054, Note_on_c, 0, 50, 0
2, 100055, Note_on_c, 0, 62, 0
2, 100175, Control_c, 0, 64, 127
2, 100244, Note_on_c, 0, 29, 84
2, 100246, Note_on_c, 0, 41, 86
2, 100247, Note_on_c, 0, 53, 90
2, 100274, Note_on_c, 0, 29, 0
2, 100275, Note_on_c, 0, 53, 0
2, 100275, Note_on_c, 0, 41, 0
2, 100282, Control_c, 0, 64, 0
2, 100433, Note_on_c, 0, 50, 74
2, 100442, Note_on_c, 0, 62, 75
2, 100443, Note_on_c, 0, 69, 74
2, 100474, Note_on_c, 0, 62, 0
2, 100474, Note_on_c, 0, 50, 0
2, 100475, Note_on_c, 0, 69, 0
2, 100565, Control_c, 0, 64, 127
2, 100632, Note_on_c, 0, 30, 80
2, 100632, Note_on_c, 0, 42, 82
2, 100633, Note_on_c, 0, 54, 79
2, 100661, Note_on_c, 0, 54, 0
2, 100661, Note_on_c, 0, 42, 0
2, 100661, Note_on_c, 0, 30, 0
2, 100670, Control_c, 0, 64, 0
2, 100822, Note_on_c, 0, 50, 81
2, 100823, Note_on_c, 0, 62, 81
2, 100823, Note_on_c, 0, 69, 74
2, 100854, Note_on_c, 0, 62, 0
2, 100854, Note_on_c, 0, 50, 0
2, 100855, Note_on_c, 0, 69, 0
2, 100943, Control_c, 0, 64, 127
2, 101033, Note_on_c, 0, 31, 86
2, 101033, Note_on_c, 0, 43, 86
2, 101034, Note_on_c, 0, 55, 86
2, 101064, Note_on_c, 0, 55, 0
2, 101064, Note_on_c, 0, 43, 0
2, 101064, Note_on_c, 0, 31, 0
2, 101091, Control_c, 0, 64, 0
2, 101254, Note_on_c, 0, 50, 58
2, 101254, Note_on_c, 0, 58, 63
2, 101254, Note_on_c, 0, 62, 63
2, 101255, Note_on_c, 0, 67, 64
2, 101256, Note_on_c, 0, 70, 70
2, 101277, Note_on_c, 0, 67, 0
2, 101277, Note_on_c, 0, 62, 0
2, 101277, Note_on_c, 0, 50, 0
2, 101277, Note_on_c, 0, 58, 0
2, 101279, Note_on_c, 0, 70, 0
2, 101328, Note_on_c, 0, 50, 58
2, 101328, Note_on_c, 0, 58, 64
2, 101328, Note_on_c, 0, 62, 62
2, 101328, Note_on_c, 0, 67, 70
2, 101328, Note_on_c, 0, 70, 64
2, 101349, Note_on_c, 0, 58, 0
2, 101349, Note_on_c, 0, 50, 0
2, 101350, Note_on_c, 0, 67, 0
2, 101350, Note_on_c, 0, 62, 0
2, 101352, Note_on_c, 0, 70, 0
2, 101406, Note_on_c, 0, 50, 64
2, 101407, Note_on_c, 0, 58, 66
2, 101407, Note_on_c, 0, 62, 67
2, 101407, Note_on_c, 0, 67, 70
2, 101408, Note_on_c, 0, 70, 72
2, 101438, Note_on_c, 0, 50, 0
2, 101439, Note_on_c, 0, 67, 0
2, 101439, Note_on_c, 0, 58, 0
2, 101439, Note_on_c, 0, 62, 0
2, 101441, Note_on_c, 0, 70, 0
2, 101624, Note_on_c, 0, 34, 66
2, 101624, Note_on_c, 0, 46, 72
2, 101626, Note_on_c, 0, 58, 72
2, 101660, Note_on_c, 0, 46, 0
2, 101660, Note_on_c, 0, 34, 0
2, 101662, Note_on_c, 0, 58, 0
2, 101834, Note_on_c, 0, 38, 72
2, 101837, Note_on_c, 0, 50, 75
2, 101837, Note_on_c, 0, 62, 76
2, 101866, Note_on_c, 0, 38, 0
2, 101868, Note_on_c, 0, 62, 0
2, 101868, Note_on_c, 0, 50, 0
2, 102038, Note_on_c, 0, 50, 57
2, 102039, Note_on_c, 0, 55, 53
2, 102039, Note_on_c, 0, 58, 53
2, 102039, Note_on_c, 0, 62, 58
2, 102039, Note_on_c, 0, 67, 41
2, 102040, Note_on_c, 0, 70, 48
2, 102071, Note_on_c, 0, 55, 0
2, 102071, Note_on_c, 0, 50, 0
2, 102072, Note_on_c, 0, 67, 0
2, 102072, Note_on_c, 0, 62, 0
2, 102072, Note_on_c, 0, 70, 0
2, 102072, Note_on_c, 0, 58, 0
2, 102221, Note_on_c, 0, 34, 72
2, 102222, Note_on_c, 0, 46, 74
2, 102224, Note_on_c, 0, 58, 71
2, 102253, Note_on_c, 0, 46, 0
2, 102253, Note_on_c, 0, 34, 0
2, 102254, Note_on_c, 0, 58, 0
2, 102411, Note_on_c, 0, 50, 58
2, 102411, Note_on_c, 0, 55, 55
2, 102412, Note_on_c, 0, 58, 57
2, 102412, Note_on_c, 0, 62, 56
2, 102412, Note_on_c, 0, 67, 41
2, 102413, Note_on_c, 0, 70, 47
2, 102443, Note_on_c, 0, 55, 0
2, 102443, Note_on_c, 0, 50, 0
2, 102444, Note_on_c, 0, 67, 0
2, 102444, Note_on_c, 0, 62, 0
2, 102444, Note_on_c, 0, 58, 0
2, 102446, Note_on_c, 0, 70, 0
2, 102562, Control_c, 0, 64, 127
2, 102595, Note_on_c, 0, 31, 80
2, 102597, Note_on_c, 0, 43, 82
2, 102598, Note_on_c, 0, 55, 80
2, 102627, Note_on_c, 0, 31, 0
2, 102628, Note_on_c, 0, 43, 0
2, 102629, Note_on_c, 0, 55, 0
2, 102667, Control_c, 0, 64, 0
2, 102803, Note_on_c, 0, 50, 57
2, 102803, Note_on_c, 0, 55, 57
2, 102803, Note_on_c, 0, 58, 56
2, 102803, Note_on_c, 0, 62, 56
2, 102804, Note_on_c, 0, 67, 65
2, 102805, Note_on_c, 0, 70, 66
2, 102824, Note_on_c, 0, 62, 0
2, 102824, Note_on_c, 0, 58, 0
2, 102824, Note_on_c, 0, 50, 0
2, 102824, Note_on_c, 0, 55, 0
2, 102825, Note_on_c, 0, 67, 0
2, 102826, Note_on_c, 0, 70, 0
2, 102886, Note_on_c, 0, 50, 59
2, 102886, Note_on_c, 0, 55, 57
2, 102886, Note_on_c, 0, 58, 56
2, 102886, Note_on_c, 0, 62, 59
2, 102886, Note_on_c, 0, 67, 63
2, 102888, Note_on_c, 0, 70, 64
2, 102907, Note_on_c, 0, 58, 0
2, 102907, Note_on_c, 0, 50, 0
2, 102907, Note_on_c, 0, 55, 0
2, 102908, Note_on_c, 0, 62, 0
2, 102908, Note_on_c, 0, 67, 0
2, 102909, Note_on_c, 0, 70, 0
2, 102956, Note_on_c, 0, 50, 60
2, 102956, Note_on_c, 0, 55, 67
2, 102956, Note_on_c, 0, 67, 67
2, 102957, Note_on_c, 0, 58, 64
2, 102957, Note_on_c, 0, 62, 62
2, 102958, Note_on_c, 0, 70, 72
2, 102986, Note_on_c, 0, 55, 0
2, 102987, Note_on_c, 0, 62, 0
2, 102987, Note_on_c, 0, 58, 0
2, 102987, Note_on_c, 0, 50, 0
2, 102987, Note_on_c, 0, 67, 0
2, 102988, Note_on_c, 0, 70, 0
2, 103143, Note_on_c, 0, 34, 67
2, 103144, Note_on_c, 0, 46, 69
2, 103146, Note_on_c, 0, 58, 70
2, 103176, Note_on_c, 0, 46, 0
2, 103176, Note_on_c, 0, 34, 0
2, 103177, Note_on_c, 0, 58, 0
2, 103330, Note_on_c, 0, 38, 83
2, 103332, Note_on_c, 0, 50, 84
2, 103333, Note_on_c, 0, 62, 84
2, 103363, Note_on_c, 0, 38, 0
2, 103364, Note_on_c, 0, 50, 0
2, 103365, Note_on_c, 0, 62, 0
2, 103509, Note_on_c, 0, 50, 54
2, 103510, Note_on_c, 0, 55, 54
2, 103510, Note_on_c, 0, 58, 55
2, 103510, Note_on_c, 0, 62, 53
2, 103510, Note_on_c, 0, 67, 46
2, 103511, Note_on_c, 0, 70, 44
2, 103539, Note_on_c, 0, 55, 0
2, 103539, Note_on_c, 0, 50, 0
2, 103540, Note_on_c, 0, 67, 0
2, 103540, Note_on_c, 0, 62, 0
2, 103540, Note_on_c, 0, 58, 0
2, 103541, Note_on_c, 0, 70, 0
2, 103680, Note_on_c, 0, 34, 73
2, 103680, Note_on_c, 0, 46, 78
2, 103681, Note_on_c, 0, 58, 76
2, 103710, Note_on_c, 0, 34, 0
2, 103711, Note_on_c, 0, 46, 0
2, 103712, Note_on_c, 0, 58, 0
2, 103852, Note_on_c, 0, 50, 56
2, 103852, Note_on_c, 0, 55, 58
2, 103852, Note_on_c, 0, 58, 57
2, 103852, Note_on_c, 0, 62, 54
2, 103853, Note_on_c, 0, 67, 45
2, 103854, Note_on_c, 0, 70, 46
2, 103884, Note_on_c, 0, 58, 0
2, 103884, Note_on_c, 0, 50, 0
2, 103884, Note_on_c, 0, 55, 0
2, 103885, Note_on_c, 0, 62, 0
2, 103885, Note_on_c, 0, 67, 0
2, 103886, Note_on_c, 0, 70, 0
2, 103952, Control_c, 0, 64, 127
2, 104035, Note_on_c, 0, 31, 77
2, 104035, Note_on_c, 0, 43, 78
2, 104037, Note_on_c, 0, 55, 78
2, 104146, Note_on_c, 0, 55, 0
2, 104222, Note_on_c, 0, 50, 58
2, 104222, Note_on_c, 0, 55, 56
2, 104222, Note_on_c, 0, 58, 61
2, 104223, Note_on_c, 0, 62, 61
2, 104223, Note_on_c, 0, 67, 67
2, 104224, Note_on_c, 0, 70, 65
2, 104242, Note_on_c, 0, 55, 0
2, 104242, Note_on_c, 0, 50, 0
2, 104243, Note_on_c, 0, 62, 0
2, 104243, Note_on_c, 0, 58, 0
2, 104243, Note_on_c, 0, 67, 0
2, 104244, Note_on_c, 0, 70, 0
2, 104268, Control_c, 0, 64, 0
2, 104288, Note_on_c, 0, 50, 56
2, 104288, Note_on_c, 0, 55, 58
2, 104289, Note_on_c, 0, 58, 62
2, 104289, Note_on_c, 0, 62, 56
2, 104289, Note_on_c, 0, 67, 65
2, 104289, Note_on_c, 0, 70, 63
2, 104308, Note_on_c, 0, 55, 0
2, 104308, Note_on_c, 0, 50, 0
2, 104309, Note_on_c, 0, 58, 0
2, 104309, Note_on_c, 0, 62, 0
2, 104310, Note_on_c, 0, 67, 0
2, 104310, Note_on_c, 0, 70, 0
2, 104368, Note_on_c, 0, 50, 64
2, 104368, Note_on_c, 0, 55, 62
2, 104368, Note_on_c, 0, 58, 63
2, 104368, Note_on_c, 0, 62, 62
2, 104368, Note_on_c, 0, 67, 74
2, 104370, Note_on_c, 0, 70, 73
2, 104387, Note_on_c, 0, 31, 0
2, 104388, Note_on_c, 0, 43, 0
2, 104399, Note_on_c, 0, 55, 0
2, 104399, Note_on_c, 0, 58, 0
2, 104399, Note_on_c, 0, 50, 0
2, 104400, Note_on_c, 0, 70, 0
2, 104400, Note_on_c, 0, 67, 0
2, 104400, Note_on_c, 0, 62, 0
2, 104553, Note_on_c, 0, 43, 70
2, 104554, Note_on_c, 0, 55, 70
2, 104554, Note_on_c, 0, 67, 82
2, 104587, Note_on_c, 0, 43, 0
2, 104588, Note_on_c, 0, 55, 0
2, 104589, Note_on_c, 0, 67, 0
2, 104751, Control_c, 0, 64, 127
2, 104815, Note_on_c, 0, 32, 77
2, 104817, Note_on_c, 0, 44, 82
2, 104817, Note_on_c, 0, 56, 80
2, 104959, Note_on_c, 0, 56, 0
2, 104969, Note_on_c, 0, 48, 65
2, 104969, Note_on_c, 0, 55, 65
2, 104969, Note_on_c, 0, 60, 62
2, 104969, Note_on_c, 0, 67, 66
2, 104970, Note_on_c, 0, 72, 63
2, 104990, Note_on_c, 0, 60, 0
2, 104990, Note_on_c, 0, 55, 0
2, 104991, Note_on_c, 0, 48, 0
2, 104992, Note_on_c, 0, 67, 0
2, 104993, Note_on_c, 0, 72, 0
2, 105050, Note_on_c, 0, 55, 66
2, 105050, Note_on_c, 0, 60, 62
2, 105051, Note_on_c, 0, 48, 62
2, 105051, Note_on_c, 0, 67, 63
2, 105052, Note_on_c, 0, 72, 68
2, 105072, Note_on_c, 0, 67, 0
2, 105072, Note_on_c, 0, 60, 0
2, 105072, Note_on_c, 0, 55, 0
2, 105072, Note_on_c, 0, 48, 0
2, 105073, Note_on_c, 0, 72, 0
2, 105091, Control_c, 0, 64, 0
2, 105122, Note_on_c, 0, 32, 0
2, 105123, Note_on_c, 0, 44, 0
2, 105134, Note_on_c, 0, 48, 71
2, 105134, Note_on_c, 0, 55, 72
2, 105134, Note_on_c, 0, 60, 75
2, 105135, Note_on_c, 0, 67, 70
2, 105136, Note_on_c, 0, 72, 71
2, 105166, Note_on_c, 0, 60, 0
2, 105166, Note_on_c, 0, 48, 0
2, 105166, Note_on_c, 0, 55, 0
2, 105167, Note_on_c, 0, 67, 0
2, 105167, Note_on_c, 0, 72, 0
2, 105319, Note_on_c, 0, 43, 70
2, 105320, Note_on_c, 0, 55, 66
2, 105321, Note_on_c, 0, 67, 81
2, 105352, Note_on_c, 0, 55, 0
2, 105352, Note_on_c, 0, 43, 0
2, 105353, Note_on_c, 0, 67, 0
2, 105435, Control_c, 0, 64, 127
2, 105529, Note_on_c, 0, 33, 60
2, 105530, Note_on_c, 0, 45, 60
2, 105531, Note_on_c, 0, 57, 59
2, 105698, Note_on_c, 0, 49, 67
2, 105698, Note_on_c, 0, 55, 65
2, 105698, Note_on_c, 0, 61, 61
2, 105698, Note_on_c, 0, 67, 68
2, 105700, Note_on_c, 0, 73, 61
2, 105719, Note_on_c, 0, 55, 0
2, 105720, Note_on_c, 0, 73, 0
2, 105720, Note_on_c, 0, 61, 0
2, 105720, Note_on_c, 0, 49, 0
2, 105720, Note_on_c, 0, 67, 0
2, 105768, Note_on_c, 0, 49, 64
2, 105768, Note_on_c, 0, 55, 65
2, 105768, Note_on_c, 0, 61, 66
2, 105768, Note_on_c, 0, 67, 68
2, 105769, Note_on_c, 0, 73, 67
2, 105790, Note_on_c, 0, 67, 0
2, 105790, Note_on_c, 0, 49, 0
2, 105790, Note_on_c, 0, 55, 0
2, 105790, Note_on_c, 0, 61, 0
2, 105792, Note_on_c, 0, 73, 0
2, 105797, Control_c, 0, 64, 0
2, 105829, Note_on_c, 0, 33, 0
2, 105830, Note_on_c, 0, 45, 0
2, 105831, Note_on_c, 0, 57, 0
2, 105839, Note_on_c, 0, 55, 73
2, 105839, Note_on_c, 0, 67, 69
2, 105840, Note_on_c, 0, 49, 74
2, 105840, Note_on_c, 0, 61, 71
2, 105840, Note_on_c, 0, 73, 69
2, 105870, Note_on_c, 0, 55, 0
2, 105871, Note_on_c, 0, 61, 0
2, 105871, Note_on_c, 0, 67, 0
2, 105871, Note_on_c, 0, 49, 0
2, 105872, Note_on_c, 0, 73, 0
2, 106019, Note_on_c, 0, 43, 74
2, 106020, Note_on_c, 0, 55, 69
2, 106020, Note_on_c, 0, 67, 73
2, 106052, Note_on_c, 0, 55, 0
2, 106052, Note_on_c, 0, 43, 0
2, 106053, Note_on_c, 0, 67, 0
2, 106204, Note_on_c, 0, 34, 85
2, 106204, Note_on_c, 0, 46, 85
2, 106206, Note_on_c, 0, 58, 79
2, 106225, Control_c, 0, 64, 127
2, 106238, Note_on_c, 0, 46, 0
2, 106238, Note_on_c, 0, 34, 0
2, 106239, Note_on_c, 0, 58, 0
2, 106345, Control_c, 0, 64, 0
2, 106377, Note_on_c, 0, 50, 66
2, 106377, Note_on_c, 0, 55, 64
2, 106377, Note_on_c, 0, 62, 61
2, 106377, Note_on_c, 0, 67, 71
2, 106377, Note_on_c, 0, 74, 67
2, 106408, Note_on_c, 0, 55, 0
2, 106409, Note_on_c, 0, 67, 0
2, 106409, Note_on_c, 0, 50, 0
2, 106409, Note_on_c, 0, 62, 0
2, 106410, Note_on_c, 0, 74, 0
2, 106536, Note_on_c, 0, 35, 66
2, 106545, Note_on_c, 0, 47, 69
2, 106546, Note_on_c, 0, 59, 70
2, 106566, Note_on_c, 0, 35, 0
2, 106575, Note_on_c, 0, 59, 0
2, 106575, Note_on_c, 0, 47, 0
2, 106700, Note_on_c, 0, 55, 76
2, 106701, Note_on_c, 0, 50, 74
2, 106701, Note_on_c, 0, 62, 71
2, 106701, Note_on_c, 0, 67, 68
2, 106701, Note_on_c, 0, 74, 67
2, 106729, Note_on_c, 0, 55, 0
2, 106730, Note_on_c, 0, 67, 0
2, 106730, Note_on_c, 0, 50, 0
2, 106730, Note_on_c, 0, 62, 0
2, 106731, Note_on_c, 0, 74, 0
2, 106794, Control_c, 0, 64, 127
2, 106873, Note_on_c, 0, 36, 78
2, 106874, Note_on_c, 0, 48, 78
2, 106874, Note_on_c, 0, 60, 84
2, 106965, Note_on_c, 0, 60, 0
2, 107044, Note_on_c, 0, 55, 66
2, 107044, Note_on_c, 0, 60, 62
2, 107044, Note_on_c, 0, 67, 63
2, 107045, Note_on_c, 0, 63, 65
2, 107045, Note_on_c, 0, 72, 67
2, 107045, Note_on_c, 0, 75, 61
2, 107045, Note_on_c, 0, 79, 66
2, 107064, Note_on_c, 0, 60, 0
2, 107064, Note_on_c, 0, 55, 0
2, 107065, Note_on_c, 0, 75, 0
2, 107065, Note_on_c, 0, 67, 0
2, 107066, Note_on_c, 0, 63, 0
2, 107066, Note_on_c, 0, 79, 0
2, 107066, Note_on_c, 0, 72, 0
2, 107112, Note_on_c, 0, 55, 65
2, 107112, Note_on_c, 0, 60, 66
2, 107112, Note_on_c, 0, 67, 67
2, 107112, Note_on_c, 0, 75, 67
2, 107112, Note_on_c, 0, 63, 67
2, 107112, Note_on_c, 0, 72, 63
2, 107112, Note_on_c, 0, 79, 61
2, 107129, Control_c, 0, 64, 0
2, 107130, Note_on_c, 0, 60, 0
2, 107131, Note_on_c, 0, 67, 0
2, 107132, Note_on_c, 0, 72, 0
2, 107132, Note_on_c, 0, 75, 0
2, 107132, Note_on_c, 0, 79, 0
2, 107132, Note_on_c, 0, 63, 0
2, 107133, Note_on_c, 0, 55, 0
2, 107173, Note_on_c, 0, 67, 71
2, 107174, Note_on_c, 0, 55, 72
2, 107174, Note_on_c, 0, 60, 74
2, 107174, Note_on_c, 0, 63, 69
2, 107174, Note_on_c, 0, 75, 69
2, 107175, Note_on_c, 0, 72, 75
2, 107175, Note_on_c, 0, 79, 69
2, 107193, Note_on_c, 0, 48, 0
2, 107193, Note_on_c, 0, 36, 0
2, 107201, Note_on_c, 0, 55, 0
2, 107201, Note_on_c, 0, 60, 0
2, 107202, Note_on_c, 0, 67, 0
2, 107203, Note_on_c, 0, 72, 0
2, 107203, Note_on_c, 0, 79, 0
2, 107203, Note_on_c, 0, 63, 0
2, 107203, Note_on_c, 0, 75, 0
2, 107338, Note_on_c, 0, 39, 73
2, 107338, Note_on_c, 0, 51, 68
2, 107339, Note_on_c, 0, 63, 72
2, 107371, Note_on_c, 0, 51, 0
2, 107371, Note_on_c, 0, 39, 0
2, 107372, Note_on_c, 0, 63, 0
2, 107530, Note_on_c, 0, 55, 82
2, 107530, Note_on_c, 0, 67, 84
2, 107541, Note_on_c, 0, 43, 83
2, 107564, Note_on_c, 0, 67, 0
2, 107565, Note_on_c, 0, 55, 0
2, 107574, Note_on_c, 0, 43, 0
2, 107730, Note_on_c, 0, 55, 59
2, 107730, Note_on_c, 0, 60, 53
2, 107730, Note_on_c, 0, 67, 59
2, 107730, Note_on_c, 0, 75, 63
2, 107731, Note_on_c, 0, 63, 53
2, 107731, Note_on_c, 0, 72, 63
2, 107731, Note_on_c, 0, 79, 60
2, 107760, Note_on_c, 0, 60, 0
2, 107760, Note_on_c, 0, 55, 0
2, 107761, Note_on_c, 0, 67, 0
2, 107761, Note_on_c, 0, 72, 0
2, 107761, Note_on_c, 0, 75, 0
2, 107761, Note_on_c, 0, 79, 0
2, 107762, Note_on_c, 0, 63, 0
2, 107888, Note_on_c, 0, 39, 72
2, 107889, Note_on_c, 0, 51, 73
2, 107890, Note_on_c, 0, 63, 77
2, 107922, Note_on_c, 0, 51, 0
2, 107922, Note_on_c, 0, 39, 0
2, 107923, Note_on_c, 0, 63, 0
2, 108060, Note_on_c, 0, 60, 56
2, 108061, Note_on_c, 0, 55, 57
2, 108061, Note_on_c, 0, 72, 77
2, 108061, Note_on_c, 0, 75, 76
2, 108062, Note_on_c, 0, 63, 53
2, 108062, Note_on_c, 0, 68, 71
2, 108062, Note_on_c, 0, 80, 74
2, 108092, Note_on_c, 0, 55, 0
2, 108092, Note_on_c, 0, 60, 0
2, 108093, Note_on_c, 0, 63, 0
2, 108094, Note_on_c, 0, 72, 0
2, 108094, Note_on_c, 0, 75, 0
2, 108094, Note_on_c, 0, 68, 0
2, 108095, Note_on_c, 0, 80, 0
2, 108162, Control_c, 0, 64, 127
2, 108237, Note_on_c, 0, 36, 79
2, 108239, Note_on_c, 0, 48, 83
2, 108239, Note_on_c, 0, 60, 84
2, 108321, Note_on_c, 0, 60, 0
2, 108405, Note_on_c, 0, 60, 66
2, 108406, Note_on_c, 0, 55, 66
2, 108407, Note_on_c, 0, 63, 66
2, 108407, Note_on_c, 0, 69, 64
2, 108407, Note_on_c, 0, 72, 65
2, 108407, Note_on_c, 0, 75, 69
2, 108408, Note_on_c, 0, 81, 63
2, 108426, Note_on_c, 0, 55, 0
2, 108426, Note_on_c, 0, 60, 0
2, 108427, Note_on_c, 0, 63, 0
2, 108427, Note_on_c, 0, 69, 0
2, 108428, Note_on_c, 0, 75, 0
2, 108428, Note_on_c, 0, 72, 0
2, 108429, Note_on_c, 0, 81, 0
2, 108492, Note_on_c, 0, 55, 68
2, 108492, Note_on_c, 0, 60, 63
2, 108493, Note_on_c, 0, 63, 69
2, 108493, Note_on_c, 0, 69, 69
2, 108493, Note_on_c, 0, 72, 65
2, 108493, Note_on_c, 0, 75, 69
2, 108494, Note_on_c, 0, 81, 67
2, 108510, Control_c, 0, 64, 0
2, 108512, Note_on_c, 0, 60, 0
2, 108512, Note_on_c, 0, 55, 0
2, 108513, Note_on_c, 0, 63, 0
2, 108513, Note_on_c, 0, 69, 0
2, 108514, Note_on_c, 0, 81, 0
2, 108514, Note_on_c, 0, 75, 0
2, 108514, Note_on_c, 0, 72, 0
2, 108571, Note_on_c, 0, 55, 74
2, 108571, Note_on_c, 0, 60, 74
2, 108572, Note_on_c, 0, 69, 72
2, 108573, Note_on_c, 0, 63, 70
2, 108573, Note_on_c, 0, 72, 72
2, 108573, Note_on_c, 0, 75, 69
2, 108573, Note_on_c, 0, 81, 74
2, 108634, Note_on_c, 0, 60, 0
2, 108634, Note_on_c, 0, 55, 0
2, 108636, Note_on_c, 0, 75, 0
2, 108636, Note_on_c, 0, 63, 0
2, 108636, Note_on_c, 0, 69, 0
2, 108636, Note_on_c, 0, 72, 0
2, 108637, Note_on_c, 0, 81, 0
2, 108717, Note_on_c, 0, 36, 0
2, 108725, Note_on_c, 0, 39, 74
2, 108725, Note_on_c, 0, 51, 79
2, 108727, Note_on_c, 0, 63, 75
2, 108729, Note_on_c, 0, 48, 0
2, 108758, Note_on_c, 0, 39, 0
2, 108758, Note_on_c, 0, 51, 0
2, 108760, Note_on_c, 0, 63, 0
2, 108895, Note_on_c, 0, 43, 85
2, 108895, Note_on_c, 0, 55, 83
2, 108896, Note_on_c, 0, 67, 85
2, 108926, Note_on_c, 0, 43, 0
2, 108927, Note_on_c, 0, 55, 0
2, 108928, Note_on_c, 0, 67, 0
2, 109062, Note_on_c, 0, 55, 61
2, 109062, Note_on_c, 0, 63, 55
2, 109062, Note_on_c, 0, 67, 65
2, 109062, Note_on_c, 0, 75, 60
2, 109063, Note_on_c, 0, 72, 61
2, 109063, Note_on_c, 0, 79, 62
2, 109071, Note_on_c, 0, 60, 58
2, 109094, Note_on_c, 0, 55, 0
2, 109095, Note_on_c, 0, 67, 0
2, 109096, Note_on_c, 0, 72, 0
2, 109096, Note_on_c, 0, 75, 0
2, 109096, Note_on_c, 0, 63, 0
2, 109097, Note_on_c, 0, 79, 0
2, 109104, Note_on_c, 0, 60, 0
2, 109225, Note_on_c, 0, 63, 79
2, 109234, Note_on_c, 0, 39, 80
2, 109235, Note_on_c, 0, 51, 80
2, 109259, Note_on_c, 0, 63, 0
2, 109268, Note_on_c, 0, 51, 0
2, 109268, Note_on_c, 0, 39, 0
2, 109384, Note_on_c, 0, 55, 57
2, 109384, Note_on_c, 0, 60, 59
2, 109385, Note_on_c, 0, 63, 54
2, 109395, Note_on_c, 0, 69, 76
2, 109395, Note_on_c, 0, 72, 74
2, 109396, Note_on_c, 0, 75, 76
2, 109396, Note_on_c, 0, 81, 77
2, 109415, Note_on_c, 0, 60, 0
2, 109415, Note_on_c, 0, 55, 0
2, 109416, Note_on_c, 0, 63, 0
2, 109427, Note_on_c, 0, 72, 0
2, 109427, Note_on_c, 0, 69, 0
2, 109427, Note_on_c, 0, 75, 0
2, 109428, Note_on_c, 0, 81, 0
2, 109470, Control_c, 0, 64, 127
2, 109576, Note_on_c, 0, 49, 77
2, 109577, Note_on_c, 0, 61, 78
2, 109585, Note_on_c, 0, 37, 64
2, 109742, Note_on_c, 0, 55, 62
2, 109742, Note_on_c, 0, 58, 65
2, 109743, Note_on_c, 0, 63, 65
2, 109752, Note_on_c, 0, 67, 66
2, 109752, Note_on_c, 0, 70, 66
2, 109752, Note_on_c, 0, 75, 61
2, 109752, Note_on_c, 0, 82, 68
2, 109763, Note_on_c, 0, 58, 0
2, 109763, Note_on_c, 0, 55, 0
2, 109764, Note_on_c, 0, 63, 0
2, 109774, Note_on_c, 0, 67, 0
2, 109775, Note_on_c, 0, 75, 0
2, 109775, Note_on_c, 0, 70, 0
2, 109775, Note_on_c, 0, 82, 0
2, 109823, Note_on_c, 0, 55, 66
2, 109823, Note_on_c, 0, 67, 62
2, 109824, Note_on_c, 0, 58, 62
2, 109824, Note_on_c, 0, 63, 63
2, 109824, Note_on_c, 0, 70, 65
2, 109824, Note_on_c, 0, 75, 63
2, 109824, Note_on_c, 0, 82, 66
2, 109845, Note_on_c, 0, 67, 0
2, 109845, Note_on_c, 0, 55, 0
2, 109846, Note_on_c, 0, 75, 0
2, 109846, Note_on_c, 0, 82, 0
2, 109846, Note_on_c, 0, 58, 0
2, 109846, Note_on_c, 0, 63, 0
2, 109847, Note_on_c, 0, 70, 0
2, 109864, Control_c, 0, 64, 0
2, 109887, Note_on_c, 0, 61, 0
2, 109896, Note_on_c, 0, 67, 78
2, 109897, Note_on_c, 0, 63, 72
2, 109897, Note_on_c, 0, 70, 75
2, 109897, Note_on_c, 0, 75, 76
2, 109905, Note_on_c, 0, 55, 72
2, 109905, Note_on_c, 0, 82, 75
2, 109906, Note_on_c, 0, 58, 74
2, 109928, Note_on_c, 0, 75, 0
2, 109928, Note_on_c, 0, 67, 0
2, 109928, Note_on_c, 0, 37, 0
2, 109928, Note_on_c, 0, 63, 0
2, 109928, Note_on_c, 0, 49, 0
2, 109929, Note_on_c, 0, 70, 0
2, 109937, Note_on_c, 0, 58, 0
2, 109937, Note_on_c, 0, 55, 0
2, 109937, Note_on_c, 0, 82, 0
2, 110069, Note_on_c, 0, 46, 67
2, 110070, Note_on_c, 0, 58, 67
2, 110070, Note_on_c, 0, 70, 78
2, 110099, Note_on_c, 0, 46, 0
2, 110100, Note_on_c, 0, 70, 0
2, 110100, Note_on_c, 0, 58, 0
2, 110159, Control_c, 0, 64, 127
2, 110242, Note_on_c, 0, 38, 61
2, 110243, Note_on_c, 0, 50, 65
2, 110243, Note_on_c, 0, 62, 60
2, 110310, Note_on_c, 0, 62, 0
2, 110389, Note_on_c, 0, 79, 60
2, 110389, Note_on_c, 0, 82, 63
2, 110390, Note_on_c, 0, 86, 60
2, 110397, Note_on_c, 0, 62, 61
2, 110397, Note_on_c, 0, 67, 60
2, 110398, Note_on_c, 0, 58, 66
2, 110398, Note_on_c, 0, 74, 60
2, 110409, Note_on_c, 0, 82, 0
2, 110410, Note_on_c, 0, 86, 0
2, 110410, Note_on_c, 0, 79, 0
2, 110418, Note_on_c, 0, 62, 0
2, 110418, Note_on_c, 0, 58, 0
2, 110418, Note_on_c, 0, 67, 0
2, 110419, Note_on_c, 0, 74, 0
2, 110468, Note_on_c, 0, 82, 64
2, 110470, Note_on_c, 0, 79, 59
2, 110470, Note_on_c, 0, 86, 66
2, 110477, Note_on_c, 0, 62, 62
2, 110477, Note_on_c, 0, 67, 60
2, 110478, Note_on_c, 0, 58, 59
2, 110478, Note_on_c, 0, 74, 60
2, 110489, Note_on_c, 0, 82, 0
2, 110490, Note_on_c, 0, 79, 0
2, 110491, Note_on_c, 0, 86, 0
2, 110496, Control_c, 0, 64, 0
2, 110498, Note_on_c, 0, 62, 0
2, 110498, Note_on_c, 0, 58, 0
2, 110498, Note_on_c, 0, 67, 0
2, 110499, Note_on_c, 0, 74, 0
2, 110544, Note_on_c, 0, 82, 75
2, 110544, Note_on_c, 0, 79, 76
2, 110544, Note_on_c, 0, 86, 75
2, 110551, Note_on_c, 0, 67, 78
2, 110552, Note_on_c, 0, 58, 61
2, 110552, Note_on_c, 0, 62, 65
2, 110552, Note_on_c, 0, 74, 72
2, 110571, Note_on_c, 0, 38, 0
2, 110572, Note_on_c, 0, 50, 0
2, 110573, Note_on_c, 0, 79, 0
2, 110573, Note_on_c, 0, 82, 0
2, 110574, Note_on_c, 0, 86, 0
2, 110581, Note_on_c, 0, 67, 0
2, 110581, Note_on_c, 0, 62, 0
2, 110581, Note_on_c, 0, 58, 0
2, 110582, Note_on_c, 0, 74, 0
2, 110694, Note_on_c, 0, 46, 80
2, 110695, Note_on_c, 0, 58, 80
2, 110696, Note_on_c, 0, 70, 79
2, 110729, Note_on_c, 0, 58, 0
2, 110729, Note_on_c, 0, 46, 0
2, 110730, Note_on_c, 0, 70, 0
2, 110859, Note_on_c, 0, 64, 88
2, 110871, Note_on_c, 0, 40, 87
2, 110871, Note_on_c, 0, 52, 83
2, 110893, Note_on_c, 0, 64, 0
2, 110904, Note_on_c, 0, 52, 0
2, 110904, Note_on_c, 0, 40, 0
2, 110976, Control_c, 0, 64, 127
2, 111035, Note_on_c, 0, 62, 85
2, 111035, Note_on_c, 0, 67, 88
2, 111035, Note_on_c, 0, 70, 86
2, 111035, Note_on_c, 0, 74, 86
2, 111036, Note_on_c, 0, 55, 84
2, 111036, Note_on_c, 0, 58, 87
2, 111098, Control_c, 0, 64, 0
2, 111146, Note_on_c, 0, 58, 0
2, 111146, Note_on_c, 0, 67, 0
2, 111146, Note_on_c, 0, 70, 0
2, 111146, Note_on_c, 0, 55, 0
2, 111188, Note_on_c, 0, 62, 0
2, 111188, Note_on_c, 0, 74, 0
2, 111198, Note_on_c, 0, 61, 67
2, 111198, Note_on_c, 0, 73, 72
2, 111240, Note_on_c, 0, 73, 0
2, 111240, Note_on_c, 0, 61, 0
2, 111314, Control_c, 0, 64, 127
2, 111343, Note_on_c, 0, 82, 91
2, 111345, Note_on_c, 0, 74, 72
2, 111345, Note_on_c, 0, 79, 72
2, 111354, Note_on_c, 0, 62, 87
2, 111354, Note_on_c, 0, 67, 73
2, 111354, Note_on_c, 0, 70, 74
2, 111355, Note_on_c, 0, 58, 93
2, 111387, Control_c, 0, 64, 0
2, 111455, Note_on_c, 0, 79, 0
2, 111455, Note_on_c, 0, 82, 0
2, 111463, Note_on_c, 0, 67, 0
2, 111464, Note_on_c, 0, 70, 0
2, 111464, Note_on_c, 0, 58, 0
2, 111496, Note_on_c, 0, 74, 0
2, 111505, Note_on_c, 0, 62, 0
2, 111517, Note_on_c, 0, 61, 73
2, 111517, Note_on_c, 0, 73, 73
2, 111560, Note_on_c, 0, 73, 0
2, 111561, Note_on_c, 0, 61, 0
2, 111625, Control_c, 0, 64, 127
2, 111665, Note_on_c, 0, 62, 99
2, 111665, Note_on_c, 0, 67, 95
2, 111665, Note_on_c, 0, 74, 98
2, 111665, Note_on_c, 0, 79, 99
2, 111666, Note_on_c, 0, 70, 77
2, 111666, Note_on_c, 0, 86, 80
2, 111672, Note_on_c, 0, 82, 76
2, 111714, Control_c, 0, 64, 0
2, 111767, Note_on_c, 0, 82, 0
2, 111767, Note_on_c, 0, 79, 0
2, 111767, Note_on_c, 0, 67, 0
2, 111767, Note_on_c, 0, 70, 0
2, 111795, Note_on_c, 0, 62, 0
2, 111795, Note_on_c, 0, 74, 0
2, 111796, Note_on_c, 0, 86, 0
2, 111802, Note_on_c, 0, 61, 81
2, 111802, Note_on_c, 0, 73, 74
2, 111802, Note_on_c, 0, 85, 74
2, 111843, Note_on_c, 0, 73, 0
2, 111843, Note_on_c, 0, 61, 0
2, 111844, Note_on_c, 0, 85, 0
2, 111956, Note_on_c, 0, 79, 94
2, 111956, Note_on_c, 0, 82, 96
2, 111956, Note_on_c, 0, 85, 94
2, 111956, Note_on_c, 0, 91, 94
2, 111958, Note_on_c, 0, 39, 100
2, 111967, Note_on_c, 0, 51, 94
2, 111991, Note_on_c, 0, 39, 0
2, 112000, Note_on_c, 0, 51, 0
2, 112009, Note_on_c, 0, 82, 0
2, 112009, Note_on_c, 0, 91, 0
2, 112010, Note_on_c, 0, 85, 0
2, 112010, Note_on_c, 0, 79, 0
2, 112086, Control_c, 0, 64, 127
2, 112150, Note_on_c, 0, 38, 99
2, 112160, Note_on_c, 0, 50, 95
2, 112383, Note_on_c, 0, 82, 70
2, 112392, Note_on_c, 0, 91, 64
2, 112392, Note_on_c, 0, 94, 67
2, 112393, Note_on_c, 0, 67, 67
2, 112393, Note_on_c, 0, 70, 64
2, 112393, Note_on_c, 0, 86, 69
2, 112394, Note_on_c, 0, 58, 67
2, 112394, Note_on_c, 0, 62, 69
2, 112436, Note_on_c, 0, 67, 0
2, 112437, Note_on_c, 0, 62, 0
2, 112437, Note_on_c, 0, 58, 0
2, 112437, Note_on_c, 0, 70, 0
2, 112445, Note_on_c, 0, 82, 0
2, 112446, Note_on_c, 0, 94, 0
2, 112446, Note_on_c, 0, 91, 0
2, 112446, Note_on_c, 0, 86, 0
2, 112525, Note_on_c, 0, 62, 75
2, 112525, Note_on_c, 0, 67, 77
2, 112525, Note_on_c, 0, 70, 76
2, 112526, Note_on_c, 0, 58, 72
2, 112534, Note_on_c, 0, 82, 77
2, 112534, Note_on_c, 0, 91, 75
2, 112534, Note_on_c, 0, 94, 75
2, 112535, Note_on_c, 0, 86, 78
2, 112546, Note_on_c, 0, 67, 0
2, 112547, Note_on_c, 0, 70, 0
2, 112547, Note_on_c, 0, 62, 0
2, 112547, Note_on_c, 0, 58, 0
2, 112556, Note_on_c, 0, 91, 0
2, 112556, Note_on_c, 0, 94, 0
2, 112556, Note_on_c, 0, 86, 0
2, 112556, Note_on_c, 0, 82, 0
2, 112632, Note_on_c, 0, 67, 92
2, 112632, Note_on_c, 0, 82, 87
2, 112632, Note_on_c, 0, 62, 89
2, 112632, Note_on_c, 0, 70, 90
2, 112632, Note_on_c, 0, 86, 91
2, 112632, Note_on_c, 0, 91, 92
2, 112632, Note_on_c, 0, 94, 90
2, 112633, Note_on_c, 0, 58, 88
2, 112654, Note_on_c, 0, 91, 0
2, 112655, Note_on_c, 0, 94, 0
2, 112655, Note_on_c, 0, 86, 0
2, 112655, Note_on_c, 0, 82, 0
2, 112655, Note_on_c, 0, 62, 0
2, 112655, Note_on_c, 0, 67, 0
2, 112655, Note_on_c, 0, 70, 0
2, 112656, Note_on_c, 0, 58, 0
2, 112703, Note_on_c, 0, 91, 93
2, 112703, Note_on_c, 0, 94, 91
2, 112712, Note_on_c, 0, 82, 93
2, 112712, Note_on_c, 0, 86, 92
2, 112713, Note_on_c, 0, 62, 90
2, 112713, Note_on_c, 0, 67, 89
2, 112713, Note_on_c, 0, 70, 92
2, 112714, Note_on_c, 0, 58, 87
2, 112725, Note_on_c, 0, 94, 0
2, 112725, Note_on_c, 0, 91, 0
2, 112733, Note_on_c, 0, 82, 0
2, 112734, Note_on_c, 0, 67, 0
2, 112734, Note_on_c, 0, 86, 0
2, 112734, Note_on_c, 0, 70, 0
2, 112734, Note_on_c, 0, 58, 0
2, 112734, Note_on_c, 0, 62, 0
2, 112786, Note_on_c, 0, 58, 100
2, 112786, Note_on_c, 0, 62, 107
2, 112793, Note_on_c, 0, 91, 101
2, 112794, Note_on_c, 0, 67, 103
2, 112794, Note_on_c, 0, 70, 102
2, 112794, Note_on_c, 0, 82, 101
2, 112794, Note_on_c, 0, 86, 102
2, 112794, Note_on_c, 0, 94, 102
2, 112804, Note_on_c, 0, 62, 0
2, 112805, Note_on_c, 0, 58, 0
2, 112814, Note_on_c, 0, 91, 0
2, 112814, Note_on_c, 0, 82, 0
2, 112814, Note_on_c, 0, 94, 0
2, 112815, Note_on_c, 0, 67, 0
2, 112816, Note_on_c, 0, 70, 0
2, 112816, Note_on_c, 0, 86, 0
2, 112861, Note_on_c, 0, 82, 108
2, 112862, Note_on_c, 0, 67, 105
2, 112862, Note_on_c, 0, 86, 106
2, 112862, Note_on_c, 0, 91, 106
2, 112862, Note_on_c, 0, 94, 106
2, 112863, Note_on_c, 0, 62, 103
2, 112863, Note_on_c, 0, 70, 108
2, 112864, Note_on_c, 0, 58, 104
2, 112883, Note_on_c, 0, 94, 0
2, 112883, Note_on_c, 0, 91, 0
2, 112884, Note_on_c, 0, 70, 0
2, 112884, Note_on_c, 0, 67, 0
2, 112884, Note_on_c, 0, 82, 0
2, 112884, Note_on_c, 0, 86, 0
2, 112885, Note_on_c, 0, 58, 0
2, 112885, Note_on_c, 0, 62, 0
2, 112926, Control_c, 0, 64, 0
2, 112939, Note_on_c, 0, 94, 118
2, 112940, Note_on_c, 0, 82, 118
2, 112940, Note_on_c, 0, 86, 111
2, 112940, Note_on_c, 0, 91, 116
2, 112941, Note_on_c, 0, 62, 112
2, 112941, Note_on_c, 0, 67, 118
2, 112941, Note_on_c, 0, 70, 118
2, 112942, Note_on_c, 0, 58, 118
2, 112988, Note_on_c, 0, 82, 0
2, 112989, Note_on_c, 0, 67, 0
2, 112989, Note_on_c, 0, 86, 0
2, 112989, Note_on_c, 0, 94, 0
2, 112989, Note_on_c, 0, 91, 0
2, 112990, Note_on_c, 0, 58, 0
2, 112990, Note_on_c, 0, 70, 0
2, 112990, Note_on_c, 0, 62, 0
2, 113043, Note_on_c, 0, 38, 0
2, 113043, Note_on_c, 0, 50, 0
2, 113083, Note_on_c, 0, 82, 92
2, 113084, Note_on_c, 0, 67, 94
2, 113084, Note_on_c, 0, 74, 94
2, 113084, Note_on_c, 0, 86, 91
2, 113085, Note_on_c, 0, 62, 96
2, 113085, Note_on_c, 0, 70, 98
2, 113145, Note_on_c, 0, 82, 0
2, 113146, Note_on_c, 0, 74, 0
2, 113146, Note_on_c, 0, 86, 0
2, 113146, Note_on_c, 0, 67, 0
2, 113146, Note_on_c, 0, 70, 0
2, 113146, Note_on_c, 0, 62, 0
2, 113258, Note_on_c, 0, 82, 83
2, 113259, Note_on_c, 0, 67, 87
2, 113259, Note_on_c, 0, 76, 89
2, 113259, Note_on_c, 0, 88, 83
2, 113260, Note_on_c, 0, 70, 88
2, 113261, Note_on_c, 0, 61, 87
2, 113301, Note_on_c, 0, 88, 0
2, 113301, Note_on_c, 0, 67, 0
2, 113301, Note_on_c, 0, 82, 0
2, 113302, Note_on_c, 0, 76, 0
2, 113302, Note_on_c, 0, 61, 0
2, 113302, Note_on_c, 0, 70, 0
2, 113403, Note_on_c, 0, 78, 90
2, 113403, Note_on_c, 0, 86, 86
2, 113403, Note_on_c, 0, 90, 93
2, 113404, Note_on_c, 0, 60, 89
2, 113404, Note_on_c, 0, 69, 87
2, 113405, Note_on_c, 0, 62, 88
2, 113450, Note_on_c, 0, 90, 0
2, 113450, Note_on_c, 0, 78, 0
2, 113450, Note_on_c, 0, 86, 0
2, 113451, Note_on_c, 0, 60, 0
2, 113451, Note_on_c, 0, 69, 0
2, 113451, Note_on_c, 0, 62, 0
2, 113482, Control_c, 0, 64, 127
2, 113547, Note_on_c, 0, 86, 79
2, 113547, Note_on_c, 0, 91, 78
2, 113548, Note_on_c, 0, 67, 81
2, 113548, Note_on_c, 0, 79, 75
2, 113549, Note_on_c, 0, 58, 90
2, 113549, Note_on_c, 0, 62, 93
2, 113592, Control_c, 0, 64, 0
2, 113623, Note_on_c, 0, 79, 0
2, 113623, Note_on_c, 0, 91, 0
2, 113624, Note_on_c, 0, 67, 0
2, 113624, Note_on_c, 0, 86, 0
2, 113624, Note_on_c, 0, 62, 0
2, 113625, Note_on_c, 0, 58, 0
2, 113701, Note_on_c, 0, 74, 77
2, 113702, Note_on_c, 0, 55, 77
2, 113703, Note_on_c, 0, 47, 81
2, 113711, Note_on_c, 0, 62, 77
2, 113711, Note_on_c, 0, 67, 78
2, 113732, Note_on_c, 0, 74, 0
2, 113733, Note_on_c, 0, 55, 0
2, 113734, Note_on_c, 0, 47, 0
2, 113741, Note_on_c, 0, 67, 0
2, 113742, Note_on_c, 0, 62, 0
2, 113866, Note_on_c, 0, 75, 97
2, 113867, Note_on_c, 0, 72, 94
2, 113868, Note_on_c, 0, 55, 99
2, 113868, Note_on_c, 0, 63, 95
2, 113869, Note_on_c, 0, 48, 99
2, 113906, Note_on_c, 0, 55, 0
2, 113906, Note_on_c, 0, 75, 0
2, 113906, Note_on_c, 0, 72, 0
2, 113907, Note_on_c, 0, 63, 0
2, 113908, Note_on_c, 0, 48, 0
2, 114034, Note_on_c, 0, 56, 87
2, 114036, Note_on_c, 0, 44, 86
2, 114037, Note_on_c, 0, 32, 85
2, 114067, Note_on_c, 0, 56, 0
2, 114069, Note_on_c, 0, 44, 0
2, 114070, Note_on_c, 0, 32, 0
2, 114192, Note_on_c, 0, 45, 81
2, 114192, Note_on_c, 0, 57, 82
2, 114193, Note_on_c, 0, 33, 82
2, 114223, Note_on_c, 0, 57, 0
2, 114224, Note_on_c, 0, 45, 0
2, 114226, Note_on_c, 0, 33, 0
2, 114350, Note_on_c, 0, 66, 83
2, 114359, Note_on_c, 0, 60, 81
2, 114360, Note_on_c, 0, 57, 86
2, 114371, Note_on_c, 0, 50, 87
2, 114372, Note_on_c, 0, 38, 82
2, 114382, Note_on_c, 0, 66, 0
2, 114390, Note_on_c, 0, 60, 0
2, 114391, Note_on_c, 0, 57, 0
2, 114402, Note_on_c, 0, 50, 0
2, 114403, Note_on_c, 0, 38, 0
2, 114466, Control_c, 0, 64, 127
2, 114540, Control_c, 0, 64, 0
2, 114545, Note_on_c, 0, 67, 90
2, 114548, Note_on_c, 0, 43, 91
2, 114555, Note_on_c, 0, 62, 90
2, 114556, Note_on_c, 0, 55, 92
2, 114556, Note_on_c, 0, 58, 91
2, 114558, Note_on_c, 0, 31, 94
2, 114576, Note_on_c, 0, 67, 0
2, 114578, Note_on_c, 0, 43, 0
2, 114587, Note_on_c, 0, 58, 0
2, 114587, Note_on_c, 0, 55, 0
2, 114587, Note_on_c, 0, 62, 0
2, 114590, Note_on_c, 0, 31, 0
2, 114844, Control_c, 0, 64, 127
2, 114879, Note_on_c, 0, 79, 89
2, 114879, Note_on_c, 0, 82, 91
2, 114880, Note_on_c, 0, 67, 87
2, 114880, Note_on_c, 0, 75, 92
2, 114881, Note_on_c, 0, 70, 90
2, 114882, Note_on_c, 0, 55, 87
2, 114882, Note_on_c, 0, 58, 86
2, 114882, Note_on_c, 0, 63, 89
2, 114980, Note_on_c, 0, 55, 0
2, 114980, Note_on_c, 0, 75, 0
2, 114980, Note_on_c, 0, 67, 0
2, 114980, Note_on_c, 0, 79, 0
2, 114980, Note_on_c, 0, 70, 0
2, 114981, Note_on_c, 0, 63, 0
2, 114981, Note_on_c, 0, 58, 0
2, 115066, Note_on_c, 0, 67, 73
2, 115066, Note_on_c, 0, 70, 70
2, 115066, Note_on_c, 0, 75, 70
2, 115066, Note_on_c, 0, 79, 72
2, 115067, Note_on_c, 0, 55, 62
2, 115067, Note_on_c, 0, 58, 60
2, 115067, Note_on_c, 0, 63, 65
2, 115087, Note_on_c, 0, 79, 0
2, 115087, Note_on_c, 0, 75, 0
2, 115087, Note_on_c, 0, 67, 0
2, 115088, Note_on_c, 0, 70, 0
2, 115088, Note_on_c, 0, 55, 0
2, 115088, Note_on_c, 0, 63, 0
2, 115088, Note_on_c, 0, 58, 0
2, 115131, Note_on_c, 0, 67, 75
2, 115131, Note_on_c, 0, 70, 79
2, 115131, Note_on_c, 0, 75, 79
2, 115131, Note_on_c, 0, 79, 79
2, 115133, Note_on_c, 0, 55, 72
2, 115133, Note_on_c, 0, 58, 67
2, 115133, Note_on_c, 0, 63, 68
2, 115153, Note_on_c, 0, 63, 0
2, 115153, Note_on_c, 0, 79, 0
2, 115153, Note_on_c, 0, 75, 0
2, 115153, Note_on_c, 0, 67, 0
2, 115154, Note_on_c, 0, 55, 0
2, 115154, Note_on_c, 0, 70, 0
2, 115154, Note_on_c, 0, 58, 0
2, 115213, Note_on_c, 0, 67, 88
2, 115213, Note_on_c, 0, 75, 90
2, 115213, Note_on_c, 0, 79, 91
2, 115214, Note_on_c, 0, 70, 92
2, 115215, Note_on_c, 0, 55, 85
2, 115215, Note_on_c, 0, 58, 90
2, 115215, Note_on_c, 0, 63, 92
2, 115277, Note_on_c, 0, 55, 0
2, 115277, Note_on_c, 0, 67, 0
2, 115278, Note_on_c, 0, 63, 0
2, 115278, Note_on_c, 0, 58, 0
2, 115363, Note_on_c, 0, 82, 0
2, 115364, Note_on_c, 0, 79, 0
2, 115364, Note_on_c, 0, 75, 0
2, 115364, Note_on_c, 0, 70, 0
2, 115373, Note_on_c, 0, 67, 71
2, 115374, Note_on_c, 0, 58, 71
2, 115375, Note_on_c, 0, 46, 73
2, 115375, Note_on_c, 0, 55, 74
2, 115375, Note_on_c, 0, 63, 72
2, 115377, Note_on_c, 0, 39, 73
2, 115396, Note_on_c, 0, 67, 0
2, 115397, Note_on_c, 0, 63, 0
2, 115397, Note_on_c, 0, 55, 0
2, 115397, Note_on_c, 0, 58, 0
2, 115398, Note_on_c, 0, 46, 0
2, 115400, Note_on_c, 0, 39, 0
2, 115450, Note_on_c, 0, 55, 66
2, 115450, Note_on_c, 0, 58, 68
2, 115451, Note_on_c, 0, 46, 73
2, 115452, Note_on_c, 0, 39, 71
2, 115458, Note_on_c, 0, 67, 77
2, 115460, Note_on_c, 0, 63, 71
2, 115471, Note_on_c, 0, 58, 0
2, 115471, Note_on_c, 0, 55, 0
2, 115472, Note_on_c, 0, 46, 0
2, 115473, Note_on_c, 0, 39, 0
2, 115480, Note_on_c, 0, 67, 0
2, 115481, Note_on_c, 0, 63, 0
2, 115516, Control_c, 0, 64, 0
2, 115528, Note_on_c, 0, 67, 84
2, 115529, Note_on_c, 0, 55, 79
2, 115529, Note_on_c, 0, 58, 79
2, 115529, Note_on_c, 0, 63, 81
2, 115530, Note_on_c, 0, 46, 83
2, 115531, Note_on_c, 0, 39, 78
2, 115559, Note_on_c, 0, 67, 0
2, 115560, Note_on_c, 0, 46, 0
2, 115560, Note_on_c, 0, 63, 0
2, 115560, Note_on_c, 0, 55, 0
2, 115560, Note_on_c, 0, 58, 0
2, 115561, Note_on_c, 0, 39, 0
2, 115677, Note_on_c, 0, 79, 65
2, 115678, Note_on_c, 0, 67, 65
2, 115678, Note_on_c, 0, 70, 64
2, 115678, Note_on_c, 0, 75, 63
2, 115679, Note_on_c, 0, 55, 66
2, 115679, Note_on_c, 0, 58, 63
2, 115679, Note_on_c, 0, 63, 68
2, 115708, Note_on_c, 0, 79, 0
2, 115709, Note_on_c, 0, 75, 0
2, 115709, Note_on_c, 0, 67, 0
2, 115709, Note_on_c, 0, 70, 0
2, 115710, Note_on_c, 0, 63, 0
2, 115710, Note_on_c, 0, 55, 0
2, 115710, Note_on_c, 0, 58, 0
2, 115820, Control_c, 0, 64, 127
2, 115844, Note_on_c, 0, 82, 68
2, 115845, Note_on_c, 0, 79, 63
2, 115846, Note_on_c, 0, 70, 67
2, 115847, Note_on_c, 0, 55, 65
2, 115847, Note_on_c, 0, 58, 62
2, 115874, Note_on_c, 0, 82, 0
2, 115875, Note_on_c, 0, 79, 0
2, 115886, Note_on_c, 0, 70, 0
2, 115910, Control_c, 0, 64, 0
2, 115915, Note_on_c, 0, 55, 0
2, 115915, Note_on_c, 0, 58, 0
2, 115921, Note_on_c, 0, 84, 66
2, 115922, Note_on_c, 0, 60, 67
2, 115922, Note_on_c, 0, 72, 66
2, 115952, Note_on_c, 0, 84, 0
2, 115953, Note_on_c, 0, 72, 0
2, 115954, Note_on_c, 0, 60, 0
2, 115992, Note_on_c, 0, 86, 71
2, 115992, Note_on_c, 0, 62, 71
2, 115992, Note_on_c, 0, 74, 66
2, 116023, Note_on_c, 0, 74, 0
2, 116024, Note_on_c, 0, 62, 0
2, 116024, Note_on_c, 0, 86, 0
2, 116064, Note_on_c, 0, 75, 70
2, 116064, Note_on_c, 0, 87, 65
2, 116064, Note_on_c, 0, 63, 69
2, 116095, Note_on_c, 0, 87, 0
2, 116095, Note_on_c, 0, 75, 0
2, 116096, Note_on_c, 0, 63, 0
2, 116136, Note_on_c, 0, 82, 77
2, 116136, Note_on_c, 0, 74, 82
2, 116137, Note_on_c, 0, 62, 83
2, 116137, Note_on_c, 0, 86, 80
2, 116138, Note_on_c, 0, 58, 78
2, 116139, Note_on_c, 0, 53, 83
2, 116189, Control_c, 0, 64, 127
2, 116207, Note_on_c, 0, 74, 0
2, 116208, Note_on_c, 0, 62, 0
2, 116208, Note_on_c, 0, 58, 0
2, 116208, Note_on_c, 0, 53, 0
2, 116293, Note_on_c, 0, 70, 63
2, 116293, Note_on_c, 0, 74, 64
2, 116293, Note_on_c, 0, 77, 63
2, 116294, Note_on_c, 0, 58, 65
2, 116294, Note_on_c, 0, 62, 59
2, 116294, Note_on_c, 0, 65, 61
2, 116295, Note_on_c, 0, 53, 64
2, 116314, Note_on_c, 0, 65, 0
2, 116314, Note_on_c, 0, 62, 0
2, 116314, Note_on_c, 0, 74, 0
2, 116314, Note_on_c, 0, 70, 0
2, 116314, Note_on_c, 0, 77, 0
2, 116315, Note_on_c, 0, 58, 0
2, 116316, Note_on_c, 0, 53, 0
2, 116360, Note_on_c, 0, 62, 67
2, 116361, Note_on_c, 0, 58, 71
2, 116362, Note_on_c, 0, 53, 71
2, 116369, Note_on_c, 0, 70, 72
2, 116369, Note_on_c, 0, 74, 71
2, 116369, Note_on_c, 0, 77, 65
2, 116370, Note_on_c, 0, 65, 68
2, 116380, Note_on_c, 0, 62, 0
2, 116381, Note_on_c, 0, 53, 0
2, 116381, Note_on_c, 0, 58, 0
2, 116389, Note_on_c, 0, 77, 0
2, 116389, Note_on_c, 0, 74, 0
2, 116390, Note_on_c, 0, 65, 0
2, 116390, Note_on_c, 0, 70, 0
2, 116438, Note_on_c, 0, 65, 84
2, 116438, Note_on_c, 0, 70, 82
2, 116438, Note_on_c, 0, 74, 83
2, 116438, Note_on_c, 0, 77, 84
2, 116439, Note_on_c, 0, 58, 78
2, 116439, Note_on_c, 0, 62, 80
2, 116440, Note_on_c, 0, 53, 83
2, 116455, Control_c, 0, 64, 0
2, 116507, Note_on_c, 0, 82, 0
2, 116508, Note_on_c, 0, 74, 0
2, 116508, Note_on_c, 0, 86, 0
2, 116508, Note_on_c, 0, 77, 0
2, 116509, Note_on_c, 0, 70, 0
2, 116509, Note_on_c, 0, 62, 0
2, 116509, Note_on_c, 0, 65, 0
2, 116510, Note_on_c, 0, 58, 0
2, 116510, Note_on_c, 0, 53, 0
2, 116588, Note_on_c, 0, 34, 62
2, 116591, Note_on_c, 0, 65, 64
2, 116592, Note_on_c, 0, 46, 66
2, 116599, Note_on_c, 0, 62, 66
2, 116600, Note_on_c, 0, 53, 65
2, 116600, Note_on_c, 0, 58, 65
2, 116608, Note_on_c, 0, 34, 0
2, 116618, Note_on_c, 0, 62, 0
2, 116618, Note_on_c, 0, 65, 0
2, 116619, Note_on_c, 0, 53, 0
2, 116619, Note_on_c, 0, 58, 0
2, 116620, Note_on_c, 0, 46, 0
2, 116674, Note_on_c, 0, 62, 62
2, 116674, Note_on_c, 0, 65, 69
2, 116675, Note_on_c, 0, 58, 66
2, 116676, Note_on_c, 0, 46, 62
2, 116676, Note_on_c, 0, 53, 63
2, 116677, Note_on_c, 0, 34, 63
2, 116694, Note_on_c, 0, 65, 0
2, 116694, Note_on_c, 0, 62, 0
2, 116695, Note_on_c, 0, 53, 0
2, 116695, Note_on_c, 0, 58, 0
2, 116696, Note_on_c, 0, 46, 0
2, 116698, Note_on_c, 0, 34, 0
2, 116752, Note_on_c, 0, 62, 72
2, 116752, Note_on_c, 0, 65, 81
2, 116753, Note_on_c, 0, 58, 76
2, 116754, Note_on_c, 0, 46, 76
2, 116754, Note_on_c, 0, 53, 77
2, 116756, Note_on_c, 0, 34, 71
2, 116782, Note_on_c, 0, 65, 0
2, 116783, Note_on_c, 0, 62, 0
2, 116783, Note_on_c, 0, 58, 0
2, 116784, Note_on_c, 0, 46, 0
2, 116784, Note_on_c, 0, 53, 0
2, 116785, Note_on_c, 0, 34, 0
2, 116894, Note_on_c, 0, 74, 60
2, 116894, Note_on_c, 0, 77, 63
2, 116904, Note_on_c, 0, 65, 66
2, 116904, Note_on_c, 0, 70, 65
2, 116905, Note_on_c, 0, 58, 61
2, 116905, Note_on_c, 0, 62, 59
2, 116906, Note_on_c, 0, 53, 59
2, 116926, Note_on_c, 0, 77, 0
2, 116927, Note_on_c, 0, 74, 0
2, 116936, Note_on_c, 0, 65, 0
2, 116936, Note_on_c, 0, 70, 0
2, 116936, Note_on_c, 0, 62, 0
2, 116937, Note_on_c, 0, 53, 0
2, 116937, Note_on_c, 0, 58, 0
2, 117034, Note_on_c, 0, 82, 67
2, 117035, Note_on_c, 0, 74, 70
2, 117035, Note_on_c, 0, 86, 68
2, 117036, Note_on_c, 0, 62, 71
2, 117037, Note_on_c, 0, 58, 72
2, 117038, Note_on_c, 0, 53, 67
2, 117040, Control_c, 0, 64, 127
2, 117095, Note_on_c, 0, 82, 0
2, 117096, Note_on_c, 0, 74, 0
2, 117096, Note_on_c, 0, 86, 0
2, 117100, Note_on_c, 0, 88, 71
2, 117102, Note_on_c, 0, 64, 68
2, 117102, Note_on_c, 0, 76, 70
2, 117104, Note_on_c, 0, 62, 0
2, 117105, Note_on_c, 0, 53, 0
2, 117105, Note_on_c, 0, 58, 0
2, 117118, Control_c, 0, 64, 0
2, 117134, Note_on_c, 0, 88, 0
2, 117134, Note_on_c, 0, 76, 0
2, 117143, Note_on_c, 0, 64, 0
2, 117179, Note_on_c, 0, 77, 75
2, 117179, Note_on_c, 0, 89, 74
2, 117180, Note_on_c, 0, 65, 77
2, 117210, Note_on_c, 0, 89, 0
2, 117211, Note_on_c, 0, 77, 0
2, 117212, Note_on_c, 0, 65, 0
2, 117258, Note_on_c, 0, 79, 72
2, 117258, Note_on_c, 0, 91, 74
2, 117259, Note_on_c, 0, 67, 84
2, 117289, Note_on_c, 0, 67, 0
2, 117289, Note_on_c, 0, 91, 0
2, 117289, Note_on_c, 0, 79, 0
2, 117327, Note_on_c, 0, 86, 63
2, 117327, Note_on_c, 0, 89, 63
2, 117328, Note_on_c, 0, 65, 65
2, 117328, Note_on_c, 0, 77, 63
2, 117329, Note_on_c, 0, 57, 78
2, 117329, Note_on_c, 0, 62, 81
2, 117379, Control_c, 0, 64, 127
2, 117396, Note_on_c, 0, 77, 0
2, 117406, Note_on_c, 0, 65, 0
2, 117406, Note_on_c, 0, 62, 0
2, 117407, Note_on_c, 0, 57, 0
2, 117484, Note_on_c, 0, 62, 65
2, 117484, Note_on_c, 0, 69, 59
2, 117484, Note_on_c, 0, 74, 59
2, 117484, Note_on_c, 0, 77, 64
2, 117484, Note_on_c, 0, 81, 65
2, 117485, Note_on_c, 0, 57, 62
2, 117485, Note_on_c, 0, 65, 65
2, 117486, Note_on_c, 0, 53, 59
2, 117505, Note_on_c, 0, 81, 0
2, 117506, Note_on_c, 0, 65, 0
2, 117506, Note_on_c, 0, 57, 0
2, 117506, Note_on_c, 0, 69, 0
2, 117506, Note_on_c, 0, 74, 0
2, 117506, Note_on_c, 0, 62, 0
2, 117506, Note_on_c, 0, 77, 0
2, 117507, Note_on_c, 0, 53, 0
2, 117560, Note_on_c, 0, 77, 67
2, 117560, Note_on_c, 0, 81, 72
2, 117561, Note_on_c, 0, 65, 69
2, 117561, Note_on_c, 0, 69, 69
2, 117561, Note_on_c, 0, 74, 67
2, 117562, Note_on_c, 0, 57, 64
2, 117562, Note_on_c, 0, 62, 62
2, 117563, Note_on_c, 0, 53, 65
2, 117583, Note_on_c, 0, 81, 0
2, 117583, Note_on_c, 0, 77, 0
2, 117584, Note_on_c, 0, 62, 0
2, 117584, Note_on_c, 0, 57, 0
2, 117584, Note_on_c, 0, 69, 0
2, 117584, Note_on_c, 0, 65, 0
2, 117584, Note_on_c, 0, 74, 0
2, 117585, Note_on_c, 0, 53, 0
2, 117610, Control_c, 0, 64, 0
2, 117636, Note_on_c, 0, 89, 0
2, 117637, Note_on_c, 0, 86, 0
2, 117637, Note_on_c, 0, 62, 66
2, 117637, Note_on_c, 0, 65, 79
2, 117646, Note_on_c, 0, 74, 84
2, 117646, Note_on_c, 0, 77, 79
2, 117646, Note_on_c, 0, 81, 84
2, 117647, Note_on_c, 0, 69, 78
2, 117648, Note_on_c, 0, 57, 65
2, 117648, Note_on_c, 0, 53, 69
2, 117669, Note_on_c, 0, 65, 0
2, 117669, Note_on_c, 0, 62, 0
2, 117676, Note_on_c, 0, 77, 0
2, 117677, Note_on_c, 0, 74, 0
2, 117677, Note_on_c, 0, 81, 0
2, 117677, Note_on_c, 0, 69, 0
2, 117678, Note_on_c, 0, 57, 0
2, 117679, Note_on_c, 0, 53, 0
2, 117792, Note_on_c, 0, 62, 63
2, 117792, Note_on_c, 0, 65, 66
2, 117792, Note_on_c, 0, 69, 64
2, 117793, Note_on_c, 0, 57, 63
2, 117794, Note_on_c, 0, 38, 60
2, 117794, Note_on_c, 0, 45, 59
2, 117814, Note_on_c, 0, 69, 0
2, 117814, Note_on_c, 0, 62, 0
2, 117814, Note_on_c, 0, 65, 0
2, 117815, Note_on_c, 0, 57, 0
2, 117816, Note_on_c, 0, 38, 0
2, 117816, Note_on_c, 0, 45, 0
2, 117861, Note_on_c, 0, 62, 61
2, 117861, Note_on_c, 0, 65, 59
2, 117861, Note_on_c, 0, 69, 62
2, 117862, Note_on_c, 0, 57, 59
2, 117863, Note_on_c, 0, 38, 64
2, 117863, Note_on_c, 0, 45, 60
2, 117882, Note_on_c, 0, 69, 0
2, 117883, Note_on_c, 0, 57, 0
2, 117883, Note_on_c, 0, 62, 0
2, 117883, Note_on_c, 0, 65, 0
2, 117885, Note_on_c, 0, 45, 0
2, 117885, Note_on_c, 0, 38, 0
2, 117939, Note_on_c, 0, 65, 66
2, 117939, Note_on_c, 0, 69, 64
2, 117940, Note_on_c, 0, 57, 71
2, 117940, Note_on_c, 0, 62, 75
2, 117941, Note_on_c, 0, 38, 71
2, 117941, Note_on_c, 0, 45, 72
2, 117969, Note_on_c, 0, 69, 0
2, 117970, Note_on_c, 0, 62, 0
2, 117970, Note_on_c, 0, 65, 0
2, 117970, Note_on_c, 0, 57, 0
2, 117972, Note_on_c, 0, 45, 0
2, 117972, Note_on_c, 0, 38, 0
2, 118088, Note_on_c, 0, 74, 60
2, 118088, Note_on_c, 0, 77, 59
2, 118089, Note_on_c, 0, 57, 61
2, 118089, Note_on_c, 0, 62, 65
2, 118089, Note_on_c, 0, 65, 64
2, 118089, Note_on_c, 0, 69, 63
2, 118090, Note_on_c, 0, 53, 61
2, 118120, Note_on_c, 0, 69, 0
2, 118120, Note_on_c, 0, 77, 0
2, 118120, Note_on_c, 0, 74, 0
2, 118120, Note_on_c, 0, 65, 0
2, 118121, Note_on_c, 0, 62, 0
2, 118121, Note_on_c, 0, 53, 0
2, 118121, Note_on_c, 0, 57, 0
2, 118226, Control_c, 0, 64, 127
2, 118246, Note_on_c, 0, 57, 66
2, 118246, Note_on_c, 0, 69, 68
2, 118246, Note_on_c, 0, 77, 71
2, 118246, Note_on_c, 0, 81, 71
2, 118247, Note_on_c, 0, 53, 72
2, 118300, Note_on_c, 0, 81, 0
2, 118300, Note_on_c, 0, 77, 0
2, 118300, Note_on_c, 0, 69, 0
2, 118301, Note_on_c, 0, 57, 0
2, 118301, Note_on_c, 0, 53, 0
2, 118310, Note_on_c, 0, 83, 69
2, 118311, Note_on_c, 0, 71, 67
2, 118312, Note_on_c, 0, 59, 65
2, 118314, Control_c, 0, 64, 0
2, 118342, Note_on_c, 0, 83, 0
2, 118343, Note_on_c, 0, 71, 0
2, 118344, Note_on_c, 0, 59, 0
2, 118393, Note_on_c, 0, 84, 71
2, 118394, Note_on_c, 0, 60, 75
2, 118394, Note_on_c, 0, 72, 75
2, 118425, Note_on_c, 0, 60, 0
2, 118425, Note_on_c, 0, 84, 0
2, 118426, Note_on_c, 0, 72, 0
2, 118457, Note_on_c, 0, 62, 76
2, 118466, Note_on_c, 0, 86, 78
2, 118467, Note_on_c, 0, 74, 74
2, 118490, Note_on_c, 0, 62, 0
2, 118499, Note_on_c, 0, 74, 0
2, 118499, Note_on_c, 0, 86, 0
2, 118529, Note_on_c, 0, 81, 83
2, 118529, Note_on_c, 0, 84, 83
2, 118530, Note_on_c, 0, 72, 84
2, 118538, Note_on_c, 0, 60, 84
2, 118539, Note_on_c, 0, 53, 78
2, 118539, Note_on_c, 0, 57, 79
2, 118592, Control_c, 0, 64, 127
2, 118611, Note_on_c, 0, 81, 0
2, 118621, Note_on_c, 0, 60, 0
2, 118621, Note_on_c, 0, 72, 0
2, 118622, Note_on_c, 0, 57, 0
2, 118622, Note_on_c, 0, 53, 0
2, 118712, Note_on_c, 0, 81, 63
2, 118713, Note_on_c, 0, 60, 62
2, 118713, Note_on_c, 0, 65, 66
2, 118713, Note_on_c, 0, 69, 62
2, 118713, Note_on_c, 0, 72, 65
2, 118713, Note_on_c, 0, 77, 65
2, 118714, Note_on_c, 0, 53, 62
2, 118714, Note_on_c, 0, 57, 63
2, 118734, Note_on_c, 0, 77, 0
2, 118734, Note_on_c, 0, 60, 0
2, 118734, Note_on_c, 0, 84, 0
2, 118735, Note_on_c, 0, 69, 0
2, 118735, Note_on_c, 0, 57, 0
2, 118735, Note_on_c, 0, 81, 0
2, 118735, Note_on_c, 0, 53, 0
2, 118735, Note_on_c, 0, 72, 0
2, 118736, Note_on_c, 0, 65, 0
2, 118737, Control_c, 0, 64, 0
2, 118785, Note_on_c, 0, 57, 59
2, 118794, Note_on_c, 0, 60, 59
2, 118794, Note_on_c, 0, 65, 72
2, 118794, Note_on_c, 0, 69, 71
2, 118794, Note_on_c, 0, 72, 71
2, 118794, Note_on_c, 0, 77, 67
2, 118794, Note_on_c, 0, 81, 65
2, 118795, Note_on_c, 0, 53, 64
2, 118806, Note_on_c, 0, 57, 0
2, 118814, Note_on_c, 0, 60, 0
2, 118814, Note_on_c, 0, 77, 0
2, 118814, Note_on_c, 0, 81, 0
2, 118815, Note_on_c, 0, 72, 0
2, 118815, Note_on_c, 0, 69, 0
2, 118815, Note_on_c, 0, 65, 0
2, 118816, Note_on_c, 0, 53, 0
2, 118863, Note_on_c, 0, 60, 65
2, 118863, Note_on_c, 0, 65, 61
2, 118863, Note_on_c, 0, 69, 65
2, 118863, Note_on_c, 0, 72, 66
2, 118863, Note_on_c, 0, 77, 63
2, 118863, Note_on_c, 0, 81, 59
2, 118864, Note_on_c, 0, 53, 71
2, 118864, Note_on_c, 0, 57, 68
2, 118893, Note_on_c, 0, 60, 0
2, 118894, Note_on_c, 0, 65, 0
2, 118894, Note_on_c, 0, 57, 0
2, 118894, Note_on_c, 0, 69, 0
2, 118894, Note_on_c, 0, 72, 0
2, 118894, Note_on_c, 0, 77, 0
2, 118894, Note_on_c, 0, 81, 0
2, 118895, Note_on_c, 0, 53, 0
2, 118996, Note_on_c, 0, 60, 61
2, 118996, Note_on_c, 0, 69, 65
2, 118996, Note_on_c, 0, 72, 59
2, 118997, Note_on_c, 0, 41, 64
2, 118997, Note_on_c, 0, 48, 59
2, 119018, Note_on_c, 0, 60, 0
2, 119019, Note_on_c, 0, 69, 0
2, 119019, Note_on_c, 0, 72, 0
2, 119020, Note_on_c, 0, 41, 0
2, 119020, Note_on_c, 0, 48, 0
2, 119083, Note_on_c, 0, 60, 63
2, 119083, Note_on_c, 0, 69, 62
2, 119083, Note_on_c, 0, 72, 61
2, 119084, Note_on_c, 0, 41, 65
2, 119085, Note_on_c, 0, 48, 64
2, 119104, Note_on_c, 0, 60, 0
2, 119105, Note_on_c, 0, 69, 0
2, 119105, Note_on_c, 0, 72, 0
2, 119106, Note_on_c, 0, 41, 0
2, 119106, Note_on_c, 0, 48, 0
2, 119155, Note_on_c, 0, 60, 76
2, 119155, Note_on_c, 0, 72, 72
2, 119156, Note_on_c, 0, 41, 77
2, 119156, Note_on_c, 0, 48, 72
2, 119156, Note_on_c, 0, 69, 71
2, 119184, Note_on_c, 0, 60, 0
2, 119185, Note_on_c, 0, 72, 0
2, 119185, Note_on_c, 0, 69, 0
2, 119186, Note_on_c, 0, 41, 0
2, 119186, Note_on_c, 0, 48, 0
2, 119312, Note_on_c, 0, 60, 61
2, 119313, Note_on_c, 0, 53, 61
2, 119313, Note_on_c, 0, 57, 66
2, 119313, Note_on_c, 0, 69, 62
2, 119313, Note_on_c, 0, 72, 62
2, 119313, Note_on_c, 0, 77, 60
2, 119313, Note_on_c, 0, 81, 66
2, 119343, Note_on_c, 0, 77, 0
2, 119343, Note_on_c, 0, 57, 0
2, 119343, Note_on_c, 0, 53, 0
2, 119343, Note_on_c, 0, 60, 0
2, 119343, Note_on_c, 0, 69, 0
2, 119344, Note_on_c, 0, 81, 0
2, 119344, Note_on_c, 0, 72, 0
2, 119449, Note_on_c, 0, 56, 73
2, 119449, Note_on_c, 0, 60, 67
2, 119449, Note_on_c, 0, 72, 68
2, 119449, Note_on_c, 0, 84, 72
2, 119450, Note_on_c, 0, 53, 69
2, 119450, Note_on_c, 0, 80, 66
2, 119480, Note_on_c, 0, 60, 0
2, 119480, Note_on_c, 0, 56, 0
2, 119481, Note_on_c, 0, 53, 0
2, 119482, Note_on_c, 0, 80, 0
2, 119520, Note_on_c, 0, 84, 0
2, 119520, Note_on_c, 0, 72, 0
2, 119526, Note_on_c, 0, 62, 67
2, 119526, Note_on_c, 0, 74, 74
2, 119527, Note_on_c, 0, 86, 71
2, 119557, Note_on_c, 0, 74, 0
2, 119557, Note_on_c, 0, 62, 0
2, 119558, Note_on_c, 0, 86, 0
2, 119594, Note_on_c, 0, 63, 80
2, 119594, Note_on_c, 0, 75, 79
2, 119594, Note_on_c, 0, 87, 79
2, 119624, Note_on_c, 0, 87, 0
2, 119624, Note_on_c, 0, 75, 0
2, 119624, Note_on_c, 0, 63, 0
2, 119640, Note_on_c, 0, 65, 79
2, 119640, Note_on_c, 0, 77, 79
2, 119640, Note_on_c, 0, 89, 76
2, 119642, Control_c, 0, 64, 127
2, 119672, Note_on_c, 0, 89, 0
2, 119672, Note_on_c, 0, 77, 0
2, 119672, Note_on_c, 0, 65, 0
2, 119712, Note_on_c, 0, 75, 88
2, 119712, Note_on_c, 0, 84, 87
2, 119712, Note_on_c, 0, 87, 85
2, 119722, Note_on_c, 0, 60, 81
2, 119723, Note_on_c, 0, 55, 88
2, 119724, Note_on_c, 0, 63, 84
2, 119745, Note_on_c, 0, 87, 0
2, 119745, Note_on_c, 0, 75, 0
2, 119745, Note_on_c, 0, 84, 0
2, 119747, Control_c, 0, 64, 0
2, 119755, Note_on_c, 0, 60, 0
2, 119756, Note_on_c, 0, 55, 0
2, 119756, Note_on_c, 0, 63, 0
2, 119889, Note_on_c, 0, 60, 67
2, 119890, Note_on_c, 0, 43, 66
2, 119890, Note_on_c, 0, 67, 71
2, 119891, Note_on_c, 0, 51, 69
2, 119910, Note_on_c, 0, 67, 0
2, 119910, Note_on_c, 0, 60, 0
2, 119951, Note_on_c, 0, 43, 0
2, 119951, Note_on_c, 0, 51, 0
2, 119960, Note_on_c, 0, 36, 79
2, 119968, Note_on_c, 0, 60, 75
2, 119968, Note_on_c, 0, 67, 79
2, 119988, Note_on_c, 0, 60, 0
2, 119989, Note_on_c, 0, 67, 0
2, 119990, Note_on_c, 0, 36, 0
2, 120035, Note_on_c, 0, 60, 92
2, 120035, Note_on_c, 0, 67, 86
2, 120036, Note_on_c, 0, 43, 93
2, 120036, Note_on_c, 0, 51, 87
2, 120066, Note_on_c, 0, 51, 0
2, 120066, Note_on_c, 0, 60, 0
2, 120066, Note_on_c, 0, 67, 0
2, 120066, Note_on_c, 0, 43, 0
2, 120182, Note_on_c, 0, 63, 90
2, 120182, Note_on_c, 0, 75, 88
2, 120182, Note_on_c, 0, 87, 88
2, 120214, Note_on_c, 0, 87, 0
2, 120214, Note_on_c, 0, 75, 0
2, 120214, Note_on_c, 0, 63, 0
2, 120242, Note_on_c, 0, 65, 88
2, 120242, Note_on_c, 0, 77, 87
2, 120242, Note_on_c, 0, 89, 88
2, 120264, Control_c, 0, 64, 127
2, 120274, Note_on_c, 0, 89, 0
2, 120274, Note_on_c, 0, 77, 0
2, 120274, Note_on_c, 0, 65, 0
2, 120323, Note_on_c, 0, 82, 90
2, 120324, Note_on_c, 0, 58, 95
2, 120324, Note_on_c, 0, 62, 94
2, 120324, Note_on_c, 0, 79, 95
2, 120324, Note_on_c, 0, 91, 95
2, 120325, Note_on_c, 0, 86, 90
2, 120334, Note_on_c, 0, 67, 95
2, 120354, Note_on_c, 0, 82, 0
2, 120355, Note_on_c, 0, 91, 0
2, 120355, Note_on_c, 0, 62, 0
2, 120355, Note_on_c, 0, 79, 0
2, 120355, Note_on_c, 0, 58, 0
2, 120355, Note_on_c, 0, 86, 0
2, 120364, Note_on_c, 0, 67, 0
2, 120365, Control_c, 0, 64, 0
2, 120478, Note_on_c, 0, 46, 69
2, 120478, Note_on_c, 0, 62, 65
2, 120478, Note_on_c, 0, 67, 64
2, 120479, Note_on_c, 0, 55, 69
2, 120499, Note_on_c, 0, 67, 0
2, 120500, Note_on_c, 0, 62, 0
2, 120508, Note_on_c, 0, 46, 0
2, 120508, Note_on_c, 0, 55, 0
2, 120560, Note_on_c, 0, 39, 70
2, 120560, Note_on_c, 0, 62, 72
2, 120560, Note_on_c, 0, 67, 72
2, 120582, Note_on_c, 0, 67, 0
2, 120582, Note_on_c, 0, 62, 0
2, 120593, Note_on_c, 0, 39, 0
2, 120636, Note_on_c, 0, 62, 83
2, 120636, Note_on_c, 0, 67, 83
2, 120637, Note_on_c, 0, 46, 82
2, 120637, Note_on_c, 0, 55, 77
2, 120669, Note_on_c, 0, 55, 0
2, 120669, Note_on_c, 0, 62, 0
2, 120669, Note_on_c, 0, 67, 0
2, 120669, Note_on_c, 0, 46, 0
2, 120792, Note_on_c, 0, 62, 84
2, 120792, Note_on_c, 0, 86, 83
2, 120822, Note_on_c, 0, 86, 0
2, 120841, Note_on_c, 0, 62, 0
2, 120848, Note_on_c, 0, 67, 82
2, 120848, Note_on_c, 0, 91, 85
2, 120879, Note_on_c, 0, 67, 0
2, 120888, Control_c, 0, 64, 127
2, 120908, Note_on_c, 0, 91, 0
2, 120913, Note_on_c, 0, 93, 85
2, 120914, Note_on_c, 0, 64, 81
2, 120914, Note_on_c, 0, 69, 80
2, 120914, Note_on_c, 0, 81, 82
2, 120914, Note_on_c, 0, 86, 83
2, 120915, Note_on_c, 0, 57, 86
2, 120963, Note_on_c, 0, 57, 0
2, 120972, Note_on_c, 0, 64, 0
2, 120972, Note_on_c, 0, 69, 0
2, 120982, Note_on_c, 0, 81, 0
2, 121070, Note_on_c, 0, 57, 59
2, 121070, Note_on_c, 0, 64, 65
2, 121070, Note_on_c, 0, 67, 66
2, 121070, Note_on_c, 0, 69, 66
2, 121070, Note_on_c, 0, 74, 66
2, 121070, Note_on_c, 0, 76, 59
2, 121070, Note_on_c, 0, 81, 65
2, 121091, Note_on_c, 0, 81, 0
2, 121091, Note_on_c, 0, 74, 0
2, 121091, Note_on_c, 0, 64, 0
2, 121091, Note_on_c, 0, 67, 0
2, 121092, Note_on_c, 0, 76, 0
2, 121092, Note_on_c, 0, 57, 0
2, 121092, Note_on_c, 0, 69, 0
2, 121132, Note_on_c, 0, 64, 65
2, 121132, Note_on_c, 0, 67, 65
2, 121132, Note_on_c, 0, 69, 66
2, 121132, Note_on_c, 0, 74, 65
2, 121132, Note_on_c, 0, 76, 71
2, 121132, Note_on_c, 0, 81, 72
2, 121133, Note_on_c, 0, 57, 66
2, 121152, Note_on_c, 0, 64, 0
2, 121153, Note_on_c, 0, 69, 0
2, 121153, Note_on_c, 0, 57, 0
2, 121153, Note_on_c, 0, 74, 0
2, 121153, Note_on_c, 0, 81, 0
2, 121153, Note_on_c, 0, 67, 0
2, 121153, Note_on_c, 0, 76, 0
2, 121207, Note_on_c, 0, 57, 80
2, 121207, Note_on_c, 0, 64, 80
2, 121207, Note_on_c, 0, 67, 80
2, 121207, Note_on_c, 0, 69, 80
2, 121207, Note_on_c, 0, 74, 78
2, 121208, Note_on_c, 0, 76, 77
2, 121216, Note_on_c, 0, 81, 82
2, 121265, Note_on_c, 0, 64, 0
2, 121266, Note_on_c, 0, 69, 0
2, 121345, Note_on_c, 0, 67, 0
2, 121345, Note_on_c, 0, 57, 0
2, 121355, Note_on_c, 0, 55, 64
2, 121355, Note_on_c, 0, 62, 65
2, 121355, Note_on_c, 0, 64, 60
2, 121355, Note_on_c, 0, 69, 61
2, 121356, Note_on_c, 0, 45, 60
2, 121356, Note_on_c, 0, 52, 59
2, 121377, Note_on_c, 0, 64, 0
2, 121377, Note_on_c, 0, 62, 0
2, 121377, Note_on_c, 0, 55, 0
2, 121378, Note_on_c, 0, 45, 0
2, 121378, Note_on_c, 0, 69, 0
2, 121378, Note_on_c, 0, 52, 0
2, 121429, Note_on_c, 0, 55, 63
2, 121429, Note_on_c, 0, 62, 60
2, 121429, Note_on_c, 0, 64, 63
2, 121429, Note_on_c, 0, 69, 67
2, 121430, Note_on_c, 0, 45, 62
2, 121430, Note_on_c, 0, 52, 64
2, 121449, Note_on_c, 0, 55, 0
2, 121450, Note_on_c, 0, 69, 0
2, 121450, Note_on_c, 0, 64, 0
2, 121450, Note_on_c, 0, 62, 0
2, 121451, Note_on_c, 0, 45, 0
2, 121451, Note_on_c, 0, 52, 0
2, 121482, Control_c, 0, 64, 0
2, 121500, Note_on_c, 0, 45, 72
2, 121500, Note_on_c, 0, 52, 74
2, 121500, Note_on_c, 0, 55, 77
2, 121508, Note_on_c, 0, 64, 73
2, 121509, Note_on_c, 0, 62, 75
2, 121509, Note_on_c, 0, 69, 77
2, 121529, Note_on_c, 0, 55, 0
2, 121530, Note_on_c, 0, 52, 0
2, 121530, Note_on_c, 0, 45, 0
2, 121537, Note_on_c, 0, 62, 0
2, 121537, Note_on_c, 0, 64, 0
2, 121537, Note_on_c, 0, 69, 0
2, 121547, Note_on_c, 0, 93, 0
2, 121548, Note_on_c, 0, 81, 0
2, 121548, Note_on_c, 0, 86, 0
2, 121548, Note_on_c, 0, 76, 0
2, 121548, Note_on_c, 0, 74, 0
2, 121666, Note_on_c, 0, 33, 60
2, 121666, Note_on_c, 0, 49, 61
2, 121667, Control_c, 0, 64, 127
2, 121667, Note_on_c, 0, 40, 65
2, 121667, Note_on_c, 0, 55, 60
2, 121667, Note_on_c, 0, 57, 63
2, 121688, Note_on_c, 0, 57, 0
2, 121688, Note_on_c, 0, 55, 0
2, 121689, Note_on_c, 0, 33, 0
2, 121689, Note_on_c, 0, 49, 0
2, 121689, Note_on_c, 0, 40, 0
2, 121740, Note_on_c, 0, 33, 63
2, 121740, Note_on_c, 0, 49, 60
2, 121740, Note_on_c, 0, 55, 59
2, 121740, Note_on_c, 0, 57, 60
2, 121741, Note_on_c, 0, 40, 63
2, 121762, Note_on_c, 0, 57, 0
2, 121762, Note_on_c, 0, 55, 0
2, 121763, Note_on_c, 0, 33, 0
2, 121764, Note_on_c, 0, 49, 0
2, 121764, Note_on_c, 0, 40, 0
2, 121817, Note_on_c, 0, 49, 77
2, 121818, Note_on_c, 0, 33, 78
2, 121818, Note_on_c, 0, 40, 71
2, 121819, Control_c, 0, 64, 0
2, 121827, Note_on_c, 0, 57, 71
2, 121828, Note_on_c, 0, 55, 72
2, 121851, Note_on_c, 0, 40, 0
2, 121851, Note_on_c, 0, 49, 0
2, 121852, Note_on_c, 0, 33, 0
2, 121862, Note_on_c, 0, 55, 0
2, 121862, Note_on_c, 0, 57, 0
2, 122026, Note_on_c, 0, 55, 82
2, 122027, Note_on_c, 0, 31, 82
2, 122058, Note_on_c, 0, 55, 0
2, 122059, Note_on_c, 0, 31, 0
2, 122111, Note_on_c, 0, 33, 81
2, 122111, Note_on_c, 0, 57, 78
2, 122142, Note_on_c, 0, 57, 0
2, 122143, Note_on_c, 0, 33, 0
2, 122208, Note_on_c, 0, 38, 81
2, 122208, Note_on_c, 0, 50, 85
2, 122208, Note_on_c, 0, 62, 84
2, 122209, Note_on_c, 0, 26, 85
2, 122396, Control_c, 0, 64, 127
2, 122592, Note_on_c, 0, 62, 0
2, 122678, Note_on_c, 0, 62, 54
2, 122679, Note_on_c, 0, 57, 59
2, 122679, Note_on_c, 0, 66, 56
2, 122679, Note_on_c, 0, 69, 52
2, 122680, Note_on_c, 0, 81, 57
2, 122680, Note_on_c, 0, 90, 55
2, 122680, Note_on_c, 0, 93, 59
2, 122681, Note_on_c, 0, 86, 57
2, 122700, Note_on_c, 0, 66, 0
2, 122700, Note_on_c, 0, 62, 0
2, 122700, Note_on_c, 0, 57, 0
2, 122701, Note_on_c, 0, 69, 0
2, 122711, Note_on_c, 0, 81, 0
2, 122712, Note_on_c, 0, 93, 0
2, 122712, Note_on_c, 0, 86, 0
2, 122712, Note_on_c, 0, 90, 0
2, 122790, Note_on_c, 0, 57, 58
2, 122790, Note_on_c, 0, 62, 58
2, 122790, Note_on_c, 0, 66, 59
2, 122791, Note_on_c, 0, 69, 53
2, 122801, Note_on_c, 0, 81, 55
2, 122801, Note_on_c, 0, 90, 54
2, 122802, Note_on_c, 0, 86, 58
2, 122802, Note_on_c, 0, 93, 57
2, 122809, Note_on_c, 0, 62, 0
2, 122809, Note_on_c, 0, 57, 0
2, 122810, Note_on_c, 0, 69, 0
2, 122810, Note_on_c, 0, 66, 0
2, 122821, Note_on_c, 0, 81, 0
2, 122822, Note_on_c, 0, 86, 0
2, 122822, Note_on_c, 0, 93, 0
2, 122822, Note_on_c, 0, 90, 0
2, 122893, Note_on_c, 0, 57, 75
2, 122893, Note_on_c, 0, 62, 73
2, 122893, Note_on_c, 0, 66, 67
2, 122893, Note_on_c, 0, 69, 72
2, 122894, Note_on_c, 0, 81, 66
2, 122894, Note_on_c, 0, 90, 69
2, 122895, Note_on_c, 0, 86, 68
2, 122895, Note_on_c, 0, 93, 67
2, 122914, Note_on_c, 0, 66, 0
2, 122915, Note_on_c, 0, 62, 0
2, 122916, Note_on_c, 0, 86, 0
2, 122916, Note_on_c, 0, 90, 0
2, 122964, Note_on_c, 0, 57, 0
2, 122965, Note_on_c, 0, 69, 0
2, 122976, Note_on_c, 0, 81, 0
2, 122976, Note_on_c, 0, 93, 0
2, 122983, Note_on_c, 0, 58, 76
2, 122983, Note_on_c, 0, 62, 79
2, 122983, Note_on_c, 0, 66, 73
2, 122983, Note_on_c, 0, 70, 77
2, 122984, Note_on_c, 0, 82, 77
2, 122985, Note_on_c, 0, 86, 74
2, 122985, Note_on_c, 0, 90, 75
2, 122985, Note_on_c, 0, 94, 73
2, 123003, Note_on_c, 0, 62, 0
2, 123003, Note_on_c, 0, 58, 0
2, 123004, Note_on_c, 0, 82, 0
2, 123004, Note_on_c, 0, 70, 0
2, 123004, Note_on_c, 0, 66, 0
2, 123006, Note_on_c, 0, 90, 0
2, 123006, Note_on_c, 0, 86, 0
2, 123006, Note_on_c, 0, 94, 0
2, 123058, Note_on_c, 0, 58, 86
2, 123058, Note_on_c, 0, 62, 87
2, 123058, Note_on_c, 0, 66, 86
2, 123059, Note_on_c, 0, 70, 81
2, 123059, Note_on_c, 0, 82, 87
2, 123060, Note_on_c, 0, 86, 82
2, 123060, Note_on_c, 0, 90, 82
2, 123060, Note_on_c, 0, 94, 80
2, 123078, Note_on_c, 0, 62, 0
2, 123079, Note_on_c, 0, 66, 0
2, 123081, Note_on_c, 0, 90, 0
2, 123081, Note_on_c, 0, 86, 0
2, 123115, Note_on_c, 0, 58, 0
2, 123116, Note_on_c, 0, 70, 0
2, 123121, Note_on_c, 0, 57, 82
2, 123121, Note_on_c, 0, 62, 84
2, 123121, Note_on_c, 0, 66, 80
2, 123121, Note_on_c, 0, 69, 82
2, 123124, Note_on_c, 0, 82, 0
2, 123125, Note_on_c, 0, 94, 0
2, 123131, Note_on_c, 0, 90, 81
2, 123132, Note_on_c, 0, 81, 82
2, 123132, Note_on_c, 0, 86, 84
2, 123132, Note_on_c, 0, 93, 80
2, 123141, Note_on_c, 0, 57, 0
2, 123141, Note_on_c, 0, 62, 0
2, 123142, Note_on_c, 0, 69, 0
2, 123142, Note_on_c, 0, 66, 0
2, 123151, Note_on_c, 0, 81, 0
2, 123152, Note_on_c, 0, 90, 0
2, 123152, Note_on_c, 0, 93, 0
2, 123152, Note_on_c, 0, 86, 0
2, 123188, Note_on_c, 0, 57, 79
2, 123198, Note_on_c, 0, 69, 81
2, 123199, Note_on_c, 0, 66, 86
2, 123199, Note_on_c, 0, 81, 83
2, 123199, Note_on_c, 0, 86, 80
2, 123200, Note_on_c, 0, 62, 80
2, 123200, Note_on_c, 0, 90, 80
2, 123200, Note_on_c, 0, 93, 82
2, 123219, Note_on_c, 0, 66, 0
2, 123220, Note_on_c, 0, 90, 0
2, 123220, Note_on_c, 0, 86, 0
2, 123220, Note_on_c, 0, 62, 0
2, 123266, Note_on_c, 0, 57, 0
2, 123267, Note_on_c, 0, 69, 0
2, 123267, Note_on_c, 0, 81, 0
2, 123269, Note_on_c, 0, 93, 0
2, 123274, Note_on_c, 0, 58, 81
2, 123274, Note_on_c, 0, 62, 80
2, 123274, Note_on_c, 0, 66, 76
2, 123275, Note_on_c, 0, 70, 82
2, 123275, Note_on_c, 0, 82, 82
2, 123276, Note_on_c, 0, 86, 78
2, 123276, Note_on_c, 0, 90, 78
2, 123277, Note_on_c, 0, 94, 77
2, 123294, Note_on_c, 0, 66, 0
2, 123294, Note_on_c, 0, 58, 0
2, 123294, Note_on_c, 0, 62, 0
2, 123295, Note_on_c, 0, 82, 0
2, 123295, Note_on_c, 0, 70, 0
2, 123297, Note_on_c, 0, 86, 0
2, 123297, Note_on_c, 0, 90, 0
2, 123297, Note_on_c, 0, 94, 0
2, 123350, Note_on_c, 0, 62, 85
2, 123350, Note_on_c, 0, 66, 84
2, 123351, Note_on_c, 0, 58, 87
2, 123351, Note_on_c, 0, 70, 83
2, 123351, Note_on_c, 0, 82, 82
2, 123352, Note_on_c, 0, 86, 85
2, 123353, Note_on_c, 0, 90, 84
2, 123353, Note_on_c, 0, 94, 88
2, 123370, Note_on_c, 0, 62, 0
2, 123371, Note_on_c, 0, 66, 0
2, 123373, Note_on_c, 0, 86, 0
2, 123373, Note_on_c, 0, 90, 0
2, 123418, Note_on_c, 0, 58, 0
2, 123419, Note_on_c, 0, 70, 0
2, 123420, Note_on_c, 0, 82, 0
2, 123422, Note_on_c, 0, 94, 0
2, 123427, Note_on_c, 0, 57, 95
2, 123427, Note_on_c, 0, 62, 101
2, 123428, Note_on_c, 0, 66, 95
2, 123428, Note_on_c, 0, 69, 98
2, 123429, Note_on_c, 0, 81, 100
2, 123430, Note_on_c, 0, 86, 102
2, 123430, Note_on_c, 0, 90, 102
2, 123430, Note_on_c, 0, 93, 101
2, 123448, Note_on_c, 0, 66, 0
2, 123448, Note_on_c, 0, 57, 0
2, 123448, Note_on_c, 0, 62, 0
2, 123449, Note_on_c, 0, 69, 0
2, 123450, Note_on_c, 0, 81, 0
2, 123451, Note_on_c, 0, 86, 0
2, 123451, Note_on_c, 0, 93, 0
2, 123452, Note_on_c, 0, 90, 0
2, 123507, Note_on_c, 0, 62, 99
2, 123508, Note_on_c, 0, 57, 99
2, 123508, Note_on_c, 0, 66, 98
2, 123508, Note_on_c, 0, 69, 103
2, 123509, Note_on_c, 0, 81, 97
2, 123510, Note_on_c, 0, 86, 103
2, 123510, Note_on_c, 0, 90, 99
2, 123510, Note_on_c, 0, 93, 100
2, 123528, Note_on_c, 0, 66, 0
2, 123528, Note_on_c, 0, 62, 0
2, 123531, Note_on_c, 0, 90, 0
2, 123531, Note_on_c, 0, 86, 0
2, 123591, Note_on_c, 0, 57, 0
2, 123592, Note_on_c, 0, 69, 0
2, 123593, Note_on_c, 0, 81, 0
2, 123595, Note_on_c, 0, 93, 0
2, 123600, Note_on_c, 0, 58, 99
2, 123600, Note_on_c, 0, 62, 106
2, 123600, Note_on_c, 0, 66, 100
2, 123601, Note_on_c, 0, 70, 103
2, 123602, Note_on_c, 0, 82, 106
2, 123603, Note_on_c, 0, 86, 105
2, 123603, Note_on_c, 0, 90, 100
2, 123603, Note_on_c, 0, 94, 101
2, 123621, Note_on_c, 0, 66, 0
2, 123621, Note_on_c, 0, 58, 0
2, 123621, Note_on_c, 0, 62, 0
2, 123622, Note_on_c, 0, 82, 0
2, 123622, Note_on_c, 0, 70, 0
2, 123624, Note_on_c, 0, 86, 0
2, 123624, Note_on_c, 0, 90, 0
2, 123624, Note_on_c, 0, 94, 0
2, 123679, Note_on_c, 0, 58, 105
2, 123679, Note_on_c, 0, 62, 103
2, 123679, Note_on_c, 0, 66, 105
2, 123680, Note_on_c, 0, 70, 105
2, 123680, Note_on_c, 0, 82, 105
2, 123681, Note_on_c, 0, 86, 107
2, 123682, Note_on_c, 0, 90, 101
2, 123682, Note_on_c, 0, 94, 102
2, 123698, Note_on_c, 0, 62, 0
2, 123699, Note_on_c, 0, 66, 0
2, 123701, Note_on_c, 0, 90, 0
2, 123701, Note_on_c, 0, 86, 0
2, 123738, Note_on_c, 0, 58, 0
2, 123739, Note_on_c, 0, 70, 0
2, 123740, Note_on_c, 0, 82, 0
2, 123741, Note_on_c, 0, 94, 0
2, 123744, Note_on_c, 0, 57, 102
2, 123744, Note_on_c, 0, 62, 103
2, 123744, Note_on_c, 0, 66, 102
2, 123745, Note_on_c, 0, 69, 107
2, 123746, Note_on_c, 0, 81, 108
2, 123746, Note_on_c, 0, 86, 104
2, 123746, Note_on_c, 0, 90, 103
2, 123747, Note_on_c, 0, 93, 109
2, 123766, Note_on_c, 0, 66, 0
2, 123766, Note_on_c, 0, 57, 0
2, 123766, Note_on_c, 0, 62, 0
2, 123767, Note_on_c, 0, 69, 0
2, 123768, Note_on_c, 0, 90, 0
2, 123768, Note_on_c, 0, 86, 0
2, 123768, Note_on_c, 0, 93, 0
2, 123768, Note_on_c, 0, 81, 0
2, 123820, Control_c, 0, 64, 0
2, 123830, Note_on_c, 0, 57, 107
2, 123830, Note_on_c, 0, 62, 109
2, 123830, Note_on_c, 0, 66, 108
2, 123830, Note_on_c, 0, 69, 104
2, 123832, Note_on_c, 0, 81, 106
2, 123832, Note_on_c, 0, 86, 111
2, 123832, Note_on_c, 0, 90, 109
2, 123832, Note_on_c, 0, 93, 110
2, 123879, Note_on_c, 0, 66, 0
2, 123881, Note_on_c, 0, 90, 0
2, 123959, Note_on_c, 0, 93, 0
2, 123963, Note_on_c, 0, 66, 92
2, 123964, Note_on_c, 0, 78, 98
2, 123965, Note_on_c, 0, 90, 95
2, 124031, Note_on_c, 0, 62, 0
2, 124032, Note_on_c, 0, 86, 0
2, 124039, Note_on_c, 0, 75, 92
2, 124040, Note_on_c, 0, 87, 95
2, 124042, Note_on_c, 0, 90, 0
2, 124048, Note_on_c, 0, 63, 88
2, 124103, Note_on_c, 0, 75, 0
2, 124104, Note_on_c, 0, 87, 0
2, 124108, Note_on_c, 0, 62, 93
2, 124110, Note_on_c, 0, 74, 89
2, 124111, Note_on_c, 0, 86, 87
2, 124128, Note_on_c, 0, 63, 0
2, 124175, Note_on_c, 0, 60, 91
2, 124176, Note_on_c, 0, 72, 86
2, 124176, Note_on_c, 0, 84, 90
2, 124190, Note_on_c, 0, 86, 0
2, 124235, Note_on_c, 0, 57, 0
2, 124236, Note_on_c, 0, 69, 0
2, 124238, Note_on_c, 0, 81, 0
2, 124246, Note_on_c, 0, 82, 85
2, 124255, Note_on_c, 0, 70, 87
2, 124264, Note_on_c, 0, 58, 86
2, 124267, Note_on_c, 0, 84, 0
2, 124306, Note_on_c, 0, 66, 0
2, 124317, Note_on_c, 0, 82, 0
2, 124317, Note_on_c, 0, 78, 0
2, 124324, Note_on_c, 0, 57, 86
2, 124325, Note_on_c, 0, 69, 85
2, 124326, Note_on_c, 0, 70, 0
2, 124326, Note_on_c, 0, 81, 86
2, 124393, Note_on_c, 0, 54, 76
2, 124393, Note_on_c, 0, 66, 85
2, 124395, Note_on_c, 0, 78, 83
2, 124422, Note_on_c, 0, 57, 0
2, 124425, Note_on_c, 0, 81, 0
2, 124452, Note_on_c, 0, 74, 0
2, 124457, Note_on_c, 0, 51, 72
2, 124458, Note_on_c, 0, 63, 72
2, 124459, Note_on_c, 0, 50, 0
2, 124459, Note_on_c, 0, 75, 76
2, 124460, Note_on_c, 0, 62, 0
2, 124480, Note_on_c, 0, 78, 0
2, 124522, Note_on_c, 0, 60, 0
2, 124524, Note_on_c, 0, 63, 0
2, 124525, Note_on_c, 0, 72, 0
2, 124525, Note_on_c, 0, 75, 0
2, 124532, Note_on_c, 0, 74, 76
2, 124537, Note_on_c, 0, 50, 73
2, 124538, Note_on_c, 0, 62, 76
2, 124599, Note_on_c, 0, 58, 0
2, 124601, Note_on_c, 0, 74, 0
2, 124607, Note_on_c, 0, 48, 73
2, 124607, Note_on_c, 0, 60, 70
2, 124608, Note_on_c, 0, 72, 71
2, 124629, Note_on_c, 0, 50, 0
2, 124670, Note_on_c, 0, 72, 0
2, 124670, Note_on_c, 0, 69, 0
2, 124680, Note_on_c, 0, 70, 73
2, 124686, Note_on_c, 0, 46, 72
2, 124687, Note_on_c, 0, 58, 75
2, 124709, Note_on_c, 0, 51, 0
2, 124729, Note_on_c, 0, 54, 0
2, 124742, Note_on_c, 0, 66, 0
2, 124751, Note_on_c, 0, 58, 0
2, 124752, Note_on_c, 0, 70, 0
2, 124758, Note_on_c, 0, 45, 68
2, 124759, Note_on_c, 0, 57, 69
2, 124760, Note_on_c, 0, 69, 73
2, 124781, Note_on_c, 0, 48, 0
2, 124781, Note_on_c, 0, 60, 0
2, 124782, Note_on_c, 0, 62, 0
2, 124789, Note_on_c, 0, 38, 0
2, 124817, Note_on_c, 0, 42, 86
2, 124819, Note_on_c, 0, 54, 84
2, 124819, Note_on_c, 0, 66, 74
2, 124828, Note_on_c, 0, 46, 0
2, 124838, Note_on_c, 0, 45, 0
2, 124851, Note_on_c, 0, 69, 0
2, 124859, Note_on_c, 0, 57, 0
2, 124859, Note_on_c, 0, 66, 0
2, 124867, Note_on_c, 0, 26, 0
2, 124868, Note_on_c, 0, 42, 0
2, 124869, Note_on_c, 0, 54, 0
2, 124875, Note_on_c, 0, 38, 83
2, 124876, Note_on_c, 0, 50, 86
2, 124877, Note_on_c, 0, 62, 79
2, 124908, Note_on_c, 0, 38, 0
2, 124909, Note_on_c, 0, 50, 0
2, 124910, Note_on_c, 0, 62, 0
2, 125041, Note_on_c, 0, 55, 82
2, 125048, Control_c, 0, 64, 127
2, 125050, Note_on_c, 0, 31, 83
2, 125051, Note_on_c, 0, 43, 84
2, 125207, Note_on_c, 0, 55, 0
2, 125292, Note_on_c, 0, 50, 63
2, 125292, Note_on_c, 0, 55, 66
2, 125293, Note_on_c, 0, 58, 63
2, 125293, Note_on_c, 0, 62, 63
2, 125293, Note_on_c, 0, 67, 59
2, 125294, Note_on_c, 0, 70, 60
2, 125294, Note_on_c, 0, 74, 60
2, 125295, Note_on_c, 0, 79, 66
2, 125313, Note_on_c, 0, 58, 0
2, 125313, Note_on_c, 0, 55, 0
2, 125313, Note_on_c, 0, 50, 0
2, 125314, Note_on_c, 0, 67, 0
2, 125314, Note_on_c, 0, 62, 0
2, 125315, Note_on_c, 0, 70, 0
2, 125316, Note_on_c, 0, 79, 0
2, 125316, Note_on_c, 0, 74, 0
2, 125360, Note_on_c, 0, 55, 65
2, 125369, Note_on_c, 0, 50, 66
2, 125370, Note_on_c, 0, 58, 60
2, 125370, Note_on_c, 0, 62, 65
2, 125370, Note_on_c, 0, 67, 69
2, 125371, Note_on_c, 0, 70, 68
2, 125372, Note_on_c, 0, 74, 68
2, 125373, Note_on_c, 0, 79, 68
2, 125380, Note_on_c, 0, 55, 0
2, 125390, Note_on_c, 0, 58, 0
2, 125390, Note_on_c, 0, 50, 0
2, 125390, Note_on_c, 0, 62, 0
2, 125391, Note_on_c, 0, 67, 0
2, 125392, Note_on_c, 0, 70, 0
2, 125392, Note_on_c, 0, 74, 0
2, 125393, Note_on_c, 0, 79, 0
2, 125449, Note_on_c, 0, 50, 71
2, 125449, Note_on_c, 0, 55, 75
2, 125449, Note_on_c, 0, 58, 73
2, 125449, Note_on_c, 0, 62, 76
2, 125450, Note_on_c, 0, 67, 77
2, 125451, Note_on_c, 0, 70, 81
2, 125451, Note_on_c, 0, 74, 81
2, 125452, Note_on_c, 0, 79, 81
2, 125456, Control_c, 0, 64, 0
2, 125558, Note_on_c, 0, 58, 0
2, 125558, Note_on_c, 0, 55, 0
2, 125558, Note_on_c, 0, 50, 0
2, 125559, Note_on_c, 0, 67, 0
2, 125559, Note_on_c, 0, 62, 0
2, 125561, Note_on_c, 0, 70, 0
2, 125561, Note_on_c, 0, 74, 0
2, 125562, Note_on_c, 0, 79, 0
2, 125575, Note_on_c, 0, 31, 0
2, 125575, Note_on_c, 0, 43, 0
2, 125614, Note_on_c, 0, 57, 71
2, 125632, Note_on_c, 0, 45, 75
2, 125655, Note_on_c, 0, 57, 0
2, 125663, Note_on_c, 0, 45, 0
2, 125700, Note_on_c, 0, 46, 78
2, 125702, Note_on_c, 0, 58, 77
2, 125731, Note_on_c, 0, 46, 0
2, 125733, Note_on_c, 0, 58, 0
2, 125771, Note_on_c, 0, 38, 77
2, 125774, Note_on_c, 0, 50, 82
2, 125774, Note_on_c, 0, 62, 79
2, 125833, Control_c, 0, 64, 127
2, 125858, Note_on_c, 0, 62, 0
2, 125951, Note_on_c, 0, 55, 64
2, 125951, Note_on_c, 0, 62, 65
2, 125952, Note_on_c, 0, 58, 64
2, 125952, Note_on_c, 0, 67, 47
2, 125952, Note_on_c, 0, 70, 46
2, 125952, Note_on_c, 0, 74, 47
2, 125972, Note_on_c, 0, 55, 0
2, 125973, Note_on_c, 0, 58, 0
2, 125973, Note_on_c, 0, 67, 0
2, 125974, Note_on_c, 0, 70, 0
2, 126020, Note_on_c, 0, 62, 0
2, 126022, Note_on_c, 0, 74, 0
2, 126026, Note_on_c, 0, 55, 74
2, 126027, Note_on_c, 0, 58, 78
2, 126027, Note_on_c, 0, 63, 74
2, 126027, Note_on_c, 0, 67, 62
2, 126028, Note_on_c, 0, 70, 60
2, 126028, Note_on_c, 0, 75, 56
2, 126047, Note_on_c, 0, 58, 0
2, 126047, Note_on_c, 0, 55, 0
2, 126048, Note_on_c, 0, 67, 0
2, 126048, Note_on_c, 0, 63, 0
2, 126048, Note_on_c, 0, 70, 0
2, 126049, Note_on_c, 0, 75, 0
2, 126092, Note_on_c, 0, 55, 75
2, 126093, Note_on_c, 0, 58, 75
2, 126093, Note_on_c, 0, 67, 76
2, 126094, Note_on_c, 0, 63, 79
2, 126094, Note_on_c, 0, 70, 80
2, 126095, Note_on_c, 0, 75, 76
2, 126112, Note_on_c, 0, 55, 0
2, 126113, Note_on_c, 0, 67, 0
2, 126113, Note_on_c, 0, 58, 0
2, 126114, Note_on_c, 0, 70, 0
2, 126148, Note_on_c, 0, 38, 0
2, 126150, Note_on_c, 0, 50, 0
2, 126151, Note_on_c, 0, 63, 0
2, 126157, Control_c, 0, 64, 0
2, 126162, Note_on_c, 0, 75, 0
2, 126168, Note_on_c, 0, 55, 78
2, 126168, Note_on_c, 0, 58, 80
2, 126168, Note_on_c, 0, 64, 81
2, 126168, Note_on_c, 0, 67, 83
2, 126168, Note_on_c, 0, 70, 80
2, 126169, Note_on_c, 0, 76, 83
2, 126187, Note_on_c, 0, 55, 0
2, 126188, Note_on_c, 0, 67, 0
2, 126188, Note_on_c, 0, 58, 0
2, 126188, Note_on_c, 0, 64, 0
2, 126189, Note_on_c, 0, 70, 0
2, 126190, Note_on_c, 0, 76, 0
2, 126248, Note_on_c, 0, 55, 84
2, 126248, Note_on_c, 0, 64, 88
2, 126248, Note_on_c, 0, 67, 86
2, 126249, Note_on_c, 0, 58, 83
2, 126250, Note_on_c, 0, 70, 85
2, 126250, Note_on_c, 0, 76, 83
2, 126288, Note_on_c, 0, 55, 0
2, 126289, Note_on_c, 0, 58, 0
2, 126290, Note_on_c, 0, 67, 0
2, 126291, Note_on_c, 0, 70, 0
2, 126299, Note_on_c, 0, 64, 0
2, 126312, Note_on_c, 0, 76, 0
2, 126373, Control_c, 0, 64, 127
2, 126436, Note_on_c, 0, 55, 45
2, 126442, Note_on_c, 0, 31, 42
2, 126452, Control_c, 0, 64, 0
2, 126453, Note_on_c, 0, 43, 44
2, 126641, Control_c, 0, 64, 127
2, 126674, Note_on_c, 0, 50, 60
2, 126674, Note_on_c, 0, 53, 64
2, 126675, Note_on_c, 0, 58, 66
2, 126684, Note_on_c, 0, 62, 60
2, 126684, Note_on_c, 0, 65, 60
2, 126685, Note_on_c, 0, 70, 65
2, 126685, Note_on_c, 0, 74, 60
2, 126686, Note_on_c, 0, 77, 59
2, 126694, Note_on_c, 0, 53, 0
2, 126694, Note_on_c, 0, 50, 0
2, 126695, Note_on_c, 0, 58, 0
2, 126703, Note_on_c, 0, 62, 0
2, 126704, Note_on_c, 0, 65, 0
2, 126705, Note_on_c, 0, 70, 0
2, 126705, Note_on_c, 0, 74, 0
2, 126707, Note_on_c, 0, 77, 0
2, 126738, Note_on_c, 0, 50, 63
2, 126739, Note_on_c, 0, 53, 60
2, 126739, Note_on_c, 0, 58, 63
2, 126747, Note_on_c, 0, 62, 62
2, 126748, Note_on_c, 0, 65, 59
2, 126749, Note_on_c, 0, 70, 65
2, 126750, Note_on_c, 0, 74, 63
2, 126750, Note_on_c, 0, 77, 62
2, 126758, Note_on_c, 0, 53, 0
2, 126758, Note_on_c, 0, 50, 0
2, 126759, Note_on_c, 0, 58, 0
2, 126768, Note_on_c, 0, 65, 0
2, 126768, Note_on_c, 0, 62, 0
2, 126769, Note_on_c, 0, 70, 0
2, 126769, Note_on_c, 0, 74, 0
2, 126770, Note_on_c, 0, 77, 0
2, 126814, Note_on_c, 0, 50, 72
2, 126814, Note_on_c, 0, 53, 72
2, 126815, Note_on_c, 0, 58, 75
2, 126815, Note_on_c, 0, 62, 77
2, 126815, Note_on_c, 0, 65, 76
2, 126816, Note_on_c, 0, 70, 76
2, 126816, Note_on_c, 0, 74, 72
2, 126816, Note_on_c, 0, 77, 77
2, 126840, Control_c, 0, 64, 0
2, 126920, Note_on_c, 0, 53, 0
2, 126920, Note_on_c, 0, 55, 0
2, 126921, Note_on_c, 0, 65, 0
2, 126921, Note_on_c, 0, 50, 0
2, 126921, Note_on_c, 0, 62, 0
2, 126921, Note_on_c, 0, 58, 0
2, 126922, Note_on_c, 0, 70, 0
2, 126923, Note_on_c, 0, 74, 0
2, 126923, Note_on_c, 0, 77, 0
2, 126929, Note_on_c, 0, 31, 0
2, 126938, Note_on_c, 0, 43, 0
2, 127000, Note_on_c, 0, 45, 75
2, 127001, Note_on_c, 0, 57, 73
2, 127030, Note_on_c, 0, 45, 0
2, 127031, Note_on_c, 0, 57, 0
2, 127065, Note_on_c, 0, 46, 78
2, 127067, Note_on_c, 0, 58, 71
2, 127073, Control_c, 0, 64, 127
2, 127096, Note_on_c, 0, 46, 0
2, 127097, Note_on_c, 0, 58, 0
2, 127122, Note_on_c, 0, 38, 83
2, 127124, Note_on_c, 0, 50, 82
2, 127125, Note_on_c, 0, 62, 81
2, 127160, Control_c, 0, 64, 0
2, 127279, Control_c, 0, 64, 127
2, 127282, Note_on_c, 0, 55, 60
2, 127282, Note_on_c, 0, 60, 67
2, 127283, Note_on_c, 0, 58, 66
2, 127283, Note_on_c, 0, 67, 43
2, 127284, Note_on_c, 0, 70, 49
2, 127285, Note_on_c, 0, 72, 46
2, 127303, Note_on_c, 0, 58, 0
2, 127303, Note_on_c, 0, 55, 0
2, 127304, Note_on_c, 0, 67, 0
2, 127305, Note_on_c, 0, 70, 0
2, 127342, Note_on_c, 0, 60, 0
2, 127344, Note_on_c, 0, 72, 0
2, 127349, Note_on_c, 0, 55, 78
2, 127349, Note_on_c, 0, 58, 77
2, 127349, Note_on_c, 0, 67, 55
2, 127350, Note_on_c, 0, 61, 75
2, 127351, Note_on_c, 0, 70, 61
2, 127351, Note_on_c, 0, 73, 54
2, 127368, Note_on_c, 0, 55, 0
2, 127369, Note_on_c, 0, 58, 0
2, 127370, Note_on_c, 0, 61, 0
2, 127370, Note_on_c, 0, 67, 0
2, 127371, Note_on_c, 0, 70, 0
2, 127371, Note_on_c, 0, 73, 0
2, 127410, Note_on_c, 0, 62, 0
2, 127427, Note_on_c, 0, 55, 74
2, 127427, Note_on_c, 0, 58, 78
2, 127427, Note_on_c, 0, 61, 74
2, 127427, Note_on_c, 0, 67, 78
2, 127429, Note_on_c, 0, 70, 78
2, 127429, Note_on_c, 0, 73, 77
2, 127447, Note_on_c, 0, 55, 0
2, 127448, Note_on_c, 0, 58, 0
2, 127449, Note_on_c, 0, 67, 0
2, 127450, Note_on_c, 0, 70, 0
2, 127488, Note_on_c, 0, 61, 0
2, 127489, Note_on_c, 0, 73, 0
2, 127494, Note_on_c, 0, 55, 73
2, 127494, Note_on_c, 0, 58, 78
2, 127494, Note_on_c, 0, 62, 77
2, 127495, Note_on_c, 0, 67, 80
2, 127496, Note_on_c, 0, 70, 78
2, 127496, Note_on_c, 0, 74, 78
2, 127503, Control_c, 0, 64, 0
2, 127514, Note_on_c, 0, 38, 0
2, 127516, Note_on_c, 0, 62, 0
2, 127516, Note_on_c, 0, 50, 0
2, 127516, Note_on_c, 0, 58, 0
2, 127516, Note_on_c, 0, 55, 0
2, 127517, Note_on_c, 0, 67, 0
2, 127518, Note_on_c, 0, 70, 0
2, 127518, Note_on_c, 0, 74, 0
2, 127564, Note_on_c, 0, 55, 84
2, 127564, Note_on_c, 0, 58, 81
2, 127564, Note_on_c, 0, 62, 78
2, 127564, Note_on_c, 0, 67, 78
2, 127565, Note_on_c, 0, 70, 80
2, 127566, Note_on_c, 0, 74, 78
2, 127614, Note_on_c, 0, 55, 0
2, 127615, Note_on_c, 0, 67, 0
2, 127615, Note_on_c, 0, 58, 0
2, 127617, Note_on_c, 0, 70, 0
2, 127625, Note_on_c, 0, 62, 0
2, 127627, Note_on_c, 0, 74, 0
2, 127688, Control_c, 0, 64, 127
2, 127752, Note_on_c, 0, 55, 82
2, 127760, Note_on_c, 0, 31, 81
2, 127761, Note_on_c, 0, 43, 79
2, 127834, Note_on_c, 0, 55, 0
2, 127929, Note_on_c, 0, 67, 62
2, 127930, Note_on_c, 0, 55, 65
2, 127930, Note_on_c, 0, 58, 59
2, 127931, Note_on_c, 0, 63, 59
2, 127931, Note_on_c, 0, 70, 63
2, 127931, Note_on_c, 0, 75, 61
2, 127952, Note_on_c, 0, 58, 0
2, 127952, Note_on_c, 0, 55, 0
2, 127953, Note_on_c, 0, 67, 0
2, 127954, Note_on_c, 0, 63, 0
2, 127954, Note_on_c, 0, 75, 0
2, 127954, Note_on_c, 0, 70, 0
2, 127986, Control_c, 0, 64, 0
2, 128010, Note_on_c, 0, 55, 60
2, 128010, Note_on_c, 0, 58, 64
2, 128010, Note_on_c, 0, 67, 65
2, 128011, Note_on_c, 0, 63, 61
2, 128011, Note_on_c, 0, 70, 62
2, 128011, Note_on_c, 0, 75, 61
2, 128032, Note_on_c, 0, 67, 0
2, 128032, Note_on_c, 0, 58, 0
2, 128032, Note_on_c, 0, 55, 0
2, 128033, Note_on_c, 0, 63, 0
2, 128033, Note_on_c, 0, 75, 0
2, 128033, Note_on_c, 0, 70, 0
2, 128082, Note_on_c, 0, 55, 78
2, 128083, Note_on_c, 0, 58, 72
2, 128083, Note_on_c, 0, 63, 72
2, 128083, Note_on_c, 0, 67, 76
2, 128083, Note_on_c, 0, 70, 75
2, 128083, Note_on_c, 0, 75, 73
2, 128102, Note_on_c, 0, 43, 0
2, 128102, Note_on_c, 0, 31, 0
2, 128112, Note_on_c, 0, 67, 0
2, 128112, Note_on_c, 0, 55, 0
2, 128112, Note_on_c, 0, 63, 0
2, 128112, Note_on_c, 0, 75, 0
2, 128112, Note_on_c, 0, 70, 0
2, 128112, Note_on_c, 0, 58, 0
2, 128240, Note_on_c, 0, 51, 76
2, 128241, Note_on_c, 0, 63, 75
2, 128282, Note_on_c, 0, 51, 0
2, 128283, Note_on_c, 0, 63, 0
2, 128381, Control_c, 0, 64, 127
2, 128423, Note_on_c, 0, 31, 46
2, 128424, Note_on_c, 0, 43, 44
2, 128424, Note_on_c, 0, 55, 44
2, 128485, Note_on_c, 0, 55, 0
2, 128582, Note_on_c, 0, 55, 54
2, 128583, Note_on_c, 0, 52, 55
2, 128583, Note_on_c, 0, 58, 60
2, 128583, Note_on_c, 0, 62, 57
2, 128584, Note_on_c, 0, 70, 61
2, 128584, Note_on_c, 0, 74, 55
2, 128603, Note_on_c, 0, 62, 0
2, 128603, Note_on_c, 0, 52, 0
2, 128603, Note_on_c, 0, 55, 0
2, 128603, Note_on_c, 0, 58, 0
2, 128604, Note_on_c, 0, 70, 0
2, 128605, Note_on_c, 0, 74, 0
2, 128651, Note_on_c, 0, 52, 73
2, 128651, Note_on_c, 0, 55, 79
2, 128651, Note_on_c, 0, 58, 73
2, 128651, Note_on_c, 0, 62, 72
2, 128652, Note_on_c, 0, 70, 60
2, 128652, Note_on_c, 0, 74, 59
2, 128672, Note_on_c, 0, 62, 0
2, 128672, Note_on_c, 0, 55, 0
2, 128672, Note_on_c, 0, 52, 0
2, 128672, Note_on_c, 0, 58, 0
2, 128673, Note_on_c, 0, 74, 0
2, 128674, Note_on_c, 0, 70, 0
2, 128680, Control_c, 0, 64, 0
2, 128737, Note_on_c, 0, 52, 75
2, 128737, Note_on_c, 0, 55, 71
2, 128737, Note_on_c, 0, 58, 72
2, 128737, Note_on_c, 0, 62, 73
2, 128738, Note_on_c, 0, 70, 77
2, 128738, Note_on_c, 0, 74, 72
2, 128758, Note_on_c, 0, 31, 0
2, 128759, Note_on_c, 0, 43, 0
2, 128760, Note_on_c, 0, 58, 0
2, 128768, Note_on_c, 0, 55, 0
2, 128768, Note_on_c, 0, 52, 0
2, 128769, Note_on_c, 0, 62, 0
2, 128770, Note_on_c, 0, 74, 0
2, 128770, Note_on_c, 0, 70, 0
2, 128897, Note_on_c, 0, 52, 82
2, 128897, Note_on_c, 0, 64, 77
2, 128939, Note_on_c, 0, 64, 0
2, 128939, Note_on_c, 0, 52, 0
2, 129026, Control_c, 0, 64, 127
2, 129068, Note_on_c, 0, 55, 80
2, 129075, Note_on_c, 0, 31, 83
2, 129076, Note_on_c, 0, 43, 80
2, 129138, Note_on_c, 0, 55, 0
2, 129225, Note_on_c, 0, 53, 63
2, 129225, Note_on_c, 0, 55, 60
2, 129225, Note_on_c, 0, 58, 66
2, 129225, Note_on_c, 0, 61, 60
2, 129226, Note_on_c, 0, 70, 60
2, 129226, Note_on_c, 0, 73, 64
2, 129246, Note_on_c, 0, 61, 0
2, 129246, Note_on_c, 0, 55, 0
2, 129246, Note_on_c, 0, 53, 0
2, 129246, Note_on_c, 0, 58, 0
2, 129247, Note_on_c, 0, 73, 0
2, 129248, Note_on_c, 0, 70, 0
2, 129305, Note_on_c, 0, 53, 66
2, 129305, Note_on_c, 0, 55, 67
2, 129305, Note_on_c, 0, 58, 65
2, 129305, Note_on_c, 0, 61, 61
2, 129306, Note_on_c, 0, 70, 65
2, 129306, Note_on_c, 0, 73, 66
2, 129325, Note_on_c, 0, 61, 0
2, 129325, Note_on_c, 0, 55, 0
2, 129325, Note_on_c, 0, 53, 0
2, 129325, Note_on_c, 0, 58, 0
2, 129326, Note_on_c, 0, 73, 0
2, 129327, Note_on_c, 0, 70, 0
2, 129333, Control_c, 0, 64, 0
2, 129373, Note_on_c, 0, 53, 65
2, 129373, Note_on_c, 0, 55, 71
2, 129373, Note_on_c, 0, 58, 65
2, 129373, Note_on_c, 0, 61, 72
2, 129374, Note_on_c, 0, 70, 65
2, 129374, Note_on_c, 0, 73, 71
2, 129393, Note_on_c, 0, 43, 0
2, 129393, Note_on_c, 0, 31, 0
2, 129402, Note_on_c, 0, 55, 0
2, 129403, Note_on_c, 0, 53, 0
2, 129403, Note_on_c, 0, 58, 0
2, 129403, Note_on_c, 0, 61, 0
2, 129404, Note_on_c, 0, 73, 0
2, 129404, Note_on_c, 0, 70, 0
2, 129516, Note_on_c, 0, 53, 78
2, 129517, Note_on_c, 0, 65, 80
2, 129550, Note_on_c, 0, 53, 0
2, 129570, Note_on_c, 0, 65, 0
2, 129681, Note_on_c, 0, 31, 71
2, 129681, Note_on_c, 0, 43, 77
2, 129682, Note_on_c, 0, 55, 78
2, 129713, Note_on_c, 0, 43, 0
2, 129713, Note_on_c, 0, 31, 0
2, 129714, Note_on_c, 0, 55, 0
2, 129829, Note_on_c, 0, 57, 57
2, 129829, Note_on_c, 0, 60, 54
2, 129830, Note_on_c, 0, 54, 59
2, 129839, Note_on_c, 0, 66, 71
2, 129840, Note_on_c, 0, 69, 76
2, 129840, Note_on_c, 0, 72, 72
2, 129859, Note_on_c, 0, 54, 0
2, 129859, Note_on_c, 0, 60, 0
2, 129860, Note_on_c, 0, 57, 0
2, 129870, Note_on_c, 0, 69, 0
2, 129870, Note_on_c, 0, 72, 0
2, 129900, Note_on_c, 0, 66, 0
2, 129991, Note_on_c, 0, 55, 77
2, 129999, Note_on_c, 0, 43, 77
2, 130010, Note_on_c, 0, 31, 77
2, 130022, Note_on_c, 0, 55, 0
2, 130032, Note_on_c, 0, 43, 0
2, 130043, Note_on_c, 0, 31, 0
2, 130147, Note_on_c, 0, 55, 67
2, 130147, Note_on_c, 0, 59, 67
2, 130147, Note_on_c, 0, 62, 66
2, 130147, Note_on_c, 0, 65, 78
2, 130147, Note_on_c, 0, 67, 72
2, 130148, Note_on_c, 0, 53, 61
2, 130148, Note_on_c, 0, 71, 74
2, 130176, Note_on_c, 0, 71, 0
2, 130176, Note_on_c, 0, 65, 0
2, 130176, Note_on_c, 0, 59, 0
2, 130176, Note_on_c, 0, 62, 0
2, 130176, Note_on_c, 0, 55, 0
2, 130176, Note_on_c, 0, 53, 0
2, 130202, Note_on_c, 0, 67, 0
2, 130293, Control_c, 0, 64, 127
2, 130303, Note_on_c, 0, 31, 86
2, 130303, Note_on_c, 0, 43, 83
2, 130303, Note_on_c, 0, 55, 79
2, 130383, Note_on_c, 0, 55, 0
2, 130471, Note_on_c, 0, 51, 69
2, 130471, Note_on_c, 0, 55, 70
2, 130471, Note_on_c, 0, 60, 65
2, 130471, Note_on_c, 0, 67, 63
2, 130472, Note_on_c, 0, 63, 70
2, 130472, Note_on_c, 0, 72, 63
2, 130490, Note_on_c, 0, 60, 0
2, 130491, Note_on_c, 0, 55, 0
2, 130491, Note_on_c, 0, 51, 0
2, 130491, Note_on_c, 0, 67, 0
2, 130492, Note_on_c, 0, 63, 0
2, 130492, Note_on_c, 0, 72, 0
2, 130549, Note_on_c, 0, 51, 65
2, 130549, Note_on_c, 0, 55, 70
2, 130549, Note_on_c, 0, 60, 70
2, 130549, Note_on_c, 0, 67, 65
2, 130550, Note_on_c, 0, 63, 67
2, 130550, Note_on_c, 0, 72, 63
2, 130568, Note_on_c, 0, 60, 0
2, 130568, Control_c, 0, 64, 0
2, 130569, Note_on_c, 0, 55, 0
2, 130569, Note_on_c, 0, 51, 0
2, 130569, Note_on_c, 0, 67, 0
2, 130570, Note_on_c, 0, 63, 0
2, 130570, Note_on_c, 0, 72, 0
2, 130614, Note_on_c, 0, 60, 74
2, 130615, Note_on_c, 0, 51, 81
2, 130615, Note_on_c, 0, 55, 81
2, 130615, Note_on_c, 0, 67, 79
2, 130615, Note_on_c, 0, 72, 79
2, 130616, Note_on_c, 0, 63, 76
2, 130634, Note_on_c, 0, 31, 0
2, 130635, Note_on_c, 0, 43, 0
2, 130644, Note_on_c, 0, 51, 0
2, 130644, Note_on_c, 0, 55, 0
2, 130644, Note_on_c, 0, 60, 0
2, 130645, Note_on_c, 0, 63, 0
2, 130645, Note_on_c, 0, 72, 0
2, 130645, Note_on_c, 0, 67, 0
2, 130774, Note_on_c, 0, 47, 67
2, 130784, Note_on_c, 0, 59, 65
2, 130845, Control_c, 0, 64, 127
2, 130846, Note_on_c, 0, 59, 0
2, 130846, Note_on_c, 0, 47, 0
2, 130854, Note_on_c, 0, 60, 67
2, 130855, Note_on_c, 0, 48, 72
2, 130896, Note_on_c, 0, 60, 0
2, 130897, Note_on_c, 0, 48, 0
2, 130905, Note_on_c, 0, 39, 77
2, 130905, Note_on_c, 0, 51, 77
2, 130906, Note_on_c, 0, 63, 80
2, 130927, Control_c, 0, 64, 0
2, 130938, Note_on_c, 0, 39, 0
2, 130992, Note_on_c, 0, 63, 0
2, 130992, Note_on_c, 0, 51, 0
2, 131082, Control_c, 0, 64, 127
2, 131090, Note_on_c, 0, 60, 43
2, 131090, Note_on_c, 0, 67, 47
2, 131091, Note_on_c, 0, 51, 49
2, 131091, Note_on_c, 0, 63, 44
2, 131100, Note_on_c, 0, 55, 49
2, 131112, Note_on_c, 0, 63, 0
2, 131112, Note_on_c, 0, 51, 0
2, 131112, Note_on_c, 0, 60, 0
2, 131153, Note_on_c, 0, 67, 0
2, 131153, Note_on_c, 0, 55, 0
2, 131161, Note_on_c, 0, 51, 47
2, 131161, Note_on_c, 0, 56, 49
2, 131161, Note_on_c, 0, 60, 46
2, 131162, Note_on_c, 0, 63, 43
2, 131162, Note_on_c, 0, 68, 57
2, 131183, Note_on_c, 0, 60, 0
2, 131184, Note_on_c, 0, 63, 0
2, 131184, Note_on_c, 0, 51, 0
2, 131184, Note_on_c, 0, 56, 0
2, 131184, Note_on_c, 0, 68, 0
2, 131230, Note_on_c, 0, 60, 67
2, 131231, Note_on_c, 0, 51, 64
2, 131231, Note_on_c, 0, 56, 63
2, 131232, Note_on_c, 0, 63, 68
2, 131232, Note_on_c, 0, 68, 75
2, 131252, Note_on_c, 0, 60, 0
2, 131253, Note_on_c, 0, 51, 0
2, 131254, Note_on_c, 0, 63, 0
2, 131291, Note_on_c, 0, 57, 86
2, 131293, Note_on_c, 0, 56, 0
2, 131294, Note_on_c, 0, 68, 0
2, 131300, Note_on_c, 0, 60, 86
2, 131301, Note_on_c, 0, 51, 79
2, 131301, Note_on_c, 0, 69, 81
2, 131302, Note_on_c, 0, 63, 80
2, 131303, Control_c, 0, 64, 0
2, 131321, Note_on_c, 0, 60, 0
2, 131322, Note_on_c, 0, 69, 0
2, 131322, Note_on_c, 0, 57, 0
2, 131322, Note_on_c, 0, 51, 0
2, 131323, Note_on_c, 0, 63, 0
2, 131380, Note_on_c, 0, 51, 84
2, 131380, Note_on_c, 0, 57, 85
2, 131380, Note_on_c, 0, 60, 84
2, 131381, Note_on_c, 0, 63, 86
2, 131381, Note_on_c, 0, 69, 86
2, 131411, Note_on_c, 0, 60, 0
2, 131411, Note_on_c, 0, 51, 0
2, 131411, Note_on_c, 0, 57, 0
2, 131412, Note_on_c, 0, 63, 0
2, 131412, Note_on_c, 0, 69, 0
2, 131550, Note_on_c, 0, 31, 78
2, 131550, Note_on_c, 0, 43, 79
2, 131550, Note_on_c, 0, 55, 77
2, 131602, Control_c, 0, 64, 127
2, 131712, Note_on_c, 0, 51, 57
2, 131712, Note_on_c, 0, 58, 56
2, 131713, Note_on_c, 0, 63, 55
2, 131713, Note_on_c, 0, 70, 57
2, 131734, Note_on_c, 0, 58, 0
2, 131734, Note_on_c, 0, 51, 0
2, 131735, Note_on_c, 0, 63, 0
2, 131735, Note_on_c, 0, 70, 0
2, 131793, Note_on_c, 0, 51, 54
2, 131793, Note_on_c, 0, 58, 58
2, 131794, Note_on_c, 0, 63, 58
2, 131794, Note_on_c, 0, 70, 55
2, 131814, Note_on_c, 0, 58, 0
2, 131814, Note_on_c, 0, 51, 0
2, 131815, Note_on_c, 0, 63, 0
2, 131815, Note_on_c, 0, 70, 0
2, 131865, Control_c, 0, 64, 0
2, 131865, Note_on_c, 0, 51, 76
2, 131865, Note_on_c, 0, 58, 78
2, 131865, Note_on_c, 0, 63, 72
2, 131865, Note_on_c, 0, 70, 76
2, 131947, Note_on_c, 0, 63, 0
2, 131947, Note_on_c, 0, 51, 0
2, 131947, Note_on_c, 0, 58, 0
2, 131948, Note_on_c, 0, 70, 0
2, 131955, Note_on_c, 0, 55, 0
2, 131955, Note_on_c, 0, 43, 0
2, 132018, Note_on_c, 0, 31, 0
2, 132025, Note_on_c, 0, 45, 59
2, 132025, Note_on_c, 0, 57, 63
2, 132056, Note_on_c, 0, 57, 0
2, 132056, Note_on_c, 0, 45, 0
2, 132074, Note_on_c, 0, 46, 69
2, 132085, Control_c, 0, 64, 127
2, 132096, Note_on_c, 0, 58, 69
2, 132107, Note_on_c, 0, 46, 0
2, 132127, Note_on_c, 0, 58, 0
2, 132146, Note_on_c, 0, 63, 82
2, 132154, Note_on_c, 0, 51, 82
2, 132155, Note_on_c, 0, 39, 82
2, 132156, Control_c, 0, 64, 0
2, 132186, Note_on_c, 0, 39, 0
2, 132216, Note_on_c, 0, 51, 0
2, 132216, Note_on_c, 0, 63, 0
2, 132304, Control_c, 0, 64, 127
2, 132314, Note_on_c, 0, 51, 49
2, 132314, Note_on_c, 0, 53, 48
2, 132314, Note_on_c, 0, 60, 49
2, 132315, Note_on_c, 0, 63, 48
2, 132315, Note_on_c, 0, 65, 43
2, 132335, Note_on_c, 0, 60, 0
2, 132336, Note_on_c, 0, 63, 0
2, 132336, Note_on_c, 0, 51, 0
2, 132344, Note_on_c, 0, 53, 0
2, 132345, Note_on_c, 0, 65, 0
2, 132384, Note_on_c, 0, 51, 59
2, 132384, Note_on_c, 0, 54, 59
2, 132384, Note_on_c, 0, 60, 61
2, 132384, Note_on_c, 0, 63, 55
2, 132384, Note_on_c, 0, 66, 57
2, 132405, Note_on_c, 0, 54, 0
2, 132406, Note_on_c, 0, 63, 0
2, 132406, Note_on_c, 0, 51, 0
2, 132406, Note_on_c, 0, 60, 0
2, 132406, Note_on_c, 0, 66, 0
2, 132456, Note_on_c, 0, 51, 77
2, 132456, Note_on_c, 0, 60, 76
2, 132456, Note_on_c, 0, 54, 76
2, 132456, Note_on_c, 0, 63, 72
2, 132456, Note_on_c, 0, 66, 74
2, 132477, Note_on_c, 0, 60, 0
2, 132477, Note_on_c, 0, 51, 0
2, 132479, Note_on_c, 0, 63, 0
2, 132487, Note_on_c, 0, 54, 0
2, 132487, Note_on_c, 0, 66, 0
2, 132541, Note_on_c, 0, 60, 80
2, 132542, Note_on_c, 0, 51, 78
2, 132542, Note_on_c, 0, 55, 79
2, 132542, Note_on_c, 0, 67, 80
2, 132543, Note_on_c, 0, 63, 79
2, 132563, Note_on_c, 0, 55, 0
2, 132563, Note_on_c, 0, 60, 0
2, 132564, Note_on_c, 0, 51, 0
2, 132564, Note_on_c, 0, 67, 0
2, 132565, Note_on_c, 0, 63, 0
2, 132574, Control_c, 0, 64, 0
2, 132624, Note_on_c, 0, 55, 87
2, 132624, Note_on_c, 0, 51, 84
2, 132624, Note_on_c, 0, 60, 85
2, 132624, Note_on_c, 0, 67, 81
2, 132625, Note_on_c, 0, 63, 86
2, 132655, Note_on_c, 0, 67, 0
2, 132655, Note_on_c, 0, 60, 0
2, 132655, Note_on_c, 0, 55, 0
2, 132655, Note_on_c, 0, 51, 0
2, 132656, Note_on_c, 0, 63, 0
2, 132772, Note_on_c, 0, 55, 83
2, 132782, Note_on_c, 0, 31, 80
2, 132782, Note_on_c, 0, 43, 81
2, 132885, Control_c, 0, 64, 127
2, 132927, Note_on_c, 0, 55, 0
2, 132935, Note_on_c, 0, 51, 58
2, 132935, Note_on_c, 0, 56, 59
2, 132935, Note_on_c, 0, 60, 55
2, 132936, Note_on_c, 0, 63, 60
2, 132936, Note_on_c, 0, 68, 58
2, 132957, Note_on_c, 0, 60, 0
2, 132957, Note_on_c, 0, 56, 0
2, 132958, Note_on_c, 0, 63, 0
2, 132958, Note_on_c, 0, 51, 0
2, 132958, Note_on_c, 0, 68, 0
2, 133007, Note_on_c, 0, 56, 60
2, 133007, Note_on_c, 0, 60, 60
2, 133008, Note_on_c, 0, 51, 59
2, 133008, Note_on_c, 0, 63, 55
2, 133008, Note_on_c, 0, 68, 42
2, 133028, Note_on_c, 0, 60, 0
2, 133029, Note_on_c, 0, 63, 0
2, 133029, Note_on_c, 0, 51, 0
2, 133029, Note_on_c, 0, 56, 0
2, 133029, Note_on_c, 0, 68, 0
2, 133030, Control_c, 0, 64, 0
2, 133082, Note_on_c, 0, 51, 72
2, 133082, Note_on_c, 0, 56, 74
2, 133082, Note_on_c, 0, 60, 78
2, 133082, Note_on_c, 0, 68, 63
2, 133083, Note_on_c, 0, 63, 78
2, 133111, Note_on_c, 0, 60, 0
2, 133112, Note_on_c, 0, 68, 0
2, 133112, Note_on_c, 0, 56, 0
2, 133112, Note_on_c, 0, 51, 0
2, 133112, Note_on_c, 0, 63, 0
2, 133225, Note_on_c, 0, 43, 0
2, 133226, Note_on_c, 0, 31, 0
2, 133236, Note_on_c, 0, 56, 77
2, 133236, Note_on_c, 0, 68, 71
2, 133237, Note_on_c, 0, 44, 79
2, 133268, Note_on_c, 0, 56, 0
2, 133269, Note_on_c, 0, 68, 0
2, 133270, Note_on_c, 0, 44, 0
2, 133383, Control_c, 0, 64, 127
2, 133422, Note_on_c, 0, 55, 81
2, 133423, Note_on_c, 0, 31, 83
2, 133423, Note_on_c, 0, 43, 79
2, 133561, Note_on_c, 0, 67, 59
2, 133562, Note_on_c, 0, 57, 59
2, 133562, Note_on_c, 0, 60, 59
2, 133563, Note_on_c, 0, 51, 66
2, 133563, Note_on_c, 0, 63, 63
2, 133582, Note_on_c, 0, 60, 0
2, 133582, Note_on_c, 0, 67, 0
2, 133583, Note_on_c, 0, 57, 0
2, 133583, Note_on_c, 0, 51, 0
2, 133584, Note_on_c, 0, 63, 0
2, 133637, Note_on_c, 0, 60, 63
2, 133637, Note_on_c, 0, 67, 57
2, 133638, Note_on_c, 0, 51, 59
2, 133638, Note_on_c, 0, 57, 63
2, 133638, Note_on_c, 0, 63, 60
2, 133641, Control_c, 0, 64, 0
2, 133657, Note_on_c, 0, 67, 0
2, 133658, Note_on_c, 0, 60, 0
2, 133658, Note_on_c, 0, 57, 0
2, 133659, Note_on_c, 0, 63, 0
2, 133659, Note_on_c, 0, 51, 0
2, 133698, Note_on_c, 0, 55, 0
2, 133698, Note_on_c, 0, 43, 0
2, 133699, Note_on_c, 0, 31, 0
2, 133705, Note_on_c, 0, 60, 72
2, 133706, Note_on_c, 0, 67, 75
2, 133707, Note_on_c, 0, 51, 76
2, 133707, Note_on_c, 0, 57, 77
2, 133707, Note_on_c, 0, 63, 75
2, 133738, Note_on_c, 0, 57, 0
2, 133738, Note_on_c, 0, 67, 0
2, 133738, Note_on_c, 0, 60, 0
2, 133739, Note_on_c, 0, 51, 0
2, 133739, Note_on_c, 0, 63, 0
2, 133841, Note_on_c, 0, 57, 77
2, 133851, Note_on_c, 0, 45, 76
2, 133851, Note_on_c, 0, 69, 84
2, 133884, Note_on_c, 0, 69, 0
2, 133884, Note_on_c, 0, 57, 0
2, 133885, Note_on_c, 0, 45, 0
2, 134039, Note_on_c, 0, 51, 84
2, 134040, Note_on_c, 0, 39, 78
2, 134051, Note_on_c, 0, 27, 82
2, 134052, Control_c, 0, 64, 127
2, 134123, Note_on_c, 0, 51, 0
2, 134210, Note_on_c, 0, 60, 63
2, 134210, Note_on_c, 0, 66, 61
2, 134211, Note_on_c, 0, 57, 67
2, 134211, Note_on_c, 0, 63, 62
2, 134212, Note_on_c, 0, 51, 67
2, 134212, Note_on_c, 0, 54, 61
2, 134232, Note_on_c, 0, 66, 0
2, 134232, Note_on_c, 0, 60, 0
2, 134233, Note_on_c, 0, 54, 0
2, 134233, Note_on_c, 0, 57, 0
2, 134233, Note_on_c, 0, 63, 0
2, 134234, Note_on_c, 0, 51, 0
2, 134281, Note_on_c, 0, 60, 65
2, 134281, Note_on_c, 0, 66, 61
2, 134282, Note_on_c, 0, 51, 64
2, 134282, Note_on_c, 0, 54, 62
2, 134282, Note_on_c, 0, 57, 63
2, 134282, Note_on_c, 0, 63, 68
2, 134303, Note_on_c, 0, 66, 0
2, 134303, Note_on_c, 0, 60, 0
2, 134304, Note_on_c, 0, 54, 0
2, 134304, Note_on_c, 0, 63, 0
2, 134304, Note_on_c, 0, 51, 0
2, 134304, Note_on_c, 0, 57, 0
2, 134306, Control_c, 0, 64, 0
2, 134345, Note_on_c, 0, 39, 0
2, 134347, Note_on_c, 0, 27, 0
2, 134351, Note_on_c, 0, 57, 75
2, 134351, Note_on_c, 0, 60, 78
2, 134351, Note_on_c, 0, 66, 78
2, 134352, Note_on_c, 0, 51, 74
2, 134352, Note_on_c, 0, 54, 80
2, 134352, Note_on_c, 0, 63, 81
2, 134381, Note_on_c, 0, 66, 0
2, 134381, Note_on_c, 0, 60, 0
2, 134382, Note_on_c, 0, 51, 0
2, 134382, Note_on_c, 0, 57, 0
2, 134382, Note_on_c, 0, 63, 0
2, 134382, Note_on_c, 0, 54, 0
2, 134482, Note_on_c, 0, 70, 85
2, 134494, Note_on_c, 0, 58, 76
2, 134495, Note_on_c, 0, 46, 80
2, 134516, Note_on_c, 0, 70, 0
2, 134527, Note_on_c, 0, 58, 0
2, 134528, Note_on_c, 0, 46, 0
2, 134660, Note_on_c, 0, 38, 87
2, 134660, Note_on_c, 0, 50, 83
2, 134662, Note_on_c, 0, 26, 83
2, 134672, Control_c, 0, 64, 127
2, 134721, Note_on_c, 0, 50, 0
2, 134813, Note_on_c, 0, 60, 68
2, 134813, Note_on_c, 0, 62, 69
2, 134813, Note_on_c, 0, 66, 72
2, 134814, Note_on_c, 0, 58, 69
2, 134815, Note_on_c, 0, 50, 67
2, 134834, Note_on_c, 0, 66, 0
2, 134834, Note_on_c, 0, 62, 0
2, 134834, Note_on_c, 0, 60, 0
2, 134835, Note_on_c, 0, 58, 0
2, 134836, Note_on_c, 0, 50, 0
2, 134885, Note_on_c, 0, 66, 67
2, 134886, Note_on_c, 0, 58, 71
2, 134886, Note_on_c, 0, 60, 68
2, 134886, Note_on_c, 0, 62, 67
2, 134887, Note_on_c, 0, 50, 67
2, 134906, Note_on_c, 0, 62, 0
2, 134906, Note_on_c, 0, 66, 0
2, 134906, Note_on_c, 0, 60, 0
2, 134907, Note_on_c, 0, 58, 0
2, 134908, Note_on_c, 0, 50, 0
2, 134911, Control_c, 0, 64, 0
2, 134969, Note_on_c, 0, 60, 76
2, 134969, Note_on_c, 0, 62, 76
2, 134969, Note_on_c, 0, 66, 81
2, 134970, Note_on_c, 0, 58, 77
2, 134971, Note_on_c, 0, 50, 80
2, 134993, Note_on_c, 0, 38, 0
2, 134995, Note_on_c, 0, 26, 0
2, 135000, Note_on_c, 0, 60, 0
2, 135000, Note_on_c, 0, 66, 0
2, 135000, Note_on_c, 0, 62, 0
2, 135000, Note_on_c, 0, 58, 0
2, 135001, Note_on_c, 0, 50, 0
2, 135093, Note_on_c, 0, 74, 78
2, 135094, Note_on_c, 0, 62, 74
2, 135096, Note_on_c, 0, 50, 72
2, 135122, Note_on_c, 0, 74, 0
2, 135123, Note_on_c, 0, 62, 0
2, 135125, Note_on_c, 0, 50, 0
2, 135249, Note_on_c, 0, 55, 72
2, 135252, Note_on_c, 0, 31, 72
2, 135260, Note_on_c, 0, 43, 78
2, 135279, Note_on_c, 0, 55, 0
2, 135282, Note_on_c, 0, 31, 0
2, 135289, Note_on_c, 0, 43, 0
2, 135416, Note_on_c, 0, 67, 59
2, 135418, Note_on_c, 0, 55, 63
2, 135418, Note_on_c, 0, 58, 63
2, 135419, Note_on_c, 0, 50, 65
2, 135420, Note_on_c, 0, 43, 62
2, 135438, Note_on_c, 0, 67, 0
2, 135440, Note_on_c, 0, 55, 0
2, 135440, Note_on_c, 0, 58, 0
2, 135441, Note_on_c, 0, 50, 0
2, 135441, Note_on_c, 0, 43, 0
2, 135492, Note_on_c, 0, 67, 60
2, 135493, Note_on_c, 0, 58, 61
2, 135494, Note_on_c, 0, 55, 63
2, 135495, Note_on_c, 0, 43, 66
2, 135495, Note_on_c, 0, 50, 59
2, 135513, Note_on_c, 0, 67, 0
2, 135515, Note_on_c, 0, 58, 0
2, 135515, Note_on_c, 0, 55, 0
2, 135516, Note_on_c, 0, 43, 0
2, 135516, Note_on_c, 0, 50, 0
2, 135578, Note_on_c, 0, 67, 70
2, 135580, Note_on_c, 0, 58, 71
2, 135581, Note_on_c, 0, 50, 66
2, 135581, Note_on_c, 0, 55, 71
2, 135582, Note_on_c, 0, 43, 71
2, 135609, Note_on_c, 0, 67, 0
2, 135610, Note_on_c, 0, 58, 0
2, 135611, Note_on_c, 0, 55, 0
2, 135612, Note_on_c, 0, 50, 0
2, 135612, Note_on_c, 0, 43, 0
2, 135720, Note_on_c, 0, 61, 72
2, 135720, Note_on_c, 0, 63, 68
2, 135720, Note_on_c, 0, 46, 71
2, 135720, Note_on_c, 0, 51, 72
2, 135720, Note_on_c, 0, 55, 67
2, 135741, Note_on_c, 0, 61, 0
2, 135742, Note_on_c, 0, 51, 0
2, 135742, Note_on_c, 0, 63, 0
2, 135742, Note_on_c, 0, 55, 0
2, 135743, Note_on_c, 0, 46, 0
2, 135789, Note_on_c, 0, 61, 65
2, 135790, Note_on_c, 0, 55, 72
2, 135790, Note_on_c, 0, 63, 70
2, 135791, Note_on_c, 0, 46, 68
2, 135791, Note_on_c, 0, 51, 69
2, 135811, Note_on_c, 0, 63, 0
2, 135811, Note_on_c, 0, 61, 0
2, 135811, Note_on_c, 0, 55, 0
2, 135812, Note_on_c, 0, 46, 0
2, 135812, Note_on_c, 0, 51, 0
2, 135870, Note_on_c, 0, 61, 70
2, 135870, Note_on_c, 0, 63, 71
2, 135871, Note_on_c, 0, 51, 70
2, 135871, Note_on_c, 0, 55, 72
2, 135872, Note_on_c, 0, 46, 72
2, 135904, Note_on_c, 0, 55, 0
2, 135904, Note_on_c, 0, 63, 0
2, 135904, Note_on_c, 0, 61, 0
2, 135905, Note_on_c, 0, 51, 0
2, 135905, Note_on_c, 0, 46, 0
2, 136013, Note_on_c, 0, 64, 68
2, 136015, Note_on_c, 0, 61, 71
2, 136016, Note_on_c, 0, 46, 70
2, 136016, Note_on_c, 0, 55, 71
2, 136018, Note_on_c, 0, 34, 65
2, 136045, Note_on_c, 0, 64, 0
2, 136046, Note_on_c, 0, 55, 0
2, 136046, Note_on_c, 0, 61, 0
2, 136048, Note_on_c, 0, 46, 0
2, 136050, Note_on_c, 0, 34, 0
2, 136152, Note_on_c, 0, 50, 66
2, 136152, Note_on_c, 0, 38, 72
2, 136182, Note_on_c, 0, 50, 0
2, 136183, Note_on_c, 0, 38, 0
2, 136306, Note_on_c, 0, 62, 65
2, 136307, Note_on_c, 0, 60, 70
2, 136308, Note_on_c, 0, 54, 68
2, 136309, Note_on_c, 0, 45, 72
2, 136311, Note_on_c, 0, 33, 66
2, 136316, Note_on_c, 0, 66, 71
2, 136337, Note_on_c, 0, 60, 0
2, 136337, Note_on_c, 0, 62, 0
2, 136338, Note_on_c, 0, 54, 0
2, 136340, Note_on_c, 0, 45, 0
2, 136342, Note_on_c, 0, 33, 0
2, 136346, Note_on_c, 0, 66, 0
2, 136411, Control_c, 0, 67, 127
2, 136470, Note_on_c, 0, 43, 71
2, 136482, Note_on_c, 0, 31, 65
2, 136509, Note_on_c, 0, 43, 0
2, 136511, Note_on_c, 0, 31, 0
2, 136584, Note_on_c, 0, 67, 63
2, 136586, Note_on_c, 0, 55, 65
2, 136586, Note_on_c, 0, 58, 61
2, 136588, Note_on_c, 0, 50, 61
2, 136606, Note_on_c, 0, 67, 0
2, 136607, Note_on_c, 0, 55, 0
2, 136607, Note_on_c, 0, 58, 0
2, 136608, Note_on_c, 0, 50, 0
2, 136645, Note_on_c, 0, 50, 59
2, 136645, Note_on_c, 0, 55, 66
2, 136651, Note_on_c, 0, 67, 61
2, 136653, Note_on_c, 0, 58, 59
2, 136672, Note_on_c, 0, 67, 0
2, 136674, Note_on_c, 0, 58, 0
2, 136674, Note_on_c, 0, 55, 0
2, 136675, Note_on_c, 0, 50, 0
2, 136722, Note_on_c, 0, 67, 70
2, 136723, Note_on_c, 0, 55, 65
2, 136723, Note_on_c, 0, 58, 67
2, 136724, Note_on_c, 0, 50, 71
2, 136752, Note_on_c, 0, 67, 0
2, 136753, Note_on_c, 0, 55, 0
2, 136753, Note_on_c, 0, 58, 0
2, 136754, Note_on_c, 0, 50, 0
2, 136859, Note_on_c, 0, 61, 60
2, 136859, Note_on_c, 0, 63, 66
2, 136860, Note_on_c, 0, 46, 63
2, 136860, Note_on_c, 0, 55, 65
2, 136862, Note_on_c, 0, 39, 65
2, 136880, Note_on_c, 0, 55, 0
2, 136880, Note_on_c, 0, 63, 0
2, 136880, Note_on_c, 0, 61, 0
2, 136882, Note_on_c, 0, 46, 0
2, 136883, Note_on_c, 0, 39, 0
2, 136938, Note_on_c, 0, 61, 63
2, 136938, Note_on_c, 0, 63, 60
2, 136939, Note_on_c, 0, 55, 64
2, 136940, Note_on_c, 0, 46, 62
2, 136941, Note_on_c, 0, 39, 65
2, 136958, Note_on_c, 0, 61, 0
2, 136959, Note_on_c, 0, 63, 0
2, 136960, Note_on_c, 0, 55, 0
2, 136961, Note_on_c, 0, 46, 0
2, 136962, Note_on_c, 0, 39, 0
2, 137006, Note_on_c, 0, 61, 70
2, 137006, Note_on_c, 0, 63, 68
2, 137007, Note_on_c, 0, 55, 68
2, 137009, Note_on_c, 0, 46, 72
2, 137010, Note_on_c, 0, 39, 68
2, 137037, Note_on_c, 0, 61, 0
2, 137038, Note_on_c, 0, 63, 0
2, 137038, Note_on_c, 0, 55, 0
2, 137039, Note_on_c, 0, 46, 0
2, 137040, Note_on_c, 0, 39, 0
2, 137159, Note_on_c, 0, 64, 70
2, 137160, Note_on_c, 0, 61, 65
2, 137160, Note_on_c, 0, 55, 71
2, 137164, Note_on_c, 0, 34, 66
2, 137190, Note_on_c, 0, 61, 0
2, 137190, Note_on_c, 0, 64, 0
2, 137191, Note_on_c, 0, 55, 0
2, 137195, Note_on_c, 0, 34, 0
2, 137298, Note_on_c, 0, 38, 70
2, 137328, Note_on_c, 0, 38, 0
2, 137432, Note_on_c, 0, 60, 60
2, 137432, Note_on_c, 0, 62, 61
2, 137432, Note_on_c, 0, 66, 66
2, 137433, Note_on_c, 0, 54, 63
2, 137437, Note_on_c, 0, 33, 61
2, 137464, Note_on_c, 0, 66, 0
2, 137464, Note_on_c, 0, 60, 0
2, 137464, Note_on_c, 0, 62, 0
2, 137466, Note_on_c, 0, 54, 0
2, 137469, Note_on_c, 0, 33, 0
2, 137602, Note_on_c, 0, 31, 64
2, 137655, Note_on_c, 0, 31, 0
2, 137750, Note_on_c, 0, 67, 58
2, 137751, Note_on_c, 0, 58, 55
2, 137752, Note_on_c, 0, 55, 55
2, 137753, Note_on_c, 0, 46, 60
2, 137753, Note_on_c, 0, 50, 59
2, 137754, Note_on_c, 0, 43, 55
2, 137771, Note_on_c, 0, 67, 0
2, 137773, Note_on_c, 0, 58, 0
2, 137773, Note_on_c, 0, 55, 0
2, 137774, Note_on_c, 0, 46, 0
2, 137774, Note_on_c, 0, 50, 0
2, 137775, Note_on_c, 0, 43, 0
2, 137825, Note_on_c, 0, 67, 60
2, 137826, Note_on_c, 0, 58, 54
2, 137827, Note_on_c, 0, 46, 59
2, 137827, Note_on_c, 0, 55, 55
2, 137828, Note_on_c, 0, 43, 59
2, 137828, Note_on_c, 0, 50, 55
2, 137847, Note_on_c, 0, 67, 0
2, 137849, Note_on_c, 0, 55, 0
2, 137849, Note_on_c, 0, 58, 0
2, 137850, Note_on_c, 0, 46, 0
2, 137850, Note_on_c, 0, 50, 0
2, 137850, Note_on_c, 0, 43, 0
2, 137886, Note_on_c, 0, 67, 64
2, 137888, Note_on_c, 0, 58, 62
2, 137889, Note_on_c, 0, 55, 62
2, 137890, Note_on_c, 0, 43, 60
2, 137890, Note_on_c, 0, 46, 59
2, 137890, Note_on_c, 0, 50, 66
2, 137918, Note_on_c, 0, 67, 0
2, 137920, Note_on_c, 0, 58, 0
2, 137920, Note_on_c, 0, 55, 0
2, 137921, Note_on_c, 0, 50, 0
2, 137922, Note_on_c, 0, 46, 0
2, 137922, Note_on_c, 0, 43, 0
2, 137942, Control_c, 0, 67, 0
2, 138053, Note_on_c, 0, 45, 63
2, 138055, Note_on_c, 0, 33, 60
2, 138093, Note_on_c, 0, 45, 0
2, 138105, Note_on_c, 0, 33, 0
2, 138106, Control_c, 0, 64, 127
2, 138111, Note_on_c, 0, 46, 70
2, 138113, Note_on_c, 0, 34, 67
2, 138159, Note_on_c, 0, 50, 75
2, 138160, Note_on_c, 0, 38, 77
2, 138179, Note_on_c, 0, 46, 0
2, 138181, Note_on_c, 0, 34, 0
2, 138192, Control_c, 0, 64, 0
2, 138226, Note_on_c, 0, 50, 0
2, 138228, Note_on_c, 0, 38, 0
2, 138312, Note_on_c, 0, 62, 60
2, 138312, Note_on_c, 0, 58, 62
2, 138314, Note_on_c, 0, 38, 62
2, 138323, Note_on_c, 0, 46, 63
2, 138323, Note_on_c, 0, 50, 65
2, 138323, Note_on_c, 0, 53, 64
2, 138342, Note_on_c, 0, 62, 0
2, 138343, Note_on_c, 0, 58, 0
2, 138354, Note_on_c, 0, 50, 0
2, 138354, Note_on_c, 0, 53, 0
2, 138355, Note_on_c, 0, 46, 0
2, 138356, Note_on_c, 0, 38, 0
2, 138465, Note_on_c, 0, 38, 70
2, 138472, Note_on_c, 0, 60, 70
2, 138472, Note_on_c, 0, 62, 71
2, 138473, Note_on_c, 0, 54, 65
2, 138474, Note_on_c, 0, 45, 72
2, 138474, Note_on_c, 0, 50, 72
2, 138495, Note_on_c, 0, 38, 0
2, 138501, Note_on_c, 0, 60, 0
2, 138501, Note_on_c, 0, 62, 0
2, 138503, Note_on_c, 0, 54, 0
2, 138503, Note_on_c, 0, 50, 0
2, 138504, Note_on_c, 0, 45, 0
2, 138628, Control_c, 0, 67, 127
2, 138770, Note_on_c, 0, 43, 70
2, 138783, Note_on_c, 0, 31, 69
2, 138825, Note_on_c, 0, 43, 0
2, 138838, Note_on_c, 0, 31, 0
2, 138931, Note_on_c, 0, 58, 54
2, 138932, Note_on_c, 0, 46, 60
2, 138932, Note_on_c, 0, 50, 60
2, 138932, Note_on_c, 0, 55, 57
2, 138933, Note_on_c, 0, 43, 55
2, 138951, Note_on_c, 0, 55, 0
2, 138951, Note_on_c, 0, 58, 0
2, 138953, Note_on_c, 0, 46, 0
2, 138953, Note_on_c, 0, 50, 0
2, 138953, Note_on_c, 0, 43, 0
2, 139000, Note_on_c, 0, 58, 58
2, 139001, Note_on_c, 0, 46, 54
2, 139001, Note_on_c, 0, 55, 58
2, 139002, Note_on_c, 0, 43, 53
2, 139002, Note_on_c, 0, 50, 55
2, 139021, Note_on_c, 0, 55, 0
2, 139021, Note_on_c, 0, 58, 0
2, 139022, Note_on_c, 0, 46, 0
2, 139022, Note_on_c, 0, 43, 0
2, 139022, Note_on_c, 0, 50, 0
2, 139070, Note_on_c, 0, 55, 63
2, 139070, Note_on_c, 0, 58, 65
2, 139071, Note_on_c, 0, 46, 64
2, 139071, Note_on_c, 0, 50, 65
2, 139072, Note_on_c, 0, 43, 63
2, 139101, Note_on_c, 0, 58, 0
2, 139101, Note_on_c, 0, 55, 0
2, 139102, Note_on_c, 0, 50, 0
2, 139102, Note_on_c, 0, 46, 0
2, 139103, Note_on_c, 0, 43, 0
2, 139227, Note_on_c, 0, 33, 62
2, 139273, Control_c, 0, 67, 0
2, 139283, Note_on_c, 0, 33, 0
2, 139296, Note_on_c, 0, 34, 70
2, 139309, Control_c, 0, 67, 127
2, 139328, Note_on_c, 0, 34, 0
2, 139358, Note_on_c, 0, 38, 78
2, 139428, Note_on_c, 0, 38, 0
2, 139501, Note_on_c, 0, 46, 55
2, 139501, Note_on_c, 0, 53, 53
2, 139502, Note_on_c, 0, 38, 54
2, 139502, Note_on_c, 0, 50, 53
2, 139532, Note_on_c, 0, 46, 0
2, 139533, Note_on_c, 0, 50, 0
2, 139534, Note_on_c, 0, 38, 0
2, 139561, Note_on_c, 0, 53, 0
2, 139659, Note_on_c, 0, 50, 65
2, 139660, Note_on_c, 0, 38, 66
2, 139667, Note_on_c, 0, 54, 63
2, 139669, Note_on_c, 0, 45, 62
2, 139699, Note_on_c, 0, 50, 0
2, 139700, Note_on_c, 0, 38, 0
2, 139709, Note_on_c, 0, 45, 0
2, 139719, Note_on_c, 0, 54, 0
2, 139949, Note_on_c, 0, 38, 63
2, 139949, Note_on_c, 0, 43, 62
2, 139950, Note_on_c, 0, 31, 62
2, 140001, Note_on_c, 0, 43, 0
2, 140001, Note_on_c, 0, 38, 0
2, 140002, Note_on_c, 0, 31, 0
2, 140083, Note_on_c, 0, 43, 66
2, 140133, Note_on_c, 0, 43, 0
2, 140149, Note_on_c, 0, 45, 63
2, 140210, Note_on_c, 0, 45, 0
2, 140227, Note_on_c, 0, 46, 65
2, 140285, Note_on_c, 0, 50, 59
2, 140287, Note_on_c, 0, 46, 0
2, 140345, Note_on_c, 0, 38, 61
2, 140345, Note_on_c, 0, 45, 66
2, 140346, Note_on_c, 0, 50, 0
2, 140376, Note_on_c, 0, 45, 0
2, 140377, Note_on_c, 0, 38, 0
2, 140414, Note_on_c, 0, 50, 65
2, 140466, Note_on_c, 0, 50, 0
2, 140495, Note_on_c, 0, 55, 41
2, 140505, Note_on_c, 0, 46, 42
2, 140506, Note_on_c, 0, 38, 42
2, 140506, Note_on_c, 0, 43, 44
2, 140507, Note_on_c, 0, 31, 42
2, 140546, Note_on_c, 0, 55, 0
2, 140556, Note_on_c, 0, 50, 64
2, 140558, Note_on_c, 0, 43, 0
2, 140558, Note_on_c, 0, 46, 0
2, 140559, Note_on_c, 0, 38, 0
2, 140560, Note_on_c, 0, 31, 0
2, 140607, Note_on_c, 0, 50, 0
2, 140616, Note_on_c, 0, 43, 61
2, 140625, Note_on_c, 0, 55, 60
2, 140649, Note_on_c, 0, 55, 0
2, 140650, Note_on_c, 0, 43, 0
2, 140710, Note_on_c, 0, 55, 66
2, 140784, Note_on_c, 0, 50, 59
2, 140784, Note_on_c, 0, 58, 54
2, 140805, Note_on_c, 0, 55, 0
2, 140846, Note_on_c, 0, 62, 53
2, 140867, Note_on_c, 0, 58, 0
2, 140868, Note_on_c, 0, 50, 0
2, 140879, Note_on_c, 0, 62, 0
2, 140909, Note_on_c, 0, 54, 58
2, 140909, Note_on_c, 0, 57, 60
2, 140970, Note_on_c, 0, 62, 60
2, 140982, Note_on_c, 0, 57, 0
2, 140982, Note_on_c, 0, 54, 0
2, 141020, Note_on_c, 0, 62, 0
2, 141048, Note_on_c, 0, 67, 59
2, 141058, Note_on_c, 0, 55, 60
2, 141058, Note_on_c, 0, 58, 54
2, 141059, Note_on_c, 0, 43, 60
2, 141059, Note_on_c, 0, 50, 60
2, 141088, Note_on_c, 0, 58, 0
2, 141088, Note_on_c, 0, 55, 0
2, 141089, Note_on_c, 0, 50, 0
2, 141089, Note_on_c, 0, 43, 0
2, 141107, Note_on_c, 0, 62, 56
2, 141108, Note_on_c, 0, 67, 0
2, 141139, Note_on_c, 0, 62, 0
2, 141178, Note_on_c, 0, 67, 66
2, 141200, Note_on_c, 0, 67, 0
2, 141252, Note_on_c, 0, 67, 60
2, 141314, Note_on_c, 0, 67, 0
2, 141323, Note_on_c, 0, 62, 60
2, 141323, Note_on_c, 0, 70, 57
2, 141371, Note_on_c, 0, 62, 0
2, 141381, Note_on_c, 0, 64, 55
2, 141381, Note_on_c, 0, 74, 56
2, 141403, Note_on_c, 0, 70, 0
2, 141413, Note_on_c, 0, 74, 0
2, 141413, Note_on_c, 0, 64, 0
2, 141453, Note_on_c, 0, 66, 55
2, 141453, Note_on_c, 0, 69, 56
2, 141484, Note_on_c, 0, 69, 0
2, 141484, Note_on_c, 0, 66, 0
2, 141504, Note_on_c, 0, 74, 54
2, 141536, Note_on_c, 0, 74, 0
2, 141591, Note_on_c, 0, 67, 58
2, 141591, Note_on_c, 0, 79, 58
2, 141592, Note_on_c, 0, 55, 56
2, 141592, Note_on_c, 0, 62, 60
2, 141592, Note_on_c, 0, 70, 59
2, 141624, Note_on_c, 0, 67, 0
2, 141633, Note_on_c, 0, 79, 0
2, 141634, Note_on_c, 0, 62, 0
2, 141634, Note_on_c, 0, 55, 0
2, 141634, Note_on_c, 0, 70, 0
2, 141663, Note_on_c, 0, 74, 58
2, 141695, Note_on_c, 0, 74, 0
2, 141714, Note_on_c, 0, 79, 59
2, 141735, Note_on_c, 0, 79, 0
2, 141780, Note_on_c, 0, 79, 60
2, 141811, Note_on_c, 0, 79, 0
2, 141827, Note_on_c, 0, 82, 51
2, 141829, Note_on_c, 0, 74, 53
2, 141859, Note_on_c, 0, 82, 0
2, 141880, Note_on_c, 0, 74, 0
2, 141888, Note_on_c, 0, 76, 53
2, 141888, Note_on_c, 0, 86, 49
2, 141920, Note_on_c, 0, 76, 0
2, 141938, Note_on_c, 0, 78, 49
2, 141939, Note_on_c, 0, 81, 50
2, 141940, Note_on_c, 0, 86, 0
2, 141971, Note_on_c, 0, 81, 0
2, 141971, Note_on_c, 0, 78, 0
2, 142002, Note_on_c, 0, 86, 48
2, 142056, Note_on_c, 0, 86, 0
2, 142063, Note_on_c, 0, 67, 51
2, 142063, Note_on_c, 0, 91, 49
2, 142064, Note_on_c, 0, 74, 47
2, 142073, Note_on_c, 0, 79, 49
2, 142073, Note_on_c, 0, 82, 49
2, 142094, Note_on_c, 0, 67, 0
2, 142095, Note_on_c, 0, 74, 0
2, 142104, Note_on_c, 0, 82, 0
2, 142104, Note_on_c, 0, 79, 0
2, 142113, Note_on_c, 0, 91, 0
2, 142407, Note_on_c, 0, 67, 50
2, 142407, Note_on_c, 0, 79, 48
2, 142408, Note_on_c, 0, 55, 45
2, 142408, Note_on_c, 0, 62, 44
2, 142408, Note_on_c, 0, 70, 50
2, 142440, Note_on_c, 0, 70, 0
2, 142440, Note_on_c, 0, 55, 0
2, 142440, Note_on_c, 0, 62, 0
2, 142440, Note_on_c, 0, 67, 0
2, 142461, Note_on_c, 0, 79, 0
2, 142731, Note_on_c, 0, 67, 57
2, 142732, Note_on_c, 0, 43, 50
2, 142732, Note_on_c, 0, 50, 49
2, 142732, Note_on_c, 0, 55, 52
2, 142732, Note_on_c, 0, 58, 47
2, 142761, Note_on_c, 0, 58, 0
2, 142761, Note_on_c, 0, 55, 0
2, 142762, Note_on_c, 0, 50, 0
2, 142762, Note_on_c, 0, 43, 0
2, 142777, Control_c, 0, 67, 0
2, 142779, Note_on_c, 0, 67, 0
2, 142929, Control_c, 0, 64, 127
2, 143139, Note_on_c, 0, 55, 92
2, 143140, Note_on_c, 0, 31, 86
2, 143140, Note_on_c, 0, 43, 93
2, 143161, Control_c, 0, 64, 0
2, 143208, Note_on_c, 0, 43, 0
2, 143208, Note_on_c, 0, 31, 0
2, 143215, Note_on_c, 0, 55, 0
2, 143215, End_track
3, 0, Start_track
3, 1, Copyright_t, "___________________________________________________\012\012KUNSTDERFUGE.COM LARGE CLASSICAL MIDI COLLECTION\012ONCLASSICAL BY ALESSANDRO SIMONETTO, PROPRIETOR\012___________________________________________________\012\012! Attention: this file is under copyright !\012\012(c)onclassical, (nc)smythe, 2010\012___________________________________________________\012\012NO ONE MAY REPUBLISH THIS FILE WITHOUT PERMISSION\012COMMERCIAL USES OF THIS FILE IS STRICTLY PROHIBITED\012___________________________________________________\012\012Files & contributor's list: http://kunstderfuge.com/\012Terms and conditions: http://kunstderfuge.com/notes.htm"
3, 1, End_track
0, 0, End_of_file
